<?xml version="1.0" encoding="utf-8"?>
<!-- Generator: Adobe Illustrator 15.0.0, SVG Export Plug-In . SVG Version: 6.00 Build 0)  -->
<!DOCTYPE svg PUBLIC "-//W3C//DTD SVG 1.1//EN" "http://www.w3.org/Graphics/SVG/1.1/DTD/svg11.dtd">
<svg version="1.1" xmlns="http://www.w3.org/2000/svg" xmlns:xlink="http://www.w3.org/1999/xlink" x="0px" y="0px" width="27.84px"
	 height="27.84px" viewBox="0 0 27.84 27.84" enable-background="new 0 0 27.84 27.84" xml:space="preserve">
<g id="Layer_1">
	<rect x="-101.5" y="-687.476" fill="#F6F7F4" width="996" height="631.445"/>
	<g>
		<defs>
			<rect id="SVGID_1_" x="-101.5" y="-687.475" width="996" height="631.445"/>
		</defs>
		<clipPath id="SVGID_2_">
			<use xlink:href="#SVGID_1_"  overflow="visible"/>
		</clipPath>
		<path clip-path="url(#SVGID_2_)" fill="#CFCFC7" d="M-75.405-293.331c0,0.855-0.694,1.549-1.549,1.549
			c-0.857,0-1.55-0.693-1.55-1.549c0-0.854,0.693-1.549,1.55-1.549C-76.099-294.88-75.405-294.185-75.405-293.331"/>
		<path clip-path="url(#SVGID_2_)" fill="#CFCFC7" d="M10.677-293.331c0,0.855-0.693,1.549-1.55,1.549
			c-0.854,0-1.547-0.693-1.547-1.549c0-0.854,0.693-1.549,1.547-1.549C9.984-294.88,10.677-294.185,10.677-293.331"/>
		<path clip-path="url(#SVGID_2_)" fill="#CFCFC7" d="M96.76-293.331c0,0.855-0.693,1.549-1.549,1.549
			c-0.854,0-1.549-0.693-1.549-1.549c0-0.854,0.695-1.549,1.549-1.549C96.067-294.88,96.76-294.185,96.76-293.331"/>
		<path clip-path="url(#SVGID_2_)" fill="#CFCFC7" d="M182.843-293.331c0,0.855-0.693,1.549-1.55,1.549
			c-0.854,0-1.549-0.693-1.549-1.549c0-0.854,0.695-1.549,1.549-1.549C182.15-294.88,182.843-294.185,182.843-293.331"/>
		<path clip-path="url(#SVGID_2_)" fill="#CFCFC7" d="M268.926-293.331c0,0.855-0.694,1.549-1.55,1.549s-1.549-0.693-1.549-1.549
			c0-0.854,0.693-1.549,1.549-1.549S268.926-294.185,268.926-293.331"/>
		<path clip-path="url(#SVGID_2_)" fill="#CFCFC7" d="M355.01-293.331c0,0.855-0.693,1.549-1.551,1.549
			c-0.855,0-1.549-0.693-1.549-1.549c0-0.854,0.694-1.549,1.549-1.549C354.317-294.88,355.01-294.185,355.01-293.331"/>
		<path clip-path="url(#SVGID_2_)" fill="#CFCFC7" d="M441.093-293.331c0,0.855-0.695,1.549-1.55,1.549
			c-0.857,0-1.551-0.693-1.551-1.549c0-0.854,0.693-1.549,1.551-1.549C440.397-294.88,441.093-294.185,441.093-293.331"/>
		<path clip-path="url(#SVGID_2_)" fill="#CFCFC7" d="M527.176-293.331c0,0.855-0.695,1.549-1.554,1.549
			c-0.853,0-1.546-0.693-1.546-1.549c0-0.854,0.693-1.549,1.546-1.549C526.48-294.88,527.176-294.185,527.176-293.331"/>
		<path clip-path="url(#SVGID_2_)" fill="#CFCFC7" d="M613.255-293.331c0,0.855-0.694,1.549-1.549,1.549s-1.548-0.693-1.548-1.549
			c0-0.854,0.693-1.549,1.548-1.549S613.255-294.185,613.255-293.331"/>
		<path clip-path="url(#SVGID_2_)" fill="#CFCFC7" d="M699.339-293.331c0,0.855-0.691,1.549-1.547,1.549
			c-0.857,0-1.55-0.693-1.55-1.549c0-0.854,0.692-1.549,1.55-1.549C698.647-294.88,699.339-294.185,699.339-293.331"/>
		<path clip-path="url(#SVGID_2_)" fill="#CFCFC7" d="M785.421-293.331c0,0.855-0.691,1.549-1.55,1.549
			c-0.854,0-1.548-0.693-1.548-1.549c0-0.854,0.693-1.549,1.548-1.549C784.729-294.88,785.421-294.185,785.421-293.331"/>
		<path clip-path="url(#SVGID_2_)" fill="#CFCFC7" d="M871.502-293.331c0,0.855-0.689,1.549-1.548,1.549
			c-0.855,0-1.55-0.693-1.55-1.549c0-0.854,0.694-1.549,1.55-1.549C870.812-294.88,871.502-294.185,871.502-293.331"/>
		<path clip-path="url(#SVGID_2_)" fill="#CFCFC7" d="M-75.405-383.719c0,0.857-0.694,1.551-1.549,1.551
			c-0.857,0-1.55-0.694-1.55-1.551c0-0.854,0.693-1.549,1.55-1.549C-76.099-385.268-75.405-384.573-75.405-383.719"/>
		<path clip-path="url(#SVGID_2_)" fill="#CFCFC7" d="M10.677-383.719c0,0.857-0.693,1.551-1.55,1.551
			c-0.854,0-1.547-0.694-1.547-1.551c0-0.854,0.693-1.549,1.547-1.549C9.984-385.268,10.677-384.573,10.677-383.719"/>
		<path clip-path="url(#SVGID_2_)" fill="#CFCFC7" d="M96.76-383.719c0,0.857-0.693,1.551-1.549,1.551
			c-0.854,0-1.549-0.694-1.549-1.551c0-0.854,0.695-1.549,1.549-1.549C96.067-385.268,96.76-384.573,96.76-383.719"/>
		<path clip-path="url(#SVGID_2_)" fill="#CFCFC7" d="M182.843-383.719c0,0.857-0.693,1.551-1.55,1.551
			c-0.854,0-1.549-0.694-1.549-1.551c0-0.854,0.695-1.549,1.549-1.549C182.15-385.268,182.843-384.573,182.843-383.719"/>
		<path clip-path="url(#SVGID_2_)" fill="#CFCFC7" d="M268.926-383.719c0,0.857-0.694,1.551-1.55,1.551s-1.549-0.694-1.549-1.551
			c0-0.854,0.693-1.549,1.549-1.549S268.926-384.573,268.926-383.719"/>
		<path clip-path="url(#SVGID_2_)" fill="#CFCFC7" d="M355.01-383.719c0,0.857-0.693,1.551-1.551,1.551
			c-0.855,0-1.549-0.694-1.549-1.551c0-0.854,0.694-1.549,1.549-1.549C354.317-385.268,355.01-384.573,355.01-383.719"/>
		<path clip-path="url(#SVGID_2_)" fill="#CFCFC7" d="M441.093-383.719c0,0.857-0.695,1.551-1.55,1.551
			c-0.857,0-1.551-0.694-1.551-1.551c0-0.854,0.693-1.549,1.551-1.549C440.397-385.268,441.093-384.573,441.093-383.719"/>
		<path clip-path="url(#SVGID_2_)" fill="#CFCFC7" d="M527.176-383.719c0,0.857-0.695,1.551-1.554,1.551
			c-0.853,0-1.546-0.694-1.546-1.551c0-0.854,0.693-1.549,1.546-1.549C526.48-385.268,527.176-384.573,527.176-383.719"/>
		<path clip-path="url(#SVGID_2_)" fill="#CFCFC7" d="M613.255-383.719c0,0.857-0.694,1.551-1.549,1.551s-1.548-0.694-1.548-1.551
			c0-0.854,0.693-1.549,1.548-1.549S613.255-384.573,613.255-383.719"/>
		<path clip-path="url(#SVGID_2_)" fill="#CFCFC7" d="M699.339-383.719c0,0.857-0.691,1.551-1.547,1.551
			c-0.857,0-1.55-0.694-1.55-1.551c0-0.854,0.692-1.549,1.55-1.549C698.647-385.268,699.339-384.573,699.339-383.719"/>
		<path clip-path="url(#SVGID_2_)" fill="#CFCFC7" d="M785.421-383.719c0,0.857-0.691,1.551-1.55,1.551
			c-0.854,0-1.548-0.694-1.548-1.551c0-0.854,0.693-1.549,1.548-1.549C784.729-385.268,785.421-384.573,785.421-383.719"/>
		<path clip-path="url(#SVGID_2_)" fill="#CFCFC7" d="M871.502-383.719c0,0.857-0.689,1.551-1.548,1.551
			c-0.855,0-1.55-0.694-1.55-1.551c0-0.854,0.694-1.549,1.55-1.549C870.812-385.268,871.502-384.573,871.502-383.719"/>
		<path clip-path="url(#SVGID_2_)" fill="#CFCFC7" d="M-75.405-474.104c0,0.855-0.694,1.549-1.549,1.549
			c-0.857,0-1.55-0.694-1.55-1.549c0-0.857,0.693-1.549,1.55-1.549C-76.099-475.653-75.405-474.961-75.405-474.104"/>
		<path clip-path="url(#SVGID_2_)" fill="#CFCFC7" d="M10.677-474.104c0,0.855-0.693,1.549-1.55,1.549
			c-0.854,0-1.547-0.694-1.547-1.549c0-0.857,0.693-1.549,1.547-1.549C9.984-475.653,10.677-474.961,10.677-474.104"/>
		<path clip-path="url(#SVGID_2_)" fill="#CFCFC7" d="M96.76-474.104c0,0.855-0.693,1.549-1.549,1.549
			c-0.854,0-1.549-0.694-1.549-1.549c0-0.857,0.695-1.549,1.549-1.549C96.067-475.653,96.76-474.961,96.76-474.104"/>
		<path clip-path="url(#SVGID_2_)" fill="#CFCFC7" d="M182.843-474.104c0,0.855-0.693,1.549-1.55,1.549
			c-0.854,0-1.549-0.694-1.549-1.549c0-0.857,0.695-1.549,1.549-1.549C182.15-475.653,182.843-474.961,182.843-474.104"/>
		<path clip-path="url(#SVGID_2_)" fill="#CFCFC7" d="M268.926-474.104c0,0.855-0.694,1.549-1.55,1.549s-1.549-0.694-1.549-1.549
			c0-0.857,0.693-1.549,1.549-1.549S268.926-474.961,268.926-474.104"/>
		<path clip-path="url(#SVGID_2_)" fill="#CFCFC7" d="M355.01-474.104c0,0.855-0.693,1.549-1.551,1.549
			c-0.855,0-1.549-0.694-1.549-1.549c0-0.857,0.694-1.549,1.549-1.549C354.317-475.653,355.01-474.961,355.01-474.104"/>
		<path clip-path="url(#SVGID_2_)" fill="#CFCFC7" d="M441.093-474.104c0,0.855-0.695,1.549-1.55,1.549
			c-0.857,0-1.551-0.694-1.551-1.549c0-0.857,0.693-1.549,1.551-1.549C440.397-475.653,441.093-474.961,441.093-474.104"/>
		<path clip-path="url(#SVGID_2_)" fill="#CFCFC7" d="M527.176-474.104c0,0.855-0.695,1.549-1.554,1.549
			c-0.853,0-1.546-0.694-1.546-1.549c0-0.857,0.693-1.549,1.546-1.549C526.48-475.653,527.176-474.961,527.176-474.104"/>
		<path clip-path="url(#SVGID_2_)" fill="#CFCFC7" d="M613.255-474.104c0,0.855-0.694,1.549-1.549,1.549s-1.548-0.694-1.548-1.549
			c0-0.857,0.693-1.549,1.548-1.549S613.255-474.961,613.255-474.104"/>
		<path clip-path="url(#SVGID_2_)" fill="#CFCFC7" d="M699.339-474.104c0,0.855-0.691,1.549-1.547,1.549
			c-0.857,0-1.55-0.694-1.55-1.549c0-0.857,0.692-1.549,1.55-1.549C698.647-475.653,699.339-474.961,699.339-474.104"/>
		<path clip-path="url(#SVGID_2_)" fill="#CFCFC7" d="M785.421-474.104c0,0.855-0.691,1.549-1.55,1.549
			c-0.854,0-1.548-0.694-1.548-1.549c0-0.857,0.693-1.549,1.548-1.549C784.729-475.653,785.421-474.961,785.421-474.104"/>
		<path clip-path="url(#SVGID_2_)" fill="#CFCFC7" d="M871.502-474.104c0,0.855-0.689,1.549-1.548,1.549
			c-0.855,0-1.55-0.694-1.55-1.549c0-0.857,0.694-1.549,1.55-1.549C870.812-475.653,871.502-474.961,871.502-474.104"/>
		<path clip-path="url(#SVGID_2_)" fill="#CFCFC7" d="M-75.405-564.493c0,0.857-0.694,1.551-1.549,1.551
			c-0.857,0-1.55-0.694-1.55-1.551c0-0.854,0.693-1.549,1.55-1.549C-76.099-566.042-75.405-565.347-75.405-564.493"/>
		<path clip-path="url(#SVGID_2_)" fill="#CFCFC7" d="M10.677-564.493c0,0.857-0.693,1.551-1.55,1.551
			c-0.854,0-1.547-0.694-1.547-1.551c0-0.854,0.693-1.549,1.547-1.549C9.984-566.042,10.677-565.347,10.677-564.493"/>
		<path clip-path="url(#SVGID_2_)" fill="#CFCFC7" d="M96.76-564.493c0,0.857-0.693,1.551-1.549,1.551
			c-0.854,0-1.549-0.694-1.549-1.551c0-0.854,0.695-1.549,1.549-1.549C96.067-566.042,96.76-565.347,96.76-564.493"/>
		<path clip-path="url(#SVGID_2_)" fill="#CFCFC7" d="M182.843-564.493c0,0.857-0.693,1.551-1.55,1.551
			c-0.854,0-1.549-0.694-1.549-1.551c0-0.854,0.695-1.549,1.549-1.549C182.15-566.042,182.843-565.347,182.843-564.493"/>
		<path clip-path="url(#SVGID_2_)" fill="#CFCFC7" d="M268.926-564.493c0,0.857-0.694,1.551-1.55,1.551s-1.549-0.694-1.549-1.551
			c0-0.854,0.693-1.549,1.549-1.549S268.926-565.347,268.926-564.493"/>
		<path clip-path="url(#SVGID_2_)" fill="#CFCFC7" d="M355.01-564.493c0,0.857-0.693,1.551-1.551,1.551
			c-0.855,0-1.549-0.694-1.549-1.551c0-0.854,0.694-1.549,1.549-1.549C354.317-566.042,355.01-565.347,355.01-564.493"/>
		<path clip-path="url(#SVGID_2_)" fill="#CFCFC7" d="M441.093-564.493c0,0.857-0.695,1.551-1.55,1.551
			c-0.857,0-1.551-0.694-1.551-1.551c0-0.854,0.693-1.549,1.551-1.549C440.397-566.042,441.093-565.347,441.093-564.493"/>
		<path clip-path="url(#SVGID_2_)" fill="#CFCFC7" d="M527.176-564.493c0,0.857-0.695,1.551-1.554,1.551
			c-0.853,0-1.546-0.694-1.546-1.551c0-0.854,0.693-1.549,1.546-1.549C526.48-566.042,527.176-565.347,527.176-564.493"/>
		<path clip-path="url(#SVGID_2_)" fill="#CFCFC7" d="M613.255-564.493c0,0.857-0.694,1.551-1.549,1.551s-1.548-0.694-1.548-1.551
			c0-0.854,0.693-1.549,1.548-1.549S613.255-565.347,613.255-564.493"/>
		<path clip-path="url(#SVGID_2_)" fill="#CFCFC7" d="M699.339-564.493c0,0.857-0.691,1.551-1.547,1.551
			c-0.857,0-1.55-0.694-1.55-1.551c0-0.854,0.692-1.549,1.55-1.549C698.647-566.042,699.339-565.347,699.339-564.493"/>
		<path clip-path="url(#SVGID_2_)" fill="#CFCFC7" d="M785.421-564.493c0,0.857-0.691,1.551-1.55,1.551
			c-0.854,0-1.548-0.694-1.548-1.551c0-0.854,0.693-1.549,1.548-1.549C784.729-566.042,785.421-565.347,785.421-564.493"/>
		<path clip-path="url(#SVGID_2_)" fill="#CFCFC7" d="M871.502-564.493c0,0.857-0.689,1.551-1.548,1.551
			c-0.855,0-1.55-0.694-1.55-1.551c0-0.854,0.694-1.549,1.55-1.549C870.812-566.042,871.502-565.347,871.502-564.493"/>
		<path clip-path="url(#SVGID_2_)" fill="#CFCFC7" d="M-75.405-654.879c0,0.855-0.694,1.551-1.549,1.551
			c-0.857,0-1.55-0.696-1.55-1.551s0.693-1.549,1.55-1.549C-76.099-656.428-75.405-655.734-75.405-654.879"/>
		<path clip-path="url(#SVGID_2_)" fill="#CFCFC7" d="M10.677-654.879c0,0.855-0.693,1.551-1.55,1.551
			c-0.854,0-1.547-0.696-1.547-1.551s0.693-1.549,1.547-1.549C9.984-656.428,10.677-655.734,10.677-654.879"/>
		<path clip-path="url(#SVGID_2_)" fill="#CFCFC7" d="M96.76-654.879c0,0.855-0.693,1.551-1.549,1.551
			c-0.854,0-1.549-0.696-1.549-1.551s0.695-1.549,1.549-1.549C96.067-656.428,96.76-655.734,96.76-654.879"/>
		<path clip-path="url(#SVGID_2_)" fill="#CFCFC7" d="M182.843-654.879c0,0.855-0.693,1.551-1.55,1.551
			c-0.854,0-1.549-0.696-1.549-1.551s0.695-1.549,1.549-1.549C182.15-656.428,182.843-655.734,182.843-654.879"/>
		<path clip-path="url(#SVGID_2_)" fill="#CFCFC7" d="M268.926-654.879c0,0.855-0.694,1.551-1.55,1.551s-1.549-0.696-1.549-1.551
			s0.693-1.549,1.549-1.549S268.926-655.734,268.926-654.879"/>
		<path clip-path="url(#SVGID_2_)" fill="#CFCFC7" d="M355.01-654.879c0,0.855-0.693,1.551-1.551,1.551
			c-0.855,0-1.549-0.696-1.549-1.551s0.694-1.549,1.549-1.549C354.317-656.428,355.01-655.734,355.01-654.879"/>
		<path clip-path="url(#SVGID_2_)" fill="#CFCFC7" d="M441.093-654.879c0,0.855-0.695,1.551-1.55,1.551
			c-0.857,0-1.551-0.696-1.551-1.551s0.693-1.549,1.551-1.549C440.397-656.428,441.093-655.734,441.093-654.879"/>
		<path clip-path="url(#SVGID_2_)" fill="#CFCFC7" d="M527.176-654.879c0,0.855-0.695,1.551-1.554,1.551
			c-0.853,0-1.546-0.696-1.546-1.551s0.693-1.549,1.546-1.549C526.48-656.428,527.176-655.734,527.176-654.879"/>
		<path clip-path="url(#SVGID_2_)" fill="#CFCFC7" d="M613.255-654.879c0,0.855-0.694,1.551-1.549,1.551s-1.548-0.696-1.548-1.551
			s0.693-1.549,1.548-1.549S613.255-655.734,613.255-654.879"/>
		<path clip-path="url(#SVGID_2_)" fill="#CFCFC7" d="M699.339-654.879c0,0.855-0.691,1.551-1.547,1.551
			c-0.857,0-1.55-0.696-1.55-1.551s0.692-1.549,1.55-1.549C698.647-656.428,699.339-655.734,699.339-654.879"/>
		<path clip-path="url(#SVGID_2_)" fill="#CFCFC7" d="M785.421-654.879c0,0.855-0.691,1.551-1.55,1.551
			c-0.854,0-1.548-0.696-1.548-1.551s0.693-1.549,1.548-1.549C784.729-656.428,785.421-655.734,785.421-654.879"/>
		<path clip-path="url(#SVGID_2_)" fill="#CFCFC7" d="M871.502-654.879c0,0.855-0.689,1.551-1.548,1.551
			c-0.855,0-1.55-0.696-1.55-1.551s0.694-1.549,1.55-1.549C870.812-656.428,871.502-655.734,871.502-654.879"/>
		<path clip-path="url(#SVGID_2_)" fill="#CFCFC7" d="M-75.405,68.216c0,0.855-0.694,1.551-1.549,1.551
			c-0.857,0-1.55-0.695-1.55-1.551c0-0.854,0.693-1.551,1.55-1.551C-76.099,66.665-75.405,67.361-75.405,68.216"/>
		<path clip-path="url(#SVGID_2_)" fill="#CFCFC7" d="M10.677,68.216c0,0.855-0.693,1.551-1.55,1.551
			c-0.854,0-1.547-0.695-1.547-1.551c0-0.854,0.693-1.551,1.547-1.551C9.984,66.665,10.677,67.361,10.677,68.216"/>
		<path clip-path="url(#SVGID_2_)" fill="#CFCFC7" d="M96.76,68.216c0,0.855-0.693,1.551-1.549,1.551
			c-0.854,0-1.549-0.695-1.549-1.551c0-0.854,0.695-1.551,1.549-1.551C96.067,66.665,96.76,67.361,96.76,68.216"/>
		<path clip-path="url(#SVGID_2_)" fill="#CFCFC7" d="M182.843,68.216c0,0.855-0.693,1.551-1.55,1.551
			c-0.854,0-1.549-0.695-1.549-1.551c0-0.854,0.695-1.551,1.549-1.551C182.15,66.665,182.843,67.361,182.843,68.216"/>
		<path clip-path="url(#SVGID_2_)" fill="#CFCFC7" d="M268.926,68.216c0,0.855-0.694,1.551-1.55,1.551s-1.549-0.695-1.549-1.551
			c0-0.854,0.693-1.551,1.549-1.551S268.926,67.361,268.926,68.216"/>
		<path clip-path="url(#SVGID_2_)" fill="#CFCFC7" d="M355.01,68.216c0,0.855-0.693,1.551-1.551,1.551
			c-0.855,0-1.549-0.695-1.549-1.551c0-0.854,0.694-1.551,1.549-1.551C354.317,66.665,355.01,67.361,355.01,68.216"/>
		<path clip-path="url(#SVGID_2_)" fill="#CFCFC7" d="M441.093,68.216c0,0.855-0.695,1.551-1.55,1.551
			c-0.857,0-1.551-0.695-1.551-1.551c0-0.854,0.693-1.551,1.551-1.551C440.397,66.665,441.093,67.361,441.093,68.216"/>
		<path clip-path="url(#SVGID_2_)" fill="#CFCFC7" d="M527.176,68.216c0,0.855-0.695,1.551-1.554,1.551
			c-0.853,0-1.546-0.695-1.546-1.551c0-0.854,0.693-1.551,1.546-1.551C526.48,66.665,527.176,67.361,527.176,68.216"/>
		<path clip-path="url(#SVGID_2_)" fill="#CFCFC7" d="M613.255,68.216c0,0.855-0.694,1.551-1.549,1.551s-1.548-0.695-1.548-1.551
			c0-0.854,0.693-1.551,1.548-1.551S613.255,67.361,613.255,68.216"/>
		<path clip-path="url(#SVGID_2_)" fill="#CFCFC7" d="M699.339,68.216c0,0.855-0.691,1.551-1.547,1.551
			c-0.857,0-1.55-0.695-1.55-1.551c0-0.854,0.692-1.551,1.55-1.551C698.647,66.665,699.339,67.361,699.339,68.216"/>
		<path clip-path="url(#SVGID_2_)" fill="#CFCFC7" d="M785.421,68.216c0,0.855-0.691,1.551-1.55,1.551
			c-0.854,0-1.548-0.695-1.548-1.551c0-0.854,0.693-1.551,1.548-1.551C784.729,66.665,785.421,67.361,785.421,68.216"/>
		<path clip-path="url(#SVGID_2_)" fill="#CFCFC7" d="M871.502,68.216c0,0.855-0.689,1.551-1.548,1.551
			c-0.855,0-1.55-0.695-1.55-1.551c0-0.854,0.694-1.551,1.55-1.551C870.812,66.665,871.502,67.361,871.502,68.216"/>
		<path clip-path="url(#SVGID_2_)" fill="#CFCFC7" d="M-75.405-22.171c0,0.857-0.694,1.549-1.549,1.549
			c-0.857,0-1.55-0.691-1.55-1.549c0-0.854,0.693-1.549,1.55-1.549C-76.099-23.72-75.405-23.025-75.405-22.171"/>
		<path clip-path="url(#SVGID_2_)" fill="#CFCFC7" d="M10.677-22.171c0,0.857-0.693,1.549-1.55,1.549
			c-0.854,0-1.547-0.691-1.547-1.549c0-0.854,0.693-1.549,1.547-1.549C9.984-23.72,10.677-23.025,10.677-22.171"/>
		<path clip-path="url(#SVGID_2_)" fill="#CFCFC7" d="M96.76-22.171c0,0.857-0.693,1.549-1.549,1.549
			c-0.854,0-1.549-0.691-1.549-1.549c0-0.854,0.695-1.549,1.549-1.549C96.067-23.72,96.76-23.025,96.76-22.171"/>
		<path clip-path="url(#SVGID_2_)" fill="#CFCFC7" d="M182.843-22.171c0,0.857-0.693,1.549-1.55,1.549
			c-0.854,0-1.549-0.691-1.549-1.549c0-0.854,0.695-1.549,1.549-1.549C182.15-23.72,182.843-23.025,182.843-22.171"/>
		<path clip-path="url(#SVGID_2_)" fill="#CFCFC7" d="M268.926-22.171c0,0.857-0.694,1.549-1.55,1.549s-1.549-0.691-1.549-1.549
			c0-0.854,0.693-1.549,1.549-1.549S268.926-23.025,268.926-22.171"/>
		<path clip-path="url(#SVGID_2_)" fill="#CFCFC7" d="M355.01-22.171c0,0.857-0.693,1.549-1.551,1.549
			c-0.855,0-1.549-0.691-1.549-1.549c0-0.854,0.694-1.549,1.549-1.549C354.317-23.72,355.01-23.025,355.01-22.171"/>
		<path clip-path="url(#SVGID_2_)" fill="#CFCFC7" d="M441.093-22.171c0,0.857-0.695,1.549-1.55,1.549
			c-0.857,0-1.551-0.691-1.551-1.549c0-0.854,0.693-1.549,1.551-1.549C440.397-23.72,441.093-23.025,441.093-22.171"/>
		<path clip-path="url(#SVGID_2_)" fill="#CFCFC7" d="M527.176-22.171c0,0.857-0.695,1.549-1.554,1.549
			c-0.853,0-1.546-0.691-1.546-1.549c0-0.854,0.693-1.549,1.546-1.549C526.48-23.72,527.176-23.025,527.176-22.171"/>
		<path clip-path="url(#SVGID_2_)" fill="#CFCFC7" d="M613.255-22.171c0,0.857-0.694,1.549-1.549,1.549s-1.548-0.691-1.548-1.549
			c0-0.854,0.693-1.549,1.548-1.549S613.255-23.025,613.255-22.171"/>
		<path clip-path="url(#SVGID_2_)" fill="#CFCFC7" d="M699.339-22.171c0,0.857-0.691,1.549-1.547,1.549
			c-0.857,0-1.55-0.691-1.55-1.549c0-0.854,0.692-1.549,1.55-1.549C698.647-23.72,699.339-23.025,699.339-22.171"/>
		<path clip-path="url(#SVGID_2_)" fill="#CFCFC7" d="M785.421-22.171c0,0.857-0.691,1.549-1.55,1.549
			c-0.854,0-1.548-0.691-1.548-1.549c0-0.854,0.693-1.549,1.548-1.549C784.729-23.72,785.421-23.025,785.421-22.171"/>
		<path clip-path="url(#SVGID_2_)" fill="#CFCFC7" d="M871.502-22.171c0,0.857-0.689,1.549-1.548,1.549
			c-0.855,0-1.55-0.691-1.55-1.549c0-0.854,0.694-1.549,1.55-1.549C870.812-23.72,871.502-23.025,871.502-22.171"/>
		<path clip-path="url(#SVGID_2_)" fill="#CFCFC7" d="M-75.405-112.558c0,0.855-0.694,1.551-1.549,1.551
			c-0.857,0-1.55-0.695-1.55-1.551s0.693-1.549,1.55-1.549C-76.099-114.106-75.405-113.413-75.405-112.558"/>
		<path clip-path="url(#SVGID_2_)" fill="#CFCFC7" d="M10.677-112.558c0,0.855-0.693,1.551-1.55,1.551
			c-0.854,0-1.547-0.695-1.547-1.551s0.693-1.549,1.547-1.549C9.984-114.106,10.677-113.413,10.677-112.558"/>
		<path clip-path="url(#SVGID_2_)" fill="#CFCFC7" d="M96.76-112.558c0,0.855-0.693,1.551-1.549,1.551
			c-0.854,0-1.549-0.695-1.549-1.551s0.695-1.549,1.549-1.549C96.067-114.106,96.76-113.413,96.76-112.558"/>
		<path clip-path="url(#SVGID_2_)" fill="#CFCFC7" d="M182.843-112.558c0,0.855-0.693,1.551-1.55,1.551
			c-0.854,0-1.549-0.695-1.549-1.551s0.695-1.549,1.549-1.549C182.15-114.106,182.843-113.413,182.843-112.558"/>
		<path clip-path="url(#SVGID_2_)" fill="#CFCFC7" d="M268.926-112.558c0,0.855-0.694,1.551-1.55,1.551s-1.549-0.695-1.549-1.551
			s0.693-1.549,1.549-1.549S268.926-113.413,268.926-112.558"/>
		<path clip-path="url(#SVGID_2_)" fill="#CFCFC7" d="M355.01-112.558c0,0.855-0.693,1.551-1.551,1.551
			c-0.855,0-1.549-0.695-1.549-1.551s0.694-1.549,1.549-1.549C354.317-114.106,355.01-113.413,355.01-112.558"/>
		<path clip-path="url(#SVGID_2_)" fill="#CFCFC7" d="M441.093-112.558c0,0.855-0.695,1.551-1.55,1.551
			c-0.857,0-1.551-0.695-1.551-1.551s0.693-1.549,1.551-1.549C440.397-114.106,441.093-113.413,441.093-112.558"/>
		<path clip-path="url(#SVGID_2_)" fill="#CFCFC7" d="M527.176-112.558c0,0.855-0.695,1.551-1.554,1.551
			c-0.853,0-1.546-0.695-1.546-1.551s0.693-1.549,1.546-1.549C526.48-114.106,527.176-113.413,527.176-112.558"/>
		<path clip-path="url(#SVGID_2_)" fill="#CFCFC7" d="M613.255-112.558c0,0.855-0.694,1.551-1.549,1.551s-1.548-0.695-1.548-1.551
			s0.693-1.549,1.548-1.549S613.255-113.413,613.255-112.558"/>
		<path clip-path="url(#SVGID_2_)" fill="#CFCFC7" d="M699.339-112.558c0,0.855-0.691,1.551-1.547,1.551
			c-0.857,0-1.55-0.695-1.55-1.551s0.692-1.549,1.55-1.549C698.647-114.106,699.339-113.413,699.339-112.558"/>
		<path clip-path="url(#SVGID_2_)" fill="#CFCFC7" d="M785.421-112.558c0,0.855-0.691,1.551-1.55,1.551
			c-0.854,0-1.548-0.695-1.548-1.551s0.693-1.549,1.548-1.549C784.729-114.106,785.421-113.413,785.421-112.558"/>
		<path clip-path="url(#SVGID_2_)" fill="#CFCFC7" d="M871.502-112.558c0,0.855-0.689,1.551-1.548,1.551
			c-0.855,0-1.55-0.695-1.55-1.551s0.694-1.549,1.55-1.549C870.812-114.106,871.502-113.413,871.502-112.558"/>
		<path clip-path="url(#SVGID_2_)" fill="#CFCFC7" d="M-75.405-202.946c0,0.857-0.694,1.551-1.549,1.551
			c-0.857,0-1.55-0.693-1.55-1.551c0-0.854,0.693-1.547,1.55-1.547C-76.099-204.493-75.405-203.8-75.405-202.946"/>
		<path clip-path="url(#SVGID_2_)" fill="#CFCFC7" d="M10.677-202.946c0,0.857-0.693,1.551-1.55,1.551
			c-0.854,0-1.547-0.693-1.547-1.551c0-0.854,0.693-1.547,1.547-1.547C9.984-204.493,10.677-203.8,10.677-202.946"/>
		<path clip-path="url(#SVGID_2_)" fill="#CFCFC7" d="M96.76-202.946c0,0.857-0.693,1.551-1.549,1.551
			c-0.854,0-1.549-0.693-1.549-1.551c0-0.854,0.695-1.547,1.549-1.547C96.067-204.493,96.76-203.8,96.76-202.946"/>
		<path clip-path="url(#SVGID_2_)" fill="#CFCFC7" d="M182.843-202.946c0,0.857-0.693,1.551-1.55,1.551
			c-0.854,0-1.549-0.693-1.549-1.551c0-0.854,0.695-1.547,1.549-1.547C182.15-204.493,182.843-203.8,182.843-202.946"/>
		<path clip-path="url(#SVGID_2_)" fill="#CFCFC7" d="M268.926-202.946c0,0.857-0.694,1.551-1.55,1.551s-1.549-0.693-1.549-1.551
			c0-0.854,0.693-1.547,1.549-1.547S268.926-203.8,268.926-202.946"/>
		<path clip-path="url(#SVGID_2_)" fill="#CFCFC7" d="M355.01-202.946c0,0.857-0.693,1.551-1.551,1.551
			c-0.855,0-1.549-0.693-1.549-1.551c0-0.854,0.694-1.547,1.549-1.547C354.317-204.493,355.01-203.8,355.01-202.946"/>
		<path clip-path="url(#SVGID_2_)" fill="#CFCFC7" d="M441.093-202.946c0,0.857-0.695,1.551-1.55,1.551
			c-0.857,0-1.551-0.693-1.551-1.551c0-0.854,0.693-1.547,1.551-1.547C440.397-204.493,441.093-203.8,441.093-202.946"/>
		<path clip-path="url(#SVGID_2_)" fill="#CFCFC7" d="M527.176-202.946c0,0.857-0.695,1.551-1.554,1.551
			c-0.853,0-1.546-0.693-1.546-1.551c0-0.854,0.693-1.547,1.546-1.547C526.48-204.493,527.176-203.8,527.176-202.946"/>
		<path clip-path="url(#SVGID_2_)" fill="#CFCFC7" d="M613.255-202.946c0,0.857-0.694,1.551-1.549,1.551s-1.548-0.693-1.548-1.551
			c0-0.854,0.693-1.547,1.548-1.547S613.255-203.8,613.255-202.946"/>
		<path clip-path="url(#SVGID_2_)" fill="#CFCFC7" d="M699.339-202.946c0,0.857-0.691,1.551-1.547,1.551
			c-0.857,0-1.55-0.693-1.55-1.551c0-0.854,0.692-1.547,1.55-1.547C698.647-204.493,699.339-203.8,699.339-202.946"/>
		<path clip-path="url(#SVGID_2_)" fill="#CFCFC7" d="M785.421-202.946c0,0.857-0.691,1.551-1.55,1.551
			c-0.854,0-1.548-0.693-1.548-1.551c0-0.854,0.693-1.547,1.548-1.547C784.729-204.493,785.421-203.8,785.421-202.946"/>
		<path clip-path="url(#SVGID_2_)" fill="#CFCFC7" d="M871.502-202.946c0,0.857-0.689,1.551-1.548,1.551
			c-0.855,0-1.55-0.693-1.55-1.551c0-0.854,0.694-1.547,1.55-1.547C870.812-204.493,871.502-203.8,871.502-202.946"/>
	</g>
	<g opacity="0.5">
		<g>
			<defs>
				<rect id="SVGID_3_" x="-100.58" y="-687.475" width="234" height="631.444"/>
			</defs>
			<clipPath id="SVGID_4_">
				<use xlink:href="#SVGID_3_"  overflow="visible"/>
			</clipPath>
			<rect x="-100.58" y="-687.475" clip-path="url(#SVGID_4_)" fill="#9F9B9A" width="234" height="631.445"/>
		</g>
	</g>
	<g opacity="0.5">
		<g>
			<defs>
				<rect id="SVGID_5_" x="660.5" y="-687.475" width="234" height="631.444"/>
			</defs>
			<clipPath id="SVGID_6_">
				<use xlink:href="#SVGID_5_"  overflow="visible"/>
			</clipPath>
			<rect x="660.5" y="-687.476" clip-path="url(#SVGID_6_)" fill="#9F9B9A" width="234" height="631.445"/>
		</g>
	</g>
	<polygon points="421.897,-401.87 371.094,-401.87 378.964,-438.193 371.094,-498.159 397.147,-506.98 421.897,-498.65 
		413.635,-438.645 	"/>
	<polygon fill="none" stroke="#000000" stroke-width="2.519" stroke-miterlimit="10" points="421.897,-401.87 371.094,-401.87 
		378.964,-438.193 371.094,-498.159 397.147,-506.98 421.897,-498.65 413.635,-438.645 	"/>
	
		<polygon fill="none" stroke="#000000" stroke-width="4.045" stroke-linecap="round" stroke-linejoin="round" stroke-miterlimit="10" points="
		421.897,-401.87 371.094,-401.87 378.964,-438.193 371.094,-498.159 397.147,-506.98 421.897,-498.65 413.635,-438.645 	"/>
	<g>
		<defs>
			<rect id="SVGID_7_" x="-131.5" y="-895.89" width="1056" height="1056"/>
		</defs>
		<clipPath id="SVGID_8_">
			<use xlink:href="#SVGID_7_"  overflow="visible"/>
		</clipPath>
		
			<path clip-path="url(#SVGID_8_)" fill="none" stroke="#000000" stroke-width="4.045" stroke-linecap="round" stroke-linejoin="round" stroke-miterlimit="10" d="
			M408.637-529.909c-0.061,9.398-5.263,16.988-11.62,16.947c-6.36-0.043-11.472-7.691-11.415-17.088
			c0.056-9.404,5.254-16.992,11.615-16.953C403.58-546.968,408.693-539.316,408.637-529.909z"/>
		
			<polygon clip-path="url(#SVGID_8_)" fill="none" stroke="#000000" stroke-width="4.045" stroke-linecap="round" stroke-linejoin="round" stroke-miterlimit="10" points="
			403.337,-401.87 421.897,-401.87 421.897,-241.001 408.88,-241.001 408.88,-326.901 		"/>
		
			<polygon clip-path="url(#SVGID_8_)" fill="none" stroke="#000000" stroke-width="4.045" stroke-linecap="round" stroke-linejoin="round" stroke-miterlimit="10" points="
			421.897,-498.651 430.853,-499.573 443.423,-378.137 434.468,-377.212 		"/>
		
			<polygon clip-path="url(#SVGID_8_)" fill="none" stroke="#000000" stroke-width="4.045" stroke-linecap="round" stroke-linejoin="round" stroke-miterlimit="10" points="
			389.658,-401.87 371.102,-401.87 371.102,-241.001 384.116,-241.001 384.116,-326.901 		"/>
		
			<polygon clip-path="url(#SVGID_8_)" fill="none" stroke="#000000" stroke-width="4.045" stroke-linecap="round" stroke-linejoin="round" stroke-miterlimit="10" points="
			371.103,-498.159 362.147,-499.081 349.578,-377.643 358.523,-376.716 		"/>
		
			<polyline clip-path="url(#SVGID_8_)" fill="none" stroke="#101014" stroke-width="2.766" stroke-linecap="round" stroke-linejoin="round" stroke-miterlimit="10" points="
			415.439,-193.647 407.145,-192.737 408.062,-184.45 		"/>
		
			<path clip-path="url(#SVGID_8_)" fill="none" stroke="#101014" stroke-width="2.766" stroke-linecap="round" stroke-linejoin="round" stroke-miterlimit="10" d="
			M407.145-192.737l2.863,2.021c1.914,1.57,3.029,3.465,3.029,5.502c0,5.436-7.941,9.842-17.739,9.842
			c-9.797,0-17.738-4.408-17.738-9.842c0-3.918,4.125-7.301,10.098-8.883"/>
	</g>
	<text transform="matrix(1 0 0 1 -25.3291 -540.8901)"><tspan x="0" y="0" fill="#FFFFFF" font-family="'VarelaRound'" font-size="8.3781">T</tspan><tspan x="4.926" y="0" fill="#FFFFFF" font-family="'VarelaRound'" font-size="8.3781">OP</tspan></text>
	<text transform="matrix(1 0 0 1 42.1147 -540.8901)"><tspan x="0" y="0" fill="#FFFFFF" font-family="'VarelaRound'" font-size="8.3781">B</tspan><tspan x="5.806" y="0" fill="#FFFFFF" font-family="'VarelaRound'" font-size="8.3781">O</tspan><tspan x="12.408" y="0" fill="#FFFFFF" font-family="'VarelaRound'" font-size="8.3781">T</tspan><tspan x="17.527" y="0" fill="#FFFFFF" font-family="'VarelaRound'" font-size="8.3781">T</tspan><tspan x="22.453" y="0" fill="#FFFFFF" font-family="'VarelaRound'" font-size="8.3781">OMS</tspan></text>
	<rect x="723.535" y="-279.42" fill="#DFEBED" width="92.164" height="36.849"/>
	<text transform="matrix(1 0 0 1 751.0312 -256.8174)"><tspan x="0" y="0" fill="#231F20" font-family="'Karla-Bold'" font-size="14.5706">S</tspan><tspan x="9.296" y="0" fill="#231F20" font-family="'Karla-Bold'" font-size="14.5706">A</tspan><tspan x="17.965" y="0" fill="#231F20" font-family="'Karla-Bold'" font-size="14.5706">VE</tspan></text>
	<text transform="matrix(1 0 0 1 750.8691 -312.3486)" fill="#FFFFFF" font-family="'VarelaRound'" font-size="8.3781">SHORTS</text>
	<g>
		<defs>
			<rect id="SVGID_9_" x="-131.5" y="-895.89" width="1056" height="1056"/>
		</defs>
		<clipPath id="SVGID_10_">
			<use xlink:href="#SVGID_9_"  overflow="visible"/>
		</clipPath>
		
			<line clip-path="url(#SVGID_10_)" fill="none" stroke="#FFFFFF" stroke-width="1.676" stroke-miterlimit="10" x1="699.77" y1="-333.909" x2="836.493" y2="-333.909"/>
		<path clip-path="url(#SVGID_10_)" fill="#8BD6A2" d="M723.535-333.909c0,2.061-1.674,3.732-3.734,3.732
			c-2.062,0-3.734-1.672-3.734-3.732c0-2.062,1.672-3.734,3.734-3.734C721.861-337.644,723.535-335.972,723.535-333.909"/>
	</g>
	<text transform="matrix(1 0 0 1 746.751 -357.7559)"><tspan x="0" y="0" fill="#FFFFFF" font-family="'VarelaRound'" font-size="8.3781">N</tspan><tspan x="6.728" y="0" fill="#FFFFFF" font-family="'VarelaRound'" font-size="8.3781">E</tspan><tspan x="12.014" y="0" fill="#FFFFFF" font-family="'VarelaRound'" font-size="8.3781">CKLINE</tspan></text>
	<g>
		<defs>
			<rect id="SVGID_11_" x="-131.5" y="-895.89" width="1056" height="1056"/>
		</defs>
		<clipPath id="SVGID_12_">
			<use xlink:href="#SVGID_11_"  overflow="visible"/>
		</clipPath>
		
			<line clip-path="url(#SVGID_12_)" fill="none" stroke="#FFFFFF" stroke-width="1.676" stroke-miterlimit="10" x1="699.77" y1="-379.317" x2="836.493" y2="-379.317"/>
		<path clip-path="url(#SVGID_12_)" fill="#8BD6A2" d="M777.086-379.317c0,2.063-1.674,3.734-3.734,3.734
			c-2.062,0-3.734-1.671-3.734-3.734c0-2.061,1.672-3.734,3.734-3.734C775.412-383.051,777.086-381.378,777.086-379.317"/>
	</g>
	<text transform="matrix(1 0 0 1 744.3428 -403.1626)" fill="#FFFFFF" font-family="'VarelaRound'" font-size="8.3781">TIGHTNESS</text>
	<g>
		<defs>
			<rect id="SVGID_13_" x="-131.5" y="-895.89" width="1056" height="1056"/>
		</defs>
		<clipPath id="SVGID_14_">
			<use xlink:href="#SVGID_13_"  overflow="visible"/>
		</clipPath>
		
			<line clip-path="url(#SVGID_14_)" fill="none" stroke="#FFFFFF" stroke-width="1.676" stroke-miterlimit="10" x1="699.77" y1="-424.723" x2="836.493" y2="-424.723"/>
		<path clip-path="url(#SVGID_14_)" fill="#8BD6A2" d="M727.27-424.723c0,2.061-1.674,3.734-3.734,3.734
			c-2.062,0-3.734-1.673-3.734-3.734c0-2.063,1.672-3.734,3.734-3.734C725.596-428.457,727.27-426.786,727.27-424.723"/>
	</g>
	<text transform="matrix(1 0 0 1 746.3779 -448.5698)" fill="#FFFFFF" font-family="'VarelaRound'" font-size="8.3781">FULLNESS</text>
	<g>
		<defs>
			<rect id="SVGID_15_" x="-131.5" y="-895.89" width="1056" height="1056"/>
		</defs>
		<clipPath id="SVGID_16_">
			<use xlink:href="#SVGID_15_"  overflow="visible"/>
		</clipPath>
		
			<line clip-path="url(#SVGID_16_)" fill="none" stroke="#FFFFFF" stroke-width="1.676" stroke-miterlimit="10" x1="699.77" y1="-470.131" x2="836.493" y2="-470.131"/>
		<path clip-path="url(#SVGID_16_)" fill="#8BD6A2" d="M840.228-470.131c0,2.063-1.674,3.734-3.734,3.734
			c-2.062,0-3.734-1.671-3.734-3.734c0-2.061,1.672-3.732,3.734-3.732C838.554-473.863,840.228-472.192,840.228-470.131"/>
	</g>
	<text transform="matrix(1 0 0 1 750.8438 -493.9771)" fill="#FFFFFF" font-family="'VarelaRound'" font-size="8.3781">LENGTH</text>
	<g>
		<defs>
			<rect id="SVGID_17_" x="-131.5" y="-895.89" width="1056" height="1056"/>
		</defs>
		<clipPath id="SVGID_18_">
			<use xlink:href="#SVGID_17_"  overflow="visible"/>
		</clipPath>
		
			<line clip-path="url(#SVGID_18_)" fill="none" stroke="#FFFFFF" stroke-width="1.676" stroke-miterlimit="10" x1="699.77" y1="-515.538" x2="836.493" y2="-515.538"/>
		<path clip-path="url(#SVGID_18_)" fill="#8BD6A2" d="M815.699-515.538c0,2.063-1.674,3.734-3.734,3.734
			c-2.062,0-3.734-1.671-3.734-3.734s1.672-3.734,3.734-3.734C814.025-519.271,815.699-517.601,815.699-515.538"/>
		<circle clip-path="url(#SVGID_18_)" fill="none" stroke="#8BD6A2" stroke-miterlimit="10" cx="811.965" cy="-515.538" r="3.734"/>
		<rect x="-50.337" y="-532.528" clip-path="url(#SVGID_18_)" width="65.729" height="65.729"/>
		<polygon clip-path="url(#SVGID_18_)" fill="#FFFFFF" points="-12.858,-501.092 -22.087,-501.092 -20.658,-507.692 
			-22.087,-518.584 -17.354,-520.188 -12.858,-518.674 -14.359,-507.774 		"/>
		<polygon clip-path="url(#SVGID_18_)" fill="none" stroke="#FFFFFF" stroke-width="0.458" stroke-miterlimit="10" points="
			-12.858,-501.092 -22.087,-501.092 -20.658,-507.692 -22.087,-518.584 -17.354,-520.188 -12.858,-518.674 -14.359,-507.774 		"/>
		
			<polygon clip-path="url(#SVGID_18_)" fill="none" stroke="#FFFFFF" stroke-width="0.735" stroke-linecap="round" stroke-linejoin="round" stroke-miterlimit="10" points="
			-12.858,-501.092 -22.087,-501.092 -20.658,-507.692 -22.087,-518.584 -17.354,-520.188 -12.858,-518.674 -14.359,-507.774 		"/>
		
			<ellipse transform="matrix(1 0.006 -0.006 1 -3.1211 0.0941)" clip-path="url(#SVGID_18_)" fill="none" stroke="#FFFFFF" stroke-width="0.735" stroke-linecap="round" stroke-linejoin="round" stroke-miterlimit="10" cx="-17.361" cy="-524.366" rx="2.092" ry="3.091"/>
		
			<polygon clip-path="url(#SVGID_18_)" fill="none" stroke="#FFFFFF" stroke-width="0.735" stroke-linecap="round" stroke-linejoin="round" stroke-miterlimit="10" points="
			-16.23,-501.092 -12.858,-501.092 -12.858,-471.867 -15.224,-471.867 -15.224,-487.473 		"/>
		
			<rect x="-11.721" y="-518.817" transform="matrix(-0.9947 0.1027 -0.1027 -0.9947 -73.8894 -1011.6515)" clip-path="url(#SVGID_18_)" fill="none" stroke="#FFFFFF" stroke-width="0.735" stroke-linecap="round" stroke-linejoin="round" stroke-miterlimit="10" width="1.636" height="22.179"/>
		
			<polygon clip-path="url(#SVGID_18_)" fill="none" stroke="#FFFFFF" stroke-width="0.735" stroke-linecap="round" stroke-linejoin="round" stroke-miterlimit="10" points="
			-18.716,-501.092 -22.087,-501.092 -22.087,-471.867 -19.722,-471.867 -19.722,-487.473 		"/>
		
			<rect x="-24.86" y="-518.727" transform="matrix(0.9947 0.1027 -0.1027 0.9947 -52.2592 -0.2149)" clip-path="url(#SVGID_18_)" fill="none" stroke="#FFFFFF" stroke-width="0.735" stroke-linecap="round" stroke-linejoin="round" stroke-miterlimit="10" width="1.636" height="22.179"/>
		<path clip-path="url(#SVGID_18_)" fill="#FFFFFF" d="M13.392-448.579h-61.73v-16.504h61.73V-448.579z M15.392-467.083h-65.73
			v20.504h65.73V-467.083z"/>
		<rect x="30.605" y="-532.527" clip-path="url(#SVGID_18_)" fill="#FFFFFF" width="65.73" height="65.73"/>
		<polygon clip-path="url(#SVGID_18_)" points="67.973,-501.09 58.744,-501.09 60.173,-507.69 58.744,-518.584 63.476,-520.188 
			67.973,-518.672 66.472,-507.772 		"/>
		<polygon clip-path="url(#SVGID_18_)" fill="none" stroke="#000000" stroke-width="0.458" stroke-miterlimit="10" points="
			67.973,-501.09 58.744,-501.09 60.173,-507.69 58.744,-518.584 63.476,-520.188 67.973,-518.672 66.472,-507.772 		"/>
		
			<polygon clip-path="url(#SVGID_18_)" fill="none" stroke="#000000" stroke-width="0.735" stroke-linecap="round" stroke-linejoin="round" stroke-miterlimit="10" points="
			67.973,-501.09 58.744,-501.09 60.173,-507.69 58.744,-518.584 63.476,-520.188 67.973,-518.672 66.472,-507.772 		"/>
		
			<ellipse transform="matrix(1 0.006 -0.006 1 -3.1189 -0.387)" clip-path="url(#SVGID_18_)" fill="none" stroke="#000000" stroke-width="0.735" stroke-linecap="round" stroke-linejoin="round" stroke-miterlimit="10" cx="63.47" cy="-524.365" rx="2.093" ry="3.091"/>
		
			<polygon clip-path="url(#SVGID_18_)" fill="none" stroke="#000000" stroke-width="0.735" stroke-linecap="round" stroke-linejoin="round" stroke-miterlimit="10" points="
			64.6,-501.09 67.973,-501.09 67.973,-471.865 65.607,-471.865 65.607,-487.471 		"/>
		
			<rect x="69.11" y="-518.815" transform="matrix(-0.9947 0.1027 -0.1027 -0.9947 87.3446 -1019.9485)" clip-path="url(#SVGID_18_)" fill="none" stroke="#000000" stroke-width="0.735" stroke-linecap="round" stroke-linejoin="round" stroke-miterlimit="10" width="1.636" height="22.179"/>
		
			<polygon clip-path="url(#SVGID_18_)" fill="none" stroke="#000000" stroke-width="0.735" stroke-linecap="round" stroke-linejoin="round" stroke-miterlimit="10" points="
			62.115,-501.09 58.745,-501.09 58.745,-471.865 61.108,-471.865 61.108,-487.471 		"/>
		
			<rect x="55.971" y="-518.727" transform="matrix(0.9947 0.1026 -0.1026 0.9947 -51.8012 -8.5093)" clip-path="url(#SVGID_18_)" fill="none" stroke="#000000" stroke-width="0.735" stroke-linecap="round" stroke-linejoin="round" stroke-miterlimit="10" width="1.637" height="22.181"/>
		<path clip-path="url(#SVGID_18_)" fill="#FFFFFF" d="M94.336-448.579h-61.73v-16.504h61.73V-448.579z M96.336-467.083h-65.73
			v20.504h65.73V-467.083z"/>
		
			<line clip-path="url(#SVGID_18_)" fill="none" stroke="#000000" stroke-width="2.304" stroke-miterlimit="10" x1="59.906" y1="-460.395" x2="67.036" y2="-453.266"/>
	</g>
	<text transform="matrix(1 0 0 1 -28.793 -424.3667)" fill="#FFFFFF" font-family="'VarelaRound'" font-size="8.3781">SKIRT</text>
	<text transform="matrix(1 0 0 1 47.5815 -424.3667)"><tspan x="0" y="0" fill="#FFFFFF" font-family="'VarelaRound'" font-size="8.3781">J</tspan><tspan x="3.904" y="0" fill="#FFFFFF" font-family="'VarelaRound'" font-size="8.3781">A</tspan><tspan x="9.635" y="0" fill="#FFFFFF" font-family="'VarelaRound'" font-size="8.3781">CKET</tspan></text>
	<g>
		<defs>
			<rect id="SVGID_19_" x="-131.5" y="-895.89" width="1056" height="1056"/>
		</defs>
		<clipPath id="SVGID_20_">
			<use xlink:href="#SVGID_19_"  overflow="visible"/>
		</clipPath>
		<rect x="-50.337" y="-416.005" clip-path="url(#SVGID_20_)" fill="#FFFFFF" width="65.729" height="65.729"/>
		<polygon clip-path="url(#SVGID_20_)" points="-12.858,-384.571 -22.087,-384.571 -20.658,-391.169 -22.087,-402.061 
			-17.354,-403.667 -12.858,-402.153 -14.359,-391.251 		"/>
		<polygon clip-path="url(#SVGID_20_)" fill="none" stroke="#000000" stroke-width="0.458" stroke-miterlimit="10" points="
			-12.858,-384.571 -22.087,-384.571 -20.658,-391.169 -22.087,-402.061 -17.354,-403.667 -12.858,-402.153 -14.359,-391.251 		"/>
		
			<polygon clip-path="url(#SVGID_20_)" fill="none" stroke="#000000" stroke-width="0.735" stroke-linecap="round" stroke-linejoin="round" stroke-miterlimit="10" points="
			-12.858,-384.571 -22.087,-384.571 -20.658,-391.169 -22.087,-402.061 -17.354,-403.667 -12.858,-402.153 -14.359,-391.251 		"/>
		
			<ellipse transform="matrix(1 0.006 -0.006 1 -2.4276 0.0961)" clip-path="url(#SVGID_20_)" fill="none" stroke="#000000" stroke-width="0.735" stroke-linecap="round" stroke-linejoin="round" stroke-miterlimit="10" cx="-17.361" cy="-407.843" rx="2.092" ry="3.091"/>
		
			<polygon clip-path="url(#SVGID_20_)" fill="none" stroke="#000000" stroke-width="0.735" stroke-linecap="round" stroke-linejoin="round" stroke-miterlimit="10" points="
			-16.23,-384.571 -12.858,-384.571 -12.858,-355.345 -15.224,-355.345 -15.224,-370.95 		"/>
		
			<rect x="-11.721" y="-402.295" transform="matrix(-0.9948 0.1015 -0.1015 -0.9948 -61.462 -779.283)" clip-path="url(#SVGID_20_)" fill="none" stroke="#000000" stroke-width="0.735" stroke-linecap="round" stroke-linejoin="round" stroke-miterlimit="10" width="1.635" height="22.179"/>
		
			<polygon clip-path="url(#SVGID_20_)" fill="none" stroke="#000000" stroke-width="0.735" stroke-linecap="round" stroke-linejoin="round" stroke-miterlimit="10" points="
			-18.716,-384.571 -22.087,-384.571 -22.087,-355.345 -19.722,-355.345 -19.722,-370.95 		"/>
		
			<rect x="-24.86" y="-402.205" transform="matrix(0.9946 0.1039 -0.1039 0.9946 -40.7578 0.3816)" clip-path="url(#SVGID_20_)" fill="none" stroke="#000000" stroke-width="0.735" stroke-linecap="round" stroke-linejoin="round" stroke-miterlimit="10" width="1.636" height="22.181"/>
		<path clip-path="url(#SVGID_20_)" fill="#FFFFFF" d="M13.392-332.058h-61.73v-16.504h61.73V-332.058z M15.392-350.562h-65.73
			v20.504h65.73V-350.562z"/>
		<rect x="30.605" y="-416.003" clip-path="url(#SVGID_20_)" fill="#FFFFFF" width="65.73" height="65.728"/>
		<polygon clip-path="url(#SVGID_20_)" points="67.973,-384.569 58.744,-384.569 60.173,-391.167 58.744,-402.061 63.476,-403.665 
			67.973,-402.149 66.472,-391.251 		"/>
		<polygon clip-path="url(#SVGID_20_)" fill="none" stroke="#000000" stroke-width="0.458" stroke-miterlimit="10" points="
			67.973,-384.569 58.744,-384.569 60.173,-391.167 58.744,-402.061 63.476,-403.665 67.973,-402.149 66.472,-391.251 		"/>
		
			<polygon clip-path="url(#SVGID_20_)" fill="none" stroke="#000000" stroke-width="0.735" stroke-linecap="round" stroke-linejoin="round" stroke-miterlimit="10" points="
			67.973,-384.569 58.744,-384.569 60.173,-391.167 58.744,-402.061 63.476,-403.665 67.973,-402.149 66.472,-391.251 		"/>
		
			<ellipse transform="matrix(1 0.006 -0.006 1 -2.4256 -0.3849)" clip-path="url(#SVGID_20_)" fill="none" stroke="#000000" stroke-width="0.735" stroke-linecap="round" stroke-linejoin="round" stroke-miterlimit="10" cx="63.47" cy="-407.843" rx="2.093" ry="3.093"/>
		
			<polygon clip-path="url(#SVGID_20_)" fill="none" stroke="#000000" stroke-width="0.735" stroke-linecap="round" stroke-linejoin="round" stroke-miterlimit="10" points="
			64.6,-384.569 67.973,-384.569 67.973,-355.343 65.607,-355.343 65.607,-370.948 		"/>
		
			<rect x="69.11" y="-402.293" transform="matrix(-0.9946 0.1039 -0.1039 -0.9946 98.8404 -787.5523)" clip-path="url(#SVGID_20_)" fill="none" stroke="#000000" stroke-width="0.735" stroke-linecap="round" stroke-linejoin="round" stroke-miterlimit="10" width="1.636" height="22.181"/>
		
			<polygon clip-path="url(#SVGID_20_)" fill="none" stroke="#000000" stroke-width="0.735" stroke-linecap="round" stroke-linejoin="round" stroke-miterlimit="10" points="
			62.115,-384.569 58.745,-384.569 58.745,-355.343 61.108,-355.343 61.108,-370.948 		"/>
		
			<rect x="55.971" y="-402.204" transform="matrix(0.9947 0.1026 -0.1026 0.9947 -39.8418 -7.894)" clip-path="url(#SVGID_20_)" fill="none" stroke="#000000" stroke-width="0.735" stroke-linecap="round" stroke-linejoin="round" stroke-miterlimit="10" width="1.637" height="22.181"/>
		<path clip-path="url(#SVGID_20_)" fill="#FFFFFF" d="M94.336-332.056h-61.73v-16.504h61.73V-332.056z M96.336-350.56h-65.73
			v20.504h65.73V-350.56z"/>
	</g>
	<text transform="matrix(1 0 0 1 -30.6279 -307.8447)" fill="#FFFFFF" font-family="'VarelaRound'" font-size="8.3781">DRESS</text>
	<text transform="matrix(1 0 0 1 42.1191 -307.8447)"><tspan x="0" y="0" fill="#FFFFFF" font-family="'VarelaRound'" font-size="8.3781">B</tspan><tspan x="5.806" y="0" fill="#FFFFFF" font-family="'VarelaRound'" font-size="8.3781">O</tspan><tspan x="12.408" y="0" fill="#FFFFFF" font-family="'VarelaRound'" font-size="8.3781">T</tspan><tspan x="17.527" y="0" fill="#FFFFFF" font-family="'VarelaRound'" font-size="8.3781">T</tspan><tspan x="22.445" y="0" fill="#FFFFFF" font-family="'VarelaRound'" font-size="8.3781">OMS</tspan></text>
	<g>
		<defs>
			<rect id="SVGID_21_" x="-131.5" y="-895.89" width="1056" height="1056"/>
		</defs>
		<clipPath id="SVGID_22_">
			<use xlink:href="#SVGID_21_"  overflow="visible"/>
		</clipPath>
		<rect x="-50.337" y="-299.481" clip-path="url(#SVGID_22_)" fill="#FFFFFF" width="65.729" height="65.729"/>
		<polygon clip-path="url(#SVGID_22_)" points="-12.858,-268.048 -22.087,-268.048 -20.658,-274.646 -22.087,-285.54 
			-17.354,-287.144 -12.858,-285.63 -14.359,-274.729 		"/>
		<polygon clip-path="url(#SVGID_22_)" fill="none" stroke="#000000" stroke-width="0.458" stroke-miterlimit="10" points="
			-12.858,-268.048 -22.087,-268.048 -20.658,-274.646 -22.087,-285.54 -17.354,-287.144 -12.858,-285.63 -14.359,-274.729 		"/>
		
			<polygon clip-path="url(#SVGID_22_)" fill="none" stroke="#000000" stroke-width="0.735" stroke-linecap="round" stroke-linejoin="round" stroke-miterlimit="10" points="
			-12.858,-268.048 -22.087,-268.048 -20.658,-274.646 -22.087,-285.54 -17.354,-287.144 -12.858,-285.63 -14.359,-274.729 		"/>
		
			<ellipse transform="matrix(1 0.0056 -0.0056 1 -1.6321 0.0927)" clip-path="url(#SVGID_22_)" fill="none" stroke="#000000" stroke-width="0.735" stroke-linecap="round" stroke-linejoin="round" stroke-miterlimit="10" cx="-17.361" cy="-291.321" rx="2.092" ry="3.092"/>
		
			<polygon clip-path="url(#SVGID_22_)" fill="none" stroke="#000000" stroke-width="0.735" stroke-linecap="round" stroke-linejoin="round" stroke-miterlimit="10" points="
			-16.23,-268.048 -12.858,-268.048 -12.858,-238.821 -15.224,-238.821 -15.224,-254.427 		"/>
		
			<rect x="-11.721" y="-285.773" transform="matrix(-0.9947 0.1027 -0.1027 -0.9947 -49.9566 -546.7924)" clip-path="url(#SVGID_22_)" fill="none" stroke="#000000" stroke-width="0.735" stroke-linecap="round" stroke-linejoin="round" stroke-miterlimit="10" width="1.636" height="22.181"/>
		
			<polygon clip-path="url(#SVGID_22_)" fill="none" stroke="#000000" stroke-width="0.735" stroke-linecap="round" stroke-linejoin="round" stroke-miterlimit="10" points="
			-18.716,-268.048 -22.087,-268.048 -22.087,-238.821 -19.722,-238.821 -19.722,-254.427 		"/>
		
			<rect x="-24.86" y="-285.683" transform="matrix(0.9947 0.1027 -0.1027 0.9947 -28.3265 1.0172)" clip-path="url(#SVGID_22_)" fill="none" stroke="#000000" stroke-width="0.735" stroke-linecap="round" stroke-linejoin="round" stroke-miterlimit="10" width="1.636" height="22.18"/>
		<path clip-path="url(#SVGID_22_)" fill="#FFFFFF" d="M13.392-215.534h-61.73v-16.505h61.73V-215.534z M15.392-234.038h-65.73
			v20.505h65.73V-234.038z"/>
		<rect x="30.605" y="-299.48" clip-path="url(#SVGID_22_)" fill="#FFFFFF" width="65.73" height="65.729"/>
		<polygon clip-path="url(#SVGID_22_)" points="67.973,-268.046 58.744,-268.046 60.173,-274.644 58.744,-285.538 63.476,-287.142 
			67.973,-285.626 66.472,-274.728 		"/>
		<polygon clip-path="url(#SVGID_22_)" fill="none" stroke="#000000" stroke-width="0.458" stroke-miterlimit="10" points="
			67.973,-268.046 58.744,-268.046 60.173,-274.644 58.744,-285.538 63.476,-287.142 67.973,-285.626 66.472,-274.728 		"/>
		
			<polygon clip-path="url(#SVGID_22_)" fill="none" stroke="#000000" stroke-width="0.735" stroke-linecap="round" stroke-linejoin="round" stroke-miterlimit="10" points="
			67.973,-268.046 58.744,-268.046 60.173,-274.644 58.744,-285.538 63.476,-287.142 67.973,-285.626 66.472,-274.728 		"/>
		
			<ellipse transform="matrix(1 0.0061 -0.0061 1 -1.7662 -0.3904)" clip-path="url(#SVGID_22_)" fill="none" stroke="#000000" stroke-width="0.735" stroke-linecap="round" stroke-linejoin="round" stroke-miterlimit="10" cx="63.47" cy="-291.32" rx="2.093" ry="3.093"/>
		
			<polygon clip-path="url(#SVGID_22_)" fill="none" stroke="#000000" stroke-width="0.735" stroke-linecap="round" stroke-linejoin="round" stroke-miterlimit="10" points="
			64.6,-268.046 67.973,-268.046 67.973,-238.818 65.607,-238.818 65.607,-254.425 		"/>
		
			<rect x="69.11" y="-285.77" transform="matrix(-0.9946 0.1039 -0.1039 -0.9946 110.9444 -555.1373)" clip-path="url(#SVGID_22_)" fill="none" stroke="#000000" stroke-width="0.735" stroke-linecap="round" stroke-linejoin="round" stroke-miterlimit="10" width="1.636" height="22.18"/>
		
			<polygon clip-path="url(#SVGID_22_)" fill="none" stroke="#000000" stroke-width="0.735" stroke-linecap="round" stroke-linejoin="round" stroke-miterlimit="10" points="
			62.115,-268.046 58.745,-268.046 58.745,-238.818 61.108,-238.818 61.108,-254.425 		"/>
		
			<rect x="55.971" y="-285.681" transform="matrix(0.9947 0.1026 -0.1026 0.9947 -27.8825 -7.2786)" clip-path="url(#SVGID_22_)" fill="none" stroke="#000000" stroke-width="0.735" stroke-linecap="round" stroke-linejoin="round" stroke-miterlimit="10" width="1.637" height="22.181"/>
		<path clip-path="url(#SVGID_22_)" fill="#FFFFFF" d="M94.336-215.534h-61.73v-16.503h61.73V-215.534z M96.336-234.036h-65.73
			v20.503h65.73V-234.036z"/>
		<polyline clip-path="url(#SVGID_22_)" fill="none" stroke="#101014" stroke-width="2.304" stroke-miterlimit="10" points="
			-23.921,-457.512 -20.47,-454.061 -14.022,-460.51 		"/>
		
			<line clip-path="url(#SVGID_22_)" fill="none" stroke="#101014" stroke-width="2.304" stroke-miterlimit="10" x1="59.793" y1="-453.379" x2="66.922" y2="-460.508"/>
		
			<line clip-path="url(#SVGID_22_)" fill="none" stroke="#101014" stroke-width="2.304" stroke-miterlimit="10" x1="59.906" y1="-343.872" x2="67.036" y2="-336.743"/>
		
			<line clip-path="url(#SVGID_22_)" fill="none" stroke="#101014" stroke-width="2.304" stroke-miterlimit="10" x1="59.793" y1="-336.856" x2="66.922" y2="-343.985"/>
		
			<line clip-path="url(#SVGID_22_)" fill="none" stroke="#101014" stroke-width="2.304" stroke-miterlimit="10" x1="-20.982" y1="-343.872" x2="-13.853" y2="-336.743"/>
		
			<line clip-path="url(#SVGID_22_)" fill="none" stroke="#101014" stroke-width="2.304" stroke-miterlimit="10" x1="-21.096" y1="-336.856" x2="-13.967" y2="-343.985"/>
		<polyline clip-path="url(#SVGID_22_)" fill="none" stroke="#101014" stroke-width="2.304" stroke-miterlimit="10" points="
			-23.921,-224.468 -20.47,-221.017 -14.022,-227.464 		"/>
		
			<line clip-path="url(#SVGID_22_)" fill="none" stroke="#101014" stroke-width="2.304" stroke-miterlimit="10" x1="59.906" y1="-227.351" x2="67.036" y2="-220.22"/>
		
			<line clip-path="url(#SVGID_22_)" fill="none" stroke="#101014" stroke-width="2.304" stroke-miterlimit="10" x1="59.793" y1="-220.335" x2="66.922" y2="-227.464"/>
		
			<circle clip-path="url(#SVGID_22_)" fill="none" stroke="#101014" stroke-width="1.44" stroke-linecap="round" stroke-linejoin="round" stroke-miterlimit="10" cx="510.137" cy="-96.413" r="13.2"/>
		
			<line clip-path="url(#SVGID_22_)" fill="none" stroke="#101014" stroke-width="1.44" stroke-linecap="round" stroke-linejoin="round" stroke-miterlimit="10" x1="501.754" y1="-96.413" x2="518.521" y2="-96.413"/>
		
			<polyline clip-path="url(#SVGID_22_)" fill="none" stroke="#101014" stroke-width="1.44" stroke-linecap="round" stroke-linejoin="round" stroke-miterlimit="10" points="
			514.13,-92.03 518.521,-96.421 514.13,-100.801 		"/>
		
			<circle clip-path="url(#SVGID_22_)" fill="none" stroke="#101014" stroke-width="1.44" stroke-linecap="round" stroke-linejoin="round" stroke-miterlimit="10" cx="283.228" cy="-96.411" r="13.2"/>
		
			<line clip-path="url(#SVGID_22_)" fill="none" stroke="#101014" stroke-width="1.44" stroke-linecap="round" stroke-linejoin="round" stroke-miterlimit="10" x1="291.612" y1="-96.411" x2="274.844" y2="-96.411"/>
		
			<polyline clip-path="url(#SVGID_22_)" fill="none" stroke="#101014" stroke-width="1.44" stroke-linecap="round" stroke-linejoin="round" stroke-miterlimit="10" points="
			279.235,-100.794 274.844,-96.403 279.235,-92.021 		"/>
		<path clip-path="url(#SVGID_22_)" fill="#FFFFFF" d="M856.857-638.29c6.135,16.57-2.324,34.975-18.895,41.111
			c-16.568,6.135-34.975-2.326-41.107-18.894c-6.135-16.569,2.323-34.975,18.892-41.11
			C832.316-663.316,850.723-654.859,856.857-638.29"/>
		<path clip-path="url(#SVGID_22_)" fill="#CFCFC7" d="M824.117-630.584c0,0.529-0.423,0.953-0.953,0.953
			c-0.593,0-0.975-0.381-0.975-0.953v-0.637c0-1.396-0.084-4.279-3.283-4.279h-4.388v4.916c0,0.529-0.445,0.953-0.975,0.953
			s-0.953-0.424-0.953-0.953v-12.969c0-0.529,0.424-0.974,0.953-0.974h4.938c4.025,0,5.763,1.863,5.763,4.301
			c0,1.632-0.911,3.201-2.775,3.836c2.353,0.613,2.647,3.644,2.647,4.83V-630.584z M822.316-640.079
			c0-1.568-0.931-2.629-4.067-2.629h-3.73v5.385h3.836C820.728-637.323,822.316-638.275,822.316-640.079"/>
		<path clip-path="url(#SVGID_22_)" fill="#CFCFC7" d="M823.948-613.754c0,2.396-2.142,4.133-5.426,4.133
			c-2.118,0-3.815-0.488-5.043-1.016c-0.317-0.127-0.595-0.488-0.595-0.869c0-0.467,0.34-0.891,0.869-0.891
			c0.129,0,0.256,0.022,0.403,0.084c0.953,0.426,2.353,0.87,4.173,0.87c2.099,0,3.71-0.592,3.71-2.436
			c0-3.139-9.006-1.4-9.006-6.613c0-2.354,1.907-4.342,5.488-4.342c1.651,0,3.072,0.273,4.216,0.699
			c0.297,0.104,0.594,0.338,0.594,0.846c0,0.424-0.318,0.89-0.848,0.89c-0.105,0-0.232-0.043-0.338-0.084
			c-0.976-0.339-2.12-0.574-3.412-0.574c-2.141,0-3.771,0.828-3.771,2.418C814.964-616.973,823.948-619.348,823.948-613.754"/>
		<path clip-path="url(#SVGID_22_)" fill="#CFCFC7" d="M843.801-637.133c-0.085,4.43-2.924,7.609-7.438,7.609
			c-4.536,0-7.353-3.179-7.439-7.609c0.087-4.428,2.903-7.607,7.439-7.607C840.877-644.74,843.716-641.562,843.801-637.133
			 M841.871-637.133c0-3.264-2.011-5.807-5.508-5.807c-3.519,0-5.512,2.543-5.512,5.807s1.993,5.807,5.512,5.807
			C839.86-631.326,841.871-633.869,841.871-637.133"/>
		<path clip-path="url(#SVGID_22_)" fill="#CFCFC7" d="M841.545-610.723c0,0.51-0.403,0.891-0.911,0.891h-8.498
			c-0.53,0-0.955-0.424-0.955-0.953v-12.864c0-0.531,0.425-0.974,0.955-0.974h8.498c0.508,0,0.911,0.402,0.911,0.91
			c0,0.508-0.403,0.89-0.911,0.89h-7.524v4.682h6.762c0.508,0,0.911,0.404,0.911,0.912c0,0.508-0.403,0.891-0.911,0.891h-6.762
			v4.705h7.524C841.142-611.633,841.545-611.233,841.545-610.723"/>
		
			<line clip-path="url(#SVGID_22_)" fill="none" stroke="#101014" stroke-width="0.5" stroke-miterlimit="10" x1="306.5" y1="-632.639" x2="486.5" y2="-632.639"/>
	</g>
	<text transform="matrix(1 0 0 1 283.6997 -644.8545)"><tspan x="0" y="0" fill="#101014" font-family="'Garamond'" font-size="14.1985" letter-spacing="3">G</tspan><tspan x="14" y="0" fill="#101014" font-family="'Garamond'" font-size="14.1985" letter-spacing="2">OO</tspan><tspan x="41.836" y="0" fill="#101014" font-family="'Garamond'" font-size="14.1985" letter-spacing="2">G</tspan><tspan x="55.381" y="0" fill="#101014" font-family="'Garamond'" font-size="14.1985" letter-spacing="3">L</tspan><tspan x="66.666" y="0" fill="#101014" font-family="'Garamond'" font-size="14.1985" letter-spacing="2">E </tspan><tspan x="85.184" y="0" fill="#101014" font-family="'Garamond'" font-size="14.1985" letter-spacing="2">+ </tspan><tspan x="103.876" y="0" fill="#101014" font-family="'Garamond'" font-size="14.1985" letter-spacing="1">F</tspan><tspan x="113.808" y="0" fill="#101014" font-family="'Garamond'" font-size="14.1985" letter-spacing="3">A</tspan><tspan x="126.562" y="0" fill="#101014" font-family="'Garamond'" font-size="14.1985" letter-spacing="2">S</tspan><tspan x="136.003" y="0" fill="#101014" font-family="'Garamond'" font-size="14.1985" letter-spacing="3">H</tspan><tspan x="149.951" y="0" fill="#101014" font-family="'Garamond'" font-size="14.1985" letter-spacing="2">I</tspan><tspan x="157.461" y="0" fill="#101014" font-family="'Garamond'" font-size="14.1985" letter-spacing="2">O</tspan><tspan x="171.138" y="0" fill="#101014" font-family="'Garamond'" font-size="14.1985" letter-spacing="2">N</tspan><tspan x="184.924" y="0" fill="#101014" font-family="'Garamond'" font-size="14.1985" letter-spacing="2"> </tspan><tspan x="191.3" y="0" fill="#101014" font-family="'Garamond'" font-size="14.1985" letter-spacing="3">2</tspan><tspan x="201.037" y="0" fill="#101014" font-family="'Garamond'" font-size="14.1985" letter-spacing="2">0</tspan><tspan x="210.276" y="0" fill="#101014" font-family="'Garamond'" font-size="14.1985" letter-spacing="1">1</tspan><tspan x="218.834" y="0" fill="#101014" font-family="'Garamond'" font-size="14.1985">4</tspan></text>
	<text transform="matrix(1 0 0 1 316.7705 -609.7368)"><tspan x="0" y="0" fill="#101014" font-family="'Karla-Regular'" font-size="14" letter-spacing="2">COLL</tspan><tspan x="41.93" y="0" fill="#101014" font-family="'Karla-Regular'" font-size="14" letter-spacing="2">E</tspan><tspan x="52.583" y="0" fill="#101014" font-family="'Karla-Regular'" font-size="14" letter-spacing="2">CT</tspan><tspan x="73.779" y="0" fill="#101014" font-family="'Karla-Regular'" font-size="14" letter-spacing="2">ION</tspan><tspan x="104.691" y="0" fill="#101014" font-family="'Karla-Regular'" font-size="14" letter-spacing="2"> </tspan><tspan x="110.823" y="0" fill="#101014" font-family="'Karla-Regular'" font-size="14" letter-spacing="2">NA</tspan><tspan x="134.035" y="0" fill="#101014" font-family="'Karla-Regular'" font-size="14" letter-spacing="2">M</tspan><tspan x="148.707" y="0" fill="#101014" font-family="'Karla-Regular'" font-size="14">E</tspan></text>
	<text transform="matrix(1 0 0 1 350.8325 -82.6924)"><tspan x="0" y="0" fill="#101014" font-family="'Karla-Regular'" font-size="14" letter-spacing="2">G</tspan><tspan x="11.774" y="0" fill="#101014" font-family="'Karla-Regular'" font-size="14" letter-spacing="2">A</tspan><tspan x="22.428" y="0" fill="#101014" font-family="'Karla-Regular'" font-size="14" letter-spacing="2">R</tspan><tspan x="33.417" y="0" fill="#101014" font-family="'Karla-Regular'" font-size="14" letter-spacing="2">M</tspan><tspan x="47.753" y="0" fill="#101014" font-family="'Karla-Regular'" font-size="14" letter-spacing="2">E</tspan><tspan x="57.931" y="0" fill="#101014" font-family="'Karla-Regular'" font-size="14" letter-spacing="2">NT</tspan><tspan x="80.023" y="0" fill="#101014" font-family="'Karla-Regular'" font-size="14">S</tspan></text>
	<g>
		<defs>
			<rect id="SVGID_23_" x="-131.5" y="-895.89" width="1056" height="1056"/>
		</defs>
		<clipPath id="SVGID_24_">
			<use xlink:href="#SVGID_23_"  overflow="visible"/>
		</clipPath>
		
			<circle clip-path="url(#SVGID_24_)" fill="none" stroke="#101014" stroke-width="1.44" stroke-linecap="round" stroke-linejoin="round" stroke-miterlimit="10" cx="356.545" cy="-110.202" r="3.354"/>
		
			<circle clip-path="url(#SVGID_24_)" fill="none" stroke="#101014" stroke-width="1.44" stroke-linecap="round" stroke-linejoin="round" stroke-miterlimit="10" cx="372.527" cy="-110.202" r="3.354"/>
		<path clip-path="url(#SVGID_24_)" fill="#F61816" d="M388.508-106.849c-1.852,0-3.352-1.502-3.352-3.354s1.5-3.354,3.352-3.354
			c1.854,0,3.354,1.502,3.354,3.354S390.362-106.849,388.508-106.849"/>
		<circle clip-path="url(#SVGID_24_)" fill="none" stroke="#F61816" stroke-miterlimit="10" cx="388.508" cy="-110.202" r="3.354"/>
		
			<circle clip-path="url(#SVGID_24_)" fill="none" stroke="#101014" stroke-width="1.44" stroke-linecap="round" stroke-linejoin="round" stroke-miterlimit="10" cx="404.49" cy="-110.202" r="3.354"/>
		
			<circle clip-path="url(#SVGID_24_)" fill="none" stroke="#101014" stroke-width="1.44" stroke-linecap="round" stroke-linejoin="round" stroke-miterlimit="10" cx="420.471" cy="-110.202" r="3.354"/>
		
			<circle clip-path="url(#SVGID_24_)" fill="none" stroke="#101014" stroke-width="1.44" stroke-linecap="round" stroke-linejoin="round" stroke-miterlimit="10" cx="436.453" cy="-110.202" r="3.354"/>
	</g>
	<text transform="matrix(1 0 0 1 -88.4883 -68.4561)"><tspan x="0" y="0" fill="#404D4F" font-family="'Karla-Bold'" font-size="10">Google | Privacy &amp; </tspan><tspan x="89.679" y="0" fill="#404D4F" font-family="'Karla-Bold'" font-size="10">T</tspan><tspan x="94.168" y="0" fill="#404D4F" font-family="'Karla-Bold'" font-size="10">erms</tspan></text>
	<text transform="matrix(1 0 0 1 29.9019 -68.4561)" fill="#404D4F" font-family="'Karla-Bold'" font-size="10"> | Logout</text>
	<g>
		<defs>
			<rect id="SVGID_25_" x="-131.5" y="-895.89" width="1056" height="1056"/>
		</defs>
		<clipPath id="SVGID_26_">
			<use xlink:href="#SVGID_25_"  overflow="visible"/>
		</clipPath>
		
			<line clip-path="url(#SVGID_26_)" fill="none" stroke="#101014" stroke-width="1.44" stroke-linecap="round" stroke-linejoin="round" stroke-miterlimit="10" x1="396.5" y1="-624.835" x2="396.5" y2="-741.89"/>
	</g>
	<text transform="matrix(1 0 0 1 350.7979 -788.6401)"><tspan x="0" y="0" fill="#101014" font-family="'VarelaRound'" font-size="10.9061">DISPL</tspan><tspan x="31.583" y="0" fill="#101014" font-family="'VarelaRound'" font-size="10.9061">A</tspan><tspan x="38.498" y="0" fill="#101014" font-family="'VarelaRound'" font-size="10.9061">Y</tspan><tspan x="45.445" y="0" fill="#101014" font-family="'VarelaRound'" font-size="10.9061">S USERS</tspan></text>
	<text transform="matrix(1 0 0 1 350.209 -775.5527)" fill="#101014" font-family="'VarelaRound'" font-size="10.9061">INPUTTED NAME</text>
	<g display="none">
		<defs>
			<rect id="SVGID_27_" x="-3388.54" y="-895.89" width="8645.261" height="2170.439"/>
		</defs>
		<clipPath id="SVGID_28_" display="inline">
			<use xlink:href="#SVGID_27_"  overflow="visible"/>
		</clipPath>
		<path display="inline" clip-path="url(#SVGID_28_)" fill-rule="evenodd" clip-rule="evenodd" fill="#FF0000" d="M824.491,160.11
			H881.5v-1056h-57.009V160.11z M741.509,160.11h56.979v-1056h-56.979V160.11z M658.498,160.11h57.008v-1056h-57.008V160.11z
			 M575.514,160.11h56.981v-1056h-56.981V160.11z M492.504,160.11h57.009v-1056h-57.009V160.11z M409.493,160.11h57.008v-1056
			h-57.008V160.11z M326.51,160.11h56.98v-1056h-56.98V160.11z M243.499,160.11h57.008v-1056h-57.008V160.11z M160.488,160.11
			h57.008v-1056h-57.008V160.11z M77.506,160.11h56.98v-1056h-56.98V160.11z M-5.506,160.11h57.008v-1056H-5.506V160.11z
			 M-88.488,160.11h56.979v-1056h-56.979V160.11z"/>
	</g>
	<polygon points="-63.366,201.395 -72.595,201.395 -71.166,194.795 -72.595,183.9 -67.863,182.297 -63.366,183.812 -64.867,194.713 
			"/>
	<polygon fill="none" stroke="#000000" stroke-width="0.458" stroke-miterlimit="10" points="-63.366,201.395 -72.595,201.395 
		-71.166,194.795 -72.595,183.9 -67.863,182.297 -63.366,183.812 -64.867,194.713 	"/>
	
		<polygon fill="none" stroke="#000000" stroke-width="0.735" stroke-linecap="round" stroke-linejoin="round" stroke-miterlimit="10" points="
		-63.366,201.395 -72.595,201.395 -71.166,194.795 -72.595,183.9 -67.863,182.297 -63.366,183.812 -64.867,194.713 	"/>
	
		<ellipse transform="matrix(1 0.0058 -0.0058 1 1.038 0.399)" fill="none" stroke="#000000" stroke-width="0.735" stroke-linecap="round" stroke-linejoin="round" stroke-miterlimit="10" cx="-67.869" cy="178.121" rx="2.092" ry="3.09"/>
	
		<polygon fill="none" stroke="#000000" stroke-width="0.735" stroke-linecap="round" stroke-linejoin="round" stroke-miterlimit="10" points="
		-66.739,201.395 -63.366,201.395 -63.366,230.62 -65.731,230.62 -65.731,215.014 	"/>
	
		<rect x="-62.229" y="183.67" transform="matrix(-0.9947 0.1027 -0.1027 -0.9947 -102.4967 394.7955)" fill="none" stroke="#000000" stroke-width="0.735" stroke-linecap="round" stroke-linejoin="round" stroke-miterlimit="10" width="1.636" height="22.179"/>
	
		<polygon fill="none" stroke="#000000" stroke-width="0.735" stroke-linecap="round" stroke-linejoin="round" stroke-miterlimit="10" points="
		-69.224,201.395 -72.594,201.395 -72.594,230.62 -70.23,230.62 -70.23,215.014 	"/>
	
		<rect x="-75.368" y="183.757" transform="matrix(0.9947 0.1026 -0.1026 0.9947 19.6045 8.6803)" fill="none" stroke="#000000" stroke-width="0.735" stroke-linecap="round" stroke-linejoin="round" stroke-miterlimit="10" width="1.637" height="22.181"/>
	<path fill="#101014" d="M13.92,27.42c-7.444,0-13.5-6.056-13.5-13.499c0-7.444,6.056-13.501,13.5-13.501
		c7.444,0,13.5,6.057,13.5,13.501C27.42,21.364,21.364,27.42,13.92,27.42z M13.92,1.816c-6.674,0-12.104,5.431-12.104,12.104
		c0,6.673,5.429,12.103,12.104,12.103c6.674,0,12.103-5.43,12.103-12.103C26.023,7.247,20.594,1.816,13.92,1.816z"/>
	<path fill="#101014" d="M22.304,14.641H5.536c-0.397,0-0.72-0.322-0.72-0.72s0.323-0.72,0.72-0.72h16.768
		c0.397,0,0.72,0.322,0.72,0.72S22.702,14.641,22.304,14.641z"/>
	<path fill="#101014" d="M9.927,19.031c-0.184,0-0.368-0.07-0.509-0.21l-4.391-4.383c-0.135-0.135-0.211-0.318-0.211-0.51
		c0-0.19,0.076-0.374,0.211-0.509l4.391-4.391c0.281-0.281,0.737-0.281,1.019,0s0.281,0.736,0,1.018l-3.882,3.882l3.881,3.873
		c0.281,0.281,0.282,0.737,0.001,1.019C10.296,18.961,10.112,19.031,9.927,19.031z"/>
	<path fill="#101014" d="M105.549,21.223c-0.696,0-1.295-0.523-1.373-1.23l-0.918-8.287c-0.041-0.365,0.066-0.73,0.295-1.018
		c0.229-0.286,0.563-0.47,0.928-0.51l8.295-0.91c0.759-0.077,1.442,0.464,1.525,1.225c0.083,0.759-0.464,1.441-1.224,1.525
		l-6.919,0.759l0.766,6.911c0.084,0.759-0.463,1.442-1.222,1.527C105.651,21.22,105.6,21.223,105.549,21.223z"/>
	<path fill="#101014" d="M92.787,30.301c-10.722,0-19.121-4.931-19.121-11.225c0-4.486,4.263-8.401,11.126-10.22
		c0.737-0.194,1.495,0.245,1.691,0.982c0.195,0.738-0.245,1.496-0.983,1.691c-5.509,1.459-9.069,4.421-9.069,7.546
		c0,4.585,7.49,8.459,16.355,8.459s16.355-3.874,16.355-8.459c0-1.952-1.373-3.488-2.523-4.433l-2.784-1.961
		c-0.624-0.44-0.772-1.304-0.332-1.928c0.441-0.625,1.304-0.771,1.928-0.332l2.863,2.021c2.392,1.958,3.614,4.23,3.614,6.632
		C111.908,25.37,103.509,30.301,92.787,30.301z"/>
	<polygon fill="#101014" points="150.579,20.654 146.313,16.389 147.942,14.76 150.579,17.396 156.212,11.764 157.841,13.393 	"/>
	
		<rect x="176.24" y="14.146" transform="matrix(0.7072 0.7071 -0.7071 0.7072 63.9036 -123.6962)" fill="#101014" width="10.082" height="2.304"/>
	
		<rect x="180.015" y="10.144" transform="matrix(0.7071 0.7071 -0.7071 0.7071 63.7997 -123.6569)" fill="#101014" width="2.304" height="10.082"/>
	<g>
		<path fill="#FFFFFF" d="M-39.499,273.667c6.135,16.57-2.324,34.974-18.895,41.11c-16.568,6.135-34.975-2.326-41.107-18.894
			c-6.135-16.568,2.323-34.974,18.892-41.108C-64.04,248.641-45.634,257.098-39.499,273.667"/>
		<path fill="#CFCFC7" d="M-72.239,281.372c0,0.529-0.423,0.953-0.953,0.953c-0.593,0-0.975-0.381-0.975-0.953v-0.637
			c0-1.396-0.084-4.279-3.283-4.279h-4.388v4.916c0,0.529-0.445,0.953-0.975,0.953s-0.953-0.424-0.953-0.953v-12.968
			c0-0.529,0.424-0.975,0.953-0.975h4.938c4.025,0,5.763,1.862,5.763,4.3c0,1.633-0.911,3.201-2.775,3.836
			c2.353,0.613,2.647,3.645,2.647,4.83V281.372z M-74.04,271.878c0-1.568-0.931-2.629-4.067-2.629h-3.73v5.385h3.836
			C-75.629,274.634-74.04,273.681-74.04,271.878"/>
		<path fill="#CFCFC7" d="M-72.408,298.202c0,2.396-2.142,4.132-5.426,4.132c-2.118,0-3.815-0.488-5.043-1.016
			c-0.317-0.127-0.595-0.487-0.595-0.868c0-0.467,0.34-0.891,0.869-0.891c0.129,0,0.256,0.021,0.403,0.084
			c0.953,0.426,2.353,0.869,4.173,0.869c2.099,0,3.71-0.592,3.71-2.436c0-3.139-9.006-1.4-9.006-6.613
			c0-2.354,1.907-4.342,5.488-4.342c1.651,0,3.072,0.273,4.216,0.699c0.297,0.104,0.594,0.338,0.594,0.846
			c0,0.424-0.318,0.891-0.848,0.891c-0.105,0-0.232-0.043-0.338-0.084c-0.976-0.34-2.12-0.574-3.412-0.574
			c-2.141,0-3.771,0.828-3.771,2.418C-81.393,294.983-72.408,292.608-72.408,298.202"/>
		<path fill="#CFCFC7" d="M-52.556,274.823c-0.085,4.43-2.924,7.609-7.438,7.609c-4.536,0-7.353-3.18-7.439-7.609
			c0.087-4.428,2.903-7.606,7.439-7.606C-55.479,267.217-52.641,270.396-52.556,274.823 M-54.485,274.823
			c0-3.264-2.011-5.807-5.508-5.807c-3.519,0-5.512,2.543-5.512,5.807s1.993,5.807,5.512,5.807
			C-56.496,280.63-54.485,278.087-54.485,274.823"/>
		<path fill="#CFCFC7" d="M-54.812,301.232c0,0.51-0.403,0.891-0.911,0.891h-8.498c-0.53,0-0.955-0.424-0.955-0.953v-12.862
			c0-0.531,0.425-0.975,0.955-0.975h8.498c0.508,0,0.911,0.402,0.911,0.91s-0.403,0.891-0.911,0.891h-7.524v4.682h6.762
			c0.508,0,0.911,0.404,0.911,0.912s-0.403,0.891-0.911,0.891h-6.762v4.705h7.524C-55.215,300.323-54.812,300.724-54.812,301.232"/>
	</g>
</g>
<g id="Layer_2">
	<rect x="-101.5" y="-687.476" fill="none" width="996" height="631.446"/>
	<rect x="133.42" y="-687.475" fill="none" stroke="#F6F7F4" stroke-miterlimit="10" width="527.08" height="631.444"/>
</g>
</svg>
