<?xml version="1.0" encoding="utf-8"?>
<!-- Generator: Adobe Illustrator 15.0.0, SVG Export Plug-In . SVG Version: 6.00 Build 0)  -->
<!DOCTYPE svg PUBLIC "-//W3C//DTD SVG 1.1//EN" "http://www.w3.org/Graphics/SVG/1.1/DTD/svg11.dtd">
<svg version="1.1" xmlns="http://www.w3.org/2000/svg" xmlns:xlink="http://www.w3.org/1999/xlink" x="0px" y="0px"
	 width="11.976px" height="10.091px" viewBox="0 0 11.976 10.091" enable-background="new 0 0 11.976 10.091" xml:space="preserve">
<g id="Layer_1">
	<rect x="-246.583" y="-695.086" fill="#F6F7F4" width="996" height="631.445"/>
	<g>
		<defs>
			<rect id="SVGID_1_" x="-246.583" y="-695.085" width="996" height="631.445"/>
		</defs>
		<clipPath id="SVGID_2_">
			<use xlink:href="#SVGID_1_"  overflow="visible"/>
		</clipPath>
		<path clip-path="url(#SVGID_2_)" fill="#CFCFC7" d="M-220.489-300.941c0,0.855-0.694,1.549-1.549,1.549
			c-0.857,0-1.55-0.693-1.55-1.549c0-0.854,0.693-1.549,1.55-1.549C-221.183-302.49-220.489-301.795-220.489-300.941"/>
		<path clip-path="url(#SVGID_2_)" fill="#CFCFC7" d="M-134.407-300.941c0,0.855-0.693,1.549-1.55,1.549
			c-0.854,0-1.547-0.693-1.547-1.549c0-0.854,0.693-1.549,1.547-1.549C-135.1-302.49-134.407-301.795-134.407-300.941"/>
		<path clip-path="url(#SVGID_2_)" fill="#CFCFC7" d="M-48.324-300.941c0,0.855-0.693,1.549-1.549,1.549
			c-0.854,0-1.549-0.693-1.549-1.549c0-0.854,0.695-1.549,1.549-1.549C-49.017-302.49-48.324-301.795-48.324-300.941"/>
		<path clip-path="url(#SVGID_2_)" fill="#CFCFC7" d="M37.759-300.941c0,0.855-0.693,1.549-1.55,1.549
			c-0.854,0-1.549-0.693-1.549-1.549c0-0.854,0.695-1.549,1.549-1.549C37.066-302.49,37.759-301.795,37.759-300.941"/>
		<path clip-path="url(#SVGID_2_)" fill="#CFCFC7" d="M123.842-300.941c0,0.855-0.694,1.549-1.55,1.549s-1.549-0.693-1.549-1.549
			c0-0.854,0.693-1.549,1.549-1.549S123.842-301.795,123.842-300.941"/>
		<path clip-path="url(#SVGID_2_)" fill="#CFCFC7" d="M209.926-300.941c0,0.855-0.693,1.549-1.551,1.549
			c-0.855,0-1.549-0.693-1.549-1.549c0-0.854,0.694-1.549,1.549-1.549C209.233-302.49,209.926-301.795,209.926-300.941"/>
		<path clip-path="url(#SVGID_2_)" fill="#CFCFC7" d="M296.009-300.941c0,0.855-0.695,1.549-1.55,1.549
			c-0.857,0-1.551-0.693-1.551-1.549c0-0.854,0.693-1.549,1.551-1.549C295.314-302.49,296.009-301.795,296.009-300.941"/>
		<path clip-path="url(#SVGID_2_)" fill="#CFCFC7" d="M382.092-300.941c0,0.855-0.695,1.549-1.554,1.549
			c-0.853,0-1.546-0.693-1.546-1.549c0-0.854,0.693-1.549,1.546-1.549C381.397-302.49,382.092-301.795,382.092-300.941"/>
		<path clip-path="url(#SVGID_2_)" fill="#CFCFC7" d="M468.171-300.941c0,0.855-0.694,1.549-1.549,1.549s-1.548-0.693-1.548-1.549
			c0-0.854,0.693-1.549,1.548-1.549S468.171-301.795,468.171-300.941"/>
		<path clip-path="url(#SVGID_2_)" fill="#CFCFC7" d="M554.255-300.941c0,0.855-0.691,1.549-1.547,1.549
			c-0.857,0-1.55-0.693-1.55-1.549c0-0.854,0.692-1.549,1.55-1.549C553.564-302.49,554.255-301.795,554.255-300.941"/>
		<path clip-path="url(#SVGID_2_)" fill="#CFCFC7" d="M640.337-300.941c0,0.855-0.691,1.549-1.55,1.549
			c-0.854,0-1.548-0.693-1.548-1.549c0-0.854,0.693-1.549,1.548-1.549C639.646-302.49,640.337-301.795,640.337-300.941"/>
		<path clip-path="url(#SVGID_2_)" fill="#CFCFC7" d="M726.418-300.941c0,0.855-0.689,1.549-1.548,1.549
			c-0.855,0-1.55-0.693-1.55-1.549c0-0.854,0.694-1.549,1.55-1.549C725.729-302.49,726.418-301.795,726.418-300.941"/>
		<path clip-path="url(#SVGID_2_)" fill="#CFCFC7" d="M-220.489-391.33c0,0.857-0.694,1.551-1.549,1.551
			c-0.857,0-1.55-0.694-1.55-1.551c0-0.854,0.693-1.549,1.55-1.549C-221.183-392.878-220.489-392.184-220.489-391.33"/>
		<path clip-path="url(#SVGID_2_)" fill="#CFCFC7" d="M-134.407-391.33c0,0.857-0.693,1.551-1.55,1.551
			c-0.854,0-1.547-0.694-1.547-1.551c0-0.854,0.693-1.549,1.547-1.549C-135.1-392.878-134.407-392.184-134.407-391.33"/>
		<path clip-path="url(#SVGID_2_)" fill="#CFCFC7" d="M-48.324-391.33c0,0.857-0.693,1.551-1.549,1.551
			c-0.854,0-1.549-0.694-1.549-1.551c0-0.854,0.695-1.549,1.549-1.549C-49.017-392.878-48.324-392.184-48.324-391.33"/>
		<path clip-path="url(#SVGID_2_)" fill="#CFCFC7" d="M37.759-391.33c0,0.857-0.693,1.551-1.55,1.551
			c-0.854,0-1.549-0.694-1.549-1.551c0-0.854,0.695-1.549,1.549-1.549C37.066-392.878,37.759-392.184,37.759-391.33"/>
		<path clip-path="url(#SVGID_2_)" fill="#CFCFC7" d="M123.842-391.33c0,0.857-0.694,1.551-1.55,1.551s-1.549-0.694-1.549-1.551
			c0-0.854,0.693-1.549,1.549-1.549S123.842-392.184,123.842-391.33"/>
		<path clip-path="url(#SVGID_2_)" fill="#CFCFC7" d="M209.926-391.33c0,0.857-0.693,1.551-1.551,1.551
			c-0.855,0-1.549-0.694-1.549-1.551c0-0.854,0.694-1.549,1.549-1.549C209.233-392.878,209.926-392.184,209.926-391.33"/>
		<path clip-path="url(#SVGID_2_)" fill="#CFCFC7" d="M296.009-391.33c0,0.857-0.695,1.551-1.55,1.551
			c-0.857,0-1.551-0.694-1.551-1.551c0-0.854,0.693-1.549,1.551-1.549C295.314-392.878,296.009-392.184,296.009-391.33"/>
		<path clip-path="url(#SVGID_2_)" fill="#CFCFC7" d="M382.092-391.33c0,0.857-0.695,1.551-1.554,1.551
			c-0.853,0-1.546-0.694-1.546-1.551c0-0.854,0.693-1.549,1.546-1.549C381.397-392.878,382.092-392.184,382.092-391.33"/>
		<path clip-path="url(#SVGID_2_)" fill="#CFCFC7" d="M468.171-391.33c0,0.857-0.694,1.551-1.549,1.551s-1.548-0.694-1.548-1.551
			c0-0.854,0.693-1.549,1.548-1.549S468.171-392.184,468.171-391.33"/>
		<path clip-path="url(#SVGID_2_)" fill="#CFCFC7" d="M554.255-391.33c0,0.857-0.691,1.551-1.547,1.551
			c-0.857,0-1.55-0.694-1.55-1.551c0-0.854,0.692-1.549,1.55-1.549C553.564-392.878,554.255-392.184,554.255-391.33"/>
		<path clip-path="url(#SVGID_2_)" fill="#CFCFC7" d="M640.337-391.33c0,0.857-0.691,1.551-1.55,1.551
			c-0.854,0-1.548-0.694-1.548-1.551c0-0.854,0.693-1.549,1.548-1.549C639.646-392.878,640.337-392.184,640.337-391.33"/>
		<path clip-path="url(#SVGID_2_)" fill="#CFCFC7" d="M726.418-391.33c0,0.857-0.689,1.551-1.548,1.551
			c-0.855,0-1.55-0.694-1.55-1.551c0-0.854,0.694-1.549,1.55-1.549C725.729-392.878,726.418-392.184,726.418-391.33"/>
		<path clip-path="url(#SVGID_2_)" fill="#CFCFC7" d="M-220.489-481.714c0,0.855-0.694,1.549-1.549,1.549
			c-0.857,0-1.55-0.694-1.55-1.549c0-0.857,0.693-1.549,1.55-1.549C-221.183-483.263-220.489-482.571-220.489-481.714"/>
		<path clip-path="url(#SVGID_2_)" fill="#CFCFC7" d="M-134.407-481.714c0,0.855-0.693,1.549-1.55,1.549
			c-0.854,0-1.547-0.694-1.547-1.549c0-0.857,0.693-1.549,1.547-1.549C-135.1-483.263-134.407-482.571-134.407-481.714"/>
		<path clip-path="url(#SVGID_2_)" fill="#CFCFC7" d="M-48.324-481.714c0,0.855-0.693,1.549-1.549,1.549
			c-0.854,0-1.549-0.694-1.549-1.549c0-0.857,0.695-1.549,1.549-1.549C-49.017-483.263-48.324-482.571-48.324-481.714"/>
		<path clip-path="url(#SVGID_2_)" fill="#CFCFC7" d="M37.759-481.714c0,0.855-0.693,1.549-1.55,1.549
			c-0.854,0-1.549-0.694-1.549-1.549c0-0.857,0.695-1.549,1.549-1.549C37.066-483.263,37.759-482.571,37.759-481.714"/>
		<path clip-path="url(#SVGID_2_)" fill="#CFCFC7" d="M123.842-481.714c0,0.855-0.694,1.549-1.55,1.549s-1.549-0.694-1.549-1.549
			c0-0.857,0.693-1.549,1.549-1.549S123.842-482.571,123.842-481.714"/>
		<path clip-path="url(#SVGID_2_)" fill="#CFCFC7" d="M209.926-481.714c0,0.855-0.693,1.549-1.551,1.549
			c-0.855,0-1.549-0.694-1.549-1.549c0-0.857,0.694-1.549,1.549-1.549C209.233-483.263,209.926-482.571,209.926-481.714"/>
		<path clip-path="url(#SVGID_2_)" fill="#CFCFC7" d="M296.009-481.714c0,0.855-0.695,1.549-1.55,1.549
			c-0.857,0-1.551-0.694-1.551-1.549c0-0.857,0.693-1.549,1.551-1.549C295.314-483.263,296.009-482.571,296.009-481.714"/>
		<path clip-path="url(#SVGID_2_)" fill="#CFCFC7" d="M382.092-481.714c0,0.855-0.695,1.549-1.554,1.549
			c-0.853,0-1.546-0.694-1.546-1.549c0-0.857,0.693-1.549,1.546-1.549C381.397-483.263,382.092-482.571,382.092-481.714"/>
		<path clip-path="url(#SVGID_2_)" fill="#CFCFC7" d="M468.171-481.714c0,0.855-0.694,1.549-1.549,1.549s-1.548-0.694-1.548-1.549
			c0-0.857,0.693-1.549,1.548-1.549S468.171-482.571,468.171-481.714"/>
		<path clip-path="url(#SVGID_2_)" fill="#CFCFC7" d="M554.255-481.714c0,0.855-0.691,1.549-1.547,1.549
			c-0.857,0-1.55-0.694-1.55-1.549c0-0.857,0.692-1.549,1.55-1.549C553.564-483.263,554.255-482.571,554.255-481.714"/>
		<path clip-path="url(#SVGID_2_)" fill="#CFCFC7" d="M640.337-481.714c0,0.855-0.691,1.549-1.55,1.549
			c-0.854,0-1.548-0.694-1.548-1.549c0-0.857,0.693-1.549,1.548-1.549C639.646-483.263,640.337-482.571,640.337-481.714"/>
		<path clip-path="url(#SVGID_2_)" fill="#CFCFC7" d="M726.418-481.714c0,0.855-0.689,1.549-1.548,1.549
			c-0.855,0-1.55-0.694-1.55-1.549c0-0.857,0.694-1.549,1.55-1.549C725.729-483.263,726.418-482.571,726.418-481.714"/>
		<path clip-path="url(#SVGID_2_)" fill="#CFCFC7" d="M-220.489-572.103c0,0.857-0.694,1.551-1.549,1.551
			c-0.857,0-1.55-0.694-1.55-1.551c0-0.854,0.693-1.549,1.55-1.549C-221.183-573.652-220.489-572.957-220.489-572.103"/>
		<path clip-path="url(#SVGID_2_)" fill="#CFCFC7" d="M-134.407-572.103c0,0.857-0.693,1.551-1.55,1.551
			c-0.854,0-1.547-0.694-1.547-1.551c0-0.854,0.693-1.549,1.547-1.549C-135.1-573.652-134.407-572.957-134.407-572.103"/>
		<path clip-path="url(#SVGID_2_)" fill="#CFCFC7" d="M-48.324-572.103c0,0.857-0.693,1.551-1.549,1.551
			c-0.854,0-1.549-0.694-1.549-1.551c0-0.854,0.695-1.549,1.549-1.549C-49.017-573.652-48.324-572.957-48.324-572.103"/>
		<path clip-path="url(#SVGID_2_)" fill="#CFCFC7" d="M37.759-572.103c0,0.857-0.693,1.551-1.55,1.551
			c-0.854,0-1.549-0.694-1.549-1.551c0-0.854,0.695-1.549,1.549-1.549C37.066-573.652,37.759-572.957,37.759-572.103"/>
		<path clip-path="url(#SVGID_2_)" fill="#CFCFC7" d="M123.842-572.103c0,0.857-0.694,1.551-1.55,1.551s-1.549-0.694-1.549-1.551
			c0-0.854,0.693-1.549,1.549-1.549S123.842-572.957,123.842-572.103"/>
		<path clip-path="url(#SVGID_2_)" fill="#CFCFC7" d="M209.926-572.103c0,0.857-0.693,1.551-1.551,1.551
			c-0.855,0-1.549-0.694-1.549-1.551c0-0.854,0.694-1.549,1.549-1.549C209.233-573.652,209.926-572.957,209.926-572.103"/>
		<path clip-path="url(#SVGID_2_)" fill="#CFCFC7" d="M296.009-572.103c0,0.857-0.695,1.551-1.55,1.551
			c-0.857,0-1.551-0.694-1.551-1.551c0-0.854,0.693-1.549,1.551-1.549C295.314-573.652,296.009-572.957,296.009-572.103"/>
		<path clip-path="url(#SVGID_2_)" fill="#CFCFC7" d="M382.092-572.103c0,0.857-0.695,1.551-1.554,1.551
			c-0.853,0-1.546-0.694-1.546-1.551c0-0.854,0.693-1.549,1.546-1.549C381.397-573.652,382.092-572.957,382.092-572.103"/>
		<path clip-path="url(#SVGID_2_)" fill="#CFCFC7" d="M468.171-572.103c0,0.857-0.694,1.551-1.549,1.551s-1.548-0.694-1.548-1.551
			c0-0.854,0.693-1.549,1.548-1.549S468.171-572.957,468.171-572.103"/>
		<path clip-path="url(#SVGID_2_)" fill="#CFCFC7" d="M554.255-572.103c0,0.857-0.691,1.551-1.547,1.551
			c-0.857,0-1.55-0.694-1.55-1.551c0-0.854,0.692-1.549,1.55-1.549C553.564-573.652,554.255-572.957,554.255-572.103"/>
		<path clip-path="url(#SVGID_2_)" fill="#CFCFC7" d="M640.337-572.103c0,0.857-0.691,1.551-1.55,1.551
			c-0.854,0-1.548-0.694-1.548-1.551c0-0.854,0.693-1.549,1.548-1.549C639.646-573.652,640.337-572.957,640.337-572.103"/>
		<path clip-path="url(#SVGID_2_)" fill="#CFCFC7" d="M726.418-572.103c0,0.857-0.689,1.551-1.548,1.551
			c-0.855,0-1.55-0.694-1.55-1.551c0-0.854,0.694-1.549,1.55-1.549C725.729-573.652,726.418-572.957,726.418-572.103"/>
		<path clip-path="url(#SVGID_2_)" fill="#CFCFC7" d="M-220.489-662.49c0,0.855-0.694,1.551-1.549,1.551
			c-0.857,0-1.55-0.696-1.55-1.551s0.693-1.549,1.55-1.549C-221.183-664.039-220.489-663.345-220.489-662.49"/>
		<path clip-path="url(#SVGID_2_)" fill="#CFCFC7" d="M-134.407-662.49c0,0.855-0.693,1.551-1.55,1.551
			c-0.854,0-1.547-0.696-1.547-1.551s0.693-1.549,1.547-1.549C-135.1-664.039-134.407-663.345-134.407-662.49"/>
		<path clip-path="url(#SVGID_2_)" fill="#CFCFC7" d="M-48.324-662.49c0,0.855-0.693,1.551-1.549,1.551
			c-0.854,0-1.549-0.696-1.549-1.551s0.695-1.549,1.549-1.549C-49.017-664.039-48.324-663.345-48.324-662.49"/>
		<path clip-path="url(#SVGID_2_)" fill="#CFCFC7" d="M37.759-662.49c0,0.855-0.693,1.551-1.55,1.551
			c-0.854,0-1.549-0.696-1.549-1.551s0.695-1.549,1.549-1.549C37.066-664.039,37.759-663.345,37.759-662.49"/>
		<path clip-path="url(#SVGID_2_)" fill="#CFCFC7" d="M123.842-662.49c0,0.855-0.694,1.551-1.55,1.551s-1.549-0.696-1.549-1.551
			s0.693-1.549,1.549-1.549S123.842-663.345,123.842-662.49"/>
		<path clip-path="url(#SVGID_2_)" fill="#CFCFC7" d="M209.926-662.49c0,0.855-0.693,1.551-1.551,1.551
			c-0.855,0-1.549-0.696-1.549-1.551s0.694-1.549,1.549-1.549C209.233-664.039,209.926-663.345,209.926-662.49"/>
		<path clip-path="url(#SVGID_2_)" fill="#CFCFC7" d="M296.009-662.49c0,0.855-0.695,1.551-1.55,1.551
			c-0.857,0-1.551-0.696-1.551-1.551s0.693-1.549,1.551-1.549C295.314-664.039,296.009-663.345,296.009-662.49"/>
		<path clip-path="url(#SVGID_2_)" fill="#CFCFC7" d="M382.092-662.49c0,0.855-0.695,1.551-1.554,1.551
			c-0.853,0-1.546-0.696-1.546-1.551s0.693-1.549,1.546-1.549C381.397-664.039,382.092-663.345,382.092-662.49"/>
		<path clip-path="url(#SVGID_2_)" fill="#CFCFC7" d="M468.171-662.49c0,0.855-0.694,1.551-1.549,1.551s-1.548-0.696-1.548-1.551
			s0.693-1.549,1.548-1.549S468.171-663.345,468.171-662.49"/>
		<path clip-path="url(#SVGID_2_)" fill="#CFCFC7" d="M554.255-662.49c0,0.855-0.691,1.551-1.547,1.551
			c-0.857,0-1.55-0.696-1.55-1.551s0.692-1.549,1.55-1.549C553.564-664.039,554.255-663.345,554.255-662.49"/>
		<path clip-path="url(#SVGID_2_)" fill="#CFCFC7" d="M640.337-662.49c0,0.855-0.691,1.551-1.55,1.551
			c-0.854,0-1.548-0.696-1.548-1.551s0.693-1.549,1.548-1.549C639.646-664.039,640.337-663.345,640.337-662.49"/>
		<path clip-path="url(#SVGID_2_)" fill="#CFCFC7" d="M726.418-662.49c0,0.855-0.689,1.551-1.548,1.551
			c-0.855,0-1.55-0.696-1.55-1.551s0.694-1.549,1.55-1.549C725.729-664.039,726.418-663.345,726.418-662.49"/>
		<path clip-path="url(#SVGID_2_)" fill="#CFCFC7" d="M-220.489,60.605c0,0.855-0.694,1.551-1.549,1.551
			c-0.857,0-1.55-0.695-1.55-1.551c0-0.854,0.693-1.551,1.55-1.551C-221.183,59.055-220.489,59.751-220.489,60.605"/>
		<path clip-path="url(#SVGID_2_)" fill="#CFCFC7" d="M-134.407,60.605c0,0.855-0.693,1.551-1.55,1.551
			c-0.854,0-1.547-0.695-1.547-1.551c0-0.854,0.693-1.551,1.547-1.551C-135.1,59.055-134.407,59.751-134.407,60.605"/>
		<path clip-path="url(#SVGID_2_)" fill="#CFCFC7" d="M-48.324,60.605c0,0.855-0.693,1.551-1.549,1.551
			c-0.854,0-1.549-0.695-1.549-1.551c0-0.854,0.695-1.551,1.549-1.551C-49.017,59.055-48.324,59.751-48.324,60.605"/>
		<path clip-path="url(#SVGID_2_)" fill="#CFCFC7" d="M37.759,60.605c0,0.855-0.693,1.551-1.55,1.551
			c-0.854,0-1.549-0.695-1.549-1.551c0-0.854,0.695-1.551,1.549-1.551C37.066,59.055,37.759,59.751,37.759,60.605"/>
		<path clip-path="url(#SVGID_2_)" fill="#CFCFC7" d="M123.842,60.605c0,0.855-0.694,1.551-1.55,1.551s-1.549-0.695-1.549-1.551
			c0-0.854,0.693-1.551,1.549-1.551S123.842,59.751,123.842,60.605"/>
		<path clip-path="url(#SVGID_2_)" fill="#CFCFC7" d="M209.926,60.605c0,0.855-0.693,1.551-1.551,1.551
			c-0.855,0-1.549-0.695-1.549-1.551c0-0.854,0.694-1.551,1.549-1.551C209.233,59.055,209.926,59.751,209.926,60.605"/>
		<path clip-path="url(#SVGID_2_)" fill="#CFCFC7" d="M296.009,60.605c0,0.855-0.695,1.551-1.55,1.551
			c-0.857,0-1.551-0.695-1.551-1.551c0-0.854,0.693-1.551,1.551-1.551C295.314,59.055,296.009,59.751,296.009,60.605"/>
		<path clip-path="url(#SVGID_2_)" fill="#CFCFC7" d="M382.092,60.605c0,0.855-0.695,1.551-1.554,1.551
			c-0.853,0-1.546-0.695-1.546-1.551c0-0.854,0.693-1.551,1.546-1.551C381.397,59.055,382.092,59.751,382.092,60.605"/>
		<path clip-path="url(#SVGID_2_)" fill="#CFCFC7" d="M468.171,60.605c0,0.855-0.694,1.551-1.549,1.551s-1.548-0.695-1.548-1.551
			c0-0.854,0.693-1.551,1.548-1.551S468.171,59.751,468.171,60.605"/>
		<path clip-path="url(#SVGID_2_)" fill="#CFCFC7" d="M554.255,60.605c0,0.855-0.691,1.551-1.547,1.551
			c-0.857,0-1.55-0.695-1.55-1.551c0-0.854,0.692-1.551,1.55-1.551C553.564,59.055,554.255,59.751,554.255,60.605"/>
		<path clip-path="url(#SVGID_2_)" fill="#CFCFC7" d="M640.337,60.605c0,0.855-0.691,1.551-1.55,1.551
			c-0.854,0-1.548-0.695-1.548-1.551c0-0.854,0.693-1.551,1.548-1.551C639.646,59.055,640.337,59.751,640.337,60.605"/>
		<path clip-path="url(#SVGID_2_)" fill="#CFCFC7" d="M726.418,60.605c0,0.855-0.689,1.551-1.548,1.551
			c-0.855,0-1.55-0.695-1.55-1.551c0-0.854,0.694-1.551,1.55-1.551C725.729,59.055,726.418,59.751,726.418,60.605"/>
		<path clip-path="url(#SVGID_2_)" fill="#CFCFC7" d="M-220.489-29.781c0,0.857-0.694,1.549-1.549,1.549
			c-0.857,0-1.55-0.691-1.55-1.549c0-0.854,0.693-1.549,1.55-1.549C-221.183-31.33-220.489-30.636-220.489-29.781"/>
		<path clip-path="url(#SVGID_2_)" fill="#CFCFC7" d="M-134.407-29.781c0,0.857-0.693,1.549-1.55,1.549
			c-0.854,0-1.547-0.691-1.547-1.549c0-0.854,0.693-1.549,1.547-1.549C-135.1-31.33-134.407-30.636-134.407-29.781"/>
		<path clip-path="url(#SVGID_2_)" fill="#CFCFC7" d="M-48.324-29.781c0,0.857-0.693,1.549-1.549,1.549
			c-0.854,0-1.549-0.691-1.549-1.549c0-0.854,0.695-1.549,1.549-1.549C-49.017-31.33-48.324-30.636-48.324-29.781"/>
		<path clip-path="url(#SVGID_2_)" fill="#CFCFC7" d="M37.759-29.781c0,0.857-0.693,1.549-1.55,1.549
			c-0.854,0-1.549-0.691-1.549-1.549c0-0.854,0.695-1.549,1.549-1.549C37.066-31.33,37.759-30.636,37.759-29.781"/>
		<path clip-path="url(#SVGID_2_)" fill="#CFCFC7" d="M123.842-29.781c0,0.857-0.694,1.549-1.55,1.549s-1.549-0.691-1.549-1.549
			c0-0.854,0.693-1.549,1.549-1.549S123.842-30.636,123.842-29.781"/>
		<path clip-path="url(#SVGID_2_)" fill="#CFCFC7" d="M209.926-29.781c0,0.857-0.693,1.549-1.551,1.549
			c-0.855,0-1.549-0.691-1.549-1.549c0-0.854,0.694-1.549,1.549-1.549C209.233-31.33,209.926-30.636,209.926-29.781"/>
		<path clip-path="url(#SVGID_2_)" fill="#CFCFC7" d="M296.009-29.781c0,0.857-0.695,1.549-1.55,1.549
			c-0.857,0-1.551-0.691-1.551-1.549c0-0.854,0.693-1.549,1.551-1.549C295.314-31.33,296.009-30.636,296.009-29.781"/>
		<path clip-path="url(#SVGID_2_)" fill="#CFCFC7" d="M382.092-29.781c0,0.857-0.695,1.549-1.554,1.549
			c-0.853,0-1.546-0.691-1.546-1.549c0-0.854,0.693-1.549,1.546-1.549C381.397-31.33,382.092-30.636,382.092-29.781"/>
		<path clip-path="url(#SVGID_2_)" fill="#CFCFC7" d="M468.171-29.781c0,0.857-0.694,1.549-1.549,1.549s-1.548-0.691-1.548-1.549
			c0-0.854,0.693-1.549,1.548-1.549S468.171-30.636,468.171-29.781"/>
		<path clip-path="url(#SVGID_2_)" fill="#CFCFC7" d="M554.255-29.781c0,0.857-0.691,1.549-1.547,1.549
			c-0.857,0-1.55-0.691-1.55-1.549c0-0.854,0.692-1.549,1.55-1.549C553.564-31.33,554.255-30.636,554.255-29.781"/>
		<path clip-path="url(#SVGID_2_)" fill="#CFCFC7" d="M640.337-29.781c0,0.857-0.691,1.549-1.55,1.549
			c-0.854,0-1.548-0.691-1.548-1.549c0-0.854,0.693-1.549,1.548-1.549C639.646-31.33,640.337-30.636,640.337-29.781"/>
		<path clip-path="url(#SVGID_2_)" fill="#CFCFC7" d="M726.418-29.781c0,0.857-0.689,1.549-1.548,1.549
			c-0.855,0-1.55-0.691-1.55-1.549c0-0.854,0.694-1.549,1.55-1.549C725.729-31.33,726.418-30.636,726.418-29.781"/>
		<path clip-path="url(#SVGID_2_)" fill="#CFCFC7" d="M-220.489-120.168c0,0.855-0.694,1.551-1.549,1.551
			c-0.857,0-1.55-0.695-1.55-1.551s0.693-1.549,1.55-1.549C-221.183-121.717-220.489-121.023-220.489-120.168"/>
		<path clip-path="url(#SVGID_2_)" fill="#CFCFC7" d="M-134.407-120.168c0,0.855-0.693,1.551-1.55,1.551
			c-0.854,0-1.547-0.695-1.547-1.551s0.693-1.549,1.547-1.549C-135.1-121.717-134.407-121.023-134.407-120.168"/>
		<path clip-path="url(#SVGID_2_)" fill="#CFCFC7" d="M-48.324-120.168c0,0.855-0.693,1.551-1.549,1.551
			c-0.854,0-1.549-0.695-1.549-1.551s0.695-1.549,1.549-1.549C-49.017-121.717-48.324-121.023-48.324-120.168"/>
		<path clip-path="url(#SVGID_2_)" fill="#CFCFC7" d="M37.759-120.168c0,0.855-0.693,1.551-1.55,1.551
			c-0.854,0-1.549-0.695-1.549-1.551s0.695-1.549,1.549-1.549C37.066-121.717,37.759-121.023,37.759-120.168"/>
		<path clip-path="url(#SVGID_2_)" fill="#CFCFC7" d="M123.842-120.168c0,0.855-0.694,1.551-1.55,1.551s-1.549-0.695-1.549-1.551
			s0.693-1.549,1.549-1.549S123.842-121.023,123.842-120.168"/>
		<path clip-path="url(#SVGID_2_)" fill="#CFCFC7" d="M209.926-120.168c0,0.855-0.693,1.551-1.551,1.551
			c-0.855,0-1.549-0.695-1.549-1.551s0.694-1.549,1.549-1.549C209.233-121.717,209.926-121.023,209.926-120.168"/>
		<path clip-path="url(#SVGID_2_)" fill="#CFCFC7" d="M296.009-120.168c0,0.855-0.695,1.551-1.55,1.551
			c-0.857,0-1.551-0.695-1.551-1.551s0.693-1.549,1.551-1.549C295.314-121.717,296.009-121.023,296.009-120.168"/>
		<path clip-path="url(#SVGID_2_)" fill="#CFCFC7" d="M382.092-120.168c0,0.855-0.695,1.551-1.554,1.551
			c-0.853,0-1.546-0.695-1.546-1.551s0.693-1.549,1.546-1.549C381.397-121.717,382.092-121.023,382.092-120.168"/>
		<path clip-path="url(#SVGID_2_)" fill="#CFCFC7" d="M468.171-120.168c0,0.855-0.694,1.551-1.549,1.551s-1.548-0.695-1.548-1.551
			s0.693-1.549,1.548-1.549S468.171-121.023,468.171-120.168"/>
		<path clip-path="url(#SVGID_2_)" fill="#CFCFC7" d="M554.255-120.168c0,0.855-0.691,1.551-1.547,1.551
			c-0.857,0-1.55-0.695-1.55-1.551s0.692-1.549,1.55-1.549C553.564-121.717,554.255-121.023,554.255-120.168"/>
		<path clip-path="url(#SVGID_2_)" fill="#CFCFC7" d="M640.337-120.168c0,0.855-0.691,1.551-1.55,1.551
			c-0.854,0-1.548-0.695-1.548-1.551s0.693-1.549,1.548-1.549C639.646-121.717,640.337-121.023,640.337-120.168"/>
		<path clip-path="url(#SVGID_2_)" fill="#CFCFC7" d="M726.418-120.168c0,0.855-0.689,1.551-1.548,1.551
			c-0.855,0-1.55-0.695-1.55-1.551s0.694-1.549,1.55-1.549C725.729-121.717,726.418-121.023,726.418-120.168"/>
		<path clip-path="url(#SVGID_2_)" fill="#CFCFC7" d="M-220.489-210.557c0,0.857-0.694,1.551-1.549,1.551
			c-0.857,0-1.55-0.693-1.55-1.551c0-0.854,0.693-1.547,1.55-1.547C-221.183-212.104-220.489-211.41-220.489-210.557"/>
		<path clip-path="url(#SVGID_2_)" fill="#CFCFC7" d="M-134.407-210.557c0,0.857-0.693,1.551-1.55,1.551
			c-0.854,0-1.547-0.693-1.547-1.551c0-0.854,0.693-1.547,1.547-1.547C-135.1-212.104-134.407-211.41-134.407-210.557"/>
		<path clip-path="url(#SVGID_2_)" fill="#CFCFC7" d="M-48.324-210.557c0,0.857-0.693,1.551-1.549,1.551
			c-0.854,0-1.549-0.693-1.549-1.551c0-0.854,0.695-1.547,1.549-1.547C-49.017-212.104-48.324-211.41-48.324-210.557"/>
		<path clip-path="url(#SVGID_2_)" fill="#CFCFC7" d="M37.759-210.557c0,0.857-0.693,1.551-1.55,1.551
			c-0.854,0-1.549-0.693-1.549-1.551c0-0.854,0.695-1.547,1.549-1.547C37.066-212.104,37.759-211.41,37.759-210.557"/>
		<path clip-path="url(#SVGID_2_)" fill="#CFCFC7" d="M123.842-210.557c0,0.857-0.694,1.551-1.55,1.551s-1.549-0.693-1.549-1.551
			c0-0.854,0.693-1.547,1.549-1.547S123.842-211.41,123.842-210.557"/>
		<path clip-path="url(#SVGID_2_)" fill="#CFCFC7" d="M209.926-210.557c0,0.857-0.693,1.551-1.551,1.551
			c-0.855,0-1.549-0.693-1.549-1.551c0-0.854,0.694-1.547,1.549-1.547C209.233-212.104,209.926-211.41,209.926-210.557"/>
		<path clip-path="url(#SVGID_2_)" fill="#CFCFC7" d="M296.009-210.557c0,0.857-0.695,1.551-1.55,1.551
			c-0.857,0-1.551-0.693-1.551-1.551c0-0.854,0.693-1.547,1.551-1.547C295.314-212.104,296.009-211.41,296.009-210.557"/>
		<path clip-path="url(#SVGID_2_)" fill="#CFCFC7" d="M382.092-210.557c0,0.857-0.695,1.551-1.554,1.551
			c-0.853,0-1.546-0.693-1.546-1.551c0-0.854,0.693-1.547,1.546-1.547C381.397-212.104,382.092-211.41,382.092-210.557"/>
		<path clip-path="url(#SVGID_2_)" fill="#CFCFC7" d="M468.171-210.557c0,0.857-0.694,1.551-1.549,1.551s-1.548-0.693-1.548-1.551
			c0-0.854,0.693-1.547,1.548-1.547S468.171-211.41,468.171-210.557"/>
		<path clip-path="url(#SVGID_2_)" fill="#CFCFC7" d="M554.255-210.557c0,0.857-0.691,1.551-1.547,1.551
			c-0.857,0-1.55-0.693-1.55-1.551c0-0.854,0.692-1.547,1.55-1.547C553.564-212.104,554.255-211.41,554.255-210.557"/>
		<path clip-path="url(#SVGID_2_)" fill="#CFCFC7" d="M640.337-210.557c0,0.857-0.691,1.551-1.55,1.551
			c-0.854,0-1.548-0.693-1.548-1.551c0-0.854,0.693-1.547,1.548-1.547C639.646-212.104,640.337-211.41,640.337-210.557"/>
		<path clip-path="url(#SVGID_2_)" fill="#CFCFC7" d="M726.418-210.557c0,0.857-0.689,1.551-1.548,1.551
			c-0.855,0-1.55-0.693-1.55-1.551c0-0.854,0.694-1.547,1.55-1.547C725.729-212.104,726.418-211.41,726.418-210.557"/>
	</g>
	<g opacity="0.5">
		<g>
			<defs>
				<rect id="SVGID_3_" x="-245.664" y="-695.085" width="234" height="631.444"/>
			</defs>
			<clipPath id="SVGID_4_">
				<use xlink:href="#SVGID_3_"  overflow="visible"/>
			</clipPath>
			<rect x="-245.664" y="-695.085" clip-path="url(#SVGID_4_)" fill="#9F9B9A" width="234" height="631.445"/>
		</g>
	</g>
	<g opacity="0.5">
		<g>
			<defs>
				<rect id="SVGID_5_" x="515.417" y="-695.085" width="234" height="631.444"/>
			</defs>
			<clipPath id="SVGID_6_">
				<use xlink:href="#SVGID_5_"  overflow="visible"/>
			</clipPath>
			<rect x="515.417" y="-695.086" clip-path="url(#SVGID_6_)" fill="#9F9B9A" width="234" height="631.445"/>
		</g>
	</g>
	<polygon points="276.814,-409.48 226.01,-409.48 233.881,-445.804 226.01,-505.769 252.064,-514.591 276.814,-506.261 
		268.551,-446.255 	"/>
	<polygon fill="none" stroke="#000000" stroke-width="2.519" stroke-miterlimit="10" points="276.814,-409.48 226.01,-409.48 
		233.881,-445.804 226.01,-505.769 252.064,-514.591 276.814,-506.261 268.551,-446.255 	"/>
	
		<polygon fill="none" stroke="#000000" stroke-width="4.045" stroke-linecap="round" stroke-linejoin="round" stroke-miterlimit="10" points="
		276.814,-409.48 226.01,-409.48 233.881,-445.804 226.01,-505.769 252.064,-514.591 276.814,-506.261 268.551,-446.255 	"/>
	<g>
		<defs>
			<rect id="SVGID_7_" x="-276.583" y="-903.5" width="1056" height="1056"/>
		</defs>
		<clipPath id="SVGID_8_">
			<use xlink:href="#SVGID_7_"  overflow="visible"/>
		</clipPath>
		
			<path clip-path="url(#SVGID_8_)" fill="none" stroke="#000000" stroke-width="4.045" stroke-linecap="round" stroke-linejoin="round" stroke-miterlimit="10" d="
			M263.553-537.519c-0.061,9.398-5.263,16.988-11.62,16.947c-6.36-0.043-11.472-7.691-11.415-17.088
			c0.056-9.404,5.254-16.992,11.615-16.953C258.497-554.578,263.61-546.927,263.553-537.519z"/>
		
			<polygon clip-path="url(#SVGID_8_)" fill="none" stroke="#000000" stroke-width="4.045" stroke-linecap="round" stroke-linejoin="round" stroke-miterlimit="10" points="
			258.253,-409.48 276.814,-409.48 276.814,-248.611 263.796,-248.611 263.796,-334.512 		"/>
		
			<polygon clip-path="url(#SVGID_8_)" fill="none" stroke="#000000" stroke-width="4.045" stroke-linecap="round" stroke-linejoin="round" stroke-miterlimit="10" points="
			276.814,-506.261 285.769,-507.183 298.339,-385.747 289.384,-384.822 		"/>
		
			<polygon clip-path="url(#SVGID_8_)" fill="none" stroke="#000000" stroke-width="4.045" stroke-linecap="round" stroke-linejoin="round" stroke-miterlimit="10" points="
			244.575,-409.48 226.019,-409.48 226.019,-248.611 239.033,-248.611 239.033,-334.512 		"/>
		
			<polygon clip-path="url(#SVGID_8_)" fill="none" stroke="#000000" stroke-width="4.045" stroke-linecap="round" stroke-linejoin="round" stroke-miterlimit="10" points="
			226.019,-505.769 217.064,-506.691 204.494,-385.253 213.44,-384.326 		"/>
		
			<polyline clip-path="url(#SVGID_8_)" fill="none" stroke="#101014" stroke-width="2.766" stroke-linecap="round" stroke-linejoin="round" stroke-miterlimit="10" points="
			270.356,-201.258 262.061,-200.348 262.979,-192.061 		"/>
		
			<path clip-path="url(#SVGID_8_)" fill="none" stroke="#101014" stroke-width="2.766" stroke-linecap="round" stroke-linejoin="round" stroke-miterlimit="10" d="
			M262.061-200.348l2.863,2.021c1.914,1.57,3.029,3.465,3.029,5.502c0,5.436-7.941,9.842-17.739,9.842
			c-9.797,0-17.738-4.408-17.738-9.842c0-3.918,4.125-7.301,10.098-8.883"/>
	</g>
	<text transform="matrix(1 0 0 1 -170.4126 -548.5005)"><tspan x="0" y="0" fill="#FFFFFF" font-family="'VarelaRound'" font-size="8.3781">T</tspan><tspan x="4.926" y="0" fill="#FFFFFF" font-family="'VarelaRound'" font-size="8.3781">OP</tspan></text>
	<text transform="matrix(1 0 0 1 -102.9688 -548.5005)"><tspan x="0" y="0" fill="#FFFFFF" font-family="'VarelaRound'" font-size="8.3781">B</tspan><tspan x="5.806" y="0" fill="#FFFFFF" font-family="'VarelaRound'" font-size="8.3781">O</tspan><tspan x="12.408" y="0" fill="#FFFFFF" font-family="'VarelaRound'" font-size="8.3781">T</tspan><tspan x="17.527" y="0" fill="#FFFFFF" font-family="'VarelaRound'" font-size="8.3781">T</tspan><tspan x="22.453" y="0" fill="#FFFFFF" font-family="'VarelaRound'" font-size="8.3781">OMS</tspan></text>
	<rect x="578.452" y="-287.03" fill="#DFEBED" width="92.164" height="36.849"/>
	<text transform="matrix(1 0 0 1 605.9478 -264.4277)"><tspan x="0" y="0" fill="#231F20" font-family="'Karla-Bold'" font-size="14.5706">S</tspan><tspan x="9.296" y="0" fill="#231F20" font-family="'Karla-Bold'" font-size="14.5706">A</tspan><tspan x="17.965" y="0" fill="#231F20" font-family="'Karla-Bold'" font-size="14.5706">VE</tspan></text>
	<text transform="matrix(1 0 0 1 605.7856 -319.959)" fill="#FFFFFF" font-family="'VarelaRound'" font-size="8.3781">SHORTS</text>
	<g>
		<defs>
			<rect id="SVGID_9_" x="-276.583" y="-903.5" width="1056" height="1056"/>
		</defs>
		<clipPath id="SVGID_10_">
			<use xlink:href="#SVGID_9_"  overflow="visible"/>
		</clipPath>
		
			<line clip-path="url(#SVGID_10_)" fill="none" stroke="#FFFFFF" stroke-width="1.676" stroke-miterlimit="10" x1="554.686" y1="-341.52" x2="691.41" y2="-341.52"/>
		<path clip-path="url(#SVGID_10_)" fill="#8BD6A2" d="M578.452-341.52c0,2.061-1.674,3.732-3.734,3.732
			c-2.062,0-3.734-1.672-3.734-3.732c0-2.062,1.672-3.734,3.734-3.734C576.778-345.254,578.452-343.582,578.452-341.52"/>
	</g>
	<text transform="matrix(1 0 0 1 601.6675 -365.3662)"><tspan x="0" y="0" fill="#FFFFFF" font-family="'VarelaRound'" font-size="8.3781">N</tspan><tspan x="6.728" y="0" fill="#FFFFFF" font-family="'VarelaRound'" font-size="8.3781">E</tspan><tspan x="12.014" y="0" fill="#FFFFFF" font-family="'VarelaRound'" font-size="8.3781">CKLINE</tspan></text>
	<g>
		<defs>
			<rect id="SVGID_11_" x="-276.583" y="-903.5" width="1056" height="1056"/>
		</defs>
		<clipPath id="SVGID_12_">
			<use xlink:href="#SVGID_11_"  overflow="visible"/>
		</clipPath>
		
			<line clip-path="url(#SVGID_12_)" fill="none" stroke="#FFFFFF" stroke-width="1.676" stroke-miterlimit="10" x1="554.686" y1="-386.927" x2="691.41" y2="-386.927"/>
		<path clip-path="url(#SVGID_12_)" fill="#8BD6A2" d="M632.002-386.927c0,2.063-1.674,3.734-3.734,3.734
			c-2.062,0-3.734-1.671-3.734-3.734c0-2.061,1.672-3.734,3.734-3.734C630.329-390.661,632.002-388.988,632.002-386.927"/>
	</g>
	<text transform="matrix(1 0 0 1 599.2593 -410.7729)" fill="#FFFFFF" font-family="'VarelaRound'" font-size="8.3781">TIGHTNESS</text>
	<g>
		<defs>
			<rect id="SVGID_13_" x="-276.583" y="-903.5" width="1056" height="1056"/>
		</defs>
		<clipPath id="SVGID_14_">
			<use xlink:href="#SVGID_13_"  overflow="visible"/>
		</clipPath>
		
			<line clip-path="url(#SVGID_14_)" fill="none" stroke="#FFFFFF" stroke-width="1.676" stroke-miterlimit="10" x1="554.686" y1="-432.333" x2="691.41" y2="-432.333"/>
		<path clip-path="url(#SVGID_14_)" fill="#8BD6A2" d="M582.186-432.333c0,2.061-1.674,3.734-3.734,3.734
			c-2.062,0-3.734-1.673-3.734-3.734c0-2.063,1.672-3.734,3.734-3.734C580.512-436.067,582.186-434.396,582.186-432.333"/>
	</g>
	<text transform="matrix(1 0 0 1 601.2944 -456.1802)" fill="#FFFFFF" font-family="'VarelaRound'" font-size="8.3781">FULLNESS</text>
	<g>
		<defs>
			<rect id="SVGID_15_" x="-276.583" y="-903.5" width="1056" height="1056"/>
		</defs>
		<clipPath id="SVGID_16_">
			<use xlink:href="#SVGID_15_"  overflow="visible"/>
		</clipPath>
		
			<line clip-path="url(#SVGID_16_)" fill="none" stroke="#FFFFFF" stroke-width="1.676" stroke-miterlimit="10" x1="554.686" y1="-477.742" x2="691.41" y2="-477.742"/>
		<path clip-path="url(#SVGID_16_)" fill="#8BD6A2" d="M695.144-477.742c0,2.063-1.674,3.734-3.734,3.734
			c-2.062,0-3.734-1.671-3.734-3.734c0-2.061,1.672-3.732,3.734-3.732C693.47-481.474,695.144-479.803,695.144-477.742"/>
	</g>
	<text transform="matrix(1 0 0 1 605.7603 -501.5874)" fill="#FFFFFF" font-family="'VarelaRound'" font-size="8.3781">LENGTH</text>
	<g>
		<defs>
			<rect id="SVGID_17_" x="-276.583" y="-903.5" width="1056" height="1056"/>
		</defs>
		<clipPath id="SVGID_18_">
			<use xlink:href="#SVGID_17_"  overflow="visible"/>
		</clipPath>
		
			<line clip-path="url(#SVGID_18_)" fill="none" stroke="#FFFFFF" stroke-width="1.676" stroke-miterlimit="10" x1="554.686" y1="-523.148" x2="691.41" y2="-523.148"/>
		<path clip-path="url(#SVGID_18_)" fill="#8BD6A2" d="M670.616-523.148c0,2.063-1.674,3.734-3.734,3.734
			c-2.062,0-3.734-1.671-3.734-3.734s1.672-3.734,3.734-3.734C668.942-526.882,670.616-525.211,670.616-523.148"/>
		<circle clip-path="url(#SVGID_18_)" fill="none" stroke="#8BD6A2" stroke-miterlimit="10" cx="666.881" cy="-523.148" r="3.734"/>
		<rect x="-195.42" y="-540.138" clip-path="url(#SVGID_18_)" width="65.729" height="65.729"/>
		<polygon clip-path="url(#SVGID_18_)" fill="#FFFFFF" points="-157.942,-508.703 -167.171,-508.703 -165.742,-515.303 
			-167.171,-526.194 -162.438,-527.798 -157.942,-526.285 -159.443,-515.385 		"/>
		<polygon clip-path="url(#SVGID_18_)" fill="none" stroke="#FFFFFF" stroke-width="0.458" stroke-miterlimit="10" points="
			-157.942,-508.703 -167.171,-508.703 -165.742,-515.303 -167.171,-526.194 -162.438,-527.798 -157.942,-526.285 
			-159.443,-515.385 		"/>
		
			<polygon clip-path="url(#SVGID_18_)" fill="none" stroke="#FFFFFF" stroke-width="0.735" stroke-linecap="round" stroke-linejoin="round" stroke-miterlimit="10" points="
			-157.942,-508.703 -167.171,-508.703 -165.742,-515.303 -167.171,-526.194 -162.438,-527.798 -157.942,-526.285 
			-159.443,-515.385 		"/>
		
			<ellipse transform="matrix(1 0.006 -0.006 1 -3.169 0.9574)" clip-path="url(#SVGID_18_)" fill="none" stroke="#FFFFFF" stroke-width="0.735" stroke-linecap="round" stroke-linejoin="round" stroke-miterlimit="10" cx="-162.444" cy="-531.977" rx="2.092" ry="3.091"/>
		
			<polygon clip-path="url(#SVGID_18_)" fill="none" stroke="#FFFFFF" stroke-width="0.735" stroke-linecap="round" stroke-linejoin="round" stroke-miterlimit="10" points="
			-161.314,-508.703 -157.942,-508.703 -157.942,-479.478 -160.307,-479.478 -160.307,-495.083 		"/>
		
			<rect x="-156.804" y="-526.428" transform="matrix(-0.9947 0.1027 -0.1027 -0.9947 -364.0708 -1011.9325)" clip-path="url(#SVGID_18_)" fill="none" stroke="#FFFFFF" stroke-width="0.735" stroke-linecap="round" stroke-linejoin="round" stroke-miterlimit="10" width="1.636" height="22.179"/>
		
			<polygon clip-path="url(#SVGID_18_)" fill="none" stroke="#FFFFFF" stroke-width="0.735" stroke-linecap="round" stroke-linejoin="round" stroke-miterlimit="10" points="
			-163.799,-508.703 -167.17,-508.703 -167.17,-479.478 -164.805,-479.478 -164.805,-495.083 		"/>
		
			<rect x="-169.943" y="-526.338" transform="matrix(0.9947 0.1027 -0.1027 0.9947 -53.8078 14.6442)" clip-path="url(#SVGID_18_)" fill="none" stroke="#FFFFFF" stroke-width="0.735" stroke-linecap="round" stroke-linejoin="round" stroke-miterlimit="10" width="1.636" height="22.179"/>
		<path clip-path="url(#SVGID_18_)" fill="#FFFFFF" d="M-131.691-456.189h-61.73v-16.504h61.73V-456.189z M-129.691-474.693h-65.73
			v20.504h65.73V-474.693z"/>
		<rect x="-114.478" y="-540.137" clip-path="url(#SVGID_18_)" fill="#FFFFFF" width="65.73" height="65.73"/>
		<polygon clip-path="url(#SVGID_18_)" points="-77.111,-508.701 -86.34,-508.701 -84.911,-515.301 -86.34,-526.195 
			-81.608,-527.799 -77.111,-526.283 -78.612,-515.383 		"/>
		<polygon clip-path="url(#SVGID_18_)" fill="none" stroke="#000000" stroke-width="0.458" stroke-miterlimit="10" points="
			-77.111,-508.701 -86.34,-508.701 -84.911,-515.301 -86.34,-526.195 -81.608,-527.799 -77.111,-526.283 -78.612,-515.383 		"/>
		
			<polygon clip-path="url(#SVGID_18_)" fill="none" stroke="#000000" stroke-width="0.735" stroke-linecap="round" stroke-linejoin="round" stroke-miterlimit="10" points="
			-77.111,-508.701 -86.34,-508.701 -84.911,-515.301 -86.34,-526.195 -81.608,-527.799 -77.111,-526.283 -78.612,-515.383 		"/>
		
			<ellipse transform="matrix(1 0.006 -0.006 1 -3.1668 0.4762)" clip-path="url(#SVGID_18_)" fill="none" stroke="#000000" stroke-width="0.735" stroke-linecap="round" stroke-linejoin="round" stroke-miterlimit="10" cx="-81.614" cy="-531.975" rx="2.093" ry="3.091"/>
		
			<polygon clip-path="url(#SVGID_18_)" fill="none" stroke="#000000" stroke-width="0.735" stroke-linecap="round" stroke-linejoin="round" stroke-miterlimit="10" points="
			-80.484,-508.701 -77.111,-508.701 -77.111,-479.476 -79.476,-479.476 -79.476,-495.082 		"/>
		
			<rect x="-75.974" y="-526.426" transform="matrix(-0.9947 0.1027 -0.1027 -0.9947 -202.8369 -1020.2296)" clip-path="url(#SVGID_18_)" fill="none" stroke="#000000" stroke-width="0.735" stroke-linecap="round" stroke-linejoin="round" stroke-miterlimit="10" width="1.636" height="22.179"/>
		
			<polygon clip-path="url(#SVGID_18_)" fill="none" stroke="#000000" stroke-width="0.735" stroke-linecap="round" stroke-linejoin="round" stroke-miterlimit="10" points="
			-82.968,-508.701 -86.338,-508.701 -86.338,-479.476 -83.975,-479.476 -83.975,-495.082 		"/>
		
			<rect x="-89.112" y="-526.338" transform="matrix(0.9947 0.1026 -0.1026 0.9947 -53.3484 6.3411)" clip-path="url(#SVGID_18_)" fill="none" stroke="#000000" stroke-width="0.735" stroke-linecap="round" stroke-linejoin="round" stroke-miterlimit="10" width="1.637" height="22.181"/>
		<path clip-path="url(#SVGID_18_)" fill="#FFFFFF" d="M-50.748-456.189h-61.73v-16.504h61.73V-456.189z M-48.748-474.693h-65.73
			v20.504h65.73V-474.693z"/>
		
			<line clip-path="url(#SVGID_18_)" fill="none" stroke="#000000" stroke-width="2.304" stroke-miterlimit="10" x1="-85.177" y1="-468.005" x2="-78.047" y2="-460.876"/>
	</g>
	<text transform="matrix(1 0 0 1 -173.8765 -431.9771)" fill="#FFFFFF" font-family="'VarelaRound'" font-size="8.3781">SKIRT</text>
	<text transform="matrix(1 0 0 1 -97.502 -431.9771)"><tspan x="0" y="0" fill="#FFFFFF" font-family="'VarelaRound'" font-size="8.3781">J</tspan><tspan x="3.904" y="0" fill="#FFFFFF" font-family="'VarelaRound'" font-size="8.3781">A</tspan><tspan x="9.635" y="0" fill="#FFFFFF" font-family="'VarelaRound'" font-size="8.3781">CKET</tspan></text>
	<g>
		<defs>
			<rect id="SVGID_19_" x="-276.583" y="-903.5" width="1056" height="1056"/>
		</defs>
		<clipPath id="SVGID_20_">
			<use xlink:href="#SVGID_19_"  overflow="visible"/>
		</clipPath>
		<rect x="-195.42" y="-423.615" clip-path="url(#SVGID_20_)" fill="#FFFFFF" width="65.729" height="65.729"/>
		<polygon clip-path="url(#SVGID_20_)" points="-157.942,-392.181 -167.171,-392.181 -165.742,-398.779 -167.171,-409.671 
			-162.438,-411.277 -157.942,-409.763 -159.443,-398.861 		"/>
		<polygon clip-path="url(#SVGID_20_)" fill="none" stroke="#000000" stroke-width="0.458" stroke-miterlimit="10" points="
			-157.942,-392.181 -167.171,-392.181 -165.742,-398.779 -167.171,-409.671 -162.438,-411.277 -157.942,-409.763 
			-159.443,-398.861 		"/>
		
			<polygon clip-path="url(#SVGID_20_)" fill="none" stroke="#000000" stroke-width="0.735" stroke-linecap="round" stroke-linejoin="round" stroke-miterlimit="10" points="
			-157.942,-392.181 -167.171,-392.181 -165.742,-398.779 -167.171,-409.671 -162.438,-411.277 -157.942,-409.763 
			-159.443,-398.861 		"/>
		
			<ellipse transform="matrix(1 0.006 -0.006 1 -2.4755 0.9594)" clip-path="url(#SVGID_20_)" fill="none" stroke="#000000" stroke-width="0.735" stroke-linecap="round" stroke-linejoin="round" stroke-miterlimit="10" cx="-162.444" cy="-415.453" rx="2.092" ry="3.091"/>
		
			<polygon clip-path="url(#SVGID_20_)" fill="none" stroke="#000000" stroke-width="0.735" stroke-linecap="round" stroke-linejoin="round" stroke-miterlimit="10" points="
			-161.314,-392.181 -157.942,-392.181 -157.942,-362.955 -160.307,-362.955 -160.307,-378.56 		"/>
		
			<rect x="-156.804" y="-409.905" transform="matrix(-0.9948 0.1015 -0.1015 -0.9948 -351.6521 -779.7364)" clip-path="url(#SVGID_20_)" fill="none" stroke="#000000" stroke-width="0.735" stroke-linecap="round" stroke-linejoin="round" stroke-miterlimit="10" width="1.635" height="22.179"/>
		
			<polygon clip-path="url(#SVGID_20_)" fill="none" stroke="#000000" stroke-width="0.735" stroke-linecap="round" stroke-linejoin="round" stroke-miterlimit="10" points="
			-163.799,-392.181 -167.17,-392.181 -167.17,-362.955 -164.805,-362.955 -164.805,-378.56 		"/>
		
			<rect x="-169.943" y="-409.815" transform="matrix(0.9946 0.1039 -0.1039 0.9946 -42.3332 15.4112)" clip-path="url(#SVGID_20_)" fill="none" stroke="#000000" stroke-width="0.735" stroke-linecap="round" stroke-linejoin="round" stroke-miterlimit="10" width="1.636" height="22.181"/>
		<path clip-path="url(#SVGID_20_)" fill="#FFFFFF" d="M-131.691-339.668h-61.73v-16.504h61.73V-339.668z M-129.691-358.172h-65.73
			v20.504h65.73V-358.172z"/>
		<rect x="-114.478" y="-423.614" clip-path="url(#SVGID_20_)" fill="#FFFFFF" width="65.73" height="65.728"/>
		<polygon clip-path="url(#SVGID_20_)" points="-77.111,-392.179 -86.34,-392.179 -84.911,-398.777 -86.34,-409.671 
			-81.608,-411.275 -77.111,-409.759 -78.612,-398.861 		"/>
		<polygon clip-path="url(#SVGID_20_)" fill="none" stroke="#000000" stroke-width="0.458" stroke-miterlimit="10" points="
			-77.111,-392.179 -86.34,-392.179 -84.911,-398.777 -86.34,-409.671 -81.608,-411.275 -77.111,-409.759 -78.612,-398.861 		"/>
		
			<polygon clip-path="url(#SVGID_20_)" fill="none" stroke="#000000" stroke-width="0.735" stroke-linecap="round" stroke-linejoin="round" stroke-miterlimit="10" points="
			-77.111,-392.179 -86.34,-392.179 -84.911,-398.777 -86.34,-409.671 -81.608,-411.275 -77.111,-409.759 -78.612,-398.861 		"/>
		
			<ellipse transform="matrix(1 0.006 -0.006 1 -2.4735 0.4783)" clip-path="url(#SVGID_20_)" fill="none" stroke="#000000" stroke-width="0.735" stroke-linecap="round" stroke-linejoin="round" stroke-miterlimit="10" cx="-81.614" cy="-415.453" rx="2.093" ry="3.093"/>
		
			<polygon clip-path="url(#SVGID_20_)" fill="none" stroke="#000000" stroke-width="0.735" stroke-linecap="round" stroke-linejoin="round" stroke-miterlimit="10" points="
			-80.484,-392.179 -77.111,-392.179 -77.111,-362.953 -79.476,-362.953 -79.476,-378.558 		"/>
		
			<rect x="-75.974" y="-409.903" transform="matrix(-0.9946 0.1039 -0.1039 -0.9946 -191.3323 -787.6611)" clip-path="url(#SVGID_20_)" fill="none" stroke="#000000" stroke-width="0.735" stroke-linecap="round" stroke-linejoin="round" stroke-miterlimit="10" width="1.636" height="22.181"/>
		
			<polygon clip-path="url(#SVGID_20_)" fill="none" stroke="#000000" stroke-width="0.735" stroke-linecap="round" stroke-linejoin="round" stroke-miterlimit="10" points="
			-82.968,-392.179 -86.338,-392.179 -86.338,-362.953 -83.975,-362.953 -83.975,-378.558 		"/>
		
			<rect x="-89.112" y="-409.814" transform="matrix(0.9947 0.1026 -0.1026 0.9947 -41.3891 6.9564)" clip-path="url(#SVGID_20_)" fill="none" stroke="#000000" stroke-width="0.735" stroke-linecap="round" stroke-linejoin="round" stroke-miterlimit="10" width="1.637" height="22.181"/>
		<path clip-path="url(#SVGID_20_)" fill="#FFFFFF" d="M-50.748-339.666h-61.73v-16.504h61.73V-339.666z M-48.748-358.17h-65.73
			v20.504h65.73V-358.17z"/>
	</g>
	<text transform="matrix(1 0 0 1 -175.7114 -315.4551)" fill="#FFFFFF" font-family="'VarelaRound'" font-size="8.3781">DRESS</text>
	<text transform="matrix(1 0 0 1 -102.9644 -315.4551)"><tspan x="0" y="0" fill="#FFFFFF" font-family="'VarelaRound'" font-size="8.3781">B</tspan><tspan x="5.806" y="0" fill="#FFFFFF" font-family="'VarelaRound'" font-size="8.3781">O</tspan><tspan x="12.408" y="0" fill="#FFFFFF" font-family="'VarelaRound'" font-size="8.3781">T</tspan><tspan x="17.527" y="0" fill="#FFFFFF" font-family="'VarelaRound'" font-size="8.3781">T</tspan><tspan x="22.445" y="0" fill="#FFFFFF" font-family="'VarelaRound'" font-size="8.3781">OMS</tspan></text>
	<g>
		<defs>
			<rect id="SVGID_21_" x="-276.583" y="-903.5" width="1056" height="1056"/>
		</defs>
		<clipPath id="SVGID_22_">
			<use xlink:href="#SVGID_21_"  overflow="visible"/>
		</clipPath>
		<rect x="-195.42" y="-307.092" clip-path="url(#SVGID_22_)" fill="#FFFFFF" width="65.729" height="65.729"/>
		<polygon clip-path="url(#SVGID_22_)" points="-157.942,-275.658 -167.171,-275.658 -165.742,-282.256 -167.171,-293.15 
			-162.438,-294.754 -157.942,-293.24 -159.443,-282.34 		"/>
		<polygon clip-path="url(#SVGID_22_)" fill="none" stroke="#000000" stroke-width="0.458" stroke-miterlimit="10" points="
			-157.942,-275.658 -167.171,-275.658 -165.742,-282.256 -167.171,-293.15 -162.438,-294.754 -157.942,-293.24 -159.443,-282.34 		
			"/>
		
			<polygon clip-path="url(#SVGID_22_)" fill="none" stroke="#000000" stroke-width="0.735" stroke-linecap="round" stroke-linejoin="round" stroke-miterlimit="10" points="
			-157.942,-275.658 -167.171,-275.658 -165.742,-282.256 -167.171,-293.15 -162.438,-294.754 -157.942,-293.24 -159.443,-282.34 		
			"/>
		
			<ellipse transform="matrix(1 0.0056 -0.0056 1 -1.677 0.9052)" clip-path="url(#SVGID_22_)" fill="none" stroke="#000000" stroke-width="0.735" stroke-linecap="round" stroke-linejoin="round" stroke-miterlimit="10" cx="-162.444" cy="-298.932" rx="2.092" ry="3.092"/>
		
			<polygon clip-path="url(#SVGID_22_)" fill="none" stroke="#000000" stroke-width="0.735" stroke-linecap="round" stroke-linejoin="round" stroke-miterlimit="10" points="
			-161.314,-275.658 -157.942,-275.658 -157.942,-246.432 -160.307,-246.432 -160.307,-262.037 		"/>
		
			<rect x="-156.804" y="-293.383" transform="matrix(-0.9947 0.1027 -0.1027 -0.9947 -340.1381 -547.0734)" clip-path="url(#SVGID_22_)" fill="none" stroke="#000000" stroke-width="0.735" stroke-linecap="round" stroke-linejoin="round" stroke-miterlimit="10" width="1.636" height="22.181"/>
		
			<polygon clip-path="url(#SVGID_22_)" fill="none" stroke="#000000" stroke-width="0.735" stroke-linecap="round" stroke-linejoin="round" stroke-miterlimit="10" points="
			-163.799,-275.658 -167.17,-275.658 -167.17,-246.432 -164.805,-246.432 -164.805,-262.037 		"/>
		
			<rect x="-169.943" y="-293.293" transform="matrix(0.9947 0.1027 -0.1027 0.9947 -29.8752 15.8764)" clip-path="url(#SVGID_22_)" fill="none" stroke="#000000" stroke-width="0.735" stroke-linecap="round" stroke-linejoin="round" stroke-miterlimit="10" width="1.636" height="22.18"/>
		<path clip-path="url(#SVGID_22_)" fill="#FFFFFF" d="M-131.691-223.145h-61.73v-16.505h61.73V-223.145z M-129.691-241.648h-65.73
			v20.505h65.73V-241.648z"/>
		<rect x="-114.478" y="-307.091" clip-path="url(#SVGID_22_)" fill="#FFFFFF" width="65.73" height="65.729"/>
		<polygon clip-path="url(#SVGID_22_)" points="-77.111,-275.656 -86.34,-275.656 -84.911,-282.254 -86.34,-293.148 
			-81.608,-294.752 -77.111,-293.236 -78.612,-282.338 		"/>
		<polygon clip-path="url(#SVGID_22_)" fill="none" stroke="#000000" stroke-width="0.458" stroke-miterlimit="10" points="
			-77.111,-275.656 -86.34,-275.656 -84.911,-282.254 -86.34,-293.148 -81.608,-294.752 -77.111,-293.236 -78.612,-282.338 		"/>
		
			<polygon clip-path="url(#SVGID_22_)" fill="none" stroke="#000000" stroke-width="0.735" stroke-linecap="round" stroke-linejoin="round" stroke-miterlimit="10" points="
			-77.111,-275.656 -86.34,-275.656 -84.911,-282.254 -86.34,-293.148 -81.608,-294.752 -77.111,-293.236 -78.612,-282.338 		"/>
		
			<ellipse transform="matrix(1 0.0061 -0.0061 1 -1.8151 0.4897)" clip-path="url(#SVGID_22_)" fill="none" stroke="#000000" stroke-width="0.735" stroke-linecap="round" stroke-linejoin="round" stroke-miterlimit="10" cx="-81.614" cy="-298.931" rx="2.093" ry="3.093"/>
		
			<polygon clip-path="url(#SVGID_22_)" fill="none" stroke="#000000" stroke-width="0.735" stroke-linecap="round" stroke-linejoin="round" stroke-miterlimit="10" points="
			-80.484,-275.656 -77.111,-275.656 -77.111,-246.429 -79.476,-246.429 -79.476,-262.035 		"/>
		
			<rect x="-75.974" y="-293.38" transform="matrix(-0.9946 0.1039 -0.1039 -0.9946 -179.2283 -555.246)" clip-path="url(#SVGID_22_)" fill="none" stroke="#000000" stroke-width="0.735" stroke-linecap="round" stroke-linejoin="round" stroke-miterlimit="10" width="1.636" height="22.18"/>
		
			<polygon clip-path="url(#SVGID_22_)" fill="none" stroke="#000000" stroke-width="0.735" stroke-linecap="round" stroke-linejoin="round" stroke-miterlimit="10" points="
			-82.968,-275.656 -86.338,-275.656 -86.338,-246.429 -83.975,-246.429 -83.975,-262.035 		"/>
		
			<rect x="-89.112" y="-293.291" transform="matrix(0.9947 0.1026 -0.1026 0.9947 -29.4298 7.5717)" clip-path="url(#SVGID_22_)" fill="none" stroke="#000000" stroke-width="0.735" stroke-linecap="round" stroke-linejoin="round" stroke-miterlimit="10" width="1.637" height="22.181"/>
		<path clip-path="url(#SVGID_22_)" fill="#FFFFFF" d="M-50.748-223.145h-61.73v-16.503h61.73V-223.145z M-48.748-241.646h-65.73
			v20.503h65.73V-241.646z"/>
		<polyline clip-path="url(#SVGID_22_)" fill="none" stroke="#101014" stroke-width="2.304" stroke-miterlimit="10" points="
			-169.004,-465.123 -165.553,-461.671 -159.105,-468.121 		"/>
		
			<line clip-path="url(#SVGID_22_)" fill="none" stroke="#101014" stroke-width="2.304" stroke-miterlimit="10" x1="-85.291" y1="-460.99" x2="-78.162" y2="-468.119"/>
		
			<line clip-path="url(#SVGID_22_)" fill="none" stroke="#101014" stroke-width="2.304" stroke-miterlimit="10" x1="-85.177" y1="-351.482" x2="-78.047" y2="-344.354"/>
		
			<line clip-path="url(#SVGID_22_)" fill="none" stroke="#101014" stroke-width="2.304" stroke-miterlimit="10" x1="-85.291" y1="-344.467" x2="-78.162" y2="-351.596"/>
		
			<line clip-path="url(#SVGID_22_)" fill="none" stroke="#101014" stroke-width="2.304" stroke-miterlimit="10" x1="-166.066" y1="-351.482" x2="-158.936" y2="-344.354"/>
		
			<line clip-path="url(#SVGID_22_)" fill="none" stroke="#101014" stroke-width="2.304" stroke-miterlimit="10" x1="-166.179" y1="-344.467" x2="-159.05" y2="-351.596"/>
		<polyline clip-path="url(#SVGID_22_)" fill="none" stroke="#101014" stroke-width="2.304" stroke-miterlimit="10" points="
			-169.004,-232.078 -165.553,-228.627 -159.105,-235.074 		"/>
		
			<line clip-path="url(#SVGID_22_)" fill="none" stroke="#101014" stroke-width="2.304" stroke-miterlimit="10" x1="-85.177" y1="-234.961" x2="-78.047" y2="-227.83"/>
		
			<line clip-path="url(#SVGID_22_)" fill="none" stroke="#101014" stroke-width="2.304" stroke-miterlimit="10" x1="-85.291" y1="-227.945" x2="-78.162" y2="-235.074"/>
		
			<circle clip-path="url(#SVGID_22_)" fill="none" stroke="#101014" stroke-width="1.44" stroke-linecap="round" stroke-linejoin="round" stroke-miterlimit="10" cx="365.053" cy="-104.023" r="13.2"/>
		
			<line clip-path="url(#SVGID_22_)" fill="none" stroke="#101014" stroke-width="1.44" stroke-linecap="round" stroke-linejoin="round" stroke-miterlimit="10" x1="356.67" y1="-104.023" x2="373.438" y2="-104.023"/>
		
			<polyline clip-path="url(#SVGID_22_)" fill="none" stroke="#101014" stroke-width="1.44" stroke-linecap="round" stroke-linejoin="round" stroke-miterlimit="10" points="
			369.046,-99.641 373.438,-104.031 369.046,-108.411 		"/>
		
			<circle clip-path="url(#SVGID_22_)" fill="none" stroke="#101014" stroke-width="1.44" stroke-linecap="round" stroke-linejoin="round" stroke-miterlimit="10" cx="138.145" cy="-104.021" r="13.2"/>
		
			<line clip-path="url(#SVGID_22_)" fill="none" stroke="#101014" stroke-width="1.44" stroke-linecap="round" stroke-linejoin="round" stroke-miterlimit="10" x1="146.529" y1="-104.021" x2="129.761" y2="-104.021"/>
		
			<polyline clip-path="url(#SVGID_22_)" fill="none" stroke="#101014" stroke-width="1.44" stroke-linecap="round" stroke-linejoin="round" stroke-miterlimit="10" points="
			134.152,-108.404 129.761,-104.014 134.152,-99.631 		"/>
		<path clip-path="url(#SVGID_22_)" fill="#FFFFFF" d="M711.774-645.9c6.135,16.57-2.324,34.975-18.895,41.111
			c-16.568,6.135-34.975-2.326-41.107-18.894c-6.135-16.569,2.323-34.975,18.892-41.11
			C687.233-670.927,705.639-662.47,711.774-645.9"/>
		<path clip-path="url(#SVGID_22_)" fill="#CFCFC7" d="M679.034-638.195c0,0.529-0.423,0.953-0.953,0.953
			c-0.593,0-0.975-0.381-0.975-0.953v-0.637c0-1.396-0.084-4.279-3.283-4.279h-4.388v4.916c0,0.529-0.445,0.953-0.975,0.953
			s-0.953-0.424-0.953-0.953v-12.969c0-0.529,0.424-0.974,0.953-0.974h4.938c4.025,0,5.763,1.863,5.763,4.301
			c0,1.632-0.911,3.201-2.775,3.836c2.353,0.613,2.647,3.644,2.647,4.83V-638.195z M677.233-647.689
			c0-1.568-0.931-2.629-4.067-2.629h-3.73v5.385h3.836C675.644-644.933,677.233-645.886,677.233-647.689"/>
		<path clip-path="url(#SVGID_22_)" fill="#CFCFC7" d="M678.865-621.365c0,2.396-2.142,4.133-5.426,4.133
			c-2.118,0-3.815-0.488-5.043-1.016c-0.317-0.127-0.595-0.488-0.595-0.869c0-0.467,0.34-0.891,0.869-0.891
			c0.129,0,0.256,0.022,0.403,0.084c0.953,0.426,2.353,0.87,4.173,0.87c2.099,0,3.71-0.592,3.71-2.436
			c0-3.139-9.006-1.4-9.006-6.613c0-2.354,1.907-4.342,5.488-4.342c1.651,0,3.072,0.273,4.216,0.699
			c0.297,0.104,0.594,0.338,0.594,0.846c0,0.424-0.318,0.89-0.848,0.89c-0.105,0-0.232-0.043-0.338-0.084
			c-0.976-0.339-2.12-0.574-3.412-0.574c-2.141,0-3.771,0.828-3.771,2.418C669.88-624.583,678.865-626.958,678.865-621.365"/>
		<path clip-path="url(#SVGID_22_)" fill="#CFCFC7" d="M698.717-644.744c-0.085,4.43-2.924,7.609-7.438,7.609
			c-4.536,0-7.353-3.179-7.439-7.609c0.087-4.428,2.903-7.607,7.439-7.607C695.793-652.351,698.632-649.172,698.717-644.744
			 M696.788-644.744c0-3.264-2.011-5.807-5.508-5.807c-3.519,0-5.512,2.543-5.512,5.807s1.993,5.807,5.512,5.807
			C694.777-638.937,696.788-641.479,696.788-644.744"/>
		<path clip-path="url(#SVGID_22_)" fill="#CFCFC7" d="M696.461-618.333c0,0.51-0.403,0.891-0.911,0.891h-8.498
			c-0.53,0-0.955-0.424-0.955-0.953v-12.864c0-0.531,0.425-0.974,0.955-0.974h8.498c0.508,0,0.911,0.402,0.911,0.91
			c0,0.508-0.403,0.89-0.911,0.89h-7.524v4.682h6.762c0.508,0,0.911,0.404,0.911,0.912c0,0.508-0.403,0.891-0.911,0.891h-6.762
			v4.705h7.524C696.058-619.244,696.461-618.843,696.461-618.333"/>
		
			<line clip-path="url(#SVGID_22_)" fill="none" stroke="#101014" stroke-width="0.5" stroke-miterlimit="10" x1="161.417" y1="-640.25" x2="341.417" y2="-640.25"/>
	</g>
	<text transform="matrix(1 0 0 1 138.6162 -652.4648)"><tspan x="0" y="0" fill="#101014" font-family="'Garamond'" font-size="14.1985" letter-spacing="3">G</tspan><tspan x="14" y="0" fill="#101014" font-family="'Garamond'" font-size="14.1985" letter-spacing="2">OO</tspan><tspan x="41.836" y="0" fill="#101014" font-family="'Garamond'" font-size="14.1985" letter-spacing="2">G</tspan><tspan x="55.381" y="0" fill="#101014" font-family="'Garamond'" font-size="14.1985" letter-spacing="3">L</tspan><tspan x="66.666" y="0" fill="#101014" font-family="'Garamond'" font-size="14.1985" letter-spacing="2">E </tspan><tspan x="85.184" y="0" fill="#101014" font-family="'Garamond'" font-size="14.1985" letter-spacing="2">+ </tspan><tspan x="103.876" y="0" fill="#101014" font-family="'Garamond'" font-size="14.1985" letter-spacing="1">F</tspan><tspan x="113.808" y="0" fill="#101014" font-family="'Garamond'" font-size="14.1985" letter-spacing="3">A</tspan><tspan x="126.562" y="0" fill="#101014" font-family="'Garamond'" font-size="14.1985" letter-spacing="2">S</tspan><tspan x="136.003" y="0" fill="#101014" font-family="'Garamond'" font-size="14.1985" letter-spacing="3">H</tspan><tspan x="149.951" y="0" fill="#101014" font-family="'Garamond'" font-size="14.1985" letter-spacing="2">I</tspan><tspan x="157.461" y="0" fill="#101014" font-family="'Garamond'" font-size="14.1985" letter-spacing="2">O</tspan><tspan x="171.138" y="0" fill="#101014" font-family="'Garamond'" font-size="14.1985" letter-spacing="2">N</tspan><tspan x="184.924" y="0" fill="#101014" font-family="'Garamond'" font-size="14.1985" letter-spacing="2"> </tspan><tspan x="191.3" y="0" fill="#101014" font-family="'Garamond'" font-size="14.1985" letter-spacing="3">2</tspan><tspan x="201.037" y="0" fill="#101014" font-family="'Garamond'" font-size="14.1985" letter-spacing="2">0</tspan><tspan x="210.276" y="0" fill="#101014" font-family="'Garamond'" font-size="14.1985" letter-spacing="1">1</tspan><tspan x="218.834" y="0" fill="#101014" font-family="'Garamond'" font-size="14.1985">4</tspan></text>
	<text transform="matrix(1 0 0 1 171.687 -617.3472)"><tspan x="0" y="0" fill="#101014" font-family="'Karla-Regular'" font-size="14" letter-spacing="2">COLL</tspan><tspan x="41.93" y="0" fill="#101014" font-family="'Karla-Regular'" font-size="14" letter-spacing="2">E</tspan><tspan x="52.583" y="0" fill="#101014" font-family="'Karla-Regular'" font-size="14" letter-spacing="2">CT</tspan><tspan x="73.779" y="0" fill="#101014" font-family="'Karla-Regular'" font-size="14" letter-spacing="2">ION</tspan><tspan x="104.691" y="0" fill="#101014" font-family="'Karla-Regular'" font-size="14" letter-spacing="2"> </tspan><tspan x="110.823" y="0" fill="#101014" font-family="'Karla-Regular'" font-size="14" letter-spacing="2">NA</tspan><tspan x="134.035" y="0" fill="#101014" font-family="'Karla-Regular'" font-size="14" letter-spacing="2">M</tspan><tspan x="148.707" y="0" fill="#101014" font-family="'Karla-Regular'" font-size="14">E</tspan></text>
	<text transform="matrix(1 0 0 1 205.749 -90.3027)"><tspan x="0" y="0" fill="#101014" font-family="'Karla-Regular'" font-size="14" letter-spacing="2">G</tspan><tspan x="11.774" y="0" fill="#101014" font-family="'Karla-Regular'" font-size="14" letter-spacing="2">A</tspan><tspan x="22.428" y="0" fill="#101014" font-family="'Karla-Regular'" font-size="14" letter-spacing="2">R</tspan><tspan x="33.417" y="0" fill="#101014" font-family="'Karla-Regular'" font-size="14" letter-spacing="2">M</tspan><tspan x="47.753" y="0" fill="#101014" font-family="'Karla-Regular'" font-size="14" letter-spacing="2">E</tspan><tspan x="57.931" y="0" fill="#101014" font-family="'Karla-Regular'" font-size="14" letter-spacing="2">NT</tspan><tspan x="80.023" y="0" fill="#101014" font-family="'Karla-Regular'" font-size="14">S</tspan></text>
	<g>
		<defs>
			<rect id="SVGID_23_" x="-276.583" y="-903.5" width="1056" height="1056"/>
		</defs>
		<clipPath id="SVGID_24_">
			<use xlink:href="#SVGID_23_"  overflow="visible"/>
		</clipPath>
		
			<circle clip-path="url(#SVGID_24_)" fill="none" stroke="#101014" stroke-width="1.44" stroke-linecap="round" stroke-linejoin="round" stroke-miterlimit="10" cx="211.461" cy="-117.812" r="3.354"/>
		
			<circle clip-path="url(#SVGID_24_)" fill="none" stroke="#101014" stroke-width="1.44" stroke-linecap="round" stroke-linejoin="round" stroke-miterlimit="10" cx="227.444" cy="-117.812" r="3.354"/>
		<path clip-path="url(#SVGID_24_)" fill="#F61816" d="M243.424-114.459c-1.852,0-3.352-1.502-3.352-3.354s1.5-3.354,3.352-3.354
			c1.854,0,3.354,1.502,3.354,3.354S245.278-114.459,243.424-114.459"/>
		<circle clip-path="url(#SVGID_24_)" fill="none" stroke="#F61816" stroke-miterlimit="10" cx="243.424" cy="-117.812" r="3.354"/>
		
			<circle clip-path="url(#SVGID_24_)" fill="none" stroke="#101014" stroke-width="1.44" stroke-linecap="round" stroke-linejoin="round" stroke-miterlimit="10" cx="259.407" cy="-117.812" r="3.354"/>
		
			<circle clip-path="url(#SVGID_24_)" fill="none" stroke="#101014" stroke-width="1.44" stroke-linecap="round" stroke-linejoin="round" stroke-miterlimit="10" cx="275.387" cy="-117.812" r="3.354"/>
		
			<circle clip-path="url(#SVGID_24_)" fill="none" stroke="#101014" stroke-width="1.44" stroke-linecap="round" stroke-linejoin="round" stroke-miterlimit="10" cx="291.37" cy="-117.812" r="3.354"/>
	</g>
	<text transform="matrix(1 0 0 1 -233.5718 -76.0664)"><tspan x="0" y="0" fill="#404D4F" font-family="'Karla-Bold'" font-size="10">Google | Privacy &amp; </tspan><tspan x="89.679" y="0" fill="#404D4F" font-family="'Karla-Bold'" font-size="10">T</tspan><tspan x="94.168" y="0" fill="#404D4F" font-family="'Karla-Bold'" font-size="10">erms</tspan></text>
	<text transform="matrix(1 0 0 1 -115.1816 -76.0664)" fill="#404D4F" font-family="'Karla-Bold'" font-size="10"> | Logout</text>
	<g>
		<defs>
			<rect id="SVGID_25_" x="-276.583" y="-903.5" width="1056" height="1056"/>
		</defs>
		<clipPath id="SVGID_26_">
			<use xlink:href="#SVGID_25_"  overflow="visible"/>
		</clipPath>
		
			<line clip-path="url(#SVGID_26_)" fill="none" stroke="#101014" stroke-width="1.44" stroke-linecap="round" stroke-linejoin="round" stroke-miterlimit="10" x1="251.417" y1="-632.446" x2="251.417" y2="-749.5"/>
	</g>
	<text transform="matrix(1 0 0 1 205.7144 -796.2505)"><tspan x="0" y="0" fill="#101014" font-family="'VarelaRound'" font-size="10.9061">DISPL</tspan><tspan x="31.583" y="0" fill="#101014" font-family="'VarelaRound'" font-size="10.9061">A</tspan><tspan x="38.498" y="0" fill="#101014" font-family="'VarelaRound'" font-size="10.9061">Y</tspan><tspan x="45.445" y="0" fill="#101014" font-family="'VarelaRound'" font-size="10.9061">S USERS</tspan></text>
	<text transform="matrix(1 0 0 1 205.1255 -783.1631)" fill="#101014" font-family="'VarelaRound'" font-size="10.9061">INPUTTED NAME</text>
	<g display="none">
		<defs>
			<rect id="SVGID_27_" x="-3533.624" y="-903.5" width="8645.261" height="2170.439"/>
		</defs>
		<clipPath id="SVGID_28_" display="inline">
			<use xlink:href="#SVGID_27_"  overflow="visible"/>
		</clipPath>
		<path display="inline" clip-path="url(#SVGID_28_)" fill-rule="evenodd" clip-rule="evenodd" fill="#FF0000" d="M679.408,152.5
			h57.009v-1056h-57.009V152.5z M596.425,152.5h56.979v-1056h-56.979V152.5z M513.415,152.5h57.008v-1056h-57.008V152.5z
			 M430.43,152.5h56.981v-1056H430.43V152.5z M347.42,152.5h57.009v-1056H347.42V152.5z M264.41,152.5h57.008v-1056H264.41V152.5z
			 M181.426,152.5h56.98v-1056h-56.98V152.5z M98.416,152.5h57.008v-1056H98.416V152.5z M15.404,152.5h57.008v-1056H15.404V152.5z
			 M-67.578,152.5h56.98v-1056h-56.98V152.5z M-150.589,152.5h57.008v-1056h-57.008V152.5z M-233.571,152.5h56.979v-1056h-56.979
			V152.5z"/>
	</g>
	<polygon points="-208.45,193.784 -217.678,193.784 -216.25,187.185 -217.678,176.29 -212.947,174.687 -208.45,176.202 
		-209.951,187.103 	"/>
	<polygon fill="none" stroke="#000000" stroke-width="0.458" stroke-miterlimit="10" points="-208.45,193.784 -217.678,193.784 
		-216.25,187.185 -217.678,176.29 -212.947,174.687 -208.45,176.202 -209.951,187.103 	"/>
	
		<polygon fill="none" stroke="#000000" stroke-width="0.735" stroke-linecap="round" stroke-linejoin="round" stroke-miterlimit="10" points="
		-208.45,193.784 -217.678,193.784 -216.25,187.185 -217.678,176.29 -212.947,174.687 -208.45,176.202 -209.951,187.103 	"/>
	
		<ellipse transform="matrix(1 0.0058 -0.0058 1 0.9912 1.2453)" fill="none" stroke="#000000" stroke-width="0.735" stroke-linecap="round" stroke-linejoin="round" stroke-miterlimit="10" cx="-212.952" cy="170.51" rx="2.092" ry="3.09"/>
	
		<polygon fill="none" stroke="#000000" stroke-width="0.735" stroke-linecap="round" stroke-linejoin="round" stroke-miterlimit="10" points="
		-211.823,193.784 -208.45,193.784 -208.45,223.01 -210.815,223.01 -210.815,207.403 	"/>
	
		<rect x="-207.312" y="176.059" transform="matrix(-0.9947 0.1027 -0.1027 -0.9947 -392.6782 394.5144)" fill="none" stroke="#000000" stroke-width="0.735" stroke-linecap="round" stroke-linejoin="round" stroke-miterlimit="10" width="1.636" height="22.179"/>
	
		<polygon fill="none" stroke="#000000" stroke-width="0.735" stroke-linecap="round" stroke-linejoin="round" stroke-miterlimit="10" points="
		-214.307,193.784 -217.677,193.784 -217.677,223.01 -215.314,223.01 -215.314,207.403 	"/>
	
		<rect x="-220.451" y="176.147" transform="matrix(0.9947 0.1026 -0.1026 0.9947 18.0572 23.5307)" fill="none" stroke="#000000" stroke-width="0.735" stroke-linecap="round" stroke-linejoin="round" stroke-miterlimit="10" width="1.637" height="22.181"/>
	<path fill="#101014" d="M-131.163,19.81c-7.444,0-13.5-6.056-13.5-13.499c0-7.444,6.056-13.501,13.5-13.501
		c7.444,0,13.5,6.057,13.5,13.501C-117.664,13.754-123.719,19.81-131.163,19.81z M-131.163-5.794
		c-6.674,0-12.104,5.431-12.104,12.104c0,6.673,5.429,12.103,12.104,12.103c6.674,0,12.103-5.43,12.103-12.103
		C-119.06-0.363-124.489-5.794-131.163-5.794z"/>
	<path fill="#101014" d="M-122.779,7.03h-16.768c-0.397,0-0.72-0.322-0.72-0.72s0.323-0.72,0.72-0.72h16.768
		c0.397,0,0.72,0.322,0.72,0.72S-122.382,7.03-122.779,7.03z"/>
	<path fill="#101014" d="M-135.156,11.421c-0.184,0-0.368-0.07-0.509-0.21l-4.391-4.383c-0.135-0.135-0.211-0.318-0.211-0.51
		c0-0.19,0.076-0.374,0.211-0.509l4.391-4.391c0.281-0.281,0.737-0.281,1.019,0s0.281,0.736,0,1.018l-3.882,3.882l3.881,3.873
		c0.281,0.281,0.282,0.737,0.001,1.019C-134.787,11.351-134.972,11.421-135.156,11.421z"/>
	<path fill="#101014" d="M-39.534,13.612c-0.696,0-1.295-0.523-1.373-1.23l-0.918-8.287c-0.041-0.365,0.066-0.73,0.295-1.018
		c0.229-0.286,0.563-0.47,0.928-0.51l8.295-0.91c0.759-0.077,1.442,0.464,1.525,1.225c0.083,0.759-0.464,1.441-1.224,1.525
		l-6.919,0.759l0.766,6.911c0.084,0.759-0.463,1.442-1.222,1.527C-39.432,13.609-39.483,13.612-39.534,13.612z"/>
	<path fill="#101014" d="M-52.296,22.69c-10.722,0-19.121-4.931-19.121-11.225c0-4.486,4.263-8.401,11.126-10.22
		c0.737-0.194,1.495,0.245,1.691,0.982c0.195,0.738-0.245,1.496-0.983,1.691c-5.509,1.459-9.069,4.421-9.069,7.546
		c0,4.585,7.49,8.459,16.355,8.459s16.355-3.874,16.355-8.459c0-1.952-1.373-3.488-2.523-4.433l-2.784-1.961
		c-0.624-0.44-0.772-1.304-0.332-1.928c0.441-0.625,1.304-0.771,1.928-0.332l2.863,2.021c2.392,1.958,3.614,4.23,3.614,6.632
		C-33.175,17.76-41.574,22.69-52.296,22.69z"/>
	<polygon fill="#101014" points="4.49,9.49 0.224,5.225 1.853,3.596 4.49,6.232 10.123,0.6 11.752,2.229 	"/>
	<g>
		
			<rect x="1.004" y="15.283" transform="matrix(0.7072 0.7071 -0.7071 0.7072 13.3904 0.5387)" fill="#101014" width="10.082" height="2.304"/>
		
			<rect x="4.779" y="11.28" transform="matrix(0.7071 0.7071 -0.7071 0.7071 13.2781 0.5864)" fill="#101014" width="2.304" height="10.082"/>
	</g>
	<g>
		<path fill="#FFFFFF" d="M-184.583,266.057c6.135,16.57-2.324,34.974-18.895,41.11c-16.568,6.135-34.975-2.326-41.107-18.894
			c-6.135-16.568,2.323-34.974,18.892-41.108C-209.124,241.03-190.717,249.487-184.583,266.057"/>
		<path fill="#CFCFC7" d="M-217.323,273.762c0,0.529-0.423,0.953-0.953,0.953c-0.593,0-0.975-0.381-0.975-0.953v-0.637
			c0-1.396-0.084-4.279-3.283-4.279h-4.388v4.916c0,0.529-0.445,0.953-0.975,0.953s-0.953-0.424-0.953-0.953v-12.968
			c0-0.529,0.424-0.975,0.953-0.975h4.938c4.025,0,5.763,1.862,5.763,4.3c0,1.633-0.911,3.201-2.775,3.836
			c2.353,0.613,2.647,3.645,2.647,4.83V273.762z M-219.124,264.268c0-1.568-0.931-2.629-4.067-2.629h-3.73v5.385h3.836
			C-220.712,267.023-219.124,266.07-219.124,264.268"/>
		<path fill="#CFCFC7" d="M-217.492,290.592c0,2.396-2.142,4.132-5.426,4.132c-2.118,0-3.815-0.488-5.043-1.016
			c-0.317-0.127-0.595-0.487-0.595-0.868c0-0.467,0.34-0.891,0.869-0.891c0.129,0,0.256,0.021,0.403,0.084
			c0.953,0.426,2.353,0.869,4.173,0.869c2.099,0,3.71-0.592,3.71-2.436c0-3.139-9.006-1.4-9.006-6.613
			c0-2.354,1.907-4.342,5.488-4.342c1.651,0,3.072,0.273,4.216,0.699c0.297,0.104,0.594,0.338,0.594,0.846
			c0,0.424-0.318,0.891-0.848,0.891c-0.105,0-0.232-0.043-0.338-0.084c-0.976-0.34-2.12-0.574-3.412-0.574
			c-2.141,0-3.771,0.828-3.771,2.418C-226.476,287.373-217.492,284.998-217.492,290.592"/>
		<path fill="#CFCFC7" d="M-197.639,267.213c-0.085,4.43-2.924,7.609-7.438,7.609c-4.536,0-7.353-3.18-7.439-7.609
			c0.087-4.428,2.903-7.606,7.439-7.606C-200.563,259.606-197.724,262.785-197.639,267.213 M-199.569,267.213
			c0-3.264-2.011-5.807-5.508-5.807c-3.519,0-5.512,2.543-5.512,5.807s1.993,5.807,5.512,5.807
			C-201.58,273.02-199.569,270.477-199.569,267.213"/>
		<path fill="#CFCFC7" d="M-199.895,293.622c0,0.51-0.403,0.891-0.911,0.891h-8.498c-0.53,0-0.955-0.424-0.955-0.953v-12.862
			c0-0.531,0.425-0.975,0.955-0.975h8.498c0.508,0,0.911,0.402,0.911,0.91s-0.403,0.891-0.911,0.891h-7.524v4.682h6.762
			c0.508,0,0.911,0.404,0.911,0.912s-0.403,0.891-0.911,0.891h-6.762v4.705h7.524C-200.298,292.713-199.895,293.113-199.895,293.622
			"/>
	</g>
</g>
<g id="Layer_2">
	<rect x="-246.583" y="-695.086" fill="none" width="996" height="631.446"/>
	<rect x="-11.664" y="-695.085" fill="none" stroke="#F6F7F4" stroke-miterlimit="10" width="527.08" height="631.444"/>
</g>
</svg>
