<?xml version="1.0" encoding="utf-8"?>
<!-- Generator: Adobe Illustrator 15.0.0, SVG Export Plug-In . SVG Version: 6.00 Build 0)  -->
<!DOCTYPE svg PUBLIC "-//W3C//DTD SVG 1.1//EN" "http://www.w3.org/Graphics/SVG/1.1/DTD/svg11.dtd">
<svg version="1.1" xmlns="http://www.w3.org/2000/svg" xmlns:xlink="http://www.w3.org/1999/xlink" x="0px" y="0px" width="27.84px"
	 height="27.84px" viewBox="0 0 27.84 27.84" enable-background="new 0 0 27.84 27.84" xml:space="preserve">
<g id="Layer_1">
	<rect x="-130.167" y="-687.476" fill="#F6F7F4" width="996" height="631.445"/>
	<g>
		<defs>
			<rect id="SVGID_1_" x="-130.167" y="-687.475" width="996" height="631.445"/>
		</defs>
		<clipPath id="SVGID_2_">
			<use xlink:href="#SVGID_1_"  overflow="visible"/>
		</clipPath>
		<path clip-path="url(#SVGID_2_)" fill="#CFCFC7" d="M-104.072-293.331c0,0.855-0.694,1.549-1.549,1.549
			c-0.857,0-1.55-0.693-1.55-1.549c0-0.854,0.693-1.549,1.55-1.549C-104.766-294.88-104.072-294.185-104.072-293.331"/>
		<path clip-path="url(#SVGID_2_)" fill="#CFCFC7" d="M-17.99-293.331c0,0.855-0.693,1.549-1.55,1.549
			c-0.854,0-1.547-0.693-1.547-1.549c0-0.854,0.693-1.549,1.547-1.549C-18.683-294.88-17.99-294.185-17.99-293.331"/>
		<path clip-path="url(#SVGID_2_)" fill="#CFCFC7" d="M68.093-293.331c0,0.855-0.693,1.549-1.549,1.549
			c-0.854,0-1.549-0.693-1.549-1.549c0-0.854,0.695-1.549,1.549-1.549C67.4-294.88,68.093-294.185,68.093-293.331"/>
		<path clip-path="url(#SVGID_2_)" fill="#CFCFC7" d="M154.176-293.331c0,0.855-0.693,1.549-1.55,1.549
			c-0.854,0-1.549-0.693-1.549-1.549c0-0.854,0.695-1.549,1.549-1.549C153.483-294.88,154.176-294.185,154.176-293.331"/>
		<path clip-path="url(#SVGID_2_)" fill="#CFCFC7" d="M240.259-293.331c0,0.855-0.694,1.549-1.55,1.549s-1.549-0.693-1.549-1.549
			c0-0.854,0.693-1.549,1.549-1.549S240.259-294.185,240.259-293.331"/>
		<path clip-path="url(#SVGID_2_)" fill="#CFCFC7" d="M326.343-293.331c0,0.855-0.693,1.549-1.551,1.549
			c-0.855,0-1.549-0.693-1.549-1.549c0-0.854,0.694-1.549,1.549-1.549C325.65-294.88,326.343-294.185,326.343-293.331"/>
		<path clip-path="url(#SVGID_2_)" fill="#CFCFC7" d="M412.426-293.331c0,0.855-0.695,1.549-1.55,1.549
			c-0.857,0-1.551-0.693-1.551-1.549c0-0.854,0.693-1.549,1.551-1.549C411.731-294.88,412.426-294.185,412.426-293.331"/>
		<path clip-path="url(#SVGID_2_)" fill="#CFCFC7" d="M498.509-293.331c0,0.855-0.695,1.549-1.554,1.549
			c-0.853,0-1.546-0.693-1.546-1.549c0-0.854,0.693-1.549,1.546-1.549C497.814-294.88,498.509-294.185,498.509-293.331"/>
		<path clip-path="url(#SVGID_2_)" fill="#CFCFC7" d="M584.588-293.331c0,0.855-0.694,1.549-1.549,1.549s-1.548-0.693-1.548-1.549
			c0-0.854,0.693-1.549,1.548-1.549S584.588-294.185,584.588-293.331"/>
		<path clip-path="url(#SVGID_2_)" fill="#CFCFC7" d="M670.672-293.331c0,0.855-0.691,1.549-1.547,1.549
			c-0.857,0-1.55-0.693-1.55-1.549c0-0.854,0.692-1.549,1.55-1.549C669.981-294.88,670.672-294.185,670.672-293.331"/>
		<path clip-path="url(#SVGID_2_)" fill="#CFCFC7" d="M756.754-293.331c0,0.855-0.691,1.549-1.55,1.549
			c-0.854,0-1.548-0.693-1.548-1.549c0-0.854,0.693-1.549,1.548-1.549C756.063-294.88,756.754-294.185,756.754-293.331"/>
		<path clip-path="url(#SVGID_2_)" fill="#CFCFC7" d="M842.835-293.331c0,0.855-0.689,1.549-1.548,1.549
			c-0.855,0-1.55-0.693-1.55-1.549c0-0.854,0.694-1.549,1.55-1.549C842.146-294.88,842.835-294.185,842.835-293.331"/>
		<path clip-path="url(#SVGID_2_)" fill="#CFCFC7" d="M-104.072-383.719c0,0.857-0.694,1.551-1.549,1.551
			c-0.857,0-1.55-0.694-1.55-1.551c0-0.854,0.693-1.549,1.55-1.549C-104.766-385.268-104.072-384.573-104.072-383.719"/>
		<path clip-path="url(#SVGID_2_)" fill="#CFCFC7" d="M-17.99-383.719c0,0.857-0.693,1.551-1.55,1.551
			c-0.854,0-1.547-0.694-1.547-1.551c0-0.854,0.693-1.549,1.547-1.549C-18.683-385.268-17.99-384.573-17.99-383.719"/>
		<path clip-path="url(#SVGID_2_)" fill="#CFCFC7" d="M68.093-383.719c0,0.857-0.693,1.551-1.549,1.551
			c-0.854,0-1.549-0.694-1.549-1.551c0-0.854,0.695-1.549,1.549-1.549C67.4-385.268,68.093-384.573,68.093-383.719"/>
		<path clip-path="url(#SVGID_2_)" fill="#CFCFC7" d="M154.176-383.719c0,0.857-0.693,1.551-1.55,1.551
			c-0.854,0-1.549-0.694-1.549-1.551c0-0.854,0.695-1.549,1.549-1.549C153.483-385.268,154.176-384.573,154.176-383.719"/>
		<path clip-path="url(#SVGID_2_)" fill="#CFCFC7" d="M240.259-383.719c0,0.857-0.694,1.551-1.55,1.551s-1.549-0.694-1.549-1.551
			c0-0.854,0.693-1.549,1.549-1.549S240.259-384.573,240.259-383.719"/>
		<path clip-path="url(#SVGID_2_)" fill="#CFCFC7" d="M326.343-383.719c0,0.857-0.693,1.551-1.551,1.551
			c-0.855,0-1.549-0.694-1.549-1.551c0-0.854,0.694-1.549,1.549-1.549C325.65-385.268,326.343-384.573,326.343-383.719"/>
		<path clip-path="url(#SVGID_2_)" fill="#CFCFC7" d="M412.426-383.719c0,0.857-0.695,1.551-1.55,1.551
			c-0.857,0-1.551-0.694-1.551-1.551c0-0.854,0.693-1.549,1.551-1.549C411.731-385.268,412.426-384.573,412.426-383.719"/>
		<path clip-path="url(#SVGID_2_)" fill="#CFCFC7" d="M498.509-383.719c0,0.857-0.695,1.551-1.554,1.551
			c-0.853,0-1.546-0.694-1.546-1.551c0-0.854,0.693-1.549,1.546-1.549C497.814-385.268,498.509-384.573,498.509-383.719"/>
		<path clip-path="url(#SVGID_2_)" fill="#CFCFC7" d="M584.588-383.719c0,0.857-0.694,1.551-1.549,1.551s-1.548-0.694-1.548-1.551
			c0-0.854,0.693-1.549,1.548-1.549S584.588-384.573,584.588-383.719"/>
		<path clip-path="url(#SVGID_2_)" fill="#CFCFC7" d="M670.672-383.719c0,0.857-0.691,1.551-1.547,1.551
			c-0.857,0-1.55-0.694-1.55-1.551c0-0.854,0.692-1.549,1.55-1.549C669.981-385.268,670.672-384.573,670.672-383.719"/>
		<path clip-path="url(#SVGID_2_)" fill="#CFCFC7" d="M756.754-383.719c0,0.857-0.691,1.551-1.55,1.551
			c-0.854,0-1.548-0.694-1.548-1.551c0-0.854,0.693-1.549,1.548-1.549C756.063-385.268,756.754-384.573,756.754-383.719"/>
		<path clip-path="url(#SVGID_2_)" fill="#CFCFC7" d="M842.835-383.719c0,0.857-0.689,1.551-1.548,1.551
			c-0.855,0-1.55-0.694-1.55-1.551c0-0.854,0.694-1.549,1.55-1.549C842.146-385.268,842.835-384.573,842.835-383.719"/>
		<path clip-path="url(#SVGID_2_)" fill="#CFCFC7" d="M-104.072-474.104c0,0.855-0.694,1.549-1.549,1.549
			c-0.857,0-1.55-0.694-1.55-1.549c0-0.857,0.693-1.549,1.55-1.549C-104.766-475.653-104.072-474.961-104.072-474.104"/>
		<path clip-path="url(#SVGID_2_)" fill="#CFCFC7" d="M-17.99-474.104c0,0.855-0.693,1.549-1.55,1.549
			c-0.854,0-1.547-0.694-1.547-1.549c0-0.857,0.693-1.549,1.547-1.549C-18.683-475.653-17.99-474.961-17.99-474.104"/>
		<path clip-path="url(#SVGID_2_)" fill="#CFCFC7" d="M68.093-474.104c0,0.855-0.693,1.549-1.549,1.549
			c-0.854,0-1.549-0.694-1.549-1.549c0-0.857,0.695-1.549,1.549-1.549C67.4-475.653,68.093-474.961,68.093-474.104"/>
		<path clip-path="url(#SVGID_2_)" fill="#CFCFC7" d="M154.176-474.104c0,0.855-0.693,1.549-1.55,1.549
			c-0.854,0-1.549-0.694-1.549-1.549c0-0.857,0.695-1.549,1.549-1.549C153.483-475.653,154.176-474.961,154.176-474.104"/>
		<path clip-path="url(#SVGID_2_)" fill="#CFCFC7" d="M240.259-474.104c0,0.855-0.694,1.549-1.55,1.549s-1.549-0.694-1.549-1.549
			c0-0.857,0.693-1.549,1.549-1.549S240.259-474.961,240.259-474.104"/>
		<path clip-path="url(#SVGID_2_)" fill="#CFCFC7" d="M326.343-474.104c0,0.855-0.693,1.549-1.551,1.549
			c-0.855,0-1.549-0.694-1.549-1.549c0-0.857,0.694-1.549,1.549-1.549C325.65-475.653,326.343-474.961,326.343-474.104"/>
		<path clip-path="url(#SVGID_2_)" fill="#CFCFC7" d="M412.426-474.104c0,0.855-0.695,1.549-1.55,1.549
			c-0.857,0-1.551-0.694-1.551-1.549c0-0.857,0.693-1.549,1.551-1.549C411.731-475.653,412.426-474.961,412.426-474.104"/>
		<path clip-path="url(#SVGID_2_)" fill="#CFCFC7" d="M498.509-474.104c0,0.855-0.695,1.549-1.554,1.549
			c-0.853,0-1.546-0.694-1.546-1.549c0-0.857,0.693-1.549,1.546-1.549C497.814-475.653,498.509-474.961,498.509-474.104"/>
		<path clip-path="url(#SVGID_2_)" fill="#CFCFC7" d="M584.588-474.104c0,0.855-0.694,1.549-1.549,1.549s-1.548-0.694-1.548-1.549
			c0-0.857,0.693-1.549,1.548-1.549S584.588-474.961,584.588-474.104"/>
		<path clip-path="url(#SVGID_2_)" fill="#CFCFC7" d="M670.672-474.104c0,0.855-0.691,1.549-1.547,1.549
			c-0.857,0-1.55-0.694-1.55-1.549c0-0.857,0.692-1.549,1.55-1.549C669.981-475.653,670.672-474.961,670.672-474.104"/>
		<path clip-path="url(#SVGID_2_)" fill="#CFCFC7" d="M756.754-474.104c0,0.855-0.691,1.549-1.55,1.549
			c-0.854,0-1.548-0.694-1.548-1.549c0-0.857,0.693-1.549,1.548-1.549C756.063-475.653,756.754-474.961,756.754-474.104"/>
		<path clip-path="url(#SVGID_2_)" fill="#CFCFC7" d="M842.835-474.104c0,0.855-0.689,1.549-1.548,1.549
			c-0.855,0-1.55-0.694-1.55-1.549c0-0.857,0.694-1.549,1.55-1.549C842.146-475.653,842.835-474.961,842.835-474.104"/>
		<path clip-path="url(#SVGID_2_)" fill="#CFCFC7" d="M-104.072-564.493c0,0.857-0.694,1.551-1.549,1.551
			c-0.857,0-1.55-0.694-1.55-1.551c0-0.854,0.693-1.549,1.55-1.549C-104.766-566.042-104.072-565.347-104.072-564.493"/>
		<path clip-path="url(#SVGID_2_)" fill="#CFCFC7" d="M-17.99-564.493c0,0.857-0.693,1.551-1.55,1.551
			c-0.854,0-1.547-0.694-1.547-1.551c0-0.854,0.693-1.549,1.547-1.549C-18.683-566.042-17.99-565.347-17.99-564.493"/>
		<path clip-path="url(#SVGID_2_)" fill="#CFCFC7" d="M68.093-564.493c0,0.857-0.693,1.551-1.549,1.551
			c-0.854,0-1.549-0.694-1.549-1.551c0-0.854,0.695-1.549,1.549-1.549C67.4-566.042,68.093-565.347,68.093-564.493"/>
		<path clip-path="url(#SVGID_2_)" fill="#CFCFC7" d="M154.176-564.493c0,0.857-0.693,1.551-1.55,1.551
			c-0.854,0-1.549-0.694-1.549-1.551c0-0.854,0.695-1.549,1.549-1.549C153.483-566.042,154.176-565.347,154.176-564.493"/>
		<path clip-path="url(#SVGID_2_)" fill="#CFCFC7" d="M240.259-564.493c0,0.857-0.694,1.551-1.55,1.551s-1.549-0.694-1.549-1.551
			c0-0.854,0.693-1.549,1.549-1.549S240.259-565.347,240.259-564.493"/>
		<path clip-path="url(#SVGID_2_)" fill="#CFCFC7" d="M326.343-564.493c0,0.857-0.693,1.551-1.551,1.551
			c-0.855,0-1.549-0.694-1.549-1.551c0-0.854,0.694-1.549,1.549-1.549C325.65-566.042,326.343-565.347,326.343-564.493"/>
		<path clip-path="url(#SVGID_2_)" fill="#CFCFC7" d="M412.426-564.493c0,0.857-0.695,1.551-1.55,1.551
			c-0.857,0-1.551-0.694-1.551-1.551c0-0.854,0.693-1.549,1.551-1.549C411.731-566.042,412.426-565.347,412.426-564.493"/>
		<path clip-path="url(#SVGID_2_)" fill="#CFCFC7" d="M498.509-564.493c0,0.857-0.695,1.551-1.554,1.551
			c-0.853,0-1.546-0.694-1.546-1.551c0-0.854,0.693-1.549,1.546-1.549C497.814-566.042,498.509-565.347,498.509-564.493"/>
		<path clip-path="url(#SVGID_2_)" fill="#CFCFC7" d="M584.588-564.493c0,0.857-0.694,1.551-1.549,1.551s-1.548-0.694-1.548-1.551
			c0-0.854,0.693-1.549,1.548-1.549S584.588-565.347,584.588-564.493"/>
		<path clip-path="url(#SVGID_2_)" fill="#CFCFC7" d="M670.672-564.493c0,0.857-0.691,1.551-1.547,1.551
			c-0.857,0-1.55-0.694-1.55-1.551c0-0.854,0.692-1.549,1.55-1.549C669.981-566.042,670.672-565.347,670.672-564.493"/>
		<path clip-path="url(#SVGID_2_)" fill="#CFCFC7" d="M756.754-564.493c0,0.857-0.691,1.551-1.55,1.551
			c-0.854,0-1.548-0.694-1.548-1.551c0-0.854,0.693-1.549,1.548-1.549C756.063-566.042,756.754-565.347,756.754-564.493"/>
		<path clip-path="url(#SVGID_2_)" fill="#CFCFC7" d="M842.835-564.493c0,0.857-0.689,1.551-1.548,1.551
			c-0.855,0-1.55-0.694-1.55-1.551c0-0.854,0.694-1.549,1.55-1.549C842.146-566.042,842.835-565.347,842.835-564.493"/>
		<path clip-path="url(#SVGID_2_)" fill="#CFCFC7" d="M-104.072-654.879c0,0.855-0.694,1.551-1.549,1.551
			c-0.857,0-1.55-0.696-1.55-1.551s0.693-1.549,1.55-1.549C-104.766-656.428-104.072-655.734-104.072-654.879"/>
		<path clip-path="url(#SVGID_2_)" fill="#CFCFC7" d="M-17.99-654.879c0,0.855-0.693,1.551-1.55,1.551
			c-0.854,0-1.547-0.696-1.547-1.551s0.693-1.549,1.547-1.549C-18.683-656.428-17.99-655.734-17.99-654.879"/>
		<path clip-path="url(#SVGID_2_)" fill="#CFCFC7" d="M68.093-654.879c0,0.855-0.693,1.551-1.549,1.551
			c-0.854,0-1.549-0.696-1.549-1.551s0.695-1.549,1.549-1.549C67.4-656.428,68.093-655.734,68.093-654.879"/>
		<path clip-path="url(#SVGID_2_)" fill="#CFCFC7" d="M154.176-654.879c0,0.855-0.693,1.551-1.55,1.551
			c-0.854,0-1.549-0.696-1.549-1.551s0.695-1.549,1.549-1.549C153.483-656.428,154.176-655.734,154.176-654.879"/>
		<path clip-path="url(#SVGID_2_)" fill="#CFCFC7" d="M240.259-654.879c0,0.855-0.694,1.551-1.55,1.551s-1.549-0.696-1.549-1.551
			s0.693-1.549,1.549-1.549S240.259-655.734,240.259-654.879"/>
		<path clip-path="url(#SVGID_2_)" fill="#CFCFC7" d="M326.343-654.879c0,0.855-0.693,1.551-1.551,1.551
			c-0.855,0-1.549-0.696-1.549-1.551s0.694-1.549,1.549-1.549C325.65-656.428,326.343-655.734,326.343-654.879"/>
		<path clip-path="url(#SVGID_2_)" fill="#CFCFC7" d="M412.426-654.879c0,0.855-0.695,1.551-1.55,1.551
			c-0.857,0-1.551-0.696-1.551-1.551s0.693-1.549,1.551-1.549C411.731-656.428,412.426-655.734,412.426-654.879"/>
		<path clip-path="url(#SVGID_2_)" fill="#CFCFC7" d="M498.509-654.879c0,0.855-0.695,1.551-1.554,1.551
			c-0.853,0-1.546-0.696-1.546-1.551s0.693-1.549,1.546-1.549C497.814-656.428,498.509-655.734,498.509-654.879"/>
		<path clip-path="url(#SVGID_2_)" fill="#CFCFC7" d="M584.588-654.879c0,0.855-0.694,1.551-1.549,1.551s-1.548-0.696-1.548-1.551
			s0.693-1.549,1.548-1.549S584.588-655.734,584.588-654.879"/>
		<path clip-path="url(#SVGID_2_)" fill="#CFCFC7" d="M670.672-654.879c0,0.855-0.691,1.551-1.547,1.551
			c-0.857,0-1.55-0.696-1.55-1.551s0.692-1.549,1.55-1.549C669.981-656.428,670.672-655.734,670.672-654.879"/>
		<path clip-path="url(#SVGID_2_)" fill="#CFCFC7" d="M756.754-654.879c0,0.855-0.691,1.551-1.55,1.551
			c-0.854,0-1.548-0.696-1.548-1.551s0.693-1.549,1.548-1.549C756.063-656.428,756.754-655.734,756.754-654.879"/>
		<path clip-path="url(#SVGID_2_)" fill="#CFCFC7" d="M842.835-654.879c0,0.855-0.689,1.551-1.548,1.551
			c-0.855,0-1.55-0.696-1.55-1.551s0.694-1.549,1.55-1.549C842.146-656.428,842.835-655.734,842.835-654.879"/>
		<path clip-path="url(#SVGID_2_)" fill="#CFCFC7" d="M-104.072,68.216c0,0.855-0.694,1.551-1.549,1.551
			c-0.857,0-1.55-0.695-1.55-1.551c0-0.854,0.693-1.551,1.55-1.551C-104.766,66.665-104.072,67.361-104.072,68.216"/>
		<path clip-path="url(#SVGID_2_)" fill="#CFCFC7" d="M-17.99,68.216c0,0.855-0.693,1.551-1.55,1.551
			c-0.854,0-1.547-0.695-1.547-1.551c0-0.854,0.693-1.551,1.547-1.551C-18.683,66.665-17.99,67.361-17.99,68.216"/>
		<path clip-path="url(#SVGID_2_)" fill="#CFCFC7" d="M68.093,68.216c0,0.855-0.693,1.551-1.549,1.551
			c-0.854,0-1.549-0.695-1.549-1.551c0-0.854,0.695-1.551,1.549-1.551C67.4,66.665,68.093,67.361,68.093,68.216"/>
		<path clip-path="url(#SVGID_2_)" fill="#CFCFC7" d="M154.176,68.216c0,0.855-0.693,1.551-1.55,1.551
			c-0.854,0-1.549-0.695-1.549-1.551c0-0.854,0.695-1.551,1.549-1.551C153.483,66.665,154.176,67.361,154.176,68.216"/>
		<path clip-path="url(#SVGID_2_)" fill="#CFCFC7" d="M240.259,68.216c0,0.855-0.694,1.551-1.55,1.551s-1.549-0.695-1.549-1.551
			c0-0.854,0.693-1.551,1.549-1.551S240.259,67.361,240.259,68.216"/>
		<path clip-path="url(#SVGID_2_)" fill="#CFCFC7" d="M326.343,68.216c0,0.855-0.693,1.551-1.551,1.551
			c-0.855,0-1.549-0.695-1.549-1.551c0-0.854,0.694-1.551,1.549-1.551C325.65,66.665,326.343,67.361,326.343,68.216"/>
		<path clip-path="url(#SVGID_2_)" fill="#CFCFC7" d="M412.426,68.216c0,0.855-0.695,1.551-1.55,1.551
			c-0.857,0-1.551-0.695-1.551-1.551c0-0.854,0.693-1.551,1.551-1.551C411.731,66.665,412.426,67.361,412.426,68.216"/>
		<path clip-path="url(#SVGID_2_)" fill="#CFCFC7" d="M498.509,68.216c0,0.855-0.695,1.551-1.554,1.551
			c-0.853,0-1.546-0.695-1.546-1.551c0-0.854,0.693-1.551,1.546-1.551C497.814,66.665,498.509,67.361,498.509,68.216"/>
		<path clip-path="url(#SVGID_2_)" fill="#CFCFC7" d="M584.588,68.216c0,0.855-0.694,1.551-1.549,1.551s-1.548-0.695-1.548-1.551
			c0-0.854,0.693-1.551,1.548-1.551S584.588,67.361,584.588,68.216"/>
		<path clip-path="url(#SVGID_2_)" fill="#CFCFC7" d="M670.672,68.216c0,0.855-0.691,1.551-1.547,1.551
			c-0.857,0-1.55-0.695-1.55-1.551c0-0.854,0.692-1.551,1.55-1.551C669.981,66.665,670.672,67.361,670.672,68.216"/>
		<path clip-path="url(#SVGID_2_)" fill="#CFCFC7" d="M756.754,68.216c0,0.855-0.691,1.551-1.55,1.551
			c-0.854,0-1.548-0.695-1.548-1.551c0-0.854,0.693-1.551,1.548-1.551C756.063,66.665,756.754,67.361,756.754,68.216"/>
		<path clip-path="url(#SVGID_2_)" fill="#CFCFC7" d="M842.835,68.216c0,0.855-0.689,1.551-1.548,1.551
			c-0.855,0-1.55-0.695-1.55-1.551c0-0.854,0.694-1.551,1.55-1.551C842.146,66.665,842.835,67.361,842.835,68.216"/>
		<path clip-path="url(#SVGID_2_)" fill="#CFCFC7" d="M-104.072-22.171c0,0.857-0.694,1.549-1.549,1.549
			c-0.857,0-1.55-0.691-1.55-1.549c0-0.854,0.693-1.549,1.55-1.549C-104.766-23.72-104.072-23.025-104.072-22.171"/>
		<path clip-path="url(#SVGID_2_)" fill="#CFCFC7" d="M-17.99-22.171c0,0.857-0.693,1.549-1.55,1.549
			c-0.854,0-1.547-0.691-1.547-1.549c0-0.854,0.693-1.549,1.547-1.549C-18.683-23.72-17.99-23.025-17.99-22.171"/>
		<path clip-path="url(#SVGID_2_)" fill="#CFCFC7" d="M68.093-22.171c0,0.857-0.693,1.549-1.549,1.549
			c-0.854,0-1.549-0.691-1.549-1.549c0-0.854,0.695-1.549,1.549-1.549C67.4-23.72,68.093-23.025,68.093-22.171"/>
		<path clip-path="url(#SVGID_2_)" fill="#CFCFC7" d="M154.176-22.171c0,0.857-0.693,1.549-1.55,1.549
			c-0.854,0-1.549-0.691-1.549-1.549c0-0.854,0.695-1.549,1.549-1.549C153.483-23.72,154.176-23.025,154.176-22.171"/>
		<path clip-path="url(#SVGID_2_)" fill="#CFCFC7" d="M240.259-22.171c0,0.857-0.694,1.549-1.55,1.549s-1.549-0.691-1.549-1.549
			c0-0.854,0.693-1.549,1.549-1.549S240.259-23.025,240.259-22.171"/>
		<path clip-path="url(#SVGID_2_)" fill="#CFCFC7" d="M326.343-22.171c0,0.857-0.693,1.549-1.551,1.549
			c-0.855,0-1.549-0.691-1.549-1.549c0-0.854,0.694-1.549,1.549-1.549C325.65-23.72,326.343-23.025,326.343-22.171"/>
		<path clip-path="url(#SVGID_2_)" fill="#CFCFC7" d="M412.426-22.171c0,0.857-0.695,1.549-1.55,1.549
			c-0.857,0-1.551-0.691-1.551-1.549c0-0.854,0.693-1.549,1.551-1.549C411.731-23.72,412.426-23.025,412.426-22.171"/>
		<path clip-path="url(#SVGID_2_)" fill="#CFCFC7" d="M498.509-22.171c0,0.857-0.695,1.549-1.554,1.549
			c-0.853,0-1.546-0.691-1.546-1.549c0-0.854,0.693-1.549,1.546-1.549C497.814-23.72,498.509-23.025,498.509-22.171"/>
		<path clip-path="url(#SVGID_2_)" fill="#CFCFC7" d="M584.588-22.171c0,0.857-0.694,1.549-1.549,1.549s-1.548-0.691-1.548-1.549
			c0-0.854,0.693-1.549,1.548-1.549S584.588-23.025,584.588-22.171"/>
		<path clip-path="url(#SVGID_2_)" fill="#CFCFC7" d="M670.672-22.171c0,0.857-0.691,1.549-1.547,1.549
			c-0.857,0-1.55-0.691-1.55-1.549c0-0.854,0.692-1.549,1.55-1.549C669.981-23.72,670.672-23.025,670.672-22.171"/>
		<path clip-path="url(#SVGID_2_)" fill="#CFCFC7" d="M756.754-22.171c0,0.857-0.691,1.549-1.55,1.549
			c-0.854,0-1.548-0.691-1.548-1.549c0-0.854,0.693-1.549,1.548-1.549C756.063-23.72,756.754-23.025,756.754-22.171"/>
		<path clip-path="url(#SVGID_2_)" fill="#CFCFC7" d="M842.835-22.171c0,0.857-0.689,1.549-1.548,1.549
			c-0.855,0-1.55-0.691-1.55-1.549c0-0.854,0.694-1.549,1.55-1.549C842.146-23.72,842.835-23.025,842.835-22.171"/>
		<path clip-path="url(#SVGID_2_)" fill="#CFCFC7" d="M-104.072-112.558c0,0.855-0.694,1.551-1.549,1.551
			c-0.857,0-1.55-0.695-1.55-1.551s0.693-1.549,1.55-1.549C-104.766-114.106-104.072-113.413-104.072-112.558"/>
		<path clip-path="url(#SVGID_2_)" fill="#CFCFC7" d="M-17.99-112.558c0,0.855-0.693,1.551-1.55,1.551
			c-0.854,0-1.547-0.695-1.547-1.551s0.693-1.549,1.547-1.549C-18.683-114.106-17.99-113.413-17.99-112.558"/>
		<path clip-path="url(#SVGID_2_)" fill="#CFCFC7" d="M68.093-112.558c0,0.855-0.693,1.551-1.549,1.551
			c-0.854,0-1.549-0.695-1.549-1.551s0.695-1.549,1.549-1.549C67.4-114.106,68.093-113.413,68.093-112.558"/>
		<path clip-path="url(#SVGID_2_)" fill="#CFCFC7" d="M154.176-112.558c0,0.855-0.693,1.551-1.55,1.551
			c-0.854,0-1.549-0.695-1.549-1.551s0.695-1.549,1.549-1.549C153.483-114.106,154.176-113.413,154.176-112.558"/>
		<path clip-path="url(#SVGID_2_)" fill="#CFCFC7" d="M240.259-112.558c0,0.855-0.694,1.551-1.55,1.551s-1.549-0.695-1.549-1.551
			s0.693-1.549,1.549-1.549S240.259-113.413,240.259-112.558"/>
		<path clip-path="url(#SVGID_2_)" fill="#CFCFC7" d="M326.343-112.558c0,0.855-0.693,1.551-1.551,1.551
			c-0.855,0-1.549-0.695-1.549-1.551s0.694-1.549,1.549-1.549C325.65-114.106,326.343-113.413,326.343-112.558"/>
		<path clip-path="url(#SVGID_2_)" fill="#CFCFC7" d="M412.426-112.558c0,0.855-0.695,1.551-1.55,1.551
			c-0.857,0-1.551-0.695-1.551-1.551s0.693-1.549,1.551-1.549C411.731-114.106,412.426-113.413,412.426-112.558"/>
		<path clip-path="url(#SVGID_2_)" fill="#CFCFC7" d="M498.509-112.558c0,0.855-0.695,1.551-1.554,1.551
			c-0.853,0-1.546-0.695-1.546-1.551s0.693-1.549,1.546-1.549C497.814-114.106,498.509-113.413,498.509-112.558"/>
		<path clip-path="url(#SVGID_2_)" fill="#CFCFC7" d="M584.588-112.558c0,0.855-0.694,1.551-1.549,1.551s-1.548-0.695-1.548-1.551
			s0.693-1.549,1.548-1.549S584.588-113.413,584.588-112.558"/>
		<path clip-path="url(#SVGID_2_)" fill="#CFCFC7" d="M670.672-112.558c0,0.855-0.691,1.551-1.547,1.551
			c-0.857,0-1.55-0.695-1.55-1.551s0.692-1.549,1.55-1.549C669.981-114.106,670.672-113.413,670.672-112.558"/>
		<path clip-path="url(#SVGID_2_)" fill="#CFCFC7" d="M756.754-112.558c0,0.855-0.691,1.551-1.55,1.551
			c-0.854,0-1.548-0.695-1.548-1.551s0.693-1.549,1.548-1.549C756.063-114.106,756.754-113.413,756.754-112.558"/>
		<path clip-path="url(#SVGID_2_)" fill="#CFCFC7" d="M842.835-112.558c0,0.855-0.689,1.551-1.548,1.551
			c-0.855,0-1.55-0.695-1.55-1.551s0.694-1.549,1.55-1.549C842.146-114.106,842.835-113.413,842.835-112.558"/>
		<path clip-path="url(#SVGID_2_)" fill="#CFCFC7" d="M-104.072-202.946c0,0.857-0.694,1.551-1.549,1.551
			c-0.857,0-1.55-0.693-1.55-1.551c0-0.854,0.693-1.547,1.55-1.547C-104.766-204.493-104.072-203.8-104.072-202.946"/>
		<path clip-path="url(#SVGID_2_)" fill="#CFCFC7" d="M-17.99-202.946c0,0.857-0.693,1.551-1.55,1.551
			c-0.854,0-1.547-0.693-1.547-1.551c0-0.854,0.693-1.547,1.547-1.547C-18.683-204.493-17.99-203.8-17.99-202.946"/>
		<path clip-path="url(#SVGID_2_)" fill="#CFCFC7" d="M68.093-202.946c0,0.857-0.693,1.551-1.549,1.551
			c-0.854,0-1.549-0.693-1.549-1.551c0-0.854,0.695-1.547,1.549-1.547C67.4-204.493,68.093-203.8,68.093-202.946"/>
		<path clip-path="url(#SVGID_2_)" fill="#CFCFC7" d="M154.176-202.946c0,0.857-0.693,1.551-1.55,1.551
			c-0.854,0-1.549-0.693-1.549-1.551c0-0.854,0.695-1.547,1.549-1.547C153.483-204.493,154.176-203.8,154.176-202.946"/>
		<path clip-path="url(#SVGID_2_)" fill="#CFCFC7" d="M240.259-202.946c0,0.857-0.694,1.551-1.55,1.551s-1.549-0.693-1.549-1.551
			c0-0.854,0.693-1.547,1.549-1.547S240.259-203.8,240.259-202.946"/>
		<path clip-path="url(#SVGID_2_)" fill="#CFCFC7" d="M326.343-202.946c0,0.857-0.693,1.551-1.551,1.551
			c-0.855,0-1.549-0.693-1.549-1.551c0-0.854,0.694-1.547,1.549-1.547C325.65-204.493,326.343-203.8,326.343-202.946"/>
		<path clip-path="url(#SVGID_2_)" fill="#CFCFC7" d="M412.426-202.946c0,0.857-0.695,1.551-1.55,1.551
			c-0.857,0-1.551-0.693-1.551-1.551c0-0.854,0.693-1.547,1.551-1.547C411.731-204.493,412.426-203.8,412.426-202.946"/>
		<path clip-path="url(#SVGID_2_)" fill="#CFCFC7" d="M498.509-202.946c0,0.857-0.695,1.551-1.554,1.551
			c-0.853,0-1.546-0.693-1.546-1.551c0-0.854,0.693-1.547,1.546-1.547C497.814-204.493,498.509-203.8,498.509-202.946"/>
		<path clip-path="url(#SVGID_2_)" fill="#CFCFC7" d="M584.588-202.946c0,0.857-0.694,1.551-1.549,1.551s-1.548-0.693-1.548-1.551
			c0-0.854,0.693-1.547,1.548-1.547S584.588-203.8,584.588-202.946"/>
		<path clip-path="url(#SVGID_2_)" fill="#CFCFC7" d="M670.672-202.946c0,0.857-0.691,1.551-1.547,1.551
			c-0.857,0-1.55-0.693-1.55-1.551c0-0.854,0.692-1.547,1.55-1.547C669.981-204.493,670.672-203.8,670.672-202.946"/>
		<path clip-path="url(#SVGID_2_)" fill="#CFCFC7" d="M756.754-202.946c0,0.857-0.691,1.551-1.55,1.551
			c-0.854,0-1.548-0.693-1.548-1.551c0-0.854,0.693-1.547,1.548-1.547C756.063-204.493,756.754-203.8,756.754-202.946"/>
		<path clip-path="url(#SVGID_2_)" fill="#CFCFC7" d="M842.835-202.946c0,0.857-0.689,1.551-1.548,1.551
			c-0.855,0-1.55-0.693-1.55-1.551c0-0.854,0.694-1.547,1.55-1.547C842.146-204.493,842.835-203.8,842.835-202.946"/>
	</g>
	<g opacity="0.5">
		<g>
			<defs>
				<rect id="SVGID_3_" x="-129.247" y="-687.475" width="234" height="631.444"/>
			</defs>
			<clipPath id="SVGID_4_">
				<use xlink:href="#SVGID_3_"  overflow="visible"/>
			</clipPath>
			<rect x="-129.247" y="-687.475" clip-path="url(#SVGID_4_)" fill="#9F9B9A" width="234" height="631.445"/>
		</g>
	</g>
	<g opacity="0.5">
		<g>
			<defs>
				<rect id="SVGID_5_" x="631.833" y="-687.475" width="234" height="631.444"/>
			</defs>
			<clipPath id="SVGID_6_">
				<use xlink:href="#SVGID_5_"  overflow="visible"/>
			</clipPath>
			<rect x="631.833" y="-687.476" clip-path="url(#SVGID_6_)" fill="#9F9B9A" width="234" height="631.445"/>
		</g>
	</g>
	<polygon points="393.231,-401.87 342.427,-401.87 350.298,-438.193 342.427,-498.159 368.481,-506.98 393.231,-498.65 
		384.968,-438.645 	"/>
	<polygon fill="none" stroke="#000000" stroke-width="2.519" stroke-miterlimit="10" points="393.231,-401.87 342.427,-401.87 
		350.298,-438.193 342.427,-498.159 368.481,-506.98 393.231,-498.65 384.968,-438.645 	"/>
	
		<polygon fill="none" stroke="#000000" stroke-width="4.045" stroke-linecap="round" stroke-linejoin="round" stroke-miterlimit="10" points="
		393.231,-401.87 342.427,-401.87 350.298,-438.193 342.427,-498.159 368.481,-506.98 393.231,-498.65 384.968,-438.645 	"/>
	<g>
		<defs>
			<rect id="SVGID_7_" x="-160.167" y="-895.89" width="1056" height="1056"/>
		</defs>
		<clipPath id="SVGID_8_">
			<use xlink:href="#SVGID_7_"  overflow="visible"/>
		</clipPath>
		
			<path clip-path="url(#SVGID_8_)" fill="none" stroke="#000000" stroke-width="4.045" stroke-linecap="round" stroke-linejoin="round" stroke-miterlimit="10" d="
			M379.97-529.909c-0.061,9.398-5.263,16.988-11.62,16.947c-6.36-0.043-11.472-7.691-11.415-17.088
			c0.056-9.404,5.254-16.992,11.615-16.953C374.914-546.968,380.027-539.316,379.97-529.909z"/>
		
			<polygon clip-path="url(#SVGID_8_)" fill="none" stroke="#000000" stroke-width="4.045" stroke-linecap="round" stroke-linejoin="round" stroke-miterlimit="10" points="
			374.67,-401.87 393.231,-401.87 393.231,-241.001 380.213,-241.001 380.213,-326.901 		"/>
		
			<polygon clip-path="url(#SVGID_8_)" fill="none" stroke="#000000" stroke-width="4.045" stroke-linecap="round" stroke-linejoin="round" stroke-miterlimit="10" points="
			393.231,-498.651 402.186,-499.573 414.756,-378.137 405.801,-377.212 		"/>
		
			<polygon clip-path="url(#SVGID_8_)" fill="none" stroke="#000000" stroke-width="4.045" stroke-linecap="round" stroke-linejoin="round" stroke-miterlimit="10" points="
			360.992,-401.87 342.436,-401.87 342.436,-241.001 355.45,-241.001 355.45,-326.901 		"/>
		
			<polygon clip-path="url(#SVGID_8_)" fill="none" stroke="#000000" stroke-width="4.045" stroke-linecap="round" stroke-linejoin="round" stroke-miterlimit="10" points="
			342.436,-498.159 333.481,-499.081 320.911,-377.643 329.857,-376.716 		"/>
		
			<polyline clip-path="url(#SVGID_8_)" fill="none" stroke="#101014" stroke-width="2.766" stroke-linecap="round" stroke-linejoin="round" stroke-miterlimit="10" points="
			386.773,-193.647 378.478,-192.737 379.396,-184.45 		"/>
		
			<path clip-path="url(#SVGID_8_)" fill="none" stroke="#101014" stroke-width="2.766" stroke-linecap="round" stroke-linejoin="round" stroke-miterlimit="10" d="
			M378.478-192.737l2.863,2.021c1.914,1.57,3.029,3.465,3.029,5.502c0,5.436-7.941,9.842-17.739,9.842
			c-9.797,0-17.738-4.408-17.738-9.842c0-3.918,4.125-7.301,10.098-8.883"/>
	</g>
	<text transform="matrix(1 0 0 1 -53.9956 -540.8901)"><tspan x="0" y="0" fill="#FFFFFF" font-family="'VarelaRound'" font-size="8.3781">T</tspan><tspan x="4.926" y="0" fill="#FFFFFF" font-family="'VarelaRound'" font-size="8.3781">OP</tspan></text>
	<text transform="matrix(1 0 0 1 13.4482 -540.8901)"><tspan x="0" y="0" fill="#FFFFFF" font-family="'VarelaRound'" font-size="8.3781">B</tspan><tspan x="5.806" y="0" fill="#FFFFFF" font-family="'VarelaRound'" font-size="8.3781">O</tspan><tspan x="12.408" y="0" fill="#FFFFFF" font-family="'VarelaRound'" font-size="8.3781">T</tspan><tspan x="17.527" y="0" fill="#FFFFFF" font-family="'VarelaRound'" font-size="8.3781">T</tspan><tspan x="22.453" y="0" fill="#FFFFFF" font-family="'VarelaRound'" font-size="8.3781">OMS</tspan></text>
	<rect x="694.869" y="-279.42" fill="#DFEBED" width="92.164" height="36.849"/>
	<text transform="matrix(1 0 0 1 722.3647 -256.8174)"><tspan x="0" y="0" fill="#231F20" font-family="'Karla-Bold'" font-size="14.5706">S</tspan><tspan x="9.296" y="0" fill="#231F20" font-family="'Karla-Bold'" font-size="14.5706">A</tspan><tspan x="17.965" y="0" fill="#231F20" font-family="'Karla-Bold'" font-size="14.5706">VE</tspan></text>
	<text transform="matrix(1 0 0 1 722.2026 -312.3486)" fill="#FFFFFF" font-family="'VarelaRound'" font-size="8.3781">SHORTS</text>
	<g>
		<defs>
			<rect id="SVGID_9_" x="-160.167" y="-895.89" width="1056" height="1056"/>
		</defs>
		<clipPath id="SVGID_10_">
			<use xlink:href="#SVGID_9_"  overflow="visible"/>
		</clipPath>
		
			<line clip-path="url(#SVGID_10_)" fill="none" stroke="#FFFFFF" stroke-width="1.676" stroke-miterlimit="10" x1="671.103" y1="-333.909" x2="807.827" y2="-333.909"/>
		<path clip-path="url(#SVGID_10_)" fill="#8BD6A2" d="M694.869-333.909c0,2.061-1.674,3.732-3.734,3.732
			c-2.062,0-3.734-1.672-3.734-3.732c0-2.062,1.672-3.734,3.734-3.734C693.195-337.644,694.869-335.972,694.869-333.909"/>
	</g>
	<text transform="matrix(1 0 0 1 718.0845 -357.7559)"><tspan x="0" y="0" fill="#FFFFFF" font-family="'VarelaRound'" font-size="8.3781">N</tspan><tspan x="6.728" y="0" fill="#FFFFFF" font-family="'VarelaRound'" font-size="8.3781">E</tspan><tspan x="12.014" y="0" fill="#FFFFFF" font-family="'VarelaRound'" font-size="8.3781">CKLINE</tspan></text>
	<g>
		<defs>
			<rect id="SVGID_11_" x="-160.167" y="-895.89" width="1056" height="1056"/>
		</defs>
		<clipPath id="SVGID_12_">
			<use xlink:href="#SVGID_11_"  overflow="visible"/>
		</clipPath>
		
			<line clip-path="url(#SVGID_12_)" fill="none" stroke="#FFFFFF" stroke-width="1.676" stroke-miterlimit="10" x1="671.103" y1="-379.317" x2="807.827" y2="-379.317"/>
		<path clip-path="url(#SVGID_12_)" fill="#8BD6A2" d="M748.419-379.317c0,2.063-1.674,3.734-3.734,3.734
			c-2.062,0-3.734-1.671-3.734-3.734c0-2.061,1.672-3.734,3.734-3.734C746.746-383.051,748.419-381.378,748.419-379.317"/>
	</g>
	<text transform="matrix(1 0 0 1 715.6763 -403.1626)" fill="#FFFFFF" font-family="'VarelaRound'" font-size="8.3781">TIGHTNESS</text>
	<g>
		<defs>
			<rect id="SVGID_13_" x="-160.167" y="-895.89" width="1056" height="1056"/>
		</defs>
		<clipPath id="SVGID_14_">
			<use xlink:href="#SVGID_13_"  overflow="visible"/>
		</clipPath>
		
			<line clip-path="url(#SVGID_14_)" fill="none" stroke="#FFFFFF" stroke-width="1.676" stroke-miterlimit="10" x1="671.103" y1="-424.723" x2="807.827" y2="-424.723"/>
		<path clip-path="url(#SVGID_14_)" fill="#8BD6A2" d="M698.603-424.723c0,2.061-1.674,3.734-3.734,3.734
			c-2.062,0-3.734-1.673-3.734-3.734c0-2.063,1.672-3.734,3.734-3.734C696.929-428.457,698.603-426.786,698.603-424.723"/>
	</g>
	<text transform="matrix(1 0 0 1 717.7114 -448.5698)" fill="#FFFFFF" font-family="'VarelaRound'" font-size="8.3781">FULLNESS</text>
	<g>
		<defs>
			<rect id="SVGID_15_" x="-160.167" y="-895.89" width="1056" height="1056"/>
		</defs>
		<clipPath id="SVGID_16_">
			<use xlink:href="#SVGID_15_"  overflow="visible"/>
		</clipPath>
		
			<line clip-path="url(#SVGID_16_)" fill="none" stroke="#FFFFFF" stroke-width="1.676" stroke-miterlimit="10" x1="671.103" y1="-470.131" x2="807.827" y2="-470.131"/>
		<path clip-path="url(#SVGID_16_)" fill="#8BD6A2" d="M811.561-470.131c0,2.063-1.674,3.734-3.734,3.734
			c-2.062,0-3.734-1.671-3.734-3.734c0-2.061,1.672-3.732,3.734-3.732C809.887-473.863,811.561-472.192,811.561-470.131"/>
	</g>
	<text transform="matrix(1 0 0 1 722.1772 -493.9771)" fill="#FFFFFF" font-family="'VarelaRound'" font-size="8.3781">LENGTH</text>
	<g>
		<defs>
			<rect id="SVGID_17_" x="-160.167" y="-895.89" width="1056" height="1056"/>
		</defs>
		<clipPath id="SVGID_18_">
			<use xlink:href="#SVGID_17_"  overflow="visible"/>
		</clipPath>
		
			<line clip-path="url(#SVGID_18_)" fill="none" stroke="#FFFFFF" stroke-width="1.676" stroke-miterlimit="10" x1="671.103" y1="-515.538" x2="807.827" y2="-515.538"/>
		<path clip-path="url(#SVGID_18_)" fill="#8BD6A2" d="M787.033-515.538c0,2.063-1.674,3.734-3.734,3.734
			c-2.062,0-3.734-1.671-3.734-3.734s1.672-3.734,3.734-3.734C785.359-519.271,787.033-517.601,787.033-515.538"/>
		<circle clip-path="url(#SVGID_18_)" fill="none" stroke="#8BD6A2" stroke-miterlimit="10" cx="783.298" cy="-515.538" r="3.734"/>
		<rect x="-79.003" y="-532.528" clip-path="url(#SVGID_18_)" width="65.729" height="65.729"/>
		<polygon clip-path="url(#SVGID_18_)" fill="#FFFFFF" points="-41.525,-501.092 -50.754,-501.092 -49.325,-507.692 
			-50.754,-518.584 -46.021,-520.188 -41.525,-518.674 -43.026,-507.774 		"/>
		<polygon clip-path="url(#SVGID_18_)" fill="none" stroke="#FFFFFF" stroke-width="0.458" stroke-miterlimit="10" points="
			-41.525,-501.092 -50.754,-501.092 -49.325,-507.692 -50.754,-518.584 -46.021,-520.188 -41.525,-518.674 -43.026,-507.774 		"/>
		
			<polygon clip-path="url(#SVGID_18_)" fill="none" stroke="#FFFFFF" stroke-width="0.735" stroke-linecap="round" stroke-linejoin="round" stroke-miterlimit="10" points="
			-41.525,-501.092 -50.754,-501.092 -49.325,-507.692 -50.754,-518.584 -46.021,-520.188 -41.525,-518.674 -43.026,-507.774 		"/>
		
			<ellipse transform="matrix(1 0.006 -0.006 1 -3.1216 0.2646)" clip-path="url(#SVGID_18_)" fill="none" stroke="#FFFFFF" stroke-width="0.735" stroke-linecap="round" stroke-linejoin="round" stroke-miterlimit="10" cx="-46.027" cy="-524.366" rx="2.092" ry="3.091"/>
		
			<polygon clip-path="url(#SVGID_18_)" fill="none" stroke="#FFFFFF" stroke-width="0.735" stroke-linecap="round" stroke-linejoin="round" stroke-miterlimit="10" points="
			-44.897,-501.092 -41.525,-501.092 -41.525,-471.867 -43.89,-471.867 -43.89,-487.473 		"/>
		
			<rect x="-40.387" y="-518.817" transform="matrix(-0.9947 0.1027 -0.1027 -0.9947 -131.0708 -1008.7075)" clip-path="url(#SVGID_18_)" fill="none" stroke="#FFFFFF" stroke-width="0.735" stroke-linecap="round" stroke-linejoin="round" stroke-miterlimit="10" width="1.636" height="22.179"/>
		
			<polygon clip-path="url(#SVGID_18_)" fill="none" stroke="#FFFFFF" stroke-width="0.735" stroke-linecap="round" stroke-linejoin="round" stroke-miterlimit="10" points="
			-47.382,-501.092 -50.753,-501.092 -50.753,-471.867 -48.388,-471.867 -48.388,-487.473 		"/>
		
			<rect x="-53.526" y="-518.727" transform="matrix(0.9947 0.1027 -0.1027 0.9947 -52.4108 2.729)" clip-path="url(#SVGID_18_)" fill="none" stroke="#FFFFFF" stroke-width="0.735" stroke-linecap="round" stroke-linejoin="round" stroke-miterlimit="10" width="1.636" height="22.179"/>
		<path clip-path="url(#SVGID_18_)" fill="#FFFFFF" d="M-15.274-448.579h-61.73v-16.504h61.73V-448.579z M-13.274-467.083h-65.73
			v20.504h65.73V-467.083z"/>
		<rect x="1.939" y="-532.527" clip-path="url(#SVGID_18_)" fill="#FFFFFF" width="65.73" height="65.73"/>
		<polygon clip-path="url(#SVGID_18_)" points="39.306,-501.09 30.077,-501.09 31.506,-507.69 30.077,-518.584 34.809,-520.188 
			39.306,-518.672 37.805,-507.772 		"/>
		<polygon clip-path="url(#SVGID_18_)" fill="none" stroke="#000000" stroke-width="0.458" stroke-miterlimit="10" points="
			39.306,-501.09 30.077,-501.09 31.506,-507.69 30.077,-518.584 34.809,-520.188 39.306,-518.672 37.805,-507.772 		"/>
		
			<polygon clip-path="url(#SVGID_18_)" fill="none" stroke="#000000" stroke-width="0.735" stroke-linecap="round" stroke-linejoin="round" stroke-miterlimit="10" points="
			39.306,-501.09 30.077,-501.09 31.506,-507.69 30.077,-518.584 34.809,-520.188 39.306,-518.672 37.805,-507.772 		"/>
		
			<ellipse transform="matrix(1 0.006 -0.006 1 -3.1195 -0.2164)" clip-path="url(#SVGID_18_)" fill="none" stroke="#000000" stroke-width="0.735" stroke-linecap="round" stroke-linejoin="round" stroke-miterlimit="10" cx="34.803" cy="-524.365" rx="2.093" ry="3.091"/>
		
			<polygon clip-path="url(#SVGID_18_)" fill="none" stroke="#000000" stroke-width="0.735" stroke-linecap="round" stroke-linejoin="round" stroke-miterlimit="10" points="
			35.933,-501.09 39.306,-501.09 39.306,-471.865 36.941,-471.865 36.941,-487.471 		"/>
		
			<rect x="40.443" y="-518.815" transform="matrix(-0.9947 0.1027 -0.1027 -0.9947 30.1632 -1017.0046)" clip-path="url(#SVGID_18_)" fill="none" stroke="#000000" stroke-width="0.735" stroke-linecap="round" stroke-linejoin="round" stroke-miterlimit="10" width="1.636" height="22.179"/>
		
			<polygon clip-path="url(#SVGID_18_)" fill="none" stroke="#000000" stroke-width="0.735" stroke-linecap="round" stroke-linejoin="round" stroke-miterlimit="10" points="
			33.449,-501.09 30.079,-501.09 30.079,-471.865 32.442,-471.865 32.442,-487.471 		"/>
		
			<rect x="27.305" y="-518.727" transform="matrix(0.9947 0.1026 -0.1026 0.9947 -51.9525 -5.5671)" clip-path="url(#SVGID_18_)" fill="none" stroke="#000000" stroke-width="0.735" stroke-linecap="round" stroke-linejoin="round" stroke-miterlimit="10" width="1.637" height="22.181"/>
		<path clip-path="url(#SVGID_18_)" fill="#FFFFFF" d="M65.669-448.579H3.939v-16.504h61.73V-448.579z M67.669-467.083H1.939v20.504
			h65.73V-467.083z"/>
		
			<line clip-path="url(#SVGID_18_)" fill="none" stroke="#000000" stroke-width="2.304" stroke-miterlimit="10" x1="31.24" y1="-460.395" x2="38.37" y2="-453.266"/>
	</g>
	<text transform="matrix(1 0 0 1 -57.4595 -424.3667)" fill="#FFFFFF" font-family="'VarelaRound'" font-size="8.3781">SKIRT</text>
	<text transform="matrix(1 0 0 1 18.915 -424.3667)"><tspan x="0" y="0" fill="#FFFFFF" font-family="'VarelaRound'" font-size="8.3781">J</tspan><tspan x="3.904" y="0" fill="#FFFFFF" font-family="'VarelaRound'" font-size="8.3781">A</tspan><tspan x="9.635" y="0" fill="#FFFFFF" font-family="'VarelaRound'" font-size="8.3781">CKET</tspan></text>
	<g>
		<defs>
			<rect id="SVGID_19_" x="-160.167" y="-895.89" width="1056" height="1056"/>
		</defs>
		<clipPath id="SVGID_20_">
			<use xlink:href="#SVGID_19_"  overflow="visible"/>
		</clipPath>
		<rect x="-79.003" y="-416.005" clip-path="url(#SVGID_20_)" fill="#FFFFFF" width="65.729" height="65.729"/>
		<polygon clip-path="url(#SVGID_20_)" points="-41.525,-384.571 -50.754,-384.571 -49.325,-391.169 -50.754,-402.061 
			-46.021,-403.667 -41.525,-402.153 -43.026,-391.251 		"/>
		<polygon clip-path="url(#SVGID_20_)" fill="none" stroke="#000000" stroke-width="0.458" stroke-miterlimit="10" points="
			-41.525,-384.571 -50.754,-384.571 -49.325,-391.169 -50.754,-402.061 -46.021,-403.667 -41.525,-402.153 -43.026,-391.251 		"/>
		
			<polygon clip-path="url(#SVGID_20_)" fill="none" stroke="#000000" stroke-width="0.735" stroke-linecap="round" stroke-linejoin="round" stroke-miterlimit="10" points="
			-41.525,-384.571 -50.754,-384.571 -49.325,-391.169 -50.754,-402.061 -46.021,-403.667 -41.525,-402.153 -43.026,-391.251 		"/>
		
			<ellipse transform="matrix(1 0.006 -0.006 1 -2.4281 0.2667)" clip-path="url(#SVGID_20_)" fill="none" stroke="#000000" stroke-width="0.735" stroke-linecap="round" stroke-linejoin="round" stroke-miterlimit="10" cx="-46.027" cy="-407.843" rx="2.092" ry="3.091"/>
		
			<polygon clip-path="url(#SVGID_20_)" fill="none" stroke="#000000" stroke-width="0.735" stroke-linecap="round" stroke-linejoin="round" stroke-miterlimit="10" points="
			-44.897,-384.571 -41.525,-384.571 -41.525,-355.345 -43.89,-355.345 -43.89,-370.95 		"/>
		
			<rect x="-40.387" y="-402.295" transform="matrix(-0.9948 0.1015 -0.1015 -0.9948 -118.6469 -776.3729)" clip-path="url(#SVGID_20_)" fill="none" stroke="#000000" stroke-width="0.735" stroke-linecap="round" stroke-linejoin="round" stroke-miterlimit="10" width="1.635" height="22.179"/>
		
			<polygon clip-path="url(#SVGID_20_)" fill="none" stroke="#000000" stroke-width="0.735" stroke-linecap="round" stroke-linejoin="round" stroke-miterlimit="10" points="
			-47.382,-384.571 -50.753,-384.571 -50.753,-355.345 -48.388,-355.345 -48.388,-370.95 		"/>
		
			<rect x="-53.526" y="-402.205" transform="matrix(0.9946 0.1039 -0.1039 0.9946 -40.9128 3.3593)" clip-path="url(#SVGID_20_)" fill="none" stroke="#000000" stroke-width="0.735" stroke-linecap="round" stroke-linejoin="round" stroke-miterlimit="10" width="1.636" height="22.181"/>
		<path clip-path="url(#SVGID_20_)" fill="#FFFFFF" d="M-15.274-332.058h-61.73v-16.504h61.73V-332.058z M-13.274-350.562h-65.73
			v20.504h65.73V-350.562z"/>
		<rect x="1.939" y="-416.003" clip-path="url(#SVGID_20_)" fill="#FFFFFF" width="65.73" height="65.728"/>
		<polygon clip-path="url(#SVGID_20_)" points="39.306,-384.569 30.077,-384.569 31.506,-391.167 30.077,-402.061 34.809,-403.665 
			39.306,-402.149 37.805,-391.251 		"/>
		<polygon clip-path="url(#SVGID_20_)" fill="none" stroke="#000000" stroke-width="0.458" stroke-miterlimit="10" points="
			39.306,-384.569 30.077,-384.569 31.506,-391.167 30.077,-402.061 34.809,-403.665 39.306,-402.149 37.805,-391.251 		"/>
		
			<polygon clip-path="url(#SVGID_20_)" fill="none" stroke="#000000" stroke-width="0.735" stroke-linecap="round" stroke-linejoin="round" stroke-miterlimit="10" points="
			39.306,-384.569 30.077,-384.569 31.506,-391.167 30.077,-402.061 34.809,-403.665 39.306,-402.149 37.805,-391.251 		"/>
		
			<ellipse transform="matrix(1 0.006 -0.006 1 -2.4261 -0.2143)" clip-path="url(#SVGID_20_)" fill="none" stroke="#000000" stroke-width="0.735" stroke-linecap="round" stroke-linejoin="round" stroke-miterlimit="10" cx="34.803" cy="-407.843" rx="2.093" ry="3.093"/>
		
			<polygon clip-path="url(#SVGID_20_)" fill="none" stroke="#000000" stroke-width="0.735" stroke-linecap="round" stroke-linejoin="round" stroke-miterlimit="10" points="
			35.933,-384.569 39.306,-384.569 39.306,-355.343 36.941,-355.343 36.941,-370.948 		"/>
		
			<rect x="40.443" y="-402.293" transform="matrix(-0.9946 0.1039 -0.1039 -0.9946 41.6625 -784.5745)" clip-path="url(#SVGID_20_)" fill="none" stroke="#000000" stroke-width="0.735" stroke-linecap="round" stroke-linejoin="round" stroke-miterlimit="10" width="1.636" height="22.181"/>
		
			<polygon clip-path="url(#SVGID_20_)" fill="none" stroke="#000000" stroke-width="0.735" stroke-linecap="round" stroke-linejoin="round" stroke-miterlimit="10" points="
			33.449,-384.569 30.079,-384.569 30.079,-355.343 32.442,-355.343 32.442,-370.948 		"/>
		
			<rect x="27.305" y="-402.204" transform="matrix(0.9947 0.1026 -0.1026 0.9947 -39.9932 -4.9518)" clip-path="url(#SVGID_20_)" fill="none" stroke="#000000" stroke-width="0.735" stroke-linecap="round" stroke-linejoin="round" stroke-miterlimit="10" width="1.637" height="22.181"/>
		<path clip-path="url(#SVGID_20_)" fill="#FFFFFF" d="M65.669-332.056H3.939v-16.504h61.73V-332.056z M67.669-350.56H1.939v20.504
			h65.73V-350.56z"/>
	</g>
	<text transform="matrix(1 0 0 1 -59.2944 -307.8447)" fill="#FFFFFF" font-family="'VarelaRound'" font-size="8.3781">DRESS</text>
	<text transform="matrix(1 0 0 1 13.4526 -307.8447)"><tspan x="0" y="0" fill="#FFFFFF" font-family="'VarelaRound'" font-size="8.3781">B</tspan><tspan x="5.806" y="0" fill="#FFFFFF" font-family="'VarelaRound'" font-size="8.3781">O</tspan><tspan x="12.408" y="0" fill="#FFFFFF" font-family="'VarelaRound'" font-size="8.3781">T</tspan><tspan x="17.527" y="0" fill="#FFFFFF" font-family="'VarelaRound'" font-size="8.3781">T</tspan><tspan x="22.445" y="0" fill="#FFFFFF" font-family="'VarelaRound'" font-size="8.3781">OMS</tspan></text>
	<g>
		<defs>
			<rect id="SVGID_21_" x="-160.167" y="-895.89" width="1056" height="1056"/>
		</defs>
		<clipPath id="SVGID_22_">
			<use xlink:href="#SVGID_21_"  overflow="visible"/>
		</clipPath>
		<rect x="-79.003" y="-299.481" clip-path="url(#SVGID_22_)" fill="#FFFFFF" width="65.729" height="65.729"/>
		<polygon clip-path="url(#SVGID_22_)" points="-41.525,-268.048 -50.754,-268.048 -49.325,-274.646 -50.754,-285.54 
			-46.021,-287.144 -41.525,-285.63 -43.026,-274.729 		"/>
		<polygon clip-path="url(#SVGID_22_)" fill="none" stroke="#000000" stroke-width="0.458" stroke-miterlimit="10" points="
			-41.525,-268.048 -50.754,-268.048 -49.325,-274.646 -50.754,-285.54 -46.021,-287.144 -41.525,-285.63 -43.026,-274.729 		"/>
		
			<polygon clip-path="url(#SVGID_22_)" fill="none" stroke="#000000" stroke-width="0.735" stroke-linecap="round" stroke-linejoin="round" stroke-miterlimit="10" points="
			-41.525,-268.048 -50.754,-268.048 -49.325,-274.646 -50.754,-285.54 -46.021,-287.144 -41.525,-285.63 -43.026,-274.729 		"/>
		
			<ellipse transform="matrix(1 0.0056 -0.0056 1 -1.6326 0.2532)" clip-path="url(#SVGID_22_)" fill="none" stroke="#000000" stroke-width="0.735" stroke-linecap="round" stroke-linejoin="round" stroke-miterlimit="10" cx="-46.027" cy="-291.321" rx="2.092" ry="3.092"/>
		
			<polygon clip-path="url(#SVGID_22_)" fill="none" stroke="#000000" stroke-width="0.735" stroke-linecap="round" stroke-linejoin="round" stroke-miterlimit="10" points="
			-44.897,-268.048 -41.525,-268.048 -41.525,-238.821 -43.89,-238.821 -43.89,-254.427 		"/>
		
			<rect x="-40.387" y="-285.773" transform="matrix(-0.9947 0.1027 -0.1027 -0.9947 -107.1381 -543.8484)" clip-path="url(#SVGID_22_)" fill="none" stroke="#000000" stroke-width="0.735" stroke-linecap="round" stroke-linejoin="round" stroke-miterlimit="10" width="1.636" height="22.181"/>
		
			<polygon clip-path="url(#SVGID_22_)" fill="none" stroke="#000000" stroke-width="0.735" stroke-linecap="round" stroke-linejoin="round" stroke-miterlimit="10" points="
			-47.382,-268.048 -50.753,-268.048 -50.753,-238.821 -48.388,-238.821 -48.388,-254.427 		"/>
		
			<rect x="-53.526" y="-285.683" transform="matrix(0.9947 0.1027 -0.1027 0.9947 -28.4781 3.9611)" clip-path="url(#SVGID_22_)" fill="none" stroke="#000000" stroke-width="0.735" stroke-linecap="round" stroke-linejoin="round" stroke-miterlimit="10" width="1.636" height="22.18"/>
		<path clip-path="url(#SVGID_22_)" fill="#FFFFFF" d="M-15.274-215.534h-61.73v-16.505h61.73V-215.534z M-13.274-234.038h-65.73
			v20.505h65.73V-234.038z"/>
		<rect x="1.939" y="-299.48" clip-path="url(#SVGID_22_)" fill="#FFFFFF" width="65.73" height="65.729"/>
		<polygon clip-path="url(#SVGID_22_)" points="39.306,-268.046 30.077,-268.046 31.506,-274.644 30.077,-285.538 34.809,-287.142 
			39.306,-285.626 37.805,-274.728 		"/>
		<polygon clip-path="url(#SVGID_22_)" fill="none" stroke="#000000" stroke-width="0.458" stroke-miterlimit="10" points="
			39.306,-268.046 30.077,-268.046 31.506,-274.644 30.077,-285.538 34.809,-287.142 39.306,-285.626 37.805,-274.728 		"/>
		
			<polygon clip-path="url(#SVGID_22_)" fill="none" stroke="#000000" stroke-width="0.735" stroke-linecap="round" stroke-linejoin="round" stroke-miterlimit="10" points="
			39.306,-268.046 30.077,-268.046 31.506,-274.644 30.077,-285.538 34.809,-287.142 39.306,-285.626 37.805,-274.728 		"/>
		
			<ellipse transform="matrix(1 0.0061 -0.0061 1 -1.7668 -0.2165)" clip-path="url(#SVGID_22_)" fill="none" stroke="#000000" stroke-width="0.735" stroke-linecap="round" stroke-linejoin="round" stroke-miterlimit="10" cx="34.803" cy="-291.32" rx="2.093" ry="3.093"/>
		
			<polygon clip-path="url(#SVGID_22_)" fill="none" stroke="#000000" stroke-width="0.735" stroke-linecap="round" stroke-linejoin="round" stroke-miterlimit="10" points="
			35.933,-268.046 39.306,-268.046 39.306,-238.818 36.941,-238.818 36.941,-254.425 		"/>
		
			<rect x="40.443" y="-285.77" transform="matrix(-0.9946 0.1039 -0.1039 -0.9946 53.7664 -552.1595)" clip-path="url(#SVGID_22_)" fill="none" stroke="#000000" stroke-width="0.735" stroke-linecap="round" stroke-linejoin="round" stroke-miterlimit="10" width="1.636" height="22.18"/>
		
			<polygon clip-path="url(#SVGID_22_)" fill="none" stroke="#000000" stroke-width="0.735" stroke-linecap="round" stroke-linejoin="round" stroke-miterlimit="10" points="
			33.449,-268.046 30.079,-268.046 30.079,-238.818 32.442,-238.818 32.442,-254.425 		"/>
		
			<rect x="27.305" y="-285.681" transform="matrix(0.9947 0.1026 -0.1026 0.9947 -28.0339 -4.3365)" clip-path="url(#SVGID_22_)" fill="none" stroke="#000000" stroke-width="0.735" stroke-linecap="round" stroke-linejoin="round" stroke-miterlimit="10" width="1.637" height="22.181"/>
		<path clip-path="url(#SVGID_22_)" fill="#FFFFFF" d="M65.669-215.534H3.939v-16.503h61.73V-215.534z M67.669-234.036H1.939v20.503
			h65.73V-234.036z"/>
		<polyline clip-path="url(#SVGID_22_)" fill="none" stroke="#101014" stroke-width="2.304" stroke-miterlimit="10" points="
			-52.587,-457.512 -49.136,-454.061 -42.688,-460.51 		"/>
		
			<line clip-path="url(#SVGID_22_)" fill="none" stroke="#101014" stroke-width="2.304" stroke-miterlimit="10" x1="31.126" y1="-453.379" x2="38.255" y2="-460.508"/>
		
			<line clip-path="url(#SVGID_22_)" fill="none" stroke="#101014" stroke-width="2.304" stroke-miterlimit="10" x1="31.24" y1="-343.872" x2="38.37" y2="-336.743"/>
		
			<line clip-path="url(#SVGID_22_)" fill="none" stroke="#101014" stroke-width="2.304" stroke-miterlimit="10" x1="31.126" y1="-336.856" x2="38.255" y2="-343.985"/>
		
			<line clip-path="url(#SVGID_22_)" fill="none" stroke="#101014" stroke-width="2.304" stroke-miterlimit="10" x1="-49.649" y1="-343.872" x2="-42.519" y2="-336.743"/>
		
			<line clip-path="url(#SVGID_22_)" fill="none" stroke="#101014" stroke-width="2.304" stroke-miterlimit="10" x1="-49.762" y1="-336.856" x2="-42.633" y2="-343.985"/>
		<polyline clip-path="url(#SVGID_22_)" fill="none" stroke="#101014" stroke-width="2.304" stroke-miterlimit="10" points="
			-52.587,-224.468 -49.136,-221.017 -42.688,-227.464 		"/>
		
			<line clip-path="url(#SVGID_22_)" fill="none" stroke="#101014" stroke-width="2.304" stroke-miterlimit="10" x1="31.24" y1="-227.351" x2="38.37" y2="-220.22"/>
		
			<line clip-path="url(#SVGID_22_)" fill="none" stroke="#101014" stroke-width="2.304" stroke-miterlimit="10" x1="31.126" y1="-220.335" x2="38.255" y2="-227.464"/>
		
			<circle clip-path="url(#SVGID_22_)" fill="none" stroke="#101014" stroke-width="1.44" stroke-linecap="round" stroke-linejoin="round" stroke-miterlimit="10" cx="481.47" cy="-96.413" r="13.2"/>
		
			<line clip-path="url(#SVGID_22_)" fill="none" stroke="#101014" stroke-width="1.44" stroke-linecap="round" stroke-linejoin="round" stroke-miterlimit="10" x1="473.087" y1="-96.413" x2="489.855" y2="-96.413"/>
		
			<polyline clip-path="url(#SVGID_22_)" fill="none" stroke="#101014" stroke-width="1.44" stroke-linecap="round" stroke-linejoin="round" stroke-miterlimit="10" points="
			485.463,-92.03 489.855,-96.421 485.463,-100.801 		"/>
		
			<circle clip-path="url(#SVGID_22_)" fill="none" stroke="#101014" stroke-width="1.44" stroke-linecap="round" stroke-linejoin="round" stroke-miterlimit="10" cx="254.562" cy="-96.411" r="13.2"/>
		
			<line clip-path="url(#SVGID_22_)" fill="none" stroke="#101014" stroke-width="1.44" stroke-linecap="round" stroke-linejoin="round" stroke-miterlimit="10" x1="262.946" y1="-96.411" x2="246.178" y2="-96.411"/>
		
			<polyline clip-path="url(#SVGID_22_)" fill="none" stroke="#101014" stroke-width="1.44" stroke-linecap="round" stroke-linejoin="round" stroke-miterlimit="10" points="
			250.569,-100.794 246.178,-96.403 250.569,-92.021 		"/>
		<path clip-path="url(#SVGID_22_)" fill="#FFFFFF" d="M828.191-638.29c6.135,16.57-2.324,34.975-18.895,41.111
			c-16.568,6.135-34.975-2.326-41.107-18.894c-6.135-16.569,2.323-34.975,18.892-41.11
			C803.65-663.316,822.056-654.859,828.191-638.29"/>
		<path clip-path="url(#SVGID_22_)" fill="#CFCFC7" d="M795.451-630.584c0,0.529-0.423,0.953-0.953,0.953
			c-0.593,0-0.975-0.381-0.975-0.953v-0.637c0-1.396-0.084-4.279-3.283-4.279h-4.388v4.916c0,0.529-0.445,0.953-0.975,0.953
			s-0.953-0.424-0.953-0.953v-12.969c0-0.529,0.424-0.974,0.953-0.974h4.938c4.025,0,5.763,1.863,5.763,4.301
			c0,1.632-0.911,3.201-2.775,3.836c2.353,0.613,2.647,3.644,2.647,4.83V-630.584z M793.65-640.079c0-1.568-0.931-2.629-4.067-2.629
			h-3.73v5.385h3.836C792.061-637.323,793.65-638.275,793.65-640.079"/>
		<path clip-path="url(#SVGID_22_)" fill="#CFCFC7" d="M795.282-613.754c0,2.396-2.142,4.133-5.426,4.133
			c-2.118,0-3.815-0.488-5.043-1.016c-0.317-0.127-0.595-0.488-0.595-0.869c0-0.467,0.34-0.891,0.869-0.891
			c0.129,0,0.256,0.022,0.403,0.084c0.953,0.426,2.353,0.87,4.173,0.87c2.099,0,3.71-0.592,3.71-2.436
			c0-3.139-9.006-1.4-9.006-6.613c0-2.354,1.907-4.342,5.488-4.342c1.651,0,3.072,0.273,4.216,0.699
			c0.297,0.104,0.594,0.338,0.594,0.846c0,0.424-0.318,0.89-0.848,0.89c-0.105,0-0.232-0.043-0.338-0.084
			c-0.976-0.339-2.12-0.574-3.412-0.574c-2.141,0-3.771,0.828-3.771,2.418C786.297-616.973,795.282-619.348,795.282-613.754"/>
		<path clip-path="url(#SVGID_22_)" fill="#CFCFC7" d="M815.134-637.133c-0.085,4.43-2.924,7.609-7.438,7.609
			c-4.536,0-7.353-3.179-7.439-7.609c0.087-4.428,2.903-7.607,7.439-7.607C812.21-644.74,815.049-641.562,815.134-637.133
			 M813.205-637.133c0-3.264-2.011-5.807-5.508-5.807c-3.519,0-5.512,2.543-5.512,5.807s1.993,5.807,5.512,5.807
			C811.194-631.326,813.205-633.869,813.205-637.133"/>
		<path clip-path="url(#SVGID_22_)" fill="#CFCFC7" d="M812.878-610.723c0,0.51-0.403,0.891-0.911,0.891h-8.498
			c-0.53,0-0.955-0.424-0.955-0.953v-12.864c0-0.531,0.425-0.974,0.955-0.974h8.498c0.508,0,0.911,0.402,0.911,0.91
			c0,0.508-0.403,0.89-0.911,0.89h-7.524v4.682h6.762c0.508,0,0.911,0.404,0.911,0.912c0,0.508-0.403,0.891-0.911,0.891h-6.762
			v4.705h7.524C812.475-611.633,812.878-611.233,812.878-610.723"/>
		
			<line clip-path="url(#SVGID_22_)" fill="none" stroke="#101014" stroke-width="0.5" stroke-miterlimit="10" x1="277.833" y1="-632.639" x2="457.833" y2="-632.639"/>
	</g>
	<text transform="matrix(1 0 0 1 255.0332 -644.8545)"><tspan x="0" y="0" fill="#101014" font-family="'Garamond'" font-size="14.1985" letter-spacing="3">G</tspan><tspan x="14" y="0" fill="#101014" font-family="'Garamond'" font-size="14.1985" letter-spacing="2">OO</tspan><tspan x="41.836" y="0" fill="#101014" font-family="'Garamond'" font-size="14.1985" letter-spacing="2">G</tspan><tspan x="55.381" y="0" fill="#101014" font-family="'Garamond'" font-size="14.1985" letter-spacing="3">L</tspan><tspan x="66.666" y="0" fill="#101014" font-family="'Garamond'" font-size="14.1985" letter-spacing="2">E </tspan><tspan x="85.184" y="0" fill="#101014" font-family="'Garamond'" font-size="14.1985" letter-spacing="2">+ </tspan><tspan x="103.876" y="0" fill="#101014" font-family="'Garamond'" font-size="14.1985" letter-spacing="1">F</tspan><tspan x="113.808" y="0" fill="#101014" font-family="'Garamond'" font-size="14.1985" letter-spacing="3">A</tspan><tspan x="126.562" y="0" fill="#101014" font-family="'Garamond'" font-size="14.1985" letter-spacing="2">S</tspan><tspan x="136.003" y="0" fill="#101014" font-family="'Garamond'" font-size="14.1985" letter-spacing="3">H</tspan><tspan x="149.951" y="0" fill="#101014" font-family="'Garamond'" font-size="14.1985" letter-spacing="2">I</tspan><tspan x="157.461" y="0" fill="#101014" font-family="'Garamond'" font-size="14.1985" letter-spacing="2">O</tspan><tspan x="171.138" y="0" fill="#101014" font-family="'Garamond'" font-size="14.1985" letter-spacing="2">N</tspan><tspan x="184.924" y="0" fill="#101014" font-family="'Garamond'" font-size="14.1985" letter-spacing="2"> </tspan><tspan x="191.3" y="0" fill="#101014" font-family="'Garamond'" font-size="14.1985" letter-spacing="3">2</tspan><tspan x="201.037" y="0" fill="#101014" font-family="'Garamond'" font-size="14.1985" letter-spacing="2">0</tspan><tspan x="210.276" y="0" fill="#101014" font-family="'Garamond'" font-size="14.1985" letter-spacing="1">1</tspan><tspan x="218.834" y="0" fill="#101014" font-family="'Garamond'" font-size="14.1985">4</tspan></text>
	<text transform="matrix(1 0 0 1 288.104 -609.7368)"><tspan x="0" y="0" fill="#101014" font-family="'Karla-Regular'" font-size="14" letter-spacing="2">COLL</tspan><tspan x="41.93" y="0" fill="#101014" font-family="'Karla-Regular'" font-size="14" letter-spacing="2">E</tspan><tspan x="52.583" y="0" fill="#101014" font-family="'Karla-Regular'" font-size="14" letter-spacing="2">CT</tspan><tspan x="73.779" y="0" fill="#101014" font-family="'Karla-Regular'" font-size="14" letter-spacing="2">ION</tspan><tspan x="104.691" y="0" fill="#101014" font-family="'Karla-Regular'" font-size="14" letter-spacing="2"> </tspan><tspan x="110.823" y="0" fill="#101014" font-family="'Karla-Regular'" font-size="14" letter-spacing="2">NA</tspan><tspan x="134.035" y="0" fill="#101014" font-family="'Karla-Regular'" font-size="14" letter-spacing="2">M</tspan><tspan x="148.707" y="0" fill="#101014" font-family="'Karla-Regular'" font-size="14">E</tspan></text>
	<text transform="matrix(1 0 0 1 322.166 -82.6924)"><tspan x="0" y="0" fill="#101014" font-family="'Karla-Regular'" font-size="14" letter-spacing="2">G</tspan><tspan x="11.774" y="0" fill="#101014" font-family="'Karla-Regular'" font-size="14" letter-spacing="2">A</tspan><tspan x="22.428" y="0" fill="#101014" font-family="'Karla-Regular'" font-size="14" letter-spacing="2">R</tspan><tspan x="33.417" y="0" fill="#101014" font-family="'Karla-Regular'" font-size="14" letter-spacing="2">M</tspan><tspan x="47.753" y="0" fill="#101014" font-family="'Karla-Regular'" font-size="14" letter-spacing="2">E</tspan><tspan x="57.931" y="0" fill="#101014" font-family="'Karla-Regular'" font-size="14" letter-spacing="2">NT</tspan><tspan x="80.023" y="0" fill="#101014" font-family="'Karla-Regular'" font-size="14">S</tspan></text>
	<g>
		<defs>
			<rect id="SVGID_23_" x="-160.167" y="-895.89" width="1056" height="1056"/>
		</defs>
		<clipPath id="SVGID_24_">
			<use xlink:href="#SVGID_23_"  overflow="visible"/>
		</clipPath>
		
			<circle clip-path="url(#SVGID_24_)" fill="none" stroke="#101014" stroke-width="1.44" stroke-linecap="round" stroke-linejoin="round" stroke-miterlimit="10" cx="327.878" cy="-110.202" r="3.354"/>
		
			<circle clip-path="url(#SVGID_24_)" fill="none" stroke="#101014" stroke-width="1.44" stroke-linecap="round" stroke-linejoin="round" stroke-miterlimit="10" cx="343.861" cy="-110.202" r="3.354"/>
		<path clip-path="url(#SVGID_24_)" fill="#F61816" d="M359.841-106.849c-1.852,0-3.352-1.502-3.352-3.354s1.5-3.354,3.352-3.354
			c1.854,0,3.354,1.502,3.354,3.354S361.695-106.849,359.841-106.849"/>
		<circle clip-path="url(#SVGID_24_)" fill="none" stroke="#F61816" stroke-miterlimit="10" cx="359.841" cy="-110.202" r="3.354"/>
		
			<circle clip-path="url(#SVGID_24_)" fill="none" stroke="#101014" stroke-width="1.44" stroke-linecap="round" stroke-linejoin="round" stroke-miterlimit="10" cx="375.824" cy="-110.202" r="3.354"/>
		
			<circle clip-path="url(#SVGID_24_)" fill="none" stroke="#101014" stroke-width="1.44" stroke-linecap="round" stroke-linejoin="round" stroke-miterlimit="10" cx="391.804" cy="-110.202" r="3.354"/>
		
			<circle clip-path="url(#SVGID_24_)" fill="none" stroke="#101014" stroke-width="1.44" stroke-linecap="round" stroke-linejoin="round" stroke-miterlimit="10" cx="407.787" cy="-110.202" r="3.354"/>
	</g>
	<text transform="matrix(1 0 0 1 -117.1548 -68.4561)"><tspan x="0" y="0" fill="#404D4F" font-family="'Karla-Bold'" font-size="10">Google | Privacy &amp; </tspan><tspan x="89.679" y="0" fill="#404D4F" font-family="'Karla-Bold'" font-size="10">T</tspan><tspan x="94.168" y="0" fill="#404D4F" font-family="'Karla-Bold'" font-size="10">erms</tspan></text>
	<text transform="matrix(1 0 0 1 1.2354 -68.4561)" fill="#404D4F" font-family="'Karla-Bold'" font-size="10"> | Logout</text>
	<g>
		<defs>
			<rect id="SVGID_25_" x="-160.167" y="-895.89" width="1056" height="1056"/>
		</defs>
		<clipPath id="SVGID_26_">
			<use xlink:href="#SVGID_25_"  overflow="visible"/>
		</clipPath>
		
			<line clip-path="url(#SVGID_26_)" fill="none" stroke="#101014" stroke-width="1.44" stroke-linecap="round" stroke-linejoin="round" stroke-miterlimit="10" x1="367.833" y1="-624.835" x2="367.833" y2="-741.89"/>
	</g>
	<text transform="matrix(1 0 0 1 322.1313 -788.6401)"><tspan x="0" y="0" fill="#101014" font-family="'VarelaRound'" font-size="10.9061">DISPL</tspan><tspan x="31.583" y="0" fill="#101014" font-family="'VarelaRound'" font-size="10.9061">A</tspan><tspan x="38.498" y="0" fill="#101014" font-family="'VarelaRound'" font-size="10.9061">Y</tspan><tspan x="45.445" y="0" fill="#101014" font-family="'VarelaRound'" font-size="10.9061">S USERS</tspan></text>
	<text transform="matrix(1 0 0 1 321.5425 -775.5527)" fill="#101014" font-family="'VarelaRound'" font-size="10.9061">INPUTTED NAME</text>
	<g display="none">
		<defs>
			<rect id="SVGID_27_" x="-3417.207" y="-895.89" width="8645.261" height="2170.439"/>
		</defs>
		<clipPath id="SVGID_28_" display="inline">
			<use xlink:href="#SVGID_27_"  overflow="visible"/>
		</clipPath>
		<path display="inline" clip-path="url(#SVGID_28_)" fill-rule="evenodd" clip-rule="evenodd" fill="#FF0000" d="M795.825,160.11
			h57.009v-1056h-57.009V160.11z M712.842,160.11h56.979v-1056h-56.979V160.11z M629.832,160.11h57.008v-1056h-57.008V160.11z
			 M546.847,160.11h56.981v-1056h-56.981V160.11z M463.837,160.11h57.009v-1056h-57.009V160.11z M380.827,160.11h57.008v-1056
			h-57.008V160.11z M297.843,160.11h56.98v-1056h-56.98V160.11z M214.833,160.11h57.008v-1056h-57.008V160.11z M131.821,160.11
			h57.008v-1056h-57.008V160.11z M48.839,160.11h56.98v-1056h-56.98V160.11z M-34.172,160.11h57.008v-1056h-57.008V160.11z
			 M-117.154,160.11h56.979v-1056h-56.979V160.11z"/>
	</g>
	<polygon points="-92.033,201.395 -101.261,201.395 -99.833,194.795 -101.261,183.9 -96.53,182.297 -92.033,183.812 
		-93.534,194.713 	"/>
	<polygon fill="none" stroke="#000000" stroke-width="0.458" stroke-miterlimit="10" points="-92.033,201.395 -101.261,201.395 
		-99.833,194.795 -101.261,183.9 -96.53,182.297 -92.033,183.812 -93.534,194.713 	"/>
	
		<polygon fill="none" stroke="#000000" stroke-width="0.735" stroke-linecap="round" stroke-linejoin="round" stroke-miterlimit="10" points="
		-92.033,201.395 -101.261,201.395 -99.833,194.795 -101.261,183.9 -96.53,182.297 -92.033,183.812 -93.534,194.713 	"/>
	
		<ellipse transform="matrix(1 0.0058 -0.0058 1 1.0376 0.5662)" fill="none" stroke="#000000" stroke-width="0.735" stroke-linecap="round" stroke-linejoin="round" stroke-miterlimit="10" cx="-96.535" cy="178.121" rx="2.092" ry="3.09"/>
	
		<polygon fill="none" stroke="#000000" stroke-width="0.735" stroke-linecap="round" stroke-linejoin="round" stroke-miterlimit="10" points="
		-95.406,201.395 -92.033,201.395 -92.033,230.62 -94.398,230.62 -94.398,215.014 	"/>
	
		<rect x="-90.895" y="183.67" transform="matrix(-0.9947 0.1027 -0.1027 -0.9947 -159.6781 397.7394)" fill="none" stroke="#000000" stroke-width="0.735" stroke-linecap="round" stroke-linejoin="round" stroke-miterlimit="10" width="1.636" height="22.179"/>
	
		<polygon fill="none" stroke="#000000" stroke-width="0.735" stroke-linecap="round" stroke-linejoin="round" stroke-miterlimit="10" points="
		-97.89,201.395 -101.26,201.395 -101.26,230.62 -98.897,230.62 -98.897,215.014 	"/>
	
		<rect x="-104.034" y="183.757" transform="matrix(0.9947 0.1026 -0.1026 0.9947 19.4531 11.6225)" fill="none" stroke="#000000" stroke-width="0.735" stroke-linecap="round" stroke-linejoin="round" stroke-miterlimit="10" width="1.637" height="22.181"/>
	<g>
		<path fill="#101014" d="M-14.746,27.42c-7.444,0-13.5-6.056-13.5-13.499c0-7.444,6.056-13.501,13.5-13.501
			c7.444,0,13.5,6.057,13.5,13.501C-1.247,21.364-7.302,27.42-14.746,27.42z M-14.746,1.816c-6.674,0-12.104,5.431-12.104,12.104
			c0,6.673,5.429,12.103,12.104,12.103c6.674,0,12.103-5.43,12.103-12.103C-2.643,7.247-8.072,1.816-14.746,1.816z"/>
		<path fill="#101014" d="M-6.362,14.641H-23.13c-0.397,0-0.72-0.322-0.72-0.72s0.323-0.72,0.72-0.72h16.768
			c0.397,0,0.72,0.322,0.72,0.72S-5.965,14.641-6.362,14.641z"/>
		<path fill="#101014" d="M-18.739,19.031c-0.184,0-0.368-0.07-0.509-0.21l-4.391-4.383c-0.135-0.135-0.211-0.318-0.211-0.51
			c0-0.19,0.076-0.374,0.211-0.509l4.391-4.391c0.281-0.281,0.737-0.281,1.019,0s0.281,0.736,0,1.018l-3.882,3.882l3.881,3.873
			c0.281,0.281,0.282,0.737,0.001,1.019C-18.37,18.961-18.555,19.031-18.739,19.031z"/>
	</g>
	<path fill="#101014" d="M76.883,21.223c-0.696,0-1.295-0.523-1.373-1.23l-0.918-8.287c-0.041-0.365,0.066-0.73,0.295-1.018
		c0.229-0.286,0.563-0.47,0.928-0.51l8.295-0.91c0.759-0.077,1.442,0.464,1.525,1.225c0.083,0.759-0.464,1.441-1.224,1.525
		l-6.919,0.759l0.766,6.911c0.084,0.759-0.463,1.442-1.222,1.527C76.985,21.22,76.934,21.223,76.883,21.223z"/>
	<path fill="#101014" d="M64.121,30.301C53.398,30.301,45,25.37,45,19.076c0-4.486,4.263-8.401,11.126-10.22
		c0.737-0.194,1.495,0.245,1.691,0.982c0.195,0.738-0.245,1.496-0.983,1.691c-5.509,1.459-9.069,4.421-9.069,7.546
		c0,4.585,7.49,8.459,16.355,8.459s16.355-3.874,16.355-8.459c0-1.952-1.373-3.488-2.523-4.433l-2.784-1.961
		c-0.624-0.44-0.772-1.304-0.332-1.928c0.441-0.625,1.304-0.771,1.928-0.332l2.863,2.021c2.392,1.958,3.614,4.23,3.614,6.632
		C83.242,25.37,74.843,30.301,64.121,30.301z"/>
	<polygon fill="#101014" points="120.907,17.101 116.641,12.835 118.27,11.206 120.907,13.843 126.54,8.21 128.169,9.839 	"/>
	<g>
		
			<rect x="117.421" y="22.893" transform="matrix(0.7072 0.7071 -0.7071 0.7072 52.8635 -79.5463)" fill="#101014" width="10.082" height="2.304"/>
		
			<rect x="121.196" y="18.891" transform="matrix(0.7071 0.7071 -0.7071 0.7071 52.7572 -79.5038)" fill="#101014" width="2.304" height="10.082"/>
	</g>
	<g>
		<path fill="#FFFFFF" d="M-68.166,273.667c6.135,16.57-2.324,34.974-18.895,41.11c-16.568,6.135-34.975-2.326-41.107-18.894
			c-6.135-16.568,2.323-34.974,18.892-41.108C-92.707,248.641-74.3,257.098-68.166,273.667"/>
		<path fill="#CFCFC7" d="M-100.906,281.372c0,0.529-0.423,0.953-0.953,0.953c-0.593,0-0.975-0.381-0.975-0.953v-0.637
			c0-1.396-0.084-4.279-3.283-4.279h-4.388v4.916c0,0.529-0.445,0.953-0.975,0.953s-0.953-0.424-0.953-0.953v-12.968
			c0-0.529,0.424-0.975,0.953-0.975h4.938c4.025,0,5.763,1.862,5.763,4.3c0,1.633-0.911,3.201-2.775,3.836
			c2.353,0.613,2.647,3.645,2.647,4.83V281.372z M-102.707,271.878c0-1.568-0.931-2.629-4.067-2.629h-3.73v5.385h3.836
			C-104.295,274.634-102.707,273.681-102.707,271.878"/>
		<path fill="#CFCFC7" d="M-101.075,298.202c0,2.396-2.142,4.132-5.426,4.132c-2.118,0-3.815-0.488-5.043-1.016
			c-0.317-0.127-0.595-0.487-0.595-0.868c0-0.467,0.34-0.891,0.869-0.891c0.129,0,0.256,0.021,0.403,0.084
			c0.953,0.426,2.353,0.869,4.173,0.869c2.099,0,3.71-0.592,3.71-2.436c0-3.139-9.006-1.4-9.006-6.613
			c0-2.354,1.907-4.342,5.488-4.342c1.651,0,3.072,0.273,4.216,0.699c0.297,0.104,0.594,0.338,0.594,0.846
			c0,0.424-0.318,0.891-0.848,0.891c-0.105,0-0.232-0.043-0.338-0.084c-0.976-0.34-2.12-0.574-3.412-0.574
			c-2.141,0-3.771,0.828-3.771,2.418C-110.059,294.983-101.075,292.608-101.075,298.202"/>
		<path fill="#CFCFC7" d="M-81.222,274.823c-0.085,4.43-2.924,7.609-7.438,7.609c-4.536,0-7.353-3.18-7.439-7.609
			c0.087-4.428,2.903-7.606,7.439-7.606C-84.146,267.217-81.307,270.396-81.222,274.823 M-83.152,274.823
			c0-3.264-2.011-5.807-5.508-5.807c-3.519,0-5.512,2.543-5.512,5.807s1.993,5.807,5.512,5.807
			C-85.163,280.63-83.152,278.087-83.152,274.823"/>
		<path fill="#CFCFC7" d="M-83.478,301.232c0,0.51-0.403,0.891-0.911,0.891h-8.498c-0.53,0-0.955-0.424-0.955-0.953v-12.862
			c0-0.531,0.425-0.975,0.955-0.975h8.498c0.508,0,0.911,0.402,0.911,0.91s-0.403,0.891-0.911,0.891h-7.524v4.682h6.762
			c0.508,0,0.911,0.404,0.911,0.912s-0.403,0.891-0.911,0.891h-6.762v4.705h7.524C-83.881,300.323-83.478,300.724-83.478,301.232"/>
	</g>
	<g>
		<path fill="#101014" d="M13.919,0.42c7.444,0,13.5,6.056,13.5,13.499c0,7.444-6.056,13.501-13.5,13.501
			c-7.444,0-13.5-6.057-13.5-13.501C0.42,6.476,6.476,0.42,13.919,0.42z M13.919,26.023c6.674,0,12.104-5.431,12.104-12.104
			c0-6.673-5.429-12.103-12.104-12.103c-6.674,0-12.103,5.43-12.103,12.103C1.816,20.593,7.246,26.023,13.919,26.023z"/>
		<path fill="#101014" d="M5.536,13.199h16.768c0.397,0,0.72,0.322,0.72,0.72s-0.323,0.72-0.72,0.72H5.536
			c-0.397,0-0.72-0.322-0.72-0.72S5.138,13.199,5.536,13.199z"/>
		<path fill="#101014" d="M17.913,8.809c0.184,0,0.368,0.07,0.509,0.21l4.391,4.383c0.135,0.135,0.211,0.318,0.211,0.51
			c0,0.19-0.076,0.374-0.211,0.509l-4.391,4.391c-0.281,0.281-0.737,0.281-1.019,0s-0.281-0.736,0-1.018l3.882-3.882l-3.881-3.873
			c-0.281-0.281-0.282-0.737-0.001-1.019C17.543,8.879,17.728,8.809,17.913,8.809z"/>
	</g>
</g>
<g id="Layer_2">
	<rect x="-130.167" y="-687.476" fill="none" width="996" height="631.446"/>
	<rect x="104.753" y="-687.475" fill="none" stroke="#F6F7F4" stroke-miterlimit="10" width="527.08" height="631.444"/>
</g>
</svg>
