<?xml version="1.0" encoding="utf-8"?>
<!-- Generator: Adobe Illustrator 15.0.0, SVG Export Plug-In . SVG Version: 6.00 Build 0)  -->
<!DOCTYPE svg PUBLIC "-//W3C//DTD SVG 1.1//EN" "http://www.w3.org/Graphics/SVG/1.1/DTD/svg11.dtd">
<svg version="1.1" xmlns="http://www.w3.org/2000/svg" xmlns:xlink="http://www.w3.org/1999/xlink" x="0px" y="0px" width="64px"
	 height="64.002px" viewBox="0 0 64 64.002" enable-background="new 0 0 64 64.002" xml:space="preserve">
<g id="Layer_1">
	<rect y="-940.251" fill="#F6F7F4" width="996" height="631.445"/>
	<g>
		<defs>
			<rect id="SVGID_1_" y="-940.25" width="996" height="631.445"/>
		</defs>
		<clipPath id="SVGID_2_">
			<use xlink:href="#SVGID_1_"  overflow="visible"/>
		</clipPath>
		<path clip-path="url(#SVGID_2_)" fill="#CFCFC7" d="M26.095-546.106c0,0.855-0.694,1.549-1.549,1.549
			c-0.857,0-1.55-0.693-1.55-1.549c0-0.854,0.693-1.549,1.55-1.549C25.401-547.655,26.095-546.96,26.095-546.106"/>
		<path clip-path="url(#SVGID_2_)" fill="#CFCFC7" d="M112.177-546.106c0,0.855-0.693,1.549-1.55,1.549
			c-0.854,0-1.547-0.693-1.547-1.549c0-0.854,0.693-1.549,1.547-1.549C111.484-547.655,112.177-546.96,112.177-546.106"/>
		<path clip-path="url(#SVGID_2_)" fill="#CFCFC7" d="M198.26-546.106c0,0.855-0.693,1.549-1.549,1.549
			c-0.854,0-1.549-0.693-1.549-1.549c0-0.854,0.695-1.549,1.549-1.549C197.567-547.655,198.26-546.96,198.26-546.106"/>
		<path clip-path="url(#SVGID_2_)" fill="#CFCFC7" d="M284.343-546.106c0,0.855-0.693,1.549-1.55,1.549
			c-0.854,0-1.549-0.693-1.549-1.549c0-0.854,0.695-1.549,1.549-1.549C283.65-547.655,284.343-546.96,284.343-546.106"/>
		<path clip-path="url(#SVGID_2_)" fill="#CFCFC7" d="M370.426-546.106c0,0.855-0.694,1.549-1.55,1.549s-1.549-0.693-1.549-1.549
			c0-0.854,0.693-1.549,1.549-1.549S370.426-546.96,370.426-546.106"/>
		<path clip-path="url(#SVGID_2_)" fill="#CFCFC7" d="M456.51-546.106c0,0.855-0.693,1.549-1.551,1.549
			c-0.855,0-1.549-0.693-1.549-1.549c0-0.854,0.694-1.549,1.549-1.549C455.817-547.655,456.51-546.96,456.51-546.106"/>
		<path clip-path="url(#SVGID_2_)" fill="#CFCFC7" d="M542.593-546.106c0,0.855-0.695,1.549-1.55,1.549
			c-0.857,0-1.551-0.693-1.551-1.549c0-0.854,0.693-1.549,1.551-1.549C541.897-547.655,542.593-546.96,542.593-546.106"/>
		<path clip-path="url(#SVGID_2_)" fill="#CFCFC7" d="M628.676-546.106c0,0.855-0.695,1.549-1.554,1.549
			c-0.853,0-1.546-0.693-1.546-1.549c0-0.854,0.693-1.549,1.546-1.549C627.98-547.655,628.676-546.96,628.676-546.106"/>
		<path clip-path="url(#SVGID_2_)" fill="#CFCFC7" d="M714.755-546.106c0,0.855-0.694,1.549-1.549,1.549s-1.548-0.693-1.548-1.549
			c0-0.854,0.693-1.549,1.548-1.549S714.755-546.96,714.755-546.106"/>
		<path clip-path="url(#SVGID_2_)" fill="#CFCFC7" d="M800.839-546.106c0,0.855-0.691,1.549-1.547,1.549
			c-0.857,0-1.55-0.693-1.55-1.549c0-0.854,0.692-1.549,1.55-1.549C800.147-547.655,800.839-546.96,800.839-546.106"/>
		<path clip-path="url(#SVGID_2_)" fill="#CFCFC7" d="M886.921-546.106c0,0.855-0.691,1.549-1.55,1.549
			c-0.854,0-1.548-0.693-1.548-1.549c0-0.854,0.693-1.549,1.548-1.549C886.229-547.655,886.921-546.96,886.921-546.106"/>
		<path clip-path="url(#SVGID_2_)" fill="#CFCFC7" d="M973.002-546.106c0,0.855-0.689,1.549-1.548,1.549
			c-0.855,0-1.55-0.693-1.55-1.549c0-0.854,0.694-1.549,1.55-1.549C972.312-547.655,973.002-546.96,973.002-546.106"/>
		<path clip-path="url(#SVGID_2_)" fill="#CFCFC7" d="M26.095-636.495c0,0.857-0.694,1.551-1.549,1.551
			c-0.857,0-1.55-0.694-1.55-1.551c0-0.854,0.693-1.549,1.55-1.549C25.401-638.043,26.095-637.349,26.095-636.495"/>
		<path clip-path="url(#SVGID_2_)" fill="#CFCFC7" d="M112.177-636.495c0,0.857-0.693,1.551-1.55,1.551
			c-0.854,0-1.547-0.694-1.547-1.551c0-0.854,0.693-1.549,1.547-1.549C111.484-638.043,112.177-637.349,112.177-636.495"/>
		<path clip-path="url(#SVGID_2_)" fill="#CFCFC7" d="M198.26-636.495c0,0.857-0.693,1.551-1.549,1.551
			c-0.854,0-1.549-0.694-1.549-1.551c0-0.854,0.695-1.549,1.549-1.549C197.567-638.043,198.26-637.349,198.26-636.495"/>
		<path clip-path="url(#SVGID_2_)" fill="#CFCFC7" d="M284.343-636.495c0,0.857-0.693,1.551-1.55,1.551
			c-0.854,0-1.549-0.694-1.549-1.551c0-0.854,0.695-1.549,1.549-1.549C283.65-638.043,284.343-637.349,284.343-636.495"/>
		<path clip-path="url(#SVGID_2_)" fill="#CFCFC7" d="M370.426-636.495c0,0.857-0.694,1.551-1.55,1.551s-1.549-0.694-1.549-1.551
			c0-0.854,0.693-1.549,1.549-1.549S370.426-637.349,370.426-636.495"/>
		<path clip-path="url(#SVGID_2_)" fill="#CFCFC7" d="M456.51-636.495c0,0.857-0.693,1.551-1.551,1.551
			c-0.855,0-1.549-0.694-1.549-1.551c0-0.854,0.694-1.549,1.549-1.549C455.817-638.043,456.51-637.349,456.51-636.495"/>
		<path clip-path="url(#SVGID_2_)" fill="#CFCFC7" d="M542.593-636.495c0,0.857-0.695,1.551-1.55,1.551
			c-0.857,0-1.551-0.694-1.551-1.551c0-0.854,0.693-1.549,1.551-1.549C541.897-638.043,542.593-637.349,542.593-636.495"/>
		<path clip-path="url(#SVGID_2_)" fill="#CFCFC7" d="M628.676-636.495c0,0.857-0.695,1.551-1.554,1.551
			c-0.853,0-1.546-0.694-1.546-1.551c0-0.854,0.693-1.549,1.546-1.549C627.98-638.043,628.676-637.349,628.676-636.495"/>
		<path clip-path="url(#SVGID_2_)" fill="#CFCFC7" d="M714.755-636.495c0,0.857-0.694,1.551-1.549,1.551s-1.548-0.694-1.548-1.551
			c0-0.854,0.693-1.549,1.548-1.549S714.755-637.349,714.755-636.495"/>
		<path clip-path="url(#SVGID_2_)" fill="#CFCFC7" d="M800.839-636.495c0,0.857-0.691,1.551-1.547,1.551
			c-0.857,0-1.55-0.694-1.55-1.551c0-0.854,0.692-1.549,1.55-1.549C800.147-638.043,800.839-637.349,800.839-636.495"/>
		<path clip-path="url(#SVGID_2_)" fill="#CFCFC7" d="M886.921-636.495c0,0.857-0.691,1.551-1.55,1.551
			c-0.854,0-1.548-0.694-1.548-1.551c0-0.854,0.693-1.549,1.548-1.549C886.229-638.043,886.921-637.349,886.921-636.495"/>
		<path clip-path="url(#SVGID_2_)" fill="#CFCFC7" d="M973.002-636.495c0,0.857-0.689,1.551-1.548,1.551
			c-0.855,0-1.55-0.694-1.55-1.551c0-0.854,0.694-1.549,1.55-1.549C972.312-638.043,973.002-637.349,973.002-636.495"/>
		<path clip-path="url(#SVGID_2_)" fill="#CFCFC7" d="M26.095-726.879c0,0.855-0.694,1.549-1.549,1.549
			c-0.857,0-1.55-0.694-1.55-1.549c0-0.857,0.693-1.549,1.55-1.549C25.401-728.428,26.095-727.736,26.095-726.879"/>
		<path clip-path="url(#SVGID_2_)" fill="#CFCFC7" d="M112.177-726.879c0,0.855-0.693,1.549-1.55,1.549
			c-0.854,0-1.547-0.694-1.547-1.549c0-0.857,0.693-1.549,1.547-1.549C111.484-728.428,112.177-727.736,112.177-726.879"/>
		<path clip-path="url(#SVGID_2_)" fill="#CFCFC7" d="M198.26-726.879c0,0.855-0.693,1.549-1.549,1.549
			c-0.854,0-1.549-0.694-1.549-1.549c0-0.857,0.695-1.549,1.549-1.549C197.567-728.428,198.26-727.736,198.26-726.879"/>
		<path clip-path="url(#SVGID_2_)" fill="#CFCFC7" d="M284.343-726.879c0,0.855-0.693,1.549-1.55,1.549
			c-0.854,0-1.549-0.694-1.549-1.549c0-0.857,0.695-1.549,1.549-1.549C283.65-728.428,284.343-727.736,284.343-726.879"/>
		<path clip-path="url(#SVGID_2_)" fill="#CFCFC7" d="M370.426-726.879c0,0.855-0.694,1.549-1.55,1.549s-1.549-0.694-1.549-1.549
			c0-0.857,0.693-1.549,1.549-1.549S370.426-727.736,370.426-726.879"/>
		<path clip-path="url(#SVGID_2_)" fill="#CFCFC7" d="M456.51-726.879c0,0.855-0.693,1.549-1.551,1.549
			c-0.855,0-1.549-0.694-1.549-1.549c0-0.857,0.694-1.549,1.549-1.549C455.817-728.428,456.51-727.736,456.51-726.879"/>
		<path clip-path="url(#SVGID_2_)" fill="#CFCFC7" d="M542.593-726.879c0,0.855-0.695,1.549-1.55,1.549
			c-0.857,0-1.551-0.694-1.551-1.549c0-0.857,0.693-1.549,1.551-1.549C541.897-728.428,542.593-727.736,542.593-726.879"/>
		<path clip-path="url(#SVGID_2_)" fill="#CFCFC7" d="M628.676-726.879c0,0.855-0.695,1.549-1.554,1.549
			c-0.853,0-1.546-0.694-1.546-1.549c0-0.857,0.693-1.549,1.546-1.549C627.98-728.428,628.676-727.736,628.676-726.879"/>
		<path clip-path="url(#SVGID_2_)" fill="#CFCFC7" d="M714.755-726.879c0,0.855-0.694,1.549-1.549,1.549s-1.548-0.694-1.548-1.549
			c0-0.857,0.693-1.549,1.548-1.549S714.755-727.736,714.755-726.879"/>
		<path clip-path="url(#SVGID_2_)" fill="#CFCFC7" d="M800.839-726.879c0,0.855-0.691,1.549-1.547,1.549
			c-0.857,0-1.55-0.694-1.55-1.549c0-0.857,0.692-1.549,1.55-1.549C800.147-728.428,800.839-727.736,800.839-726.879"/>
		<path clip-path="url(#SVGID_2_)" fill="#CFCFC7" d="M886.921-726.879c0,0.855-0.691,1.549-1.55,1.549
			c-0.854,0-1.548-0.694-1.548-1.549c0-0.857,0.693-1.549,1.548-1.549C886.229-728.428,886.921-727.736,886.921-726.879"/>
		<path clip-path="url(#SVGID_2_)" fill="#CFCFC7" d="M973.002-726.879c0,0.855-0.689,1.549-1.548,1.549
			c-0.855,0-1.55-0.694-1.55-1.549c0-0.857,0.694-1.549,1.55-1.549C972.312-728.428,973.002-727.736,973.002-726.879"/>
		<path clip-path="url(#SVGID_2_)" fill="#CFCFC7" d="M26.095-817.268c0,0.857-0.694,1.551-1.549,1.551
			c-0.857,0-1.55-0.694-1.55-1.551c0-0.854,0.693-1.549,1.55-1.549C25.401-818.817,26.095-818.122,26.095-817.268"/>
		<path clip-path="url(#SVGID_2_)" fill="#CFCFC7" d="M112.177-817.268c0,0.857-0.693,1.551-1.55,1.551
			c-0.854,0-1.547-0.694-1.547-1.551c0-0.854,0.693-1.549,1.547-1.549C111.484-818.817,112.177-818.122,112.177-817.268"/>
		<path clip-path="url(#SVGID_2_)" fill="#CFCFC7" d="M198.26-817.268c0,0.857-0.693,1.551-1.549,1.551
			c-0.854,0-1.549-0.694-1.549-1.551c0-0.854,0.695-1.549,1.549-1.549C197.567-818.817,198.26-818.122,198.26-817.268"/>
		<path clip-path="url(#SVGID_2_)" fill="#CFCFC7" d="M284.343-817.268c0,0.857-0.693,1.551-1.55,1.551
			c-0.854,0-1.549-0.694-1.549-1.551c0-0.854,0.695-1.549,1.549-1.549C283.65-818.817,284.343-818.122,284.343-817.268"/>
		<path clip-path="url(#SVGID_2_)" fill="#CFCFC7" d="M370.426-817.268c0,0.857-0.694,1.551-1.55,1.551s-1.549-0.694-1.549-1.551
			c0-0.854,0.693-1.549,1.549-1.549S370.426-818.122,370.426-817.268"/>
		<path clip-path="url(#SVGID_2_)" fill="#CFCFC7" d="M456.51-817.268c0,0.857-0.693,1.551-1.551,1.551
			c-0.855,0-1.549-0.694-1.549-1.551c0-0.854,0.694-1.549,1.549-1.549C455.817-818.817,456.51-818.122,456.51-817.268"/>
		<path clip-path="url(#SVGID_2_)" fill="#CFCFC7" d="M542.593-817.268c0,0.857-0.695,1.551-1.55,1.551
			c-0.857,0-1.551-0.694-1.551-1.551c0-0.854,0.693-1.549,1.551-1.549C541.897-818.817,542.593-818.122,542.593-817.268"/>
		<path clip-path="url(#SVGID_2_)" fill="#CFCFC7" d="M628.676-817.268c0,0.857-0.695,1.551-1.554,1.551
			c-0.853,0-1.546-0.694-1.546-1.551c0-0.854,0.693-1.549,1.546-1.549C627.98-818.817,628.676-818.122,628.676-817.268"/>
		<path clip-path="url(#SVGID_2_)" fill="#CFCFC7" d="M714.755-817.268c0,0.857-0.694,1.551-1.549,1.551s-1.548-0.694-1.548-1.551
			c0-0.854,0.693-1.549,1.548-1.549S714.755-818.122,714.755-817.268"/>
		<path clip-path="url(#SVGID_2_)" fill="#CFCFC7" d="M800.839-817.268c0,0.857-0.691,1.551-1.547,1.551
			c-0.857,0-1.55-0.694-1.55-1.551c0-0.854,0.692-1.549,1.55-1.549C800.147-818.817,800.839-818.122,800.839-817.268"/>
		<path clip-path="url(#SVGID_2_)" fill="#CFCFC7" d="M886.921-817.268c0,0.857-0.691,1.551-1.55,1.551
			c-0.854,0-1.548-0.694-1.548-1.551c0-0.854,0.693-1.549,1.548-1.549C886.229-818.817,886.921-818.122,886.921-817.268"/>
		<path clip-path="url(#SVGID_2_)" fill="#CFCFC7" d="M973.002-817.268c0,0.857-0.689,1.551-1.548,1.551
			c-0.855,0-1.55-0.694-1.55-1.551c0-0.854,0.694-1.549,1.55-1.549C972.312-818.817,973.002-818.122,973.002-817.268"/>
		<path clip-path="url(#SVGID_2_)" fill="#CFCFC7" d="M26.095-907.655c0,0.855-0.694,1.551-1.549,1.551
			c-0.857,0-1.55-0.696-1.55-1.551s0.693-1.549,1.55-1.549C25.401-909.204,26.095-908.51,26.095-907.655"/>
		<path clip-path="url(#SVGID_2_)" fill="#CFCFC7" d="M112.177-907.655c0,0.855-0.693,1.551-1.55,1.551
			c-0.854,0-1.547-0.696-1.547-1.551s0.693-1.549,1.547-1.549C111.484-909.204,112.177-908.51,112.177-907.655"/>
		<path clip-path="url(#SVGID_2_)" fill="#CFCFC7" d="M198.26-907.655c0,0.855-0.693,1.551-1.549,1.551
			c-0.854,0-1.549-0.696-1.549-1.551s0.695-1.549,1.549-1.549C197.567-909.204,198.26-908.51,198.26-907.655"/>
		<path clip-path="url(#SVGID_2_)" fill="#CFCFC7" d="M284.343-907.655c0,0.855-0.693,1.551-1.55,1.551
			c-0.854,0-1.549-0.696-1.549-1.551s0.695-1.549,1.549-1.549C283.65-909.204,284.343-908.51,284.343-907.655"/>
		<path clip-path="url(#SVGID_2_)" fill="#CFCFC7" d="M370.426-907.655c0,0.855-0.694,1.551-1.55,1.551s-1.549-0.696-1.549-1.551
			s0.693-1.549,1.549-1.549S370.426-908.51,370.426-907.655"/>
		<path clip-path="url(#SVGID_2_)" fill="#CFCFC7" d="M456.51-907.655c0,0.855-0.693,1.551-1.551,1.551
			c-0.855,0-1.549-0.696-1.549-1.551s0.694-1.549,1.549-1.549C455.817-909.204,456.51-908.51,456.51-907.655"/>
		<path clip-path="url(#SVGID_2_)" fill="#CFCFC7" d="M542.593-907.655c0,0.855-0.695,1.551-1.55,1.551
			c-0.857,0-1.551-0.696-1.551-1.551s0.693-1.549,1.551-1.549C541.897-909.204,542.593-908.51,542.593-907.655"/>
		<path clip-path="url(#SVGID_2_)" fill="#CFCFC7" d="M628.676-907.655c0,0.855-0.695,1.551-1.554,1.551
			c-0.853,0-1.546-0.696-1.546-1.551s0.693-1.549,1.546-1.549C627.98-909.204,628.676-908.51,628.676-907.655"/>
		<path clip-path="url(#SVGID_2_)" fill="#CFCFC7" d="M714.755-907.655c0,0.855-0.694,1.551-1.549,1.551s-1.548-0.696-1.548-1.551
			s0.693-1.549,1.548-1.549S714.755-908.51,714.755-907.655"/>
		<path clip-path="url(#SVGID_2_)" fill="#CFCFC7" d="M800.839-907.655c0,0.855-0.691,1.551-1.547,1.551
			c-0.857,0-1.55-0.696-1.55-1.551s0.692-1.549,1.55-1.549C800.147-909.204,800.839-908.51,800.839-907.655"/>
		<path clip-path="url(#SVGID_2_)" fill="#CFCFC7" d="M886.921-907.655c0,0.855-0.691,1.551-1.55,1.551
			c-0.854,0-1.548-0.696-1.548-1.551s0.693-1.549,1.548-1.549C886.229-909.204,886.921-908.51,886.921-907.655"/>
		<path clip-path="url(#SVGID_2_)" fill="#CFCFC7" d="M973.002-907.655c0,0.855-0.689,1.551-1.548,1.551
			c-0.855,0-1.55-0.696-1.55-1.551s0.694-1.549,1.55-1.549C972.312-909.204,973.002-908.51,973.002-907.655"/>
		<path clip-path="url(#SVGID_2_)" fill="#CFCFC7" d="M26.095-184.56c0,0.855-0.694,1.551-1.549,1.551
			c-0.857,0-1.55-0.695-1.55-1.551c0-0.854,0.693-1.551,1.55-1.551C25.401-186.11,26.095-185.414,26.095-184.56"/>
		<path clip-path="url(#SVGID_2_)" fill="#CFCFC7" d="M112.177-184.56c0,0.855-0.693,1.551-1.55,1.551
			c-0.854,0-1.547-0.695-1.547-1.551c0-0.854,0.693-1.551,1.547-1.551C111.484-186.11,112.177-185.414,112.177-184.56"/>
		<path clip-path="url(#SVGID_2_)" fill="#CFCFC7" d="M198.26-184.56c0,0.855-0.693,1.551-1.549,1.551
			c-0.854,0-1.549-0.695-1.549-1.551c0-0.854,0.695-1.551,1.549-1.551C197.567-186.11,198.26-185.414,198.26-184.56"/>
		<path clip-path="url(#SVGID_2_)" fill="#CFCFC7" d="M284.343-184.56c0,0.855-0.693,1.551-1.55,1.551
			c-0.854,0-1.549-0.695-1.549-1.551c0-0.854,0.695-1.551,1.549-1.551C283.65-186.11,284.343-185.414,284.343-184.56"/>
		<path clip-path="url(#SVGID_2_)" fill="#CFCFC7" d="M370.426-184.56c0,0.855-0.694,1.551-1.55,1.551s-1.549-0.695-1.549-1.551
			c0-0.854,0.693-1.551,1.549-1.551S370.426-185.414,370.426-184.56"/>
		<path clip-path="url(#SVGID_2_)" fill="#CFCFC7" d="M456.51-184.56c0,0.855-0.693,1.551-1.551,1.551
			c-0.855,0-1.549-0.695-1.549-1.551c0-0.854,0.694-1.551,1.549-1.551C455.817-186.11,456.51-185.414,456.51-184.56"/>
		<path clip-path="url(#SVGID_2_)" fill="#CFCFC7" d="M542.593-184.56c0,0.855-0.695,1.551-1.55,1.551
			c-0.857,0-1.551-0.695-1.551-1.551c0-0.854,0.693-1.551,1.551-1.551C541.897-186.11,542.593-185.414,542.593-184.56"/>
		<path clip-path="url(#SVGID_2_)" fill="#CFCFC7" d="M628.676-184.56c0,0.855-0.695,1.551-1.554,1.551
			c-0.853,0-1.546-0.695-1.546-1.551c0-0.854,0.693-1.551,1.546-1.551C627.98-186.11,628.676-185.414,628.676-184.56"/>
		<path clip-path="url(#SVGID_2_)" fill="#CFCFC7" d="M714.755-184.56c0,0.855-0.694,1.551-1.549,1.551s-1.548-0.695-1.548-1.551
			c0-0.854,0.693-1.551,1.548-1.551S714.755-185.414,714.755-184.56"/>
		<path clip-path="url(#SVGID_2_)" fill="#CFCFC7" d="M800.839-184.56c0,0.855-0.691,1.551-1.547,1.551
			c-0.857,0-1.55-0.695-1.55-1.551c0-0.854,0.692-1.551,1.55-1.551C800.147-186.11,800.839-185.414,800.839-184.56"/>
		<path clip-path="url(#SVGID_2_)" fill="#CFCFC7" d="M886.921-184.56c0,0.855-0.691,1.551-1.55,1.551
			c-0.854,0-1.548-0.695-1.548-1.551c0-0.854,0.693-1.551,1.548-1.551C886.229-186.11,886.921-185.414,886.921-184.56"/>
		<path clip-path="url(#SVGID_2_)" fill="#CFCFC7" d="M973.002-184.56c0,0.855-0.689,1.551-1.548,1.551
			c-0.855,0-1.55-0.695-1.55-1.551c0-0.854,0.694-1.551,1.55-1.551C972.312-186.11,973.002-185.414,973.002-184.56"/>
		<path clip-path="url(#SVGID_2_)" fill="#CFCFC7" d="M26.095-274.946c0,0.857-0.694,1.549-1.549,1.549
			c-0.857,0-1.55-0.691-1.55-1.549c0-0.854,0.693-1.549,1.55-1.549C25.401-276.495,26.095-275.801,26.095-274.946"/>
		<path clip-path="url(#SVGID_2_)" fill="#CFCFC7" d="M112.177-274.946c0,0.857-0.693,1.549-1.55,1.549
			c-0.854,0-1.547-0.691-1.547-1.549c0-0.854,0.693-1.549,1.547-1.549C111.484-276.495,112.177-275.801,112.177-274.946"/>
		<path clip-path="url(#SVGID_2_)" fill="#CFCFC7" d="M198.26-274.946c0,0.857-0.693,1.549-1.549,1.549
			c-0.854,0-1.549-0.691-1.549-1.549c0-0.854,0.695-1.549,1.549-1.549C197.567-276.495,198.26-275.801,198.26-274.946"/>
		<path clip-path="url(#SVGID_2_)" fill="#CFCFC7" d="M284.343-274.946c0,0.857-0.693,1.549-1.55,1.549
			c-0.854,0-1.549-0.691-1.549-1.549c0-0.854,0.695-1.549,1.549-1.549C283.65-276.495,284.343-275.801,284.343-274.946"/>
		<path clip-path="url(#SVGID_2_)" fill="#CFCFC7" d="M370.426-274.946c0,0.857-0.694,1.549-1.55,1.549s-1.549-0.691-1.549-1.549
			c0-0.854,0.693-1.549,1.549-1.549S370.426-275.801,370.426-274.946"/>
		<path clip-path="url(#SVGID_2_)" fill="#CFCFC7" d="M456.51-274.946c0,0.857-0.693,1.549-1.551,1.549
			c-0.855,0-1.549-0.691-1.549-1.549c0-0.854,0.694-1.549,1.549-1.549C455.817-276.495,456.51-275.801,456.51-274.946"/>
		<path clip-path="url(#SVGID_2_)" fill="#CFCFC7" d="M542.593-274.946c0,0.857-0.695,1.549-1.55,1.549
			c-0.857,0-1.551-0.691-1.551-1.549c0-0.854,0.693-1.549,1.551-1.549C541.897-276.495,542.593-275.801,542.593-274.946"/>
		<path clip-path="url(#SVGID_2_)" fill="#CFCFC7" d="M628.676-274.946c0,0.857-0.695,1.549-1.554,1.549
			c-0.853,0-1.546-0.691-1.546-1.549c0-0.854,0.693-1.549,1.546-1.549C627.98-276.495,628.676-275.801,628.676-274.946"/>
		<path clip-path="url(#SVGID_2_)" fill="#CFCFC7" d="M714.755-274.946c0,0.857-0.694,1.549-1.549,1.549s-1.548-0.691-1.548-1.549
			c0-0.854,0.693-1.549,1.548-1.549S714.755-275.801,714.755-274.946"/>
		<path clip-path="url(#SVGID_2_)" fill="#CFCFC7" d="M800.839-274.946c0,0.857-0.691,1.549-1.547,1.549
			c-0.857,0-1.55-0.691-1.55-1.549c0-0.854,0.692-1.549,1.55-1.549C800.147-276.495,800.839-275.801,800.839-274.946"/>
		<path clip-path="url(#SVGID_2_)" fill="#CFCFC7" d="M886.921-274.946c0,0.857-0.691,1.549-1.55,1.549
			c-0.854,0-1.548-0.691-1.548-1.549c0-0.854,0.693-1.549,1.548-1.549C886.229-276.495,886.921-275.801,886.921-274.946"/>
		<path clip-path="url(#SVGID_2_)" fill="#CFCFC7" d="M973.002-274.946c0,0.857-0.689,1.549-1.548,1.549
			c-0.855,0-1.55-0.691-1.55-1.549c0-0.854,0.694-1.549,1.55-1.549C972.312-276.495,973.002-275.801,973.002-274.946"/>
		<path clip-path="url(#SVGID_2_)" fill="#CFCFC7" d="M26.095-365.333c0,0.855-0.694,1.551-1.549,1.551
			c-0.857,0-1.55-0.695-1.55-1.551s0.693-1.549,1.55-1.549C25.401-366.882,26.095-366.188,26.095-365.333"/>
		<path clip-path="url(#SVGID_2_)" fill="#CFCFC7" d="M112.177-365.333c0,0.855-0.693,1.551-1.55,1.551
			c-0.854,0-1.547-0.695-1.547-1.551s0.693-1.549,1.547-1.549C111.484-366.882,112.177-366.188,112.177-365.333"/>
		<path clip-path="url(#SVGID_2_)" fill="#CFCFC7" d="M198.26-365.333c0,0.855-0.693,1.551-1.549,1.551
			c-0.854,0-1.549-0.695-1.549-1.551s0.695-1.549,1.549-1.549C197.567-366.882,198.26-366.188,198.26-365.333"/>
		<path clip-path="url(#SVGID_2_)" fill="#CFCFC7" d="M284.343-365.333c0,0.855-0.693,1.551-1.55,1.551
			c-0.854,0-1.549-0.695-1.549-1.551s0.695-1.549,1.549-1.549C283.65-366.882,284.343-366.188,284.343-365.333"/>
		<path clip-path="url(#SVGID_2_)" fill="#CFCFC7" d="M370.426-365.333c0,0.855-0.694,1.551-1.55,1.551s-1.549-0.695-1.549-1.551
			s0.693-1.549,1.549-1.549S370.426-366.188,370.426-365.333"/>
		<path clip-path="url(#SVGID_2_)" fill="#CFCFC7" d="M456.51-365.333c0,0.855-0.693,1.551-1.551,1.551
			c-0.855,0-1.549-0.695-1.549-1.551s0.694-1.549,1.549-1.549C455.817-366.882,456.51-366.188,456.51-365.333"/>
		<path clip-path="url(#SVGID_2_)" fill="#CFCFC7" d="M542.593-365.333c0,0.855-0.695,1.551-1.55,1.551
			c-0.857,0-1.551-0.695-1.551-1.551s0.693-1.549,1.551-1.549C541.897-366.882,542.593-366.188,542.593-365.333"/>
		<path clip-path="url(#SVGID_2_)" fill="#CFCFC7" d="M628.676-365.333c0,0.855-0.695,1.551-1.554,1.551
			c-0.853,0-1.546-0.695-1.546-1.551s0.693-1.549,1.546-1.549C627.98-366.882,628.676-366.188,628.676-365.333"/>
		<path clip-path="url(#SVGID_2_)" fill="#CFCFC7" d="M714.755-365.333c0,0.855-0.694,1.551-1.549,1.551s-1.548-0.695-1.548-1.551
			s0.693-1.549,1.548-1.549S714.755-366.188,714.755-365.333"/>
		<path clip-path="url(#SVGID_2_)" fill="#CFCFC7" d="M800.839-365.333c0,0.855-0.691,1.551-1.547,1.551
			c-0.857,0-1.55-0.695-1.55-1.551s0.692-1.549,1.55-1.549C800.147-366.882,800.839-366.188,800.839-365.333"/>
		<path clip-path="url(#SVGID_2_)" fill="#CFCFC7" d="M886.921-365.333c0,0.855-0.691,1.551-1.55,1.551
			c-0.854,0-1.548-0.695-1.548-1.551s0.693-1.549,1.548-1.549C886.229-366.882,886.921-366.188,886.921-365.333"/>
		<path clip-path="url(#SVGID_2_)" fill="#CFCFC7" d="M973.002-365.333c0,0.855-0.689,1.551-1.548,1.551
			c-0.855,0-1.55-0.695-1.55-1.551s0.694-1.549,1.55-1.549C972.312-366.882,973.002-366.188,973.002-365.333"/>
		<path clip-path="url(#SVGID_2_)" fill="#CFCFC7" d="M26.095-455.722c0,0.857-0.694,1.551-1.549,1.551
			c-0.857,0-1.55-0.693-1.55-1.551c0-0.854,0.693-1.547,1.55-1.547C25.401-457.269,26.095-456.575,26.095-455.722"/>
		<path clip-path="url(#SVGID_2_)" fill="#CFCFC7" d="M112.177-455.722c0,0.857-0.693,1.551-1.55,1.551
			c-0.854,0-1.547-0.693-1.547-1.551c0-0.854,0.693-1.547,1.547-1.547C111.484-457.269,112.177-456.575,112.177-455.722"/>
		<path clip-path="url(#SVGID_2_)" fill="#CFCFC7" d="M198.26-455.722c0,0.857-0.693,1.551-1.549,1.551
			c-0.854,0-1.549-0.693-1.549-1.551c0-0.854,0.695-1.547,1.549-1.547C197.567-457.269,198.26-456.575,198.26-455.722"/>
		<path clip-path="url(#SVGID_2_)" fill="#CFCFC7" d="M284.343-455.722c0,0.857-0.693,1.551-1.55,1.551
			c-0.854,0-1.549-0.693-1.549-1.551c0-0.854,0.695-1.547,1.549-1.547C283.65-457.269,284.343-456.575,284.343-455.722"/>
		<path clip-path="url(#SVGID_2_)" fill="#CFCFC7" d="M370.426-455.722c0,0.857-0.694,1.551-1.55,1.551s-1.549-0.693-1.549-1.551
			c0-0.854,0.693-1.547,1.549-1.547S370.426-456.575,370.426-455.722"/>
		<path clip-path="url(#SVGID_2_)" fill="#CFCFC7" d="M456.51-455.722c0,0.857-0.693,1.551-1.551,1.551
			c-0.855,0-1.549-0.693-1.549-1.551c0-0.854,0.694-1.547,1.549-1.547C455.817-457.269,456.51-456.575,456.51-455.722"/>
		<path clip-path="url(#SVGID_2_)" fill="#CFCFC7" d="M542.593-455.722c0,0.857-0.695,1.551-1.55,1.551
			c-0.857,0-1.551-0.693-1.551-1.551c0-0.854,0.693-1.547,1.551-1.547C541.897-457.269,542.593-456.575,542.593-455.722"/>
		<path clip-path="url(#SVGID_2_)" fill="#CFCFC7" d="M628.676-455.722c0,0.857-0.695,1.551-1.554,1.551
			c-0.853,0-1.546-0.693-1.546-1.551c0-0.854,0.693-1.547,1.546-1.547C627.98-457.269,628.676-456.575,628.676-455.722"/>
		<path clip-path="url(#SVGID_2_)" fill="#CFCFC7" d="M714.755-455.722c0,0.857-0.694,1.551-1.549,1.551s-1.548-0.693-1.548-1.551
			c0-0.854,0.693-1.547,1.548-1.547S714.755-456.575,714.755-455.722"/>
		<path clip-path="url(#SVGID_2_)" fill="#CFCFC7" d="M800.839-455.722c0,0.857-0.691,1.551-1.547,1.551
			c-0.857,0-1.55-0.693-1.55-1.551c0-0.854,0.692-1.547,1.55-1.547C800.147-457.269,800.839-456.575,800.839-455.722"/>
		<path clip-path="url(#SVGID_2_)" fill="#CFCFC7" d="M886.921-455.722c0,0.857-0.691,1.551-1.55,1.551
			c-0.854,0-1.548-0.693-1.548-1.551c0-0.854,0.693-1.547,1.548-1.547C886.229-457.269,886.921-456.575,886.921-455.722"/>
		<path clip-path="url(#SVGID_2_)" fill="#CFCFC7" d="M973.002-455.722c0,0.857-0.689,1.551-1.548,1.551
			c-0.855,0-1.55-0.693-1.55-1.551c0-0.854,0.694-1.547,1.55-1.547C972.312-457.269,973.002-456.575,973.002-455.722"/>
	</g>
	<g opacity="0.5">
		<g>
			<defs>
				<rect id="SVGID_3_" x="0.92" y="-940.25" width="234" height="631.444"/>
			</defs>
			<clipPath id="SVGID_4_">
				<use xlink:href="#SVGID_3_"  overflow="visible"/>
			</clipPath>
			<rect x="0.92" y="-940.25" clip-path="url(#SVGID_4_)" fill="#9F9B9A" width="234" height="631.445"/>
		</g>
	</g>
	<g opacity="0.5">
		<g>
			<defs>
				<rect id="SVGID_5_" x="762" y="-940.25" width="234" height="631.444"/>
			</defs>
			<clipPath id="SVGID_6_">
				<use xlink:href="#SVGID_5_"  overflow="visible"/>
			</clipPath>
			<rect x="762" y="-940.251" clip-path="url(#SVGID_6_)" fill="#9F9B9A" width="234" height="631.445"/>
		</g>
	</g>
	<polygon points="523.397,-654.645 472.594,-654.645 480.464,-690.969 472.594,-750.934 498.647,-759.756 523.397,-751.426 
		515.135,-691.42 	"/>
	<polygon fill="none" stroke="#000000" stroke-width="2.519" stroke-miterlimit="10" points="523.397,-654.645 472.594,-654.645 
		480.464,-690.969 472.594,-750.934 498.647,-759.756 523.397,-751.426 515.135,-691.42 	"/>
	
		<polygon fill="none" stroke="#000000" stroke-width="4.045" stroke-linecap="round" stroke-linejoin="round" stroke-miterlimit="10" points="
		523.397,-654.645 472.594,-654.645 480.464,-690.969 472.594,-750.934 498.647,-759.756 523.397,-751.426 515.135,-691.42 	"/>
	<g>
		<defs>
			<rect id="SVGID_7_" x="-30" y="-1148.665" width="1056" height="1056"/>
		</defs>
		<clipPath id="SVGID_8_">
			<use xlink:href="#SVGID_7_"  overflow="visible"/>
		</clipPath>
		
			<path clip-path="url(#SVGID_8_)" fill="none" stroke="#000000" stroke-width="4.045" stroke-linecap="round" stroke-linejoin="round" stroke-miterlimit="10" d="
			M510.137-782.684c-0.061,9.398-5.263,16.988-11.62,16.947c-6.36-0.043-11.472-7.691-11.415-17.088
			c0.056-9.404,5.254-16.992,11.615-16.953C505.08-799.743,510.193-792.092,510.137-782.684z"/>
		
			<polygon clip-path="url(#SVGID_8_)" fill="none" stroke="#000000" stroke-width="4.045" stroke-linecap="round" stroke-linejoin="round" stroke-miterlimit="10" points="
			504.837,-654.645 523.397,-654.645 523.397,-493.776 510.38,-493.776 510.38,-579.677 		"/>
		
			<polygon clip-path="url(#SVGID_8_)" fill="none" stroke="#000000" stroke-width="4.045" stroke-linecap="round" stroke-linejoin="round" stroke-miterlimit="10" points="
			523.397,-751.426 532.353,-752.348 544.923,-630.912 535.968,-629.987 		"/>
		
			<polygon clip-path="url(#SVGID_8_)" fill="none" stroke="#000000" stroke-width="4.045" stroke-linecap="round" stroke-linejoin="round" stroke-miterlimit="10" points="
			491.158,-654.645 472.602,-654.645 472.602,-493.776 485.616,-493.776 485.616,-579.677 		"/>
		
			<polygon clip-path="url(#SVGID_8_)" fill="none" stroke="#000000" stroke-width="4.045" stroke-linecap="round" stroke-linejoin="round" stroke-miterlimit="10" points="
			472.603,-750.934 463.647,-751.856 451.078,-630.418 460.023,-629.491 		"/>
		
			<polyline clip-path="url(#SVGID_8_)" fill="none" stroke="#101014" stroke-width="2.766" stroke-linecap="round" stroke-linejoin="round" stroke-miterlimit="10" points="
			516.939,-446.423 508.645,-445.513 509.562,-437.226 		"/>
		
			<path clip-path="url(#SVGID_8_)" fill="none" stroke="#101014" stroke-width="2.766" stroke-linecap="round" stroke-linejoin="round" stroke-miterlimit="10" d="
			M508.645-445.513l2.863,2.021c1.914,1.57,3.029,3.465,3.029,5.502c0,5.436-7.941,9.842-17.739,9.842
			c-9.797,0-17.738-4.408-17.738-9.842c0-3.918,4.125-7.301,10.098-8.883"/>
	</g>
	<text transform="matrix(1 0 0 1 76.1709 -793.6655)"><tspan x="0" y="0" fill="#FFFFFF" font-family="'VarelaRound'" font-size="8.3781">T</tspan><tspan x="4.926" y="0" fill="#FFFFFF" font-family="'VarelaRound'" font-size="8.3781">OP</tspan></text>
	<text transform="matrix(1 0 0 1 143.6147 -793.6655)"><tspan x="0" y="0" fill="#FFFFFF" font-family="'VarelaRound'" font-size="8.3781">B</tspan><tspan x="5.806" y="0" fill="#FFFFFF" font-family="'VarelaRound'" font-size="8.3781">O</tspan><tspan x="12.408" y="0" fill="#FFFFFF" font-family="'VarelaRound'" font-size="8.3781">T</tspan><tspan x="17.527" y="0" fill="#FFFFFF" font-family="'VarelaRound'" font-size="8.3781">T</tspan><tspan x="22.453" y="0" fill="#FFFFFF" font-family="'VarelaRound'" font-size="8.3781">OMS</tspan></text>
	<rect x="825.035" y="-532.195" fill="#DFEBED" width="92.164" height="36.849"/>
	<text transform="matrix(1 0 0 1 852.5312 -509.5928)"><tspan x="0" y="0" fill="#231F20" font-family="'Karla-Bold'" font-size="14.5706">S</tspan><tspan x="9.296" y="0" fill="#231F20" font-family="'Karla-Bold'" font-size="14.5706">A</tspan><tspan x="17.965" y="0" fill="#231F20" font-family="'Karla-Bold'" font-size="14.5706">VE</tspan></text>
	<text transform="matrix(1 0 0 1 852.3691 -565.124)" fill="#FFFFFF" font-family="'VarelaRound'" font-size="8.3781">SHORTS</text>
	<g>
		<defs>
			<rect id="SVGID_9_" x="-30" y="-1148.665" width="1056" height="1056"/>
		</defs>
		<clipPath id="SVGID_10_">
			<use xlink:href="#SVGID_9_"  overflow="visible"/>
		</clipPath>
		
			<line clip-path="url(#SVGID_10_)" fill="none" stroke="#FFFFFF" stroke-width="1.676" stroke-miterlimit="10" x1="801.27" y1="-586.685" x2="937.993" y2="-586.685"/>
		<path clip-path="url(#SVGID_10_)" fill="#8BD6A2" d="M825.035-586.685c0,2.061-1.674,3.732-3.734,3.732
			c-2.062,0-3.734-1.672-3.734-3.732c0-2.062,1.672-3.734,3.734-3.734C823.361-590.419,825.035-588.747,825.035-586.685"/>
	</g>
	<text transform="matrix(1 0 0 1 848.251 -610.5312)"><tspan x="0" y="0" fill="#FFFFFF" font-family="'VarelaRound'" font-size="8.3781">N</tspan><tspan x="6.728" y="0" fill="#FFFFFF" font-family="'VarelaRound'" font-size="8.3781">E</tspan><tspan x="12.014" y="0" fill="#FFFFFF" font-family="'VarelaRound'" font-size="8.3781">CKLINE</tspan></text>
	<g>
		<defs>
			<rect id="SVGID_11_" x="-30" y="-1148.665" width="1056" height="1056"/>
		</defs>
		<clipPath id="SVGID_12_">
			<use xlink:href="#SVGID_11_"  overflow="visible"/>
		</clipPath>
		
			<line clip-path="url(#SVGID_12_)" fill="none" stroke="#FFFFFF" stroke-width="1.676" stroke-miterlimit="10" x1="801.27" y1="-632.092" x2="937.993" y2="-632.092"/>
		<path clip-path="url(#SVGID_12_)" fill="#8BD6A2" d="M878.586-632.092c0,2.063-1.674,3.734-3.734,3.734
			c-2.062,0-3.734-1.671-3.734-3.734c0-2.061,1.672-3.734,3.734-3.734C876.912-635.826,878.586-634.153,878.586-632.092"/>
	</g>
	<text transform="matrix(1 0 0 1 845.8428 -655.938)" fill="#FFFFFF" font-family="'VarelaRound'" font-size="8.3781">TIGHTNESS</text>
	<g>
		<defs>
			<rect id="SVGID_13_" x="-30" y="-1148.665" width="1056" height="1056"/>
		</defs>
		<clipPath id="SVGID_14_">
			<use xlink:href="#SVGID_13_"  overflow="visible"/>
		</clipPath>
		
			<line clip-path="url(#SVGID_14_)" fill="none" stroke="#FFFFFF" stroke-width="1.676" stroke-miterlimit="10" x1="801.27" y1="-677.499" x2="937.993" y2="-677.499"/>
		<path clip-path="url(#SVGID_14_)" fill="#8BD6A2" d="M828.77-677.499c0,2.061-1.674,3.734-3.734,3.734
			c-2.062,0-3.734-1.673-3.734-3.734c0-2.063,1.672-3.734,3.734-3.734C827.096-681.232,828.77-679.562,828.77-677.499"/>
	</g>
	<text transform="matrix(1 0 0 1 847.8779 -701.3452)" fill="#FFFFFF" font-family="'VarelaRound'" font-size="8.3781">FULLNESS</text>
	<g>
		<defs>
			<rect id="SVGID_15_" x="-30" y="-1148.665" width="1056" height="1056"/>
		</defs>
		<clipPath id="SVGID_16_">
			<use xlink:href="#SVGID_15_"  overflow="visible"/>
		</clipPath>
		
			<line clip-path="url(#SVGID_16_)" fill="none" stroke="#FFFFFF" stroke-width="1.676" stroke-miterlimit="10" x1="801.27" y1="-722.907" x2="937.993" y2="-722.907"/>
		<path clip-path="url(#SVGID_16_)" fill="#8BD6A2" d="M941.728-722.907c0,2.063-1.674,3.734-3.734,3.734
			c-2.062,0-3.734-1.671-3.734-3.734c0-2.061,1.672-3.732,3.734-3.732C940.054-726.639,941.728-724.968,941.728-722.907"/>
	</g>
	<text transform="matrix(1 0 0 1 852.3438 -746.7524)" fill="#FFFFFF" font-family="'VarelaRound'" font-size="8.3781">LENGTH</text>
	<g>
		<defs>
			<rect id="SVGID_17_" x="-30" y="-1148.665" width="1056" height="1056"/>
		</defs>
		<clipPath id="SVGID_18_">
			<use xlink:href="#SVGID_17_"  overflow="visible"/>
		</clipPath>
		
			<line clip-path="url(#SVGID_18_)" fill="none" stroke="#FFFFFF" stroke-width="1.676" stroke-miterlimit="10" x1="801.27" y1="-768.313" x2="937.993" y2="-768.313"/>
		<path clip-path="url(#SVGID_18_)" fill="#8BD6A2" d="M917.199-768.313c0,2.063-1.674,3.734-3.734,3.734
			c-2.062,0-3.734-1.671-3.734-3.734s1.672-3.734,3.734-3.734C915.525-772.047,917.199-770.376,917.199-768.313"/>
		<circle clip-path="url(#SVGID_18_)" fill="none" stroke="#8BD6A2" stroke-miterlimit="10" cx="913.465" cy="-768.313" r="3.734"/>
		<rect x="51.163" y="-785.303" clip-path="url(#SVGID_18_)" width="65.729" height="65.729"/>
		<polygon clip-path="url(#SVGID_18_)" fill="#FFFFFF" points="88.642,-753.868 79.413,-753.868 80.842,-760.468 79.413,-771.359 
			84.146,-772.963 88.642,-771.45 87.141,-760.55 		"/>
		<polygon clip-path="url(#SVGID_18_)" fill="none" stroke="#FFFFFF" stroke-width="0.458" stroke-miterlimit="10" points="
			88.642,-753.868 79.413,-753.868 80.842,-760.468 79.413,-771.359 84.146,-772.963 88.642,-771.45 87.141,-760.55 		"/>
		
			<polygon clip-path="url(#SVGID_18_)" fill="none" stroke="#FFFFFF" stroke-width="0.735" stroke-linecap="round" stroke-linejoin="round" stroke-miterlimit="10" points="
			88.642,-753.868 79.413,-753.868 80.842,-760.468 79.413,-771.359 84.146,-772.963 88.642,-771.45 87.141,-760.55 		"/>
		
			<ellipse transform="matrix(1 0.006 -0.006 1 -4.6237 -0.5145)" clip-path="url(#SVGID_18_)" fill="none" stroke="#FFFFFF" stroke-width="0.735" stroke-linecap="round" stroke-linejoin="round" stroke-miterlimit="10" cx="84.139" cy="-777.142" rx="2.092" ry="3.091"/>
		
			<polygon clip-path="url(#SVGID_18_)" fill="none" stroke="#FFFFFF" stroke-width="0.735" stroke-linecap="round" stroke-linejoin="round" stroke-miterlimit="10" points="
			85.27,-753.868 88.642,-753.868 88.642,-724.643 86.276,-724.643 86.276,-740.249 		"/>
		
			<rect x="89.779" y="-771.593" transform="matrix(-0.9947 0.1027 -0.1027 -0.9947 102.6151 -1526.2893)" clip-path="url(#SVGID_18_)" fill="none" stroke="#FFFFFF" stroke-width="0.735" stroke-linecap="round" stroke-linejoin="round" stroke-miterlimit="10" width="1.636" height="22.179"/>
		
			<polygon clip-path="url(#SVGID_18_)" fill="none" stroke="#FFFFFF" stroke-width="0.735" stroke-linecap="round" stroke-linejoin="round" stroke-miterlimit="10" points="
			82.784,-753.868 79.413,-753.868 79.413,-724.643 81.778,-724.643 81.778,-740.249 		"/>
		
			<rect x="76.64" y="-771.503" transform="matrix(0.9947 0.1027 -0.1027 0.9947 -77.6815 -11.975)" clip-path="url(#SVGID_18_)" fill="none" stroke="#FFFFFF" stroke-width="0.735" stroke-linecap="round" stroke-linejoin="round" stroke-miterlimit="10" width="1.636" height="22.179"/>
		<path clip-path="url(#SVGID_18_)" fill="#FFFFFF" d="M114.892-701.354h-61.73v-16.504h61.73V-701.354z M116.892-719.858h-65.73
			v20.504h65.73V-719.858z"/>
		<rect x="132.105" y="-785.302" clip-path="url(#SVGID_18_)" fill="#FFFFFF" width="65.73" height="65.73"/>
		<polygon clip-path="url(#SVGID_18_)" points="169.473,-753.866 160.244,-753.866 161.673,-760.466 160.244,-771.36 
			164.976,-772.964 169.473,-771.448 167.972,-760.548 		"/>
		<polygon clip-path="url(#SVGID_18_)" fill="none" stroke="#000000" stroke-width="0.458" stroke-miterlimit="10" points="
			169.473,-753.866 160.244,-753.866 161.673,-760.466 160.244,-771.36 164.976,-772.964 169.473,-771.448 167.972,-760.548 		"/>
		
			<polygon clip-path="url(#SVGID_18_)" fill="none" stroke="#000000" stroke-width="0.735" stroke-linecap="round" stroke-linejoin="round" stroke-miterlimit="10" points="
			169.473,-753.866 160.244,-753.866 161.673,-760.466 160.244,-771.36 164.976,-772.964 169.473,-771.448 167.972,-760.548 		"/>
		
			<ellipse transform="matrix(1 0.006 -0.006 1 -4.6212 -0.9954)" clip-path="url(#SVGID_18_)" fill="none" stroke="#000000" stroke-width="0.735" stroke-linecap="round" stroke-linejoin="round" stroke-miterlimit="10" cx="164.97" cy="-777.14" rx="2.093" ry="3.091"/>
		
			<polygon clip-path="url(#SVGID_18_)" fill="none" stroke="#000000" stroke-width="0.735" stroke-linecap="round" stroke-linejoin="round" stroke-miterlimit="10" points="
			166.1,-753.866 169.473,-753.866 169.473,-724.641 167.107,-724.641 167.107,-740.247 		"/>
		
			<rect x="170.61" y="-771.591" transform="matrix(-0.9947 0.1027 -0.1027 -0.9947 263.8491 -1534.5864)" clip-path="url(#SVGID_18_)" fill="none" stroke="#000000" stroke-width="0.735" stroke-linecap="round" stroke-linejoin="round" stroke-miterlimit="10" width="1.636" height="22.179"/>
		
			<polygon clip-path="url(#SVGID_18_)" fill="none" stroke="#000000" stroke-width="0.735" stroke-linecap="round" stroke-linejoin="round" stroke-miterlimit="10" points="
			163.615,-753.866 160.245,-753.866 160.245,-724.641 162.608,-724.641 162.608,-740.247 		"/>
		
			<rect x="157.471" y="-771.503" transform="matrix(0.9947 0.1026 -0.1026 0.9947 -77.2086 -20.2616)" clip-path="url(#SVGID_18_)" fill="none" stroke="#000000" stroke-width="0.735" stroke-linecap="round" stroke-linejoin="round" stroke-miterlimit="10" width="1.637" height="22.181"/>
		<path clip-path="url(#SVGID_18_)" fill="#FFFFFF" d="M195.836-701.354h-61.73v-16.504h61.73V-701.354z M197.836-719.858h-65.73
			v20.504h65.73V-719.858z"/>
		
			<line clip-path="url(#SVGID_18_)" fill="none" stroke="#000000" stroke-width="2.304" stroke-miterlimit="10" x1="161.406" y1="-713.17" x2="168.536" y2="-706.042"/>
	</g>
	<text transform="matrix(1 0 0 1 72.707 -677.1421)" fill="#FFFFFF" font-family="'VarelaRound'" font-size="8.3781">SKIRT</text>
	<text transform="matrix(1 0 0 1 149.0815 -677.1421)"><tspan x="0" y="0" fill="#FFFFFF" font-family="'VarelaRound'" font-size="8.3781">J</tspan><tspan x="3.904" y="0" fill="#FFFFFF" font-family="'VarelaRound'" font-size="8.3781">A</tspan><tspan x="9.635" y="0" fill="#FFFFFF" font-family="'VarelaRound'" font-size="8.3781">CKET</tspan></text>
	<g>
		<defs>
			<rect id="SVGID_19_" x="-30" y="-1148.665" width="1056" height="1056"/>
		</defs>
		<clipPath id="SVGID_20_">
			<use xlink:href="#SVGID_19_"  overflow="visible"/>
		</clipPath>
		<rect x="51.163" y="-668.78" clip-path="url(#SVGID_20_)" fill="#FFFFFF" width="65.729" height="65.729"/>
		<polygon clip-path="url(#SVGID_20_)" points="88.642,-637.346 79.413,-637.346 80.842,-643.944 79.413,-654.836 84.146,-656.442 
			88.642,-654.928 87.141,-644.026 		"/>
		<polygon clip-path="url(#SVGID_20_)" fill="none" stroke="#000000" stroke-width="0.458" stroke-miterlimit="10" points="
			88.642,-637.346 79.413,-637.346 80.842,-643.944 79.413,-654.836 84.146,-656.442 88.642,-654.928 87.141,-644.026 		"/>
		
			<polygon clip-path="url(#SVGID_20_)" fill="none" stroke="#000000" stroke-width="0.735" stroke-linecap="round" stroke-linejoin="round" stroke-miterlimit="10" points="
			88.642,-637.346 79.413,-637.346 80.842,-643.944 79.413,-654.836 84.146,-656.442 88.642,-654.928 87.141,-644.026 		"/>
		
			<ellipse transform="matrix(1 0.006 -0.006 1 -3.9302 -0.5125)" clip-path="url(#SVGID_20_)" fill="none" stroke="#000000" stroke-width="0.735" stroke-linecap="round" stroke-linejoin="round" stroke-miterlimit="10" cx="84.139" cy="-660.618" rx="2.092" ry="3.091"/>
		
			<polygon clip-path="url(#SVGID_20_)" fill="none" stroke="#000000" stroke-width="0.735" stroke-linecap="round" stroke-linejoin="round" stroke-miterlimit="10" points="
			85.27,-637.346 88.642,-637.346 88.642,-608.12 86.276,-608.12 86.276,-623.725 		"/>
		
			<rect x="89.779" y="-655.07" transform="matrix(-0.9948 0.1015 -0.1015 -0.9948 115.3535 -1293.8315)" clip-path="url(#SVGID_20_)" fill="none" stroke="#000000" stroke-width="0.735" stroke-linecap="round" stroke-linejoin="round" stroke-miterlimit="10" width="1.635" height="22.179"/>
		
			<polygon clip-path="url(#SVGID_20_)" fill="none" stroke="#000000" stroke-width="0.735" stroke-linecap="round" stroke-linejoin="round" stroke-miterlimit="10" points="
			82.784,-637.346 79.413,-637.346 79.413,-608.12 81.778,-608.12 81.778,-623.725 		"/>
		
			<rect x="76.64" y="-654.98" transform="matrix(0.9946 0.1039 -0.1039 0.9946 -66.4662 -11.5294)" clip-path="url(#SVGID_20_)" fill="none" stroke="#000000" stroke-width="0.735" stroke-linecap="round" stroke-linejoin="round" stroke-miterlimit="10" width="1.636" height="22.181"/>
		<path clip-path="url(#SVGID_20_)" fill="#FFFFFF" d="M114.892-584.833h-61.73v-16.504h61.73V-584.833z M116.892-603.337h-65.73
			v20.504h65.73V-603.337z"/>
		<rect x="132.105" y="-668.779" clip-path="url(#SVGID_20_)" fill="#FFFFFF" width="65.73" height="65.728"/>
		<polygon clip-path="url(#SVGID_20_)" points="169.473,-637.344 160.244,-637.344 161.673,-643.942 160.244,-654.836 
			164.976,-656.44 169.473,-654.924 167.972,-644.026 		"/>
		<polygon clip-path="url(#SVGID_20_)" fill="none" stroke="#000000" stroke-width="0.458" stroke-miterlimit="10" points="
			169.473,-637.344 160.244,-637.344 161.673,-643.942 160.244,-654.836 164.976,-656.44 169.473,-654.924 167.972,-644.026 		"/>
		
			<polygon clip-path="url(#SVGID_20_)" fill="none" stroke="#000000" stroke-width="0.735" stroke-linecap="round" stroke-linejoin="round" stroke-miterlimit="10" points="
			169.473,-637.344 160.244,-637.344 161.673,-643.942 160.244,-654.836 164.976,-656.44 169.473,-654.924 167.972,-644.026 		"/>
		
			<ellipse transform="matrix(1 0.006 -0.006 1 -3.9279 -0.9933)" clip-path="url(#SVGID_20_)" fill="none" stroke="#000000" stroke-width="0.735" stroke-linecap="round" stroke-linejoin="round" stroke-miterlimit="10" cx="164.97" cy="-660.618" rx="2.093" ry="3.093"/>
		
			<polygon clip-path="url(#SVGID_20_)" fill="none" stroke="#000000" stroke-width="0.735" stroke-linecap="round" stroke-linejoin="round" stroke-miterlimit="10" points="
			166.1,-637.344 169.473,-637.344 169.473,-608.118 167.107,-608.118 167.107,-623.723 		"/>
		
			<rect x="170.61" y="-655.068" transform="matrix(-0.9946 0.1039 -0.1039 -0.9946 275.0338 -1302.2791)" clip-path="url(#SVGID_20_)" fill="none" stroke="#000000" stroke-width="0.735" stroke-linecap="round" stroke-linejoin="round" stroke-miterlimit="10" width="1.636" height="22.181"/>
		
			<polygon clip-path="url(#SVGID_20_)" fill="none" stroke="#000000" stroke-width="0.735" stroke-linecap="round" stroke-linejoin="round" stroke-miterlimit="10" points="
			163.615,-637.344 160.245,-637.344 160.245,-608.118 162.608,-608.118 162.608,-623.723 		"/>
		
			<rect x="157.471" y="-654.979" transform="matrix(0.9947 0.1026 -0.1026 0.9947 -65.2493 -19.6462)" clip-path="url(#SVGID_20_)" fill="none" stroke="#000000" stroke-width="0.735" stroke-linecap="round" stroke-linejoin="round" stroke-miterlimit="10" width="1.637" height="22.181"/>
		<path clip-path="url(#SVGID_20_)" fill="#FFFFFF" d="M195.836-584.831h-61.73v-16.504h61.73V-584.831z M197.836-603.335h-65.73
			v20.504h65.73V-603.335z"/>
	</g>
	<text transform="matrix(1 0 0 1 70.8721 -560.6201)" fill="#FFFFFF" font-family="'VarelaRound'" font-size="8.3781">DRESS</text>
	<text transform="matrix(1 0 0 1 143.6191 -560.6201)"><tspan x="0" y="0" fill="#FFFFFF" font-family="'VarelaRound'" font-size="8.3781">B</tspan><tspan x="5.806" y="0" fill="#FFFFFF" font-family="'VarelaRound'" font-size="8.3781">O</tspan><tspan x="12.408" y="0" fill="#FFFFFF" font-family="'VarelaRound'" font-size="8.3781">T</tspan><tspan x="17.527" y="0" fill="#FFFFFF" font-family="'VarelaRound'" font-size="8.3781">T</tspan><tspan x="22.445" y="0" fill="#FFFFFF" font-family="'VarelaRound'" font-size="8.3781">OMS</tspan></text>
	<g>
		<defs>
			<rect id="SVGID_21_" x="-30" y="-1148.665" width="1056" height="1056"/>
		</defs>
		<clipPath id="SVGID_22_">
			<use xlink:href="#SVGID_21_"  overflow="visible"/>
		</clipPath>
		<rect x="51.163" y="-552.257" clip-path="url(#SVGID_22_)" fill="#FFFFFF" width="65.729" height="65.729"/>
		<polygon clip-path="url(#SVGID_22_)" points="88.642,-520.823 79.413,-520.823 80.842,-527.421 79.413,-538.315 84.146,-539.919 
			88.642,-538.405 87.141,-527.505 		"/>
		<polygon clip-path="url(#SVGID_22_)" fill="none" stroke="#000000" stroke-width="0.458" stroke-miterlimit="10" points="
			88.642,-520.823 79.413,-520.823 80.842,-527.421 79.413,-538.315 84.146,-539.919 88.642,-538.405 87.141,-527.505 		"/>
		
			<polygon clip-path="url(#SVGID_22_)" fill="none" stroke="#000000" stroke-width="0.735" stroke-linecap="round" stroke-linejoin="round" stroke-miterlimit="10" points="
			88.642,-520.823 79.413,-520.823 80.842,-527.421 79.413,-538.315 84.146,-539.919 88.642,-538.405 87.141,-527.505 		"/>
		
			<ellipse transform="matrix(1 0.0056 -0.0056 1 -3.0464 -0.4799)" clip-path="url(#SVGID_22_)" fill="none" stroke="#000000" stroke-width="0.735" stroke-linecap="round" stroke-linejoin="round" stroke-miterlimit="10" cx="84.139" cy="-544.097" rx="2.092" ry="3.092"/>
		
			<polygon clip-path="url(#SVGID_22_)" fill="none" stroke="#000000" stroke-width="0.735" stroke-linecap="round" stroke-linejoin="round" stroke-miterlimit="10" points="
			85.27,-520.823 88.642,-520.823 88.642,-491.597 86.276,-491.597 86.276,-507.202 		"/>
		
			<rect x="89.779" y="-538.548" transform="matrix(-0.9947 0.1027 -0.1027 -0.9947 126.5479 -1061.4302)" clip-path="url(#SVGID_22_)" fill="none" stroke="#000000" stroke-width="0.735" stroke-linecap="round" stroke-linejoin="round" stroke-miterlimit="10" width="1.636" height="22.181"/>
		
			<polygon clip-path="url(#SVGID_22_)" fill="none" stroke="#000000" stroke-width="0.735" stroke-linecap="round" stroke-linejoin="round" stroke-miterlimit="10" points="
			82.784,-520.823 79.413,-520.823 79.413,-491.597 81.778,-491.597 81.778,-507.202 		"/>
		
			<rect x="76.64" y="-538.458" transform="matrix(0.9947 0.1027 -0.1027 0.9947 -53.7488 -10.7429)" clip-path="url(#SVGID_22_)" fill="none" stroke="#000000" stroke-width="0.735" stroke-linecap="round" stroke-linejoin="round" stroke-miterlimit="10" width="1.636" height="22.18"/>
		<path clip-path="url(#SVGID_22_)" fill="#FFFFFF" d="M114.892-468.31h-61.73v-16.505h61.73V-468.31z M116.892-486.813h-65.73
			v20.505h65.73V-486.813z"/>
		<rect x="132.105" y="-552.256" clip-path="url(#SVGID_22_)" fill="#FFFFFF" width="65.73" height="65.729"/>
		<polygon clip-path="url(#SVGID_22_)" points="169.473,-520.821 160.244,-520.821 161.673,-527.419 160.244,-538.313 
			164.976,-539.917 169.473,-538.401 167.972,-527.503 		"/>
		<polygon clip-path="url(#SVGID_22_)" fill="none" stroke="#000000" stroke-width="0.458" stroke-miterlimit="10" points="
			169.473,-520.821 160.244,-520.821 161.673,-527.419 160.244,-538.313 164.976,-539.917 169.473,-538.401 167.972,-527.503 		"/>
		
			<polygon clip-path="url(#SVGID_22_)" fill="none" stroke="#000000" stroke-width="0.735" stroke-linecap="round" stroke-linejoin="round" stroke-miterlimit="10" points="
			169.473,-520.821 160.244,-520.821 161.673,-527.419 160.244,-538.313 164.976,-539.917 169.473,-538.401 167.972,-527.503 		"/>
		
			<ellipse transform="matrix(1 0.0061 -0.0061 1 -3.2979 -1.0109)" clip-path="url(#SVGID_22_)" fill="none" stroke="#000000" stroke-width="0.735" stroke-linecap="round" stroke-linejoin="round" stroke-miterlimit="10" cx="164.97" cy="-544.096" rx="2.093" ry="3.093"/>
		
			<polygon clip-path="url(#SVGID_22_)" fill="none" stroke="#000000" stroke-width="0.735" stroke-linecap="round" stroke-linejoin="round" stroke-miterlimit="10" points="
			166.1,-520.821 169.473,-520.821 169.473,-491.594 167.107,-491.594 167.107,-507.2 		"/>
		
			<rect x="170.61" y="-538.545" transform="matrix(-0.9946 0.1039 -0.1039 -0.9946 287.1378 -1069.864)" clip-path="url(#SVGID_22_)" fill="none" stroke="#000000" stroke-width="0.735" stroke-linecap="round" stroke-linejoin="round" stroke-miterlimit="10" width="1.636" height="22.18"/>
		
			<polygon clip-path="url(#SVGID_22_)" fill="none" stroke="#000000" stroke-width="0.735" stroke-linecap="round" stroke-linejoin="round" stroke-miterlimit="10" points="
			163.615,-520.821 160.245,-520.821 160.245,-491.594 162.608,-491.594 162.608,-507.2 		"/>
		
			<rect x="157.471" y="-538.456" transform="matrix(0.9947 0.1026 -0.1026 0.9947 -53.29 -19.0309)" clip-path="url(#SVGID_22_)" fill="none" stroke="#000000" stroke-width="0.735" stroke-linecap="round" stroke-linejoin="round" stroke-miterlimit="10" width="1.637" height="22.181"/>
		<path clip-path="url(#SVGID_22_)" fill="#FFFFFF" d="M195.836-468.31h-61.73v-16.503h61.73V-468.31z M197.836-486.812h-65.73
			v20.503h65.73V-486.812z"/>
		<polyline clip-path="url(#SVGID_22_)" fill="none" stroke="#101014" stroke-width="2.304" stroke-miterlimit="10" points="
			77.579,-710.288 81.03,-706.836 87.478,-713.286 		"/>
		
			<line clip-path="url(#SVGID_22_)" fill="none" stroke="#101014" stroke-width="2.304" stroke-miterlimit="10" x1="161.293" y1="-706.155" x2="168.422" y2="-713.284"/>
		
			<line clip-path="url(#SVGID_22_)" fill="none" stroke="#101014" stroke-width="2.304" stroke-miterlimit="10" x1="161.406" y1="-596.647" x2="168.536" y2="-589.519"/>
		
			<line clip-path="url(#SVGID_22_)" fill="none" stroke="#101014" stroke-width="2.304" stroke-miterlimit="10" x1="161.293" y1="-589.632" x2="168.422" y2="-596.761"/>
		
			<line clip-path="url(#SVGID_22_)" fill="none" stroke="#101014" stroke-width="2.304" stroke-miterlimit="10" x1="80.518" y1="-596.647" x2="87.647" y2="-589.519"/>
		
			<line clip-path="url(#SVGID_22_)" fill="none" stroke="#101014" stroke-width="2.304" stroke-miterlimit="10" x1="80.404" y1="-589.632" x2="87.533" y2="-596.761"/>
		<polyline clip-path="url(#SVGID_22_)" fill="none" stroke="#101014" stroke-width="2.304" stroke-miterlimit="10" points="
			77.579,-477.243 81.03,-473.792 87.478,-480.239 		"/>
		
			<line clip-path="url(#SVGID_22_)" fill="none" stroke="#101014" stroke-width="2.304" stroke-miterlimit="10" x1="161.406" y1="-480.126" x2="168.536" y2="-472.995"/>
		
			<line clip-path="url(#SVGID_22_)" fill="none" stroke="#101014" stroke-width="2.304" stroke-miterlimit="10" x1="161.293" y1="-473.11" x2="168.422" y2="-480.239"/>
		
			<circle clip-path="url(#SVGID_22_)" fill="none" stroke="#101014" stroke-width="1.44" stroke-linecap="round" stroke-linejoin="round" stroke-miterlimit="10" cx="611.637" cy="-349.188" r="13.2"/>
		
			<line clip-path="url(#SVGID_22_)" fill="none" stroke="#101014" stroke-width="1.44" stroke-linecap="round" stroke-linejoin="round" stroke-miterlimit="10" x1="603.254" y1="-349.188" x2="620.021" y2="-349.188"/>
		
			<polyline clip-path="url(#SVGID_22_)" fill="none" stroke="#101014" stroke-width="1.44" stroke-linecap="round" stroke-linejoin="round" stroke-miterlimit="10" points="
			615.63,-344.806 620.021,-349.196 615.63,-353.576 		"/>
		
			<circle clip-path="url(#SVGID_22_)" fill="none" stroke="#101014" stroke-width="1.44" stroke-linecap="round" stroke-linejoin="round" stroke-miterlimit="10" cx="384.728" cy="-349.187" r="13.2"/>
		
			<line clip-path="url(#SVGID_22_)" fill="none" stroke="#101014" stroke-width="1.44" stroke-linecap="round" stroke-linejoin="round" stroke-miterlimit="10" x1="393.112" y1="-349.187" x2="376.344" y2="-349.187"/>
		
			<polyline clip-path="url(#SVGID_22_)" fill="none" stroke="#101014" stroke-width="1.44" stroke-linecap="round" stroke-linejoin="round" stroke-miterlimit="10" points="
			380.735,-353.569 376.344,-349.179 380.735,-344.796 		"/>
		<path clip-path="url(#SVGID_22_)" fill="#FFFFFF" d="M958.357-891.065c6.135,16.57-2.324,34.975-18.895,41.111
			c-16.568,6.135-34.975-2.326-41.107-18.894c-6.135-16.569,2.323-34.975,18.892-41.11
			C933.816-916.092,952.223-907.635,958.357-891.065"/>
		<path clip-path="url(#SVGID_22_)" fill="#CFCFC7" d="M925.617-883.36c0,0.529-0.423,0.953-0.953,0.953
			c-0.593,0-0.975-0.381-0.975-0.953v-0.637c0-1.396-0.084-4.279-3.283-4.279h-4.388v4.916c0,0.529-0.445,0.953-0.975,0.953
			s-0.953-0.424-0.953-0.953v-12.969c0-0.529,0.424-0.974,0.953-0.974h4.938c4.025,0,5.763,1.863,5.763,4.301
			c0,1.632-0.911,3.201-2.775,3.836c2.353,0.613,2.647,3.644,2.647,4.83V-883.36z M923.816-892.854c0-1.568-0.931-2.629-4.067-2.629
			h-3.73v5.385h3.836C922.228-890.098,923.816-891.051,923.816-892.854"/>
		<path clip-path="url(#SVGID_22_)" fill="#CFCFC7" d="M925.448-866.53c0,2.396-2.142,4.133-5.426,4.133
			c-2.118,0-3.815-0.488-5.043-1.016c-0.317-0.127-0.595-0.488-0.595-0.869c0-0.467,0.34-0.891,0.869-0.891
			c0.129,0,0.256,0.022,0.403,0.084c0.953,0.426,2.353,0.87,4.173,0.87c2.099,0,3.71-0.592,3.71-2.436
			c0-3.139-9.006-1.4-9.006-6.613c0-2.354,1.907-4.342,5.488-4.342c1.651,0,3.072,0.273,4.216,0.699
			c0.297,0.104,0.594,0.338,0.594,0.846c0,0.424-0.318,0.89-0.848,0.89c-0.105,0-0.232-0.043-0.338-0.084
			c-0.976-0.339-2.12-0.574-3.412-0.574c-2.141,0-3.771,0.828-3.771,2.418C916.464-869.749,925.448-872.124,925.448-866.53"/>
		<path clip-path="url(#SVGID_22_)" fill="#CFCFC7" d="M945.301-889.909c-0.085,4.43-2.924,7.609-7.438,7.609
			c-4.536,0-7.353-3.179-7.439-7.609c0.087-4.428,2.903-7.607,7.439-7.607C942.377-897.516,945.216-894.337,945.301-889.909
			 M943.371-889.909c0-3.264-2.011-5.807-5.508-5.807c-3.519,0-5.512,2.543-5.512,5.807s1.993,5.807,5.512,5.807
			C941.36-884.102,943.371-886.645,943.371-889.909"/>
		<path clip-path="url(#SVGID_22_)" fill="#CFCFC7" d="M943.045-863.499c0,0.51-0.403,0.891-0.911,0.891h-8.498
			c-0.53,0-0.955-0.424-0.955-0.953v-12.864c0-0.531,0.425-0.974,0.955-0.974h8.498c0.508,0,0.911,0.402,0.911,0.91
			c0,0.508-0.403,0.89-0.911,0.89h-7.524v4.682h6.762c0.508,0,0.911,0.404,0.911,0.912c0,0.508-0.403,0.891-0.911,0.891h-6.762
			v4.705h7.524C942.642-864.409,943.045-864.008,943.045-863.499"/>
		
			<line clip-path="url(#SVGID_22_)" fill="none" stroke="#101014" stroke-width="0.5" stroke-miterlimit="10" x1="408" y1="-885.415" x2="588" y2="-885.415"/>
	</g>
	<text transform="matrix(1 0 0 1 385.1997 -897.6299)"><tspan x="0" y="0" fill="#101014" font-family="'Garamond'" font-size="14.1985" letter-spacing="3">G</tspan><tspan x="14" y="0" fill="#101014" font-family="'Garamond'" font-size="14.1985" letter-spacing="2">OO</tspan><tspan x="41.836" y="0" fill="#101014" font-family="'Garamond'" font-size="14.1985" letter-spacing="2">G</tspan><tspan x="55.381" y="0" fill="#101014" font-family="'Garamond'" font-size="14.1985" letter-spacing="3">L</tspan><tspan x="66.666" y="0" fill="#101014" font-family="'Garamond'" font-size="14.1985" letter-spacing="2">E </tspan><tspan x="85.184" y="0" fill="#101014" font-family="'Garamond'" font-size="14.1985" letter-spacing="2">+ </tspan><tspan x="103.876" y="0" fill="#101014" font-family="'Garamond'" font-size="14.1985" letter-spacing="1">F</tspan><tspan x="113.808" y="0" fill="#101014" font-family="'Garamond'" font-size="14.1985" letter-spacing="3">A</tspan><tspan x="126.562" y="0" fill="#101014" font-family="'Garamond'" font-size="14.1985" letter-spacing="2">S</tspan><tspan x="136.003" y="0" fill="#101014" font-family="'Garamond'" font-size="14.1985" letter-spacing="3">H</tspan><tspan x="149.951" y="0" fill="#101014" font-family="'Garamond'" font-size="14.1985" letter-spacing="2">I</tspan><tspan x="157.461" y="0" fill="#101014" font-family="'Garamond'" font-size="14.1985" letter-spacing="2">O</tspan><tspan x="171.138" y="0" fill="#101014" font-family="'Garamond'" font-size="14.1985" letter-spacing="2">N</tspan><tspan x="184.924" y="0" fill="#101014" font-family="'Garamond'" font-size="14.1985" letter-spacing="2"> </tspan><tspan x="191.3" y="0" fill="#101014" font-family="'Garamond'" font-size="14.1985" letter-spacing="3">2</tspan><tspan x="201.037" y="0" fill="#101014" font-family="'Garamond'" font-size="14.1985" letter-spacing="2">0</tspan><tspan x="210.276" y="0" fill="#101014" font-family="'Garamond'" font-size="14.1985" letter-spacing="1">1</tspan><tspan x="218.834" y="0" fill="#101014" font-family="'Garamond'" font-size="14.1985">4</tspan></text>
	<text transform="matrix(1 0 0 1 418.2705 -862.5122)"><tspan x="0" y="0" fill="#101014" font-family="'Karla-Regular'" font-size="14" letter-spacing="2">COLL</tspan><tspan x="41.93" y="0" fill="#101014" font-family="'Karla-Regular'" font-size="14" letter-spacing="2">E</tspan><tspan x="52.583" y="0" fill="#101014" font-family="'Karla-Regular'" font-size="14" letter-spacing="2">CT</tspan><tspan x="73.779" y="0" fill="#101014" font-family="'Karla-Regular'" font-size="14" letter-spacing="2">ION</tspan><tspan x="104.691" y="0" fill="#101014" font-family="'Karla-Regular'" font-size="14" letter-spacing="2"> </tspan><tspan x="110.823" y="0" fill="#101014" font-family="'Karla-Regular'" font-size="14" letter-spacing="2">NA</tspan><tspan x="134.035" y="0" fill="#101014" font-family="'Karla-Regular'" font-size="14" letter-spacing="2">M</tspan><tspan x="148.707" y="0" fill="#101014" font-family="'Karla-Regular'" font-size="14">E</tspan></text>
	<text transform="matrix(1 0 0 1 452.3325 -335.4678)"><tspan x="0" y="0" fill="#101014" font-family="'Karla-Regular'" font-size="14" letter-spacing="2">G</tspan><tspan x="11.774" y="0" fill="#101014" font-family="'Karla-Regular'" font-size="14" letter-spacing="2">A</tspan><tspan x="22.428" y="0" fill="#101014" font-family="'Karla-Regular'" font-size="14" letter-spacing="2">R</tspan><tspan x="33.417" y="0" fill="#101014" font-family="'Karla-Regular'" font-size="14" letter-spacing="2">M</tspan><tspan x="47.753" y="0" fill="#101014" font-family="'Karla-Regular'" font-size="14" letter-spacing="2">E</tspan><tspan x="57.931" y="0" fill="#101014" font-family="'Karla-Regular'" font-size="14" letter-spacing="2">NT</tspan><tspan x="80.023" y="0" fill="#101014" font-family="'Karla-Regular'" font-size="14">S</tspan></text>
	<g>
		<defs>
			<rect id="SVGID_23_" x="-30" y="-1148.665" width="1056" height="1056"/>
		</defs>
		<clipPath id="SVGID_24_">
			<use xlink:href="#SVGID_23_"  overflow="visible"/>
		</clipPath>
		
			<circle clip-path="url(#SVGID_24_)" fill="none" stroke="#101014" stroke-width="1.44" stroke-linecap="round" stroke-linejoin="round" stroke-miterlimit="10" cx="458.045" cy="-362.978" r="3.354"/>
		
			<circle clip-path="url(#SVGID_24_)" fill="none" stroke="#101014" stroke-width="1.44" stroke-linecap="round" stroke-linejoin="round" stroke-miterlimit="10" cx="474.027" cy="-362.978" r="3.354"/>
		<path clip-path="url(#SVGID_24_)" fill="#F61816" d="M490.008-359.624c-1.852,0-3.352-1.502-3.352-3.354s1.5-3.354,3.352-3.354
			c1.854,0,3.354,1.502,3.354,3.354S491.862-359.624,490.008-359.624"/>
		<circle clip-path="url(#SVGID_24_)" fill="none" stroke="#F61816" stroke-miterlimit="10" cx="490.008" cy="-362.978" r="3.354"/>
		
			<circle clip-path="url(#SVGID_24_)" fill="none" stroke="#101014" stroke-width="1.44" stroke-linecap="round" stroke-linejoin="round" stroke-miterlimit="10" cx="505.99" cy="-362.978" r="3.354"/>
		
			<circle clip-path="url(#SVGID_24_)" fill="none" stroke="#101014" stroke-width="1.44" stroke-linecap="round" stroke-linejoin="round" stroke-miterlimit="10" cx="521.971" cy="-362.978" r="3.354"/>
		
			<circle clip-path="url(#SVGID_24_)" fill="none" stroke="#101014" stroke-width="1.44" stroke-linecap="round" stroke-linejoin="round" stroke-miterlimit="10" cx="537.953" cy="-362.978" r="3.354"/>
	</g>
	<text transform="matrix(1 0 0 1 13.0117 -321.2314)"><tspan x="0" y="0" fill="#404D4F" font-family="'Karla-Bold'" font-size="10">Google | Privacy &amp; </tspan><tspan x="89.679" y="0" fill="#404D4F" font-family="'Karla-Bold'" font-size="10">T</tspan><tspan x="94.168" y="0" fill="#404D4F" font-family="'Karla-Bold'" font-size="10">erms</tspan></text>
	<text transform="matrix(1 0 0 1 131.4019 -321.2314)" fill="#404D4F" font-family="'Karla-Bold'" font-size="10"> | Logout</text>
	<g>
		<defs>
			<rect id="SVGID_25_" x="-30" y="-1148.665" width="1056" height="1056"/>
		</defs>
		<clipPath id="SVGID_26_">
			<use xlink:href="#SVGID_25_"  overflow="visible"/>
		</clipPath>
		
			<line clip-path="url(#SVGID_26_)" fill="none" stroke="#101014" stroke-width="1.44" stroke-linecap="round" stroke-linejoin="round" stroke-miterlimit="10" x1="498" y1="-877.611" x2="498" y2="-994.665"/>
	</g>
	<text transform="matrix(1 0 0 1 452.2979 -1041.4155)"><tspan x="0" y="0" fill="#101014" font-family="'VarelaRound'" font-size="10.9061">DISPL</tspan><tspan x="31.583" y="0" fill="#101014" font-family="'VarelaRound'" font-size="10.9061">A</tspan><tspan x="38.498" y="0" fill="#101014" font-family="'VarelaRound'" font-size="10.9061">Y</tspan><tspan x="45.445" y="0" fill="#101014" font-family="'VarelaRound'" font-size="10.9061">S USERS</tspan></text>
	<text transform="matrix(1 0 0 1 451.709 -1028.3281)" fill="#101014" font-family="'VarelaRound'" font-size="10.9061">INPUTTED NAME</text>
	<g display="none">
		<defs>
			<rect id="SVGID_27_" x="-3287.04" y="-1148.665" width="8645.261" height="2170.439"/>
		</defs>
		<clipPath id="SVGID_28_" display="inline">
			<use xlink:href="#SVGID_27_"  overflow="visible"/>
		</clipPath>
		<path display="inline" clip-path="url(#SVGID_28_)" fill-rule="evenodd" clip-rule="evenodd" fill="#FF0000" d="M925.991-92.665
			H983v-1056h-57.009V-92.665z M843.009-92.665h56.979v-1056h-56.979V-92.665z M759.998-92.665h57.008v-1056h-57.008V-92.665z
			 M677.014-92.665h56.981v-1056h-56.981V-92.665z M594.004-92.665h57.009v-1056h-57.009V-92.665z M510.993-92.665h57.008v-1056
			h-57.008V-92.665z M428.01-92.665h56.98v-1056h-56.98V-92.665z M344.999-92.665h57.008v-1056h-57.008V-92.665z M261.988-92.665
			h57.008v-1056h-57.008V-92.665z M179.006-92.665h56.98v-1056h-56.98V-92.665z M95.994-92.665h57.008v-1056H95.994V-92.665z
			 M13.012-92.665h56.979v-1056H13.012V-92.665z"/>
	</g>
	<polygon points="38.134,-51.381 28.905,-51.381 30.334,-57.98 28.905,-68.875 33.637,-70.479 38.134,-68.963 36.633,-58.062 	"/>
	<polygon fill="none" stroke="#000000" stroke-width="0.458" stroke-miterlimit="10" points="38.134,-51.381 28.905,-51.381 
		30.334,-57.98 28.905,-68.875 33.637,-70.479 38.134,-68.963 36.633,-58.062 	"/>
	
		<polygon fill="none" stroke="#000000" stroke-width="0.735" stroke-linecap="round" stroke-linejoin="round" stroke-miterlimit="10" points="
		38.134,-51.381 28.905,-51.381 30.334,-57.98 28.905,-68.875 33.637,-70.479 38.134,-68.963 36.633,-58.062 	"/>
	
		<ellipse transform="matrix(1 0.0058 -0.0058 1 -0.435 -0.1975)" fill="none" stroke="#000000" stroke-width="0.735" stroke-linecap="round" stroke-linejoin="round" stroke-miterlimit="10" cx="33.631" cy="-74.655" rx="2.092" ry="3.09"/>
	
		<polygon fill="none" stroke="#000000" stroke-width="0.735" stroke-linecap="round" stroke-linejoin="round" stroke-miterlimit="10" points="
		34.761,-51.381 38.134,-51.381 38.134,-22.155 35.769,-22.155 35.769,-37.762 	"/>
	
		<rect x="39.271" y="-69.106" transform="matrix(-0.9947 0.1027 -0.1027 -0.9947 74.0078 -119.8424)" fill="none" stroke="#000000" stroke-width="0.735" stroke-linecap="round" stroke-linejoin="round" stroke-miterlimit="10" width="1.636" height="22.179"/>
	
		<polygon fill="none" stroke="#000000" stroke-width="0.735" stroke-linecap="round" stroke-linejoin="round" stroke-miterlimit="10" points="
		32.276,-51.381 28.906,-51.381 28.906,-22.155 31.27,-22.155 31.27,-37.762 	"/>
	
		<rect x="26.132" y="-69.018" transform="matrix(0.9947 0.1026 -0.1026 0.9947 -5.803 -3.072)" fill="none" stroke="#000000" stroke-width="0.735" stroke-linecap="round" stroke-linejoin="round" stroke-miterlimit="10" width="1.637" height="22.181"/>
	<path fill="#101014" d="M115.42-225.355c-7.444,0-13.5-6.056-13.5-13.499c0-7.444,6.056-13.501,13.5-13.501
		c7.444,0,13.5,6.057,13.5,13.501C128.92-231.411,122.864-225.355,115.42-225.355z M115.42-250.959
		c-6.674,0-12.104,5.431-12.104,12.104c0,6.673,5.429,12.103,12.104,12.103c6.674,0,12.103-5.43,12.103-12.103
		C127.523-245.528,122.094-250.959,115.42-250.959z"/>
	<path fill="#101014" d="M123.804-238.135h-16.768c-0.397,0-0.72-0.322-0.72-0.72s0.323-0.72,0.72-0.72h16.768
		c0.397,0,0.72,0.322,0.72,0.72S124.202-238.135,123.804-238.135z"/>
	<path fill="#101014" d="M111.427-233.744c-0.184,0-0.368-0.07-0.509-0.21l-4.391-4.383c-0.135-0.135-0.211-0.318-0.211-0.51
		c0-0.19,0.076-0.374,0.211-0.509l4.391-4.391c0.281-0.281,0.737-0.281,1.019,0s0.281,0.736,0,1.018l-3.882,3.882l3.881,3.873
		c0.281,0.281,0.282,0.737,0.001,1.019C111.796-233.814,111.612-233.744,111.427-233.744z"/>
	<path fill="#101014" d="M207.049-231.553c-0.696,0-1.295-0.523-1.373-1.23l-0.918-8.287c-0.041-0.365,0.066-0.73,0.295-1.018
		c0.229-0.286,0.563-0.47,0.928-0.51l8.295-0.91c0.759-0.077,1.442,0.464,1.525,1.225c0.083,0.759-0.464,1.441-1.224,1.525
		l-6.919,0.759l0.766,6.911c0.084,0.759-0.463,1.442-1.222,1.527C207.151-231.556,207.1-231.553,207.049-231.553z"/>
	<path fill="#101014" d="M194.287-222.475c-10.722,0-19.121-4.931-19.121-11.225c0-4.486,4.263-8.401,11.126-10.22
		c0.737-0.194,1.495,0.245,1.691,0.982c0.195,0.738-0.245,1.496-0.983,1.691c-5.509,1.459-9.069,4.421-9.069,7.546
		c0,4.585,7.49,8.459,16.355,8.459s16.355-3.874,16.355-8.459c0-1.952-1.373-3.488-2.523-4.433l-2.784-1.961
		c-0.624-0.44-0.772-1.304-0.332-1.928c0.441-0.625,1.304-0.771,1.928-0.332l2.863,2.021c2.392,1.958,3.614,4.23,3.614,6.632
		C213.408-227.405,205.009-222.475,194.287-222.475z"/>
	<polygon fill="#101014" points="252.079,-232.121 247.813,-236.387 249.442,-238.016 252.079,-235.379 257.712,-241.012 
		259.341,-239.383 	"/>
	
		<rect x="277.74" y="-238.629" transform="matrix(0.7072 0.7071 -0.7071 0.7072 -85.0996 -269.4866)" fill="#101014" width="10.082" height="2.304"/>
	
		<rect x="281.515" y="-242.632" transform="matrix(0.7071 0.7071 -0.7071 0.7071 -85.2108 -269.4645)" fill="#101014" width="2.304" height="10.082"/>
	<g>
		<path fill="#FFFFFF" d="M62.001,20.892c6.135,16.57-2.324,34.974-18.895,41.11C26.538,68.137,8.132,59.676,1.999,43.108
			C-4.136,26.54,4.322,8.135,20.891,2C37.46-4.135,55.866,4.322,62.001,20.892"/>
		<path fill="#CFCFC7" d="M29.261,28.597c0,0.529-0.423,0.953-0.953,0.953c-0.593,0-0.975-0.381-0.975-0.953V27.96
			c0-1.396-0.084-4.279-3.283-4.279h-4.388v4.916c0,0.529-0.445,0.953-0.975,0.953s-0.953-0.424-0.953-0.953V15.629
			c0-0.529,0.424-0.975,0.953-0.975h4.938c4.025,0,5.763,1.862,5.763,4.3c0,1.633-0.911,3.201-2.775,3.836
			c2.353,0.613,2.647,3.645,2.647,4.83V28.597z M27.46,19.103c0-1.568-0.931-2.629-4.067-2.629h-3.73v5.385h3.836
			C25.871,21.858,27.46,20.905,27.46,19.103"/>
		<path fill="#CFCFC7" d="M29.092,45.427c0,2.396-2.142,4.132-5.426,4.132c-2.118,0-3.815-0.488-5.043-1.016
			c-0.317-0.127-0.595-0.487-0.595-0.868c0-0.467,0.34-0.891,0.869-0.891c0.129,0,0.256,0.021,0.403,0.084
			c0.953,0.426,2.353,0.869,4.173,0.869c2.099,0,3.71-0.592,3.71-2.436c0-3.139-9.006-1.4-9.006-6.613
			c0-2.354,1.907-4.342,5.488-4.342c1.651,0,3.072,0.273,4.216,0.699c0.297,0.104,0.594,0.338,0.594,0.846
			c0,0.424-0.318,0.891-0.848,0.891c-0.105,0-0.232-0.043-0.338-0.084c-0.976-0.34-2.12-0.574-3.412-0.574
			c-2.141,0-3.771,0.828-3.771,2.418C20.107,42.208,29.092,39.833,29.092,45.427"/>
		<path fill="#CFCFC7" d="M48.944,22.048c-0.085,4.43-2.924,7.609-7.438,7.609c-4.536,0-7.353-3.18-7.439-7.609
			c0.087-4.428,2.903-7.606,7.439-7.606C46.021,14.441,48.859,17.62,48.944,22.048 M47.015,22.048c0-3.264-2.011-5.807-5.508-5.807
			c-3.519,0-5.512,2.543-5.512,5.807s1.993,5.807,5.512,5.807C45.004,27.854,47.015,25.312,47.015,22.048"/>
		<path fill="#CFCFC7" d="M46.688,48.457c0,0.51-0.403,0.891-0.911,0.891h-8.498c-0.53,0-0.955-0.424-0.955-0.953V35.532
			c0-0.531,0.425-0.975,0.955-0.975h8.498c0.508,0,0.911,0.402,0.911,0.91s-0.403,0.891-0.911,0.891h-7.524v4.682h6.762
			c0.508,0,0.911,0.404,0.911,0.912s-0.403,0.891-0.911,0.891h-6.762v4.705h7.524C46.285,47.548,46.688,47.948,46.688,48.457"/>
	</g>
</g>
<g id="Layer_2">
	<rect y="-940.251" fill="none" width="996" height="631.446"/>
	<rect x="234.92" y="-940.25" fill="none" stroke="#F6F7F4" stroke-miterlimit="10" width="527.08" height="631.444"/>
</g>
</svg>
