<?xml version="1.0" encoding="utf-8"?>
<!-- Generator: Adobe Illustrator 15.0.0, SVG Export Plug-In . SVG Version: 6.00 Build 0)  -->
<!DOCTYPE svg PUBLIC "-//W3C//DTD SVG 1.1//EN" "http://www.w3.org/Graphics/SVG/1.1/DTD/svg11.dtd">
<svg version="1.1" xmlns="http://www.w3.org/2000/svg" xmlns:xlink="http://www.w3.org/1999/xlink" x="0px" y="0px"
	 width="11.976px" height="10.091px" viewBox="0 0 11.976 10.091" enable-background="new 0 0 11.976 10.091" xml:space="preserve">
<g id="Layer_1">
	<rect x="-246.583" y="-706.419" fill="#F6F7F4" width="996" height="631.445"/>
	<g>
		<defs>
			<rect id="SVGID_25_" x="-246.583" y="-706.418" width="996" height="631.445"/>
		</defs>
		<clipPath id="SVGID_1_">
			<use xlink:href="#SVGID_25_"  overflow="visible"/>
		</clipPath>
		<path clip-path="url(#SVGID_1_)" fill="#CFCFC7" d="M-220.489-312.274c0,0.855-0.694,1.549-1.549,1.549
			c-0.857,0-1.55-0.693-1.55-1.549c0-0.854,0.693-1.549,1.55-1.549C-221.183-313.823-220.489-313.128-220.489-312.274"/>
		<path clip-path="url(#SVGID_1_)" fill="#CFCFC7" d="M-134.407-312.274c0,0.855-0.693,1.549-1.55,1.549
			c-0.854,0-1.547-0.693-1.547-1.549c0-0.854,0.693-1.549,1.547-1.549C-135.1-313.823-134.407-313.128-134.407-312.274"/>
		<path clip-path="url(#SVGID_1_)" fill="#CFCFC7" d="M-48.324-312.274c0,0.855-0.693,1.549-1.549,1.549
			c-0.854,0-1.549-0.693-1.549-1.549c0-0.854,0.695-1.549,1.549-1.549C-49.017-313.823-48.324-313.128-48.324-312.274"/>
		<path clip-path="url(#SVGID_1_)" fill="#CFCFC7" d="M37.759-312.274c0,0.855-0.693,1.549-1.55,1.549
			c-0.854,0-1.549-0.693-1.549-1.549c0-0.854,0.695-1.549,1.549-1.549C37.066-313.823,37.759-313.128,37.759-312.274"/>
		<path clip-path="url(#SVGID_1_)" fill="#CFCFC7" d="M123.842-312.274c0,0.855-0.694,1.549-1.55,1.549s-1.549-0.693-1.549-1.549
			c0-0.854,0.693-1.549,1.549-1.549S123.842-313.128,123.842-312.274"/>
		<path clip-path="url(#SVGID_1_)" fill="#CFCFC7" d="M209.926-312.274c0,0.855-0.693,1.549-1.551,1.549
			c-0.855,0-1.549-0.693-1.549-1.549c0-0.854,0.694-1.549,1.549-1.549C209.233-313.823,209.926-313.128,209.926-312.274"/>
		<path clip-path="url(#SVGID_1_)" fill="#CFCFC7" d="M296.009-312.274c0,0.855-0.695,1.549-1.55,1.549
			c-0.857,0-1.551-0.693-1.551-1.549c0-0.854,0.693-1.549,1.551-1.549C295.314-313.823,296.009-313.128,296.009-312.274"/>
		<path clip-path="url(#SVGID_1_)" fill="#CFCFC7" d="M382.092-312.274c0,0.855-0.695,1.549-1.554,1.549
			c-0.853,0-1.546-0.693-1.546-1.549c0-0.854,0.693-1.549,1.546-1.549C381.397-313.823,382.092-313.128,382.092-312.274"/>
		<path clip-path="url(#SVGID_1_)" fill="#CFCFC7" d="M468.171-312.274c0,0.855-0.694,1.549-1.549,1.549s-1.548-0.693-1.548-1.549
			c0-0.854,0.693-1.549,1.548-1.549S468.171-313.128,468.171-312.274"/>
		<path clip-path="url(#SVGID_1_)" fill="#CFCFC7" d="M554.255-312.274c0,0.855-0.691,1.549-1.547,1.549
			c-0.857,0-1.55-0.693-1.55-1.549c0-0.854,0.692-1.549,1.55-1.549C553.564-313.823,554.255-313.128,554.255-312.274"/>
		<path clip-path="url(#SVGID_1_)" fill="#CFCFC7" d="M640.337-312.274c0,0.855-0.691,1.549-1.55,1.549
			c-0.854,0-1.548-0.693-1.548-1.549c0-0.854,0.693-1.549,1.548-1.549C639.646-313.823,640.337-313.128,640.337-312.274"/>
		<path clip-path="url(#SVGID_1_)" fill="#CFCFC7" d="M726.418-312.274c0,0.855-0.689,1.549-1.548,1.549
			c-0.855,0-1.55-0.693-1.55-1.549c0-0.854,0.694-1.549,1.55-1.549C725.729-313.823,726.418-313.128,726.418-312.274"/>
		<path clip-path="url(#SVGID_1_)" fill="#CFCFC7" d="M-220.489-402.663c0,0.857-0.694,1.551-1.549,1.551
			c-0.857,0-1.55-0.694-1.55-1.551c0-0.854,0.693-1.549,1.55-1.549C-221.183-404.211-220.489-403.517-220.489-402.663"/>
		<path clip-path="url(#SVGID_1_)" fill="#CFCFC7" d="M-134.407-402.663c0,0.857-0.693,1.551-1.55,1.551
			c-0.854,0-1.547-0.694-1.547-1.551c0-0.854,0.693-1.549,1.547-1.549C-135.1-404.211-134.407-403.517-134.407-402.663"/>
		<path clip-path="url(#SVGID_1_)" fill="#CFCFC7" d="M-48.324-402.663c0,0.857-0.693,1.551-1.549,1.551
			c-0.854,0-1.549-0.694-1.549-1.551c0-0.854,0.695-1.549,1.549-1.549C-49.017-404.211-48.324-403.517-48.324-402.663"/>
		<path clip-path="url(#SVGID_1_)" fill="#CFCFC7" d="M37.759-402.663c0,0.857-0.693,1.551-1.55,1.551
			c-0.854,0-1.549-0.694-1.549-1.551c0-0.854,0.695-1.549,1.549-1.549C37.066-404.211,37.759-403.517,37.759-402.663"/>
		<path clip-path="url(#SVGID_1_)" fill="#CFCFC7" d="M123.842-402.663c0,0.857-0.694,1.551-1.55,1.551s-1.549-0.694-1.549-1.551
			c0-0.854,0.693-1.549,1.549-1.549S123.842-403.517,123.842-402.663"/>
		<path clip-path="url(#SVGID_1_)" fill="#CFCFC7" d="M209.926-402.663c0,0.857-0.693,1.551-1.551,1.551
			c-0.855,0-1.549-0.694-1.549-1.551c0-0.854,0.694-1.549,1.549-1.549C209.233-404.211,209.926-403.517,209.926-402.663"/>
		<path clip-path="url(#SVGID_1_)" fill="#CFCFC7" d="M296.009-402.663c0,0.857-0.695,1.551-1.55,1.551
			c-0.857,0-1.551-0.694-1.551-1.551c0-0.854,0.693-1.549,1.551-1.549C295.314-404.211,296.009-403.517,296.009-402.663"/>
		<path clip-path="url(#SVGID_1_)" fill="#CFCFC7" d="M382.092-402.663c0,0.857-0.695,1.551-1.554,1.551
			c-0.853,0-1.546-0.694-1.546-1.551c0-0.854,0.693-1.549,1.546-1.549C381.397-404.211,382.092-403.517,382.092-402.663"/>
		<path clip-path="url(#SVGID_1_)" fill="#CFCFC7" d="M468.171-402.663c0,0.857-0.694,1.551-1.549,1.551s-1.548-0.694-1.548-1.551
			c0-0.854,0.693-1.549,1.548-1.549S468.171-403.517,468.171-402.663"/>
		<path clip-path="url(#SVGID_1_)" fill="#CFCFC7" d="M554.255-402.663c0,0.857-0.691,1.551-1.547,1.551
			c-0.857,0-1.55-0.694-1.55-1.551c0-0.854,0.692-1.549,1.55-1.549C553.564-404.211,554.255-403.517,554.255-402.663"/>
		<path clip-path="url(#SVGID_1_)" fill="#CFCFC7" d="M640.337-402.663c0,0.857-0.691,1.551-1.55,1.551
			c-0.854,0-1.548-0.694-1.548-1.551c0-0.854,0.693-1.549,1.548-1.549C639.646-404.211,640.337-403.517,640.337-402.663"/>
		<path clip-path="url(#SVGID_1_)" fill="#CFCFC7" d="M726.418-402.663c0,0.857-0.689,1.551-1.548,1.551
			c-0.855,0-1.55-0.694-1.55-1.551c0-0.854,0.694-1.549,1.55-1.549C725.729-404.211,726.418-403.517,726.418-402.663"/>
		<path clip-path="url(#SVGID_1_)" fill="#CFCFC7" d="M-220.489-493.047c0,0.855-0.694,1.549-1.549,1.549
			c-0.857,0-1.55-0.694-1.55-1.549c0-0.857,0.693-1.549,1.55-1.549C-221.183-494.596-220.489-493.904-220.489-493.047"/>
		<path clip-path="url(#SVGID_1_)" fill="#CFCFC7" d="M-134.407-493.047c0,0.855-0.693,1.549-1.55,1.549
			c-0.854,0-1.547-0.694-1.547-1.549c0-0.857,0.693-1.549,1.547-1.549C-135.1-494.596-134.407-493.904-134.407-493.047"/>
		<path clip-path="url(#SVGID_1_)" fill="#CFCFC7" d="M-48.324-493.047c0,0.855-0.693,1.549-1.549,1.549
			c-0.854,0-1.549-0.694-1.549-1.549c0-0.857,0.695-1.549,1.549-1.549C-49.017-494.596-48.324-493.904-48.324-493.047"/>
		<path clip-path="url(#SVGID_1_)" fill="#CFCFC7" d="M37.759-493.047c0,0.855-0.693,1.549-1.55,1.549
			c-0.854,0-1.549-0.694-1.549-1.549c0-0.857,0.695-1.549,1.549-1.549C37.066-494.596,37.759-493.904,37.759-493.047"/>
		<path clip-path="url(#SVGID_1_)" fill="#CFCFC7" d="M123.842-493.047c0,0.855-0.694,1.549-1.55,1.549s-1.549-0.694-1.549-1.549
			c0-0.857,0.693-1.549,1.549-1.549S123.842-493.904,123.842-493.047"/>
		<path clip-path="url(#SVGID_1_)" fill="#CFCFC7" d="M209.926-493.047c0,0.855-0.693,1.549-1.551,1.549
			c-0.855,0-1.549-0.694-1.549-1.549c0-0.857,0.694-1.549,1.549-1.549C209.233-494.596,209.926-493.904,209.926-493.047"/>
		<path clip-path="url(#SVGID_1_)" fill="#CFCFC7" d="M296.009-493.047c0,0.855-0.695,1.549-1.55,1.549
			c-0.857,0-1.551-0.694-1.551-1.549c0-0.857,0.693-1.549,1.551-1.549C295.314-494.596,296.009-493.904,296.009-493.047"/>
		<path clip-path="url(#SVGID_1_)" fill="#CFCFC7" d="M382.092-493.047c0,0.855-0.695,1.549-1.554,1.549
			c-0.853,0-1.546-0.694-1.546-1.549c0-0.857,0.693-1.549,1.546-1.549C381.397-494.596,382.092-493.904,382.092-493.047"/>
		<path clip-path="url(#SVGID_1_)" fill="#CFCFC7" d="M468.171-493.047c0,0.855-0.694,1.549-1.549,1.549s-1.548-0.694-1.548-1.549
			c0-0.857,0.693-1.549,1.548-1.549S468.171-493.904,468.171-493.047"/>
		<path clip-path="url(#SVGID_1_)" fill="#CFCFC7" d="M554.255-493.047c0,0.855-0.691,1.549-1.547,1.549
			c-0.857,0-1.55-0.694-1.55-1.549c0-0.857,0.692-1.549,1.55-1.549C553.564-494.596,554.255-493.904,554.255-493.047"/>
		<path clip-path="url(#SVGID_1_)" fill="#CFCFC7" d="M640.337-493.047c0,0.855-0.691,1.549-1.55,1.549
			c-0.854,0-1.548-0.694-1.548-1.549c0-0.857,0.693-1.549,1.548-1.549C639.646-494.596,640.337-493.904,640.337-493.047"/>
		<path clip-path="url(#SVGID_1_)" fill="#CFCFC7" d="M726.418-493.047c0,0.855-0.689,1.549-1.548,1.549
			c-0.855,0-1.55-0.694-1.55-1.549c0-0.857,0.694-1.549,1.55-1.549C725.729-494.596,726.418-493.904,726.418-493.047"/>
		<path clip-path="url(#SVGID_1_)" fill="#CFCFC7" d="M-220.489-583.436c0,0.857-0.694,1.551-1.549,1.551
			c-0.857,0-1.55-0.694-1.55-1.551c0-0.854,0.693-1.549,1.55-1.549C-221.183-584.985-220.489-584.29-220.489-583.436"/>
		<path clip-path="url(#SVGID_1_)" fill="#CFCFC7" d="M-134.407-583.436c0,0.857-0.693,1.551-1.55,1.551
			c-0.854,0-1.547-0.694-1.547-1.551c0-0.854,0.693-1.549,1.547-1.549C-135.1-584.985-134.407-584.29-134.407-583.436"/>
		<path clip-path="url(#SVGID_1_)" fill="#CFCFC7" d="M-48.324-583.436c0,0.857-0.693,1.551-1.549,1.551
			c-0.854,0-1.549-0.694-1.549-1.551c0-0.854,0.695-1.549,1.549-1.549C-49.017-584.985-48.324-584.29-48.324-583.436"/>
		<path clip-path="url(#SVGID_1_)" fill="#CFCFC7" d="M37.759-583.436c0,0.857-0.693,1.551-1.55,1.551
			c-0.854,0-1.549-0.694-1.549-1.551c0-0.854,0.695-1.549,1.549-1.549C37.066-584.985,37.759-584.29,37.759-583.436"/>
		<path clip-path="url(#SVGID_1_)" fill="#CFCFC7" d="M123.842-583.436c0,0.857-0.694,1.551-1.55,1.551s-1.549-0.694-1.549-1.551
			c0-0.854,0.693-1.549,1.549-1.549S123.842-584.29,123.842-583.436"/>
		<path clip-path="url(#SVGID_1_)" fill="#CFCFC7" d="M209.926-583.436c0,0.857-0.693,1.551-1.551,1.551
			c-0.855,0-1.549-0.694-1.549-1.551c0-0.854,0.694-1.549,1.549-1.549C209.233-584.985,209.926-584.29,209.926-583.436"/>
		<path clip-path="url(#SVGID_1_)" fill="#CFCFC7" d="M296.009-583.436c0,0.857-0.695,1.551-1.55,1.551
			c-0.857,0-1.551-0.694-1.551-1.551c0-0.854,0.693-1.549,1.551-1.549C295.314-584.985,296.009-584.29,296.009-583.436"/>
		<path clip-path="url(#SVGID_1_)" fill="#CFCFC7" d="M382.092-583.436c0,0.857-0.695,1.551-1.554,1.551
			c-0.853,0-1.546-0.694-1.546-1.551c0-0.854,0.693-1.549,1.546-1.549C381.397-584.985,382.092-584.29,382.092-583.436"/>
		<path clip-path="url(#SVGID_1_)" fill="#CFCFC7" d="M468.171-583.436c0,0.857-0.694,1.551-1.549,1.551s-1.548-0.694-1.548-1.551
			c0-0.854,0.693-1.549,1.548-1.549S468.171-584.29,468.171-583.436"/>
		<path clip-path="url(#SVGID_1_)" fill="#CFCFC7" d="M554.255-583.436c0,0.857-0.691,1.551-1.547,1.551
			c-0.857,0-1.55-0.694-1.55-1.551c0-0.854,0.692-1.549,1.55-1.549C553.564-584.985,554.255-584.29,554.255-583.436"/>
		<path clip-path="url(#SVGID_1_)" fill="#CFCFC7" d="M640.337-583.436c0,0.857-0.691,1.551-1.55,1.551
			c-0.854,0-1.548-0.694-1.548-1.551c0-0.854,0.693-1.549,1.548-1.549C639.646-584.985,640.337-584.29,640.337-583.436"/>
		<path clip-path="url(#SVGID_1_)" fill="#CFCFC7" d="M726.418-583.436c0,0.857-0.689,1.551-1.548,1.551
			c-0.855,0-1.55-0.694-1.55-1.551c0-0.854,0.694-1.549,1.55-1.549C725.729-584.985,726.418-584.29,726.418-583.436"/>
		<path clip-path="url(#SVGID_1_)" fill="#CFCFC7" d="M-220.489-673.823c0,0.855-0.694,1.551-1.549,1.551
			c-0.857,0-1.55-0.696-1.55-1.551s0.693-1.549,1.55-1.549C-221.183-675.372-220.489-674.678-220.489-673.823"/>
		<path clip-path="url(#SVGID_1_)" fill="#CFCFC7" d="M-134.407-673.823c0,0.855-0.693,1.551-1.55,1.551
			c-0.854,0-1.547-0.696-1.547-1.551s0.693-1.549,1.547-1.549C-135.1-675.372-134.407-674.678-134.407-673.823"/>
		<path clip-path="url(#SVGID_1_)" fill="#CFCFC7" d="M-48.324-673.823c0,0.855-0.693,1.551-1.549,1.551
			c-0.854,0-1.549-0.696-1.549-1.551s0.695-1.549,1.549-1.549C-49.017-675.372-48.324-674.678-48.324-673.823"/>
		<path clip-path="url(#SVGID_1_)" fill="#CFCFC7" d="M37.759-673.823c0,0.855-0.693,1.551-1.55,1.551
			c-0.854,0-1.549-0.696-1.549-1.551s0.695-1.549,1.549-1.549C37.066-675.372,37.759-674.678,37.759-673.823"/>
		<path clip-path="url(#SVGID_1_)" fill="#CFCFC7" d="M123.842-673.823c0,0.855-0.694,1.551-1.55,1.551s-1.549-0.696-1.549-1.551
			s0.693-1.549,1.549-1.549S123.842-674.678,123.842-673.823"/>
		<path clip-path="url(#SVGID_1_)" fill="#CFCFC7" d="M209.926-673.823c0,0.855-0.693,1.551-1.551,1.551
			c-0.855,0-1.549-0.696-1.549-1.551s0.694-1.549,1.549-1.549C209.233-675.372,209.926-674.678,209.926-673.823"/>
		<path clip-path="url(#SVGID_1_)" fill="#CFCFC7" d="M296.009-673.823c0,0.855-0.695,1.551-1.55,1.551
			c-0.857,0-1.551-0.696-1.551-1.551s0.693-1.549,1.551-1.549C295.314-675.372,296.009-674.678,296.009-673.823"/>
		<path clip-path="url(#SVGID_1_)" fill="#CFCFC7" d="M382.092-673.823c0,0.855-0.695,1.551-1.554,1.551
			c-0.853,0-1.546-0.696-1.546-1.551s0.693-1.549,1.546-1.549C381.397-675.372,382.092-674.678,382.092-673.823"/>
		<path clip-path="url(#SVGID_1_)" fill="#CFCFC7" d="M468.171-673.823c0,0.855-0.694,1.551-1.549,1.551s-1.548-0.696-1.548-1.551
			s0.693-1.549,1.548-1.549S468.171-674.678,468.171-673.823"/>
		<path clip-path="url(#SVGID_1_)" fill="#CFCFC7" d="M554.255-673.823c0,0.855-0.691,1.551-1.547,1.551
			c-0.857,0-1.55-0.696-1.55-1.551s0.692-1.549,1.55-1.549C553.564-675.372,554.255-674.678,554.255-673.823"/>
		<path clip-path="url(#SVGID_1_)" fill="#CFCFC7" d="M640.337-673.823c0,0.855-0.691,1.551-1.55,1.551
			c-0.854,0-1.548-0.696-1.548-1.551s0.693-1.549,1.548-1.549C639.646-675.372,640.337-674.678,640.337-673.823"/>
		<path clip-path="url(#SVGID_1_)" fill="#CFCFC7" d="M726.418-673.823c0,0.855-0.689,1.551-1.548,1.551
			c-0.855,0-1.55-0.696-1.55-1.551s0.694-1.549,1.55-1.549C725.729-675.372,726.418-674.678,726.418-673.823"/>
		<path clip-path="url(#SVGID_1_)" fill="#CFCFC7" d="M-220.489,49.272c0,0.855-0.694,1.551-1.549,1.551
			c-0.857,0-1.55-0.695-1.55-1.551c0-0.854,0.693-1.551,1.55-1.551C-221.183,47.722-220.489,48.418-220.489,49.272"/>
		<path clip-path="url(#SVGID_1_)" fill="#CFCFC7" d="M-134.407,49.272c0,0.855-0.693,1.551-1.55,1.551
			c-0.854,0-1.547-0.695-1.547-1.551c0-0.854,0.693-1.551,1.547-1.551C-135.1,47.722-134.407,48.418-134.407,49.272"/>
		<path clip-path="url(#SVGID_1_)" fill="#CFCFC7" d="M-48.324,49.272c0,0.855-0.693,1.551-1.549,1.551
			c-0.854,0-1.549-0.695-1.549-1.551c0-0.854,0.695-1.551,1.549-1.551C-49.017,47.722-48.324,48.418-48.324,49.272"/>
		<path clip-path="url(#SVGID_1_)" fill="#CFCFC7" d="M37.759,49.272c0,0.855-0.693,1.551-1.55,1.551
			c-0.854,0-1.549-0.695-1.549-1.551c0-0.854,0.695-1.551,1.549-1.551C37.066,47.722,37.759,48.418,37.759,49.272"/>
		<path clip-path="url(#SVGID_1_)" fill="#CFCFC7" d="M123.842,49.272c0,0.855-0.694,1.551-1.55,1.551s-1.549-0.695-1.549-1.551
			c0-0.854,0.693-1.551,1.549-1.551S123.842,48.418,123.842,49.272"/>
		<path clip-path="url(#SVGID_1_)" fill="#CFCFC7" d="M209.926,49.272c0,0.855-0.693,1.551-1.551,1.551
			c-0.855,0-1.549-0.695-1.549-1.551c0-0.854,0.694-1.551,1.549-1.551C209.233,47.722,209.926,48.418,209.926,49.272"/>
		<path clip-path="url(#SVGID_1_)" fill="#CFCFC7" d="M296.009,49.272c0,0.855-0.695,1.551-1.55,1.551
			c-0.857,0-1.551-0.695-1.551-1.551c0-0.854,0.693-1.551,1.551-1.551C295.314,47.722,296.009,48.418,296.009,49.272"/>
		<path clip-path="url(#SVGID_1_)" fill="#CFCFC7" d="M382.092,49.272c0,0.855-0.695,1.551-1.554,1.551
			c-0.853,0-1.546-0.695-1.546-1.551c0-0.854,0.693-1.551,1.546-1.551C381.397,47.722,382.092,48.418,382.092,49.272"/>
		<path clip-path="url(#SVGID_1_)" fill="#CFCFC7" d="M468.171,49.272c0,0.855-0.694,1.551-1.549,1.551s-1.548-0.695-1.548-1.551
			c0-0.854,0.693-1.551,1.548-1.551S468.171,48.418,468.171,49.272"/>
		<path clip-path="url(#SVGID_1_)" fill="#CFCFC7" d="M554.255,49.272c0,0.855-0.691,1.551-1.547,1.551
			c-0.857,0-1.55-0.695-1.55-1.551c0-0.854,0.692-1.551,1.55-1.551C553.564,47.722,554.255,48.418,554.255,49.272"/>
		<path clip-path="url(#SVGID_1_)" fill="#CFCFC7" d="M640.337,49.272c0,0.855-0.691,1.551-1.55,1.551
			c-0.854,0-1.548-0.695-1.548-1.551c0-0.854,0.693-1.551,1.548-1.551C639.646,47.722,640.337,48.418,640.337,49.272"/>
		<path clip-path="url(#SVGID_1_)" fill="#CFCFC7" d="M726.418,49.272c0,0.855-0.689,1.551-1.548,1.551
			c-0.855,0-1.55-0.695-1.55-1.551c0-0.854,0.694-1.551,1.55-1.551C725.729,47.722,726.418,48.418,726.418,49.272"/>
		<path clip-path="url(#SVGID_1_)" fill="#CFCFC7" d="M-220.489-41.114c0,0.857-0.694,1.549-1.549,1.549
			c-0.857,0-1.55-0.691-1.55-1.549c0-0.854,0.693-1.549,1.55-1.549C-221.183-42.663-220.489-41.969-220.489-41.114"/>
		<path clip-path="url(#SVGID_1_)" fill="#CFCFC7" d="M-134.407-41.114c0,0.857-0.693,1.549-1.55,1.549
			c-0.854,0-1.547-0.691-1.547-1.549c0-0.854,0.693-1.549,1.547-1.549C-135.1-42.663-134.407-41.969-134.407-41.114"/>
		<path clip-path="url(#SVGID_1_)" fill="#CFCFC7" d="M-48.324-41.114c0,0.857-0.693,1.549-1.549,1.549
			c-0.854,0-1.549-0.691-1.549-1.549c0-0.854,0.695-1.549,1.549-1.549C-49.017-42.663-48.324-41.969-48.324-41.114"/>
		<path clip-path="url(#SVGID_1_)" fill="#CFCFC7" d="M37.759-41.114c0,0.857-0.693,1.549-1.55,1.549
			c-0.854,0-1.549-0.691-1.549-1.549c0-0.854,0.695-1.549,1.549-1.549C37.066-42.663,37.759-41.969,37.759-41.114"/>
		<path clip-path="url(#SVGID_1_)" fill="#CFCFC7" d="M123.842-41.114c0,0.857-0.694,1.549-1.55,1.549s-1.549-0.691-1.549-1.549
			c0-0.854,0.693-1.549,1.549-1.549S123.842-41.969,123.842-41.114"/>
		<path clip-path="url(#SVGID_1_)" fill="#CFCFC7" d="M209.926-41.114c0,0.857-0.693,1.549-1.551,1.549
			c-0.855,0-1.549-0.691-1.549-1.549c0-0.854,0.694-1.549,1.549-1.549C209.233-42.663,209.926-41.969,209.926-41.114"/>
		<path clip-path="url(#SVGID_1_)" fill="#CFCFC7" d="M296.009-41.114c0,0.857-0.695,1.549-1.55,1.549
			c-0.857,0-1.551-0.691-1.551-1.549c0-0.854,0.693-1.549,1.551-1.549C295.314-42.663,296.009-41.969,296.009-41.114"/>
		<path clip-path="url(#SVGID_1_)" fill="#CFCFC7" d="M382.092-41.114c0,0.857-0.695,1.549-1.554,1.549
			c-0.853,0-1.546-0.691-1.546-1.549c0-0.854,0.693-1.549,1.546-1.549C381.397-42.663,382.092-41.969,382.092-41.114"/>
		<path clip-path="url(#SVGID_1_)" fill="#CFCFC7" d="M468.171-41.114c0,0.857-0.694,1.549-1.549,1.549s-1.548-0.691-1.548-1.549
			c0-0.854,0.693-1.549,1.548-1.549S468.171-41.969,468.171-41.114"/>
		<path clip-path="url(#SVGID_1_)" fill="#CFCFC7" d="M554.255-41.114c0,0.857-0.691,1.549-1.547,1.549
			c-0.857,0-1.55-0.691-1.55-1.549c0-0.854,0.692-1.549,1.55-1.549C553.564-42.663,554.255-41.969,554.255-41.114"/>
		<path clip-path="url(#SVGID_1_)" fill="#CFCFC7" d="M640.337-41.114c0,0.857-0.691,1.549-1.55,1.549
			c-0.854,0-1.548-0.691-1.548-1.549c0-0.854,0.693-1.549,1.548-1.549C639.646-42.663,640.337-41.969,640.337-41.114"/>
		<path clip-path="url(#SVGID_1_)" fill="#CFCFC7" d="M726.418-41.114c0,0.857-0.689,1.549-1.548,1.549
			c-0.855,0-1.55-0.691-1.55-1.549c0-0.854,0.694-1.549,1.55-1.549C725.729-42.663,726.418-41.969,726.418-41.114"/>
		<path clip-path="url(#SVGID_1_)" fill="#CFCFC7" d="M-220.489-131.501c0,0.855-0.694,1.551-1.549,1.551
			c-0.857,0-1.55-0.695-1.55-1.551s0.693-1.549,1.55-1.549C-221.183-133.05-220.489-132.356-220.489-131.501"/>
		<path clip-path="url(#SVGID_1_)" fill="#CFCFC7" d="M-134.407-131.501c0,0.855-0.693,1.551-1.55,1.551
			c-0.854,0-1.547-0.695-1.547-1.551s0.693-1.549,1.547-1.549C-135.1-133.05-134.407-132.356-134.407-131.501"/>
		<path clip-path="url(#SVGID_1_)" fill="#CFCFC7" d="M-48.324-131.501c0,0.855-0.693,1.551-1.549,1.551
			c-0.854,0-1.549-0.695-1.549-1.551s0.695-1.549,1.549-1.549C-49.017-133.05-48.324-132.356-48.324-131.501"/>
		<path clip-path="url(#SVGID_1_)" fill="#CFCFC7" d="M37.759-131.501c0,0.855-0.693,1.551-1.55,1.551
			c-0.854,0-1.549-0.695-1.549-1.551s0.695-1.549,1.549-1.549C37.066-133.05,37.759-132.356,37.759-131.501"/>
		<path clip-path="url(#SVGID_1_)" fill="#CFCFC7" d="M123.842-131.501c0,0.855-0.694,1.551-1.55,1.551s-1.549-0.695-1.549-1.551
			s0.693-1.549,1.549-1.549S123.842-132.356,123.842-131.501"/>
		<path clip-path="url(#SVGID_1_)" fill="#CFCFC7" d="M209.926-131.501c0,0.855-0.693,1.551-1.551,1.551
			c-0.855,0-1.549-0.695-1.549-1.551s0.694-1.549,1.549-1.549C209.233-133.05,209.926-132.356,209.926-131.501"/>
		<path clip-path="url(#SVGID_1_)" fill="#CFCFC7" d="M296.009-131.501c0,0.855-0.695,1.551-1.55,1.551
			c-0.857,0-1.551-0.695-1.551-1.551s0.693-1.549,1.551-1.549C295.314-133.05,296.009-132.356,296.009-131.501"/>
		<path clip-path="url(#SVGID_1_)" fill="#CFCFC7" d="M382.092-131.501c0,0.855-0.695,1.551-1.554,1.551
			c-0.853,0-1.546-0.695-1.546-1.551s0.693-1.549,1.546-1.549C381.397-133.05,382.092-132.356,382.092-131.501"/>
		<path clip-path="url(#SVGID_1_)" fill="#CFCFC7" d="M468.171-131.501c0,0.855-0.694,1.551-1.549,1.551s-1.548-0.695-1.548-1.551
			s0.693-1.549,1.548-1.549S468.171-132.356,468.171-131.501"/>
		<path clip-path="url(#SVGID_1_)" fill="#CFCFC7" d="M554.255-131.501c0,0.855-0.691,1.551-1.547,1.551
			c-0.857,0-1.55-0.695-1.55-1.551s0.692-1.549,1.55-1.549C553.564-133.05,554.255-132.356,554.255-131.501"/>
		<path clip-path="url(#SVGID_1_)" fill="#CFCFC7" d="M640.337-131.501c0,0.855-0.691,1.551-1.55,1.551
			c-0.854,0-1.548-0.695-1.548-1.551s0.693-1.549,1.548-1.549C639.646-133.05,640.337-132.356,640.337-131.501"/>
		<path clip-path="url(#SVGID_1_)" fill="#CFCFC7" d="M726.418-131.501c0,0.855-0.689,1.551-1.548,1.551
			c-0.855,0-1.55-0.695-1.55-1.551s0.694-1.549,1.55-1.549C725.729-133.05,726.418-132.356,726.418-131.501"/>
		<path clip-path="url(#SVGID_1_)" fill="#CFCFC7" d="M-220.489-221.89c0,0.857-0.694,1.551-1.549,1.551
			c-0.857,0-1.55-0.693-1.55-1.551c0-0.854,0.693-1.547,1.55-1.547C-221.183-223.437-220.489-222.743-220.489-221.89"/>
		<path clip-path="url(#SVGID_1_)" fill="#CFCFC7" d="M-134.407-221.89c0,0.857-0.693,1.551-1.55,1.551
			c-0.854,0-1.547-0.693-1.547-1.551c0-0.854,0.693-1.547,1.547-1.547C-135.1-223.437-134.407-222.743-134.407-221.89"/>
		<path clip-path="url(#SVGID_1_)" fill="#CFCFC7" d="M-48.324-221.89c0,0.857-0.693,1.551-1.549,1.551
			c-0.854,0-1.549-0.693-1.549-1.551c0-0.854,0.695-1.547,1.549-1.547C-49.017-223.437-48.324-222.743-48.324-221.89"/>
		<path clip-path="url(#SVGID_1_)" fill="#CFCFC7" d="M37.759-221.89c0,0.857-0.693,1.551-1.55,1.551
			c-0.854,0-1.549-0.693-1.549-1.551c0-0.854,0.695-1.547,1.549-1.547C37.066-223.437,37.759-222.743,37.759-221.89"/>
		<path clip-path="url(#SVGID_1_)" fill="#CFCFC7" d="M123.842-221.89c0,0.857-0.694,1.551-1.55,1.551s-1.549-0.693-1.549-1.551
			c0-0.854,0.693-1.547,1.549-1.547S123.842-222.743,123.842-221.89"/>
		<path clip-path="url(#SVGID_1_)" fill="#CFCFC7" d="M209.926-221.89c0,0.857-0.693,1.551-1.551,1.551
			c-0.855,0-1.549-0.693-1.549-1.551c0-0.854,0.694-1.547,1.549-1.547C209.233-223.437,209.926-222.743,209.926-221.89"/>
		<path clip-path="url(#SVGID_1_)" fill="#CFCFC7" d="M296.009-221.89c0,0.857-0.695,1.551-1.55,1.551
			c-0.857,0-1.551-0.693-1.551-1.551c0-0.854,0.693-1.547,1.551-1.547C295.314-223.437,296.009-222.743,296.009-221.89"/>
		<path clip-path="url(#SVGID_1_)" fill="#CFCFC7" d="M382.092-221.89c0,0.857-0.695,1.551-1.554,1.551
			c-0.853,0-1.546-0.693-1.546-1.551c0-0.854,0.693-1.547,1.546-1.547C381.397-223.437,382.092-222.743,382.092-221.89"/>
		<path clip-path="url(#SVGID_1_)" fill="#CFCFC7" d="M468.171-221.89c0,0.857-0.694,1.551-1.549,1.551s-1.548-0.693-1.548-1.551
			c0-0.854,0.693-1.547,1.548-1.547S468.171-222.743,468.171-221.89"/>
		<path clip-path="url(#SVGID_1_)" fill="#CFCFC7" d="M554.255-221.89c0,0.857-0.691,1.551-1.547,1.551
			c-0.857,0-1.55-0.693-1.55-1.551c0-0.854,0.692-1.547,1.55-1.547C553.564-223.437,554.255-222.743,554.255-221.89"/>
		<path clip-path="url(#SVGID_1_)" fill="#CFCFC7" d="M640.337-221.89c0,0.857-0.691,1.551-1.55,1.551
			c-0.854,0-1.548-0.693-1.548-1.551c0-0.854,0.693-1.547,1.548-1.547C639.646-223.437,640.337-222.743,640.337-221.89"/>
		<path clip-path="url(#SVGID_1_)" fill="#CFCFC7" d="M726.418-221.89c0,0.857-0.689,1.551-1.548,1.551
			c-0.855,0-1.55-0.693-1.55-1.551c0-0.854,0.694-1.547,1.55-1.547C725.729-223.437,726.418-222.743,726.418-221.89"/>
	</g>
	<g opacity="0.5">
		<g>
			<defs>
				<rect id="SVGID_27_" x="-245.664" y="-706.418" width="234" height="631.444"/>
			</defs>
			<clipPath id="SVGID_2_">
				<use xlink:href="#SVGID_27_"  overflow="visible"/>
			</clipPath>
			<rect x="-245.664" y="-706.418" clip-path="url(#SVGID_2_)" fill="#9F9B9A" width="234" height="631.445"/>
		</g>
	</g>
	<g opacity="0.5">
		<g>
			<defs>
				<rect id="SVGID_29_" x="515.417" y="-706.418" width="234" height="631.444"/>
			</defs>
			<clipPath id="SVGID_3_">
				<use xlink:href="#SVGID_29_"  overflow="visible"/>
			</clipPath>
			<rect x="515.417" y="-706.419" clip-path="url(#SVGID_3_)" fill="#9F9B9A" width="234" height="631.445"/>
		</g>
	</g>
	<polygon points="276.814,-420.813 226.01,-420.813 233.881,-457.137 226.01,-517.102 252.064,-525.924 276.814,-517.594 
		268.551,-457.588 	"/>
	<polygon fill="none" stroke="#000000" stroke-width="2.519" stroke-miterlimit="10" points="276.814,-420.813 226.01,-420.813 
		233.881,-457.137 226.01,-517.102 252.064,-525.924 276.814,-517.594 268.551,-457.588 	"/>
	
		<polygon fill="none" stroke="#000000" stroke-width="4.045" stroke-linecap="round" stroke-linejoin="round" stroke-miterlimit="10" points="
		276.814,-420.813 226.01,-420.813 233.881,-457.137 226.01,-517.102 252.064,-525.924 276.814,-517.594 268.551,-457.588 	"/>
	<g>
		<defs>
			<rect id="SVGID_31_" x="-276.583" y="-914.833" width="1056" height="1056"/>
		</defs>
		<clipPath id="SVGID_4_">
			<use xlink:href="#SVGID_31_"  overflow="visible"/>
		</clipPath>
		
			<path clip-path="url(#SVGID_4_)" fill="none" stroke="#000000" stroke-width="4.045" stroke-linecap="round" stroke-linejoin="round" stroke-miterlimit="10" d="
			M263.553-548.852c-0.061,9.398-5.263,16.988-11.62,16.947c-6.36-0.043-11.472-7.691-11.415-17.088
			c0.056-9.404,5.254-16.992,11.615-16.953C258.497-565.911,263.61-558.26,263.553-548.852z"/>
		
			<polygon clip-path="url(#SVGID_4_)" fill="none" stroke="#000000" stroke-width="4.045" stroke-linecap="round" stroke-linejoin="round" stroke-miterlimit="10" points="
			258.253,-420.813 276.814,-420.813 276.814,-259.944 263.796,-259.944 263.796,-345.845 		"/>
		
			<polygon clip-path="url(#SVGID_4_)" fill="none" stroke="#000000" stroke-width="4.045" stroke-linecap="round" stroke-linejoin="round" stroke-miterlimit="10" points="
			276.814,-517.594 285.769,-518.516 298.339,-397.08 289.384,-396.155 		"/>
		
			<polygon clip-path="url(#SVGID_4_)" fill="none" stroke="#000000" stroke-width="4.045" stroke-linecap="round" stroke-linejoin="round" stroke-miterlimit="10" points="
			244.575,-420.813 226.019,-420.813 226.019,-259.944 239.033,-259.944 239.033,-345.845 		"/>
		
			<polygon clip-path="url(#SVGID_4_)" fill="none" stroke="#000000" stroke-width="4.045" stroke-linecap="round" stroke-linejoin="round" stroke-miterlimit="10" points="
			226.019,-517.102 217.064,-518.024 204.494,-396.586 213.44,-395.659 		"/>
		
			<polyline clip-path="url(#SVGID_4_)" fill="none" stroke="#101014" stroke-width="2.766" stroke-linecap="round" stroke-linejoin="round" stroke-miterlimit="10" points="
			270.356,-212.591 262.061,-211.681 262.979,-203.394 		"/>
		
			<path clip-path="url(#SVGID_4_)" fill="none" stroke="#101014" stroke-width="2.766" stroke-linecap="round" stroke-linejoin="round" stroke-miterlimit="10" d="
			M262.061-211.681l2.863,2.021c1.914,1.57,3.029,3.465,3.029,5.502c0,5.436-7.941,9.842-17.739,9.842
			c-9.797,0-17.738-4.408-17.738-9.842c0-3.918,4.125-7.301,10.098-8.883"/>
	</g>
	<text transform="matrix(1 0 0 1 -170.4126 -559.8335)"><tspan x="0" y="0" fill="#FFFFFF" font-family="'VarelaRound'" font-size="8.3781">T</tspan><tspan x="4.926" y="0" fill="#FFFFFF" font-family="'VarelaRound'" font-size="8.3781">OP</tspan></text>
	<text transform="matrix(1 0 0 1 -102.9688 -559.8335)"><tspan x="0" y="0" fill="#FFFFFF" font-family="'VarelaRound'" font-size="8.3781">B</tspan><tspan x="5.806" y="0" fill="#FFFFFF" font-family="'VarelaRound'" font-size="8.3781">O</tspan><tspan x="12.408" y="0" fill="#FFFFFF" font-family="'VarelaRound'" font-size="8.3781">T</tspan><tspan x="17.527" y="0" fill="#FFFFFF" font-family="'VarelaRound'" font-size="8.3781">T</tspan><tspan x="22.453" y="0" fill="#FFFFFF" font-family="'VarelaRound'" font-size="8.3781">OMS</tspan></text>
	<rect x="578.452" y="-298.363" fill="#DFEBED" width="92.164" height="36.849"/>
	<text transform="matrix(1 0 0 1 605.9478 -275.7607)"><tspan x="0" y="0" fill="#231F20" font-family="'Karla-Bold'" font-size="14.5706">S</tspan><tspan x="9.296" y="0" fill="#231F20" font-family="'Karla-Bold'" font-size="14.5706">A</tspan><tspan x="17.965" y="0" fill="#231F20" font-family="'Karla-Bold'" font-size="14.5706">VE</tspan></text>
	<text transform="matrix(1 0 0 1 605.7856 -331.292)" fill="#FFFFFF" font-family="'VarelaRound'" font-size="8.3781">SHORTS</text>
	<g>
		<defs>
			<rect id="SVGID_33_" x="-276.583" y="-914.833" width="1056" height="1056"/>
		</defs>
		<clipPath id="SVGID_5_">
			<use xlink:href="#SVGID_33_"  overflow="visible"/>
		</clipPath>
		
			<line clip-path="url(#SVGID_5_)" fill="none" stroke="#FFFFFF" stroke-width="1.676" stroke-miterlimit="10" x1="554.686" y1="-352.853" x2="691.41" y2="-352.853"/>
		<path clip-path="url(#SVGID_5_)" fill="#8BD6A2" d="M578.452-352.853c0,2.061-1.674,3.732-3.734,3.732
			c-2.062,0-3.734-1.672-3.734-3.732c0-2.062,1.672-3.734,3.734-3.734C576.778-356.587,578.452-354.915,578.452-352.853"/>
	</g>
	<text transform="matrix(1 0 0 1 601.6675 -376.6992)"><tspan x="0" y="0" fill="#FFFFFF" font-family="'VarelaRound'" font-size="8.3781">N</tspan><tspan x="6.728" y="0" fill="#FFFFFF" font-family="'VarelaRound'" font-size="8.3781">E</tspan><tspan x="12.014" y="0" fill="#FFFFFF" font-family="'VarelaRound'" font-size="8.3781">CKLINE</tspan></text>
	<g>
		<defs>
			<rect id="SVGID_35_" x="-276.583" y="-914.833" width="1056" height="1056"/>
		</defs>
		<clipPath id="SVGID_6_">
			<use xlink:href="#SVGID_35_"  overflow="visible"/>
		</clipPath>
		
			<line clip-path="url(#SVGID_6_)" fill="none" stroke="#FFFFFF" stroke-width="1.676" stroke-miterlimit="10" x1="554.686" y1="-398.26" x2="691.41" y2="-398.26"/>
		<path clip-path="url(#SVGID_6_)" fill="#8BD6A2" d="M632.002-398.26c0,2.063-1.674,3.734-3.734,3.734
			c-2.062,0-3.734-1.671-3.734-3.734c0-2.061,1.672-3.734,3.734-3.734C630.329-401.994,632.002-400.321,632.002-398.26"/>
	</g>
	<text transform="matrix(1 0 0 1 599.2593 -422.106)" fill="#FFFFFF" font-family="'VarelaRound'" font-size="8.3781">TIGHTNESS</text>
	<g>
		<defs>
			<rect id="SVGID_37_" x="-276.583" y="-914.833" width="1056" height="1056"/>
		</defs>
		<clipPath id="SVGID_7_">
			<use xlink:href="#SVGID_37_"  overflow="visible"/>
		</clipPath>
		
			<line clip-path="url(#SVGID_7_)" fill="none" stroke="#FFFFFF" stroke-width="1.676" stroke-miterlimit="10" x1="554.686" y1="-443.667" x2="691.41" y2="-443.667"/>
		<path clip-path="url(#SVGID_7_)" fill="#8BD6A2" d="M582.186-443.667c0,2.061-1.674,3.734-3.734,3.734
			c-2.062,0-3.734-1.673-3.734-3.734c0-2.063,1.672-3.734,3.734-3.734C580.512-447.4,582.186-445.729,582.186-443.667"/>
	</g>
	<text transform="matrix(1 0 0 1 601.2944 -467.5132)" fill="#FFFFFF" font-family="'VarelaRound'" font-size="8.3781">FULLNESS</text>
	<g>
		<defs>
			<rect id="SVGID_39_" x="-276.583" y="-914.833" width="1056" height="1056"/>
		</defs>
		<clipPath id="SVGID_8_">
			<use xlink:href="#SVGID_39_"  overflow="visible"/>
		</clipPath>
		
			<line clip-path="url(#SVGID_8_)" fill="none" stroke="#FFFFFF" stroke-width="1.676" stroke-miterlimit="10" x1="554.686" y1="-489.075" x2="691.41" y2="-489.075"/>
		<path clip-path="url(#SVGID_8_)" fill="#8BD6A2" d="M695.144-489.075c0,2.063-1.674,3.734-3.734,3.734
			c-2.062,0-3.734-1.671-3.734-3.734c0-2.061,1.672-3.732,3.734-3.732C693.47-492.807,695.144-491.136,695.144-489.075"/>
	</g>
	<text transform="matrix(1 0 0 1 605.7603 -512.9204)" fill="#FFFFFF" font-family="'VarelaRound'" font-size="8.3781">LENGTH</text>
	<g>
		<defs>
			<rect id="SVGID_41_" x="-276.583" y="-914.833" width="1056" height="1056"/>
		</defs>
		<clipPath id="SVGID_9_">
			<use xlink:href="#SVGID_41_"  overflow="visible"/>
		</clipPath>
		
			<line clip-path="url(#SVGID_9_)" fill="none" stroke="#FFFFFF" stroke-width="1.676" stroke-miterlimit="10" x1="554.686" y1="-534.481" x2="691.41" y2="-534.481"/>
		<path clip-path="url(#SVGID_9_)" fill="#8BD6A2" d="M670.616-534.481c0,2.063-1.674,3.734-3.734,3.734
			c-2.062,0-3.734-1.671-3.734-3.734s1.672-3.734,3.734-3.734C668.942-538.215,670.616-536.544,670.616-534.481"/>
		<circle clip-path="url(#SVGID_9_)" fill="none" stroke="#8BD6A2" stroke-miterlimit="10" cx="666.881" cy="-534.481" r="3.734"/>
		<rect x="-195.42" y="-551.471" clip-path="url(#SVGID_9_)" width="65.729" height="65.729"/>
		<polygon clip-path="url(#SVGID_9_)" fill="#FFFFFF" points="-157.942,-520.036 -167.171,-520.036 -165.742,-526.636 
			-167.171,-537.527 -162.438,-539.131 -157.942,-537.618 -159.443,-526.718 		"/>
		<polygon clip-path="url(#SVGID_9_)" fill="none" stroke="#FFFFFF" stroke-width="0.458" stroke-miterlimit="10" points="
			-157.942,-520.036 -167.171,-520.036 -165.742,-526.636 -167.171,-537.527 -162.438,-539.131 -157.942,-537.618 
			-159.443,-526.718 		"/>
		
			<polygon clip-path="url(#SVGID_9_)" fill="none" stroke="#FFFFFF" stroke-width="0.735" stroke-linecap="round" stroke-linejoin="round" stroke-miterlimit="10" points="
			-157.942,-520.036 -167.171,-520.036 -165.742,-526.636 -167.171,-537.527 -162.438,-539.131 -157.942,-537.618 
			-159.443,-526.718 		"/>
		
			<ellipse transform="matrix(1 0.006 -0.006 1 -3.2364 0.9572)" clip-path="url(#SVGID_9_)" fill="none" stroke="#FFFFFF" stroke-width="0.735" stroke-linecap="round" stroke-linejoin="round" stroke-miterlimit="10" cx="-162.444" cy="-543.31" rx="2.092" ry="3.091"/>
		
			<polygon clip-path="url(#SVGID_9_)" fill="none" stroke="#FFFFFF" stroke-width="0.735" stroke-linecap="round" stroke-linejoin="round" stroke-miterlimit="10" points="
			-161.314,-520.036 -157.942,-520.036 -157.942,-490.811 -160.307,-490.811 -160.307,-506.417 		"/>
		
			<rect x="-156.804" y="-537.761" transform="matrix(-0.9947 0.1027 -0.1027 -0.9947 -365.2347 -1034.5387)" clip-path="url(#SVGID_9_)" fill="none" stroke="#FFFFFF" stroke-width="0.735" stroke-linecap="round" stroke-linejoin="round" stroke-miterlimit="10" width="1.636" height="22.179"/>
		
			<polygon clip-path="url(#SVGID_9_)" fill="none" stroke="#FFFFFF" stroke-width="0.735" stroke-linecap="round" stroke-linejoin="round" stroke-miterlimit="10" points="
			-163.799,-520.036 -167.17,-520.036 -167.17,-490.811 -164.805,-490.811 -164.805,-506.417 		"/>
		
			<rect x="-169.943" y="-537.671" transform="matrix(0.9947 0.1027 -0.1027 0.9947 -54.9717 14.5843)" clip-path="url(#SVGID_9_)" fill="none" stroke="#FFFFFF" stroke-width="0.735" stroke-linecap="round" stroke-linejoin="round" stroke-miterlimit="10" width="1.636" height="22.179"/>
		<path clip-path="url(#SVGID_9_)" fill="#FFFFFF" d="M-131.691-467.522h-61.73v-16.504h61.73V-467.522z M-129.691-486.026h-65.73
			v20.504h65.73V-486.026z"/>
		<rect x="-114.478" y="-551.47" clip-path="url(#SVGID_9_)" fill="#FFFFFF" width="65.73" height="65.73"/>
		<polygon clip-path="url(#SVGID_9_)" points="-77.111,-520.034 -86.34,-520.034 -84.911,-526.634 -86.34,-537.528 
			-81.608,-539.132 -77.111,-537.616 -78.612,-526.716 		"/>
		<polygon clip-path="url(#SVGID_9_)" fill="none" stroke="#000000" stroke-width="0.458" stroke-miterlimit="10" points="
			-77.111,-520.034 -86.34,-520.034 -84.911,-526.634 -86.34,-537.528 -81.608,-539.132 -77.111,-537.616 -78.612,-526.716 		"/>
		
			<polygon clip-path="url(#SVGID_9_)" fill="none" stroke="#000000" stroke-width="0.735" stroke-linecap="round" stroke-linejoin="round" stroke-miterlimit="10" points="
			-77.111,-520.034 -86.34,-520.034 -84.911,-526.634 -86.34,-537.528 -81.608,-539.132 -77.111,-537.616 -78.612,-526.716 		"/>
		
			<ellipse transform="matrix(1 0.006 -0.006 1 -3.2342 0.476)" clip-path="url(#SVGID_9_)" fill="none" stroke="#000000" stroke-width="0.735" stroke-linecap="round" stroke-linejoin="round" stroke-miterlimit="10" cx="-81.614" cy="-543.308" rx="2.093" ry="3.091"/>
		
			<polygon clip-path="url(#SVGID_9_)" fill="none" stroke="#000000" stroke-width="0.735" stroke-linecap="round" stroke-linejoin="round" stroke-miterlimit="10" points="
			-80.484,-520.034 -77.111,-520.034 -77.111,-490.809 -79.476,-490.809 -79.476,-506.415 		"/>
		
			<rect x="-75.974" y="-537.759" transform="matrix(-0.9947 0.1027 -0.1027 -0.9947 -204.0007 -1042.8357)" clip-path="url(#SVGID_9_)" fill="none" stroke="#000000" stroke-width="0.735" stroke-linecap="round" stroke-linejoin="round" stroke-miterlimit="10" width="1.636" height="22.179"/>
		
			<polygon clip-path="url(#SVGID_9_)" fill="none" stroke="#000000" stroke-width="0.735" stroke-linecap="round" stroke-linejoin="round" stroke-miterlimit="10" points="
			-82.968,-520.034 -86.338,-520.034 -86.338,-490.809 -83.975,-490.809 -83.975,-506.415 		"/>
		
			<rect x="-89.112" y="-537.671" transform="matrix(0.9947 0.1026 -0.1026 0.9947 -54.5116 6.2812)" clip-path="url(#SVGID_9_)" fill="none" stroke="#000000" stroke-width="0.735" stroke-linecap="round" stroke-linejoin="round" stroke-miterlimit="10" width="1.637" height="22.181"/>
		<path clip-path="url(#SVGID_9_)" fill="#FFFFFF" d="M-50.748-467.522h-61.73v-16.504h61.73V-467.522z M-48.748-486.026h-65.73
			v20.504h65.73V-486.026z"/>
		
			<line clip-path="url(#SVGID_9_)" fill="none" stroke="#000000" stroke-width="2.304" stroke-miterlimit="10" x1="-85.177" y1="-479.338" x2="-78.047" y2="-472.209"/>
	</g>
	<text transform="matrix(1 0 0 1 -173.8765 -443.3101)" fill="#FFFFFF" font-family="'VarelaRound'" font-size="8.3781">SKIRT</text>
	<text transform="matrix(1 0 0 1 -97.502 -443.3101)"><tspan x="0" y="0" fill="#FFFFFF" font-family="'VarelaRound'" font-size="8.3781">J</tspan><tspan x="3.904" y="0" fill="#FFFFFF" font-family="'VarelaRound'" font-size="8.3781">A</tspan><tspan x="9.635" y="0" fill="#FFFFFF" font-family="'VarelaRound'" font-size="8.3781">CKET</tspan></text>
	<g>
		<defs>
			<rect id="SVGID_43_" x="-276.583" y="-914.833" width="1056" height="1056"/>
		</defs>
		<clipPath id="SVGID_10_">
			<use xlink:href="#SVGID_43_"  overflow="visible"/>
		</clipPath>
		<rect x="-195.42" y="-434.948" clip-path="url(#SVGID_10_)" fill="#FFFFFF" width="65.729" height="65.729"/>
		<polygon clip-path="url(#SVGID_10_)" points="-157.942,-403.514 -167.171,-403.514 -165.742,-410.112 -167.171,-421.004 
			-162.438,-422.61 -157.942,-421.096 -159.443,-410.194 		"/>
		<polygon clip-path="url(#SVGID_10_)" fill="none" stroke="#000000" stroke-width="0.458" stroke-miterlimit="10" points="
			-157.942,-403.514 -167.171,-403.514 -165.742,-410.112 -167.171,-421.004 -162.438,-422.61 -157.942,-421.096 -159.443,-410.194 
					"/>
		
			<polygon clip-path="url(#SVGID_10_)" fill="none" stroke="#000000" stroke-width="0.735" stroke-linecap="round" stroke-linejoin="round" stroke-miterlimit="10" points="
			-157.942,-403.514 -167.171,-403.514 -165.742,-410.112 -167.171,-421.004 -162.438,-422.61 -157.942,-421.096 -159.443,-410.194 
					"/>
		
			<ellipse transform="matrix(1 0.006 -0.006 1 -2.5429 0.9592)" clip-path="url(#SVGID_10_)" fill="none" stroke="#000000" stroke-width="0.735" stroke-linecap="round" stroke-linejoin="round" stroke-miterlimit="10" cx="-162.444" cy="-426.786" rx="2.092" ry="3.091"/>
		
			<polygon clip-path="url(#SVGID_10_)" fill="none" stroke="#000000" stroke-width="0.735" stroke-linecap="round" stroke-linejoin="round" stroke-miterlimit="10" points="
			-161.314,-403.514 -157.942,-403.514 -157.942,-374.288 -160.307,-374.288 -160.307,-389.893 		"/>
		
			<rect x="-156.804" y="-421.238" transform="matrix(-0.9948 0.1015 -0.1015 -0.9948 -352.8025 -802.3439)" clip-path="url(#SVGID_10_)" fill="none" stroke="#000000" stroke-width="0.735" stroke-linecap="round" stroke-linejoin="round" stroke-miterlimit="10" width="1.635" height="22.179"/>
		
			<polygon clip-path="url(#SVGID_10_)" fill="none" stroke="#000000" stroke-width="0.735" stroke-linecap="round" stroke-linejoin="round" stroke-miterlimit="10" points="
			-163.799,-403.514 -167.17,-403.514 -167.17,-374.288 -164.805,-374.288 -164.805,-389.893 		"/>
		
			<rect x="-169.943" y="-421.148" transform="matrix(0.9946 0.1039 -0.1039 0.9946 -43.5104 15.3499)" clip-path="url(#SVGID_10_)" fill="none" stroke="#000000" stroke-width="0.735" stroke-linecap="round" stroke-linejoin="round" stroke-miterlimit="10" width="1.636" height="22.181"/>
		<path clip-path="url(#SVGID_10_)" fill="#FFFFFF" d="M-131.691-351.001h-61.73v-16.504h61.73V-351.001z M-129.691-369.505h-65.73
			v20.504h65.73V-369.505z"/>
		<rect x="-114.478" y="-434.947" clip-path="url(#SVGID_10_)" fill="#FFFFFF" width="65.73" height="65.728"/>
		<polygon clip-path="url(#SVGID_10_)" points="-77.111,-403.512 -86.34,-403.512 -84.911,-410.11 -86.34,-421.004 
			-81.608,-422.608 -77.111,-421.092 -78.612,-410.194 		"/>
		<polygon clip-path="url(#SVGID_10_)" fill="none" stroke="#000000" stroke-width="0.458" stroke-miterlimit="10" points="
			-77.111,-403.512 -86.34,-403.512 -84.911,-410.11 -86.34,-421.004 -81.608,-422.608 -77.111,-421.092 -78.612,-410.194 		"/>
		
			<polygon clip-path="url(#SVGID_10_)" fill="none" stroke="#000000" stroke-width="0.735" stroke-linecap="round" stroke-linejoin="round" stroke-miterlimit="10" points="
			-77.111,-403.512 -86.34,-403.512 -84.911,-410.11 -86.34,-421.004 -81.608,-422.608 -77.111,-421.092 -78.612,-410.194 		"/>
		
			<ellipse transform="matrix(1 0.006 -0.006 1 -2.5409 0.4781)" clip-path="url(#SVGID_10_)" fill="none" stroke="#000000" stroke-width="0.735" stroke-linecap="round" stroke-linejoin="round" stroke-miterlimit="10" cx="-81.614" cy="-426.786" rx="2.093" ry="3.093"/>
		
			<polygon clip-path="url(#SVGID_10_)" fill="none" stroke="#000000" stroke-width="0.735" stroke-linecap="round" stroke-linejoin="round" stroke-miterlimit="10" points="
			-80.484,-403.512 -77.111,-403.512 -77.111,-374.286 -79.476,-374.286 -79.476,-389.891 		"/>
		
			<rect x="-75.974" y="-421.236" transform="matrix(-0.9946 0.1039 -0.1039 -0.9946 -192.5095 -810.2657)" clip-path="url(#SVGID_10_)" fill="none" stroke="#000000" stroke-width="0.735" stroke-linecap="round" stroke-linejoin="round" stroke-miterlimit="10" width="1.636" height="22.181"/>
		
			<polygon clip-path="url(#SVGID_10_)" fill="none" stroke="#000000" stroke-width="0.735" stroke-linecap="round" stroke-linejoin="round" stroke-miterlimit="10" points="
			-82.968,-403.512 -86.338,-403.512 -86.338,-374.286 -83.975,-374.286 -83.975,-389.891 		"/>
		
			<rect x="-89.112" y="-421.147" transform="matrix(0.9947 0.1026 -0.1026 0.9947 -42.5522 6.8966)" clip-path="url(#SVGID_10_)" fill="none" stroke="#000000" stroke-width="0.735" stroke-linecap="round" stroke-linejoin="round" stroke-miterlimit="10" width="1.637" height="22.181"/>
		<path clip-path="url(#SVGID_10_)" fill="#FFFFFF" d="M-50.748-350.999h-61.73v-16.504h61.73V-350.999z M-48.748-369.503h-65.73
			v20.504h65.73V-369.503z"/>
	</g>
	<text transform="matrix(1 0 0 1 -175.7114 -326.7881)" fill="#FFFFFF" font-family="'VarelaRound'" font-size="8.3781">DRESS</text>
	<text transform="matrix(1 0 0 1 -102.9644 -326.7881)"><tspan x="0" y="0" fill="#FFFFFF" font-family="'VarelaRound'" font-size="8.3781">B</tspan><tspan x="5.806" y="0" fill="#FFFFFF" font-family="'VarelaRound'" font-size="8.3781">O</tspan><tspan x="12.408" y="0" fill="#FFFFFF" font-family="'VarelaRound'" font-size="8.3781">T</tspan><tspan x="17.527" y="0" fill="#FFFFFF" font-family="'VarelaRound'" font-size="8.3781">T</tspan><tspan x="22.445" y="0" fill="#FFFFFF" font-family="'VarelaRound'" font-size="8.3781">OMS</tspan></text>
	<g>
		<defs>
			<rect id="SVGID_45_" x="-276.583" y="-914.833" width="1056" height="1056"/>
		</defs>
		<clipPath id="SVGID_11_">
			<use xlink:href="#SVGID_45_"  overflow="visible"/>
		</clipPath>
		<rect x="-195.42" y="-318.425" clip-path="url(#SVGID_11_)" fill="#FFFFFF" width="65.729" height="65.729"/>
		<polygon clip-path="url(#SVGID_11_)" points="-157.942,-286.991 -167.171,-286.991 -165.742,-293.589 -167.171,-304.483 
			-162.438,-306.087 -157.942,-304.573 -159.443,-293.673 		"/>
		<polygon clip-path="url(#SVGID_11_)" fill="none" stroke="#000000" stroke-width="0.458" stroke-miterlimit="10" points="
			-157.942,-286.991 -167.171,-286.991 -165.742,-293.589 -167.171,-304.483 -162.438,-306.087 -157.942,-304.573 
			-159.443,-293.673 		"/>
		
			<polygon clip-path="url(#SVGID_11_)" fill="none" stroke="#000000" stroke-width="0.735" stroke-linecap="round" stroke-linejoin="round" stroke-miterlimit="10" points="
			-157.942,-286.991 -167.171,-286.991 -165.742,-293.589 -167.171,-304.483 -162.438,-306.087 -157.942,-304.573 
			-159.443,-293.673 		"/>
		
			<ellipse transform="matrix(1 0.0056 -0.0056 1 -1.7405 0.9051)" clip-path="url(#SVGID_11_)" fill="none" stroke="#000000" stroke-width="0.735" stroke-linecap="round" stroke-linejoin="round" stroke-miterlimit="10" cx="-162.444" cy="-310.265" rx="2.092" ry="3.092"/>
		
			<polygon clip-path="url(#SVGID_11_)" fill="none" stroke="#000000" stroke-width="0.735" stroke-linecap="round" stroke-linejoin="round" stroke-miterlimit="10" points="
			-161.314,-286.991 -157.942,-286.991 -157.942,-257.765 -160.307,-257.765 -160.307,-273.37 		"/>
		
			<rect x="-156.804" y="-304.716" transform="matrix(-0.9947 0.1027 -0.1027 -0.9947 -341.3019 -569.6794)" clip-path="url(#SVGID_11_)" fill="none" stroke="#000000" stroke-width="0.735" stroke-linecap="round" stroke-linejoin="round" stroke-miterlimit="10" width="1.636" height="22.181"/>
		
			<polygon clip-path="url(#SVGID_11_)" fill="none" stroke="#000000" stroke-width="0.735" stroke-linecap="round" stroke-linejoin="round" stroke-miterlimit="10" points="
			-163.799,-286.991 -167.17,-286.991 -167.17,-257.765 -164.805,-257.765 -164.805,-273.37 		"/>
		
			<rect x="-169.943" y="-304.626" transform="matrix(0.9947 0.1027 -0.1027 0.9947 -31.039 15.8164)" clip-path="url(#SVGID_11_)" fill="none" stroke="#000000" stroke-width="0.735" stroke-linecap="round" stroke-linejoin="round" stroke-miterlimit="10" width="1.636" height="22.18"/>
		<path clip-path="url(#SVGID_11_)" fill="#FFFFFF" d="M-131.691-234.478h-61.73v-16.505h61.73V-234.478z M-129.691-252.981h-65.73
			v20.505h65.73V-252.981z"/>
		<rect x="-114.478" y="-318.424" clip-path="url(#SVGID_11_)" fill="#FFFFFF" width="65.73" height="65.729"/>
		<polygon clip-path="url(#SVGID_11_)" points="-77.111,-286.989 -86.34,-286.989 -84.911,-293.587 -86.34,-304.481 
			-81.608,-306.085 -77.111,-304.569 -78.612,-293.671 		"/>
		<polygon clip-path="url(#SVGID_11_)" fill="none" stroke="#000000" stroke-width="0.458" stroke-miterlimit="10" points="
			-77.111,-286.989 -86.34,-286.989 -84.911,-293.587 -86.34,-304.481 -81.608,-306.085 -77.111,-304.569 -78.612,-293.671 		"/>
		
			<polygon clip-path="url(#SVGID_11_)" fill="none" stroke="#000000" stroke-width="0.735" stroke-linecap="round" stroke-linejoin="round" stroke-miterlimit="10" points="
			-77.111,-286.989 -86.34,-286.989 -84.911,-293.587 -86.34,-304.481 -81.608,-306.085 -77.111,-304.569 -78.612,-293.671 		"/>
		
			<ellipse transform="matrix(1 0.0061 -0.0061 1 -1.8838 0.4894)" clip-path="url(#SVGID_11_)" fill="none" stroke="#000000" stroke-width="0.735" stroke-linecap="round" stroke-linejoin="round" stroke-miterlimit="10" cx="-81.614" cy="-310.264" rx="2.093" ry="3.093"/>
		
			<polygon clip-path="url(#SVGID_11_)" fill="none" stroke="#000000" stroke-width="0.735" stroke-linecap="round" stroke-linejoin="round" stroke-miterlimit="10" points="
			-80.484,-286.989 -77.111,-286.989 -77.111,-257.762 -79.476,-257.762 -79.476,-273.368 		"/>
		
			<rect x="-75.974" y="-304.713" transform="matrix(-0.9946 0.1039 -0.1039 -0.9946 -180.4055 -577.8507)" clip-path="url(#SVGID_11_)" fill="none" stroke="#000000" stroke-width="0.735" stroke-linecap="round" stroke-linejoin="round" stroke-miterlimit="10" width="1.636" height="22.18"/>
		
			<polygon clip-path="url(#SVGID_11_)" fill="none" stroke="#000000" stroke-width="0.735" stroke-linecap="round" stroke-linejoin="round" stroke-miterlimit="10" points="
			-82.968,-286.989 -86.338,-286.989 -86.338,-257.762 -83.975,-257.762 -83.975,-273.368 		"/>
		
			<rect x="-89.112" y="-304.624" transform="matrix(0.9947 0.1026 -0.1026 0.9947 -30.5929 7.5119)" clip-path="url(#SVGID_11_)" fill="none" stroke="#000000" stroke-width="0.735" stroke-linecap="round" stroke-linejoin="round" stroke-miterlimit="10" width="1.637" height="22.181"/>
		<path clip-path="url(#SVGID_11_)" fill="#FFFFFF" d="M-50.748-234.478h-61.73v-16.503h61.73V-234.478z M-48.748-252.979h-65.73
			v20.503h65.73V-252.979z"/>
		<polyline clip-path="url(#SVGID_11_)" fill="none" stroke="#101014" stroke-width="2.304" stroke-miterlimit="10" points="
			-169.004,-476.456 -165.553,-473.004 -159.105,-479.454 		"/>
		
			<line clip-path="url(#SVGID_11_)" fill="none" stroke="#101014" stroke-width="2.304" stroke-miterlimit="10" x1="-85.291" y1="-472.323" x2="-78.162" y2="-479.452"/>
		
			<line clip-path="url(#SVGID_11_)" fill="none" stroke="#101014" stroke-width="2.304" stroke-miterlimit="10" x1="-85.177" y1="-362.815" x2="-78.047" y2="-355.687"/>
		
			<line clip-path="url(#SVGID_11_)" fill="none" stroke="#101014" stroke-width="2.304" stroke-miterlimit="10" x1="-85.291" y1="-355.8" x2="-78.162" y2="-362.929"/>
		
			<line clip-path="url(#SVGID_11_)" fill="none" stroke="#101014" stroke-width="2.304" stroke-miterlimit="10" x1="-166.066" y1="-362.815" x2="-158.936" y2="-355.687"/>
		
			<line clip-path="url(#SVGID_11_)" fill="none" stroke="#101014" stroke-width="2.304" stroke-miterlimit="10" x1="-166.179" y1="-355.8" x2="-159.05" y2="-362.929"/>
		<polyline clip-path="url(#SVGID_11_)" fill="none" stroke="#101014" stroke-width="2.304" stroke-miterlimit="10" points="
			-169.004,-243.411 -165.553,-239.96 -159.105,-246.407 		"/>
		
			<line clip-path="url(#SVGID_11_)" fill="none" stroke="#101014" stroke-width="2.304" stroke-miterlimit="10" x1="-85.177" y1="-246.294" x2="-78.047" y2="-239.163"/>
		
			<line clip-path="url(#SVGID_11_)" fill="none" stroke="#101014" stroke-width="2.304" stroke-miterlimit="10" x1="-85.291" y1="-239.278" x2="-78.162" y2="-246.407"/>
		
			<circle clip-path="url(#SVGID_11_)" fill="none" stroke="#101014" stroke-width="1.44" stroke-linecap="round" stroke-linejoin="round" stroke-miterlimit="10" cx="365.053" cy="-115.356" r="13.2"/>
		
			<line clip-path="url(#SVGID_11_)" fill="none" stroke="#101014" stroke-width="1.44" stroke-linecap="round" stroke-linejoin="round" stroke-miterlimit="10" x1="356.67" y1="-115.356" x2="373.438" y2="-115.356"/>
		
			<polyline clip-path="url(#SVGID_11_)" fill="none" stroke="#101014" stroke-width="1.44" stroke-linecap="round" stroke-linejoin="round" stroke-miterlimit="10" points="
			369.046,-110.974 373.438,-115.364 369.046,-119.744 		"/>
		
			<circle clip-path="url(#SVGID_11_)" fill="none" stroke="#101014" stroke-width="1.44" stroke-linecap="round" stroke-linejoin="round" stroke-miterlimit="10" cx="138.145" cy="-115.354" r="13.2"/>
		
			<line clip-path="url(#SVGID_11_)" fill="none" stroke="#101014" stroke-width="1.44" stroke-linecap="round" stroke-linejoin="round" stroke-miterlimit="10" x1="146.529" y1="-115.354" x2="129.761" y2="-115.354"/>
		
			<polyline clip-path="url(#SVGID_11_)" fill="none" stroke="#101014" stroke-width="1.44" stroke-linecap="round" stroke-linejoin="round" stroke-miterlimit="10" points="
			134.152,-119.737 129.761,-115.347 134.152,-110.964 		"/>
		<path clip-path="url(#SVGID_11_)" fill="#FFFFFF" d="M711.774-657.233c6.135,16.57-2.324,34.975-18.895,41.111
			c-16.568,6.135-34.975-2.326-41.107-18.894c-6.135-16.569,2.323-34.975,18.892-41.11
			C687.233-682.26,705.639-673.803,711.774-657.233"/>
		<path clip-path="url(#SVGID_11_)" fill="#CFCFC7" d="M679.034-649.528c0,0.529-0.423,0.953-0.953,0.953
			c-0.593,0-0.975-0.381-0.975-0.953v-0.637c0-1.396-0.084-4.279-3.283-4.279h-4.388v4.916c0,0.529-0.445,0.953-0.975,0.953
			s-0.953-0.424-0.953-0.953v-12.969c0-0.529,0.424-0.974,0.953-0.974h4.938c4.025,0,5.763,1.863,5.763,4.301
			c0,1.632-0.911,3.201-2.775,3.836c2.353,0.613,2.647,3.644,2.647,4.83V-649.528z M677.233-659.022
			c0-1.568-0.931-2.629-4.067-2.629h-3.73v5.385h3.836C675.644-656.266,677.233-657.219,677.233-659.022"/>
		<path clip-path="url(#SVGID_11_)" fill="#CFCFC7" d="M678.865-632.698c0,2.396-2.142,4.133-5.426,4.133
			c-2.118,0-3.815-0.488-5.043-1.016c-0.317-0.127-0.595-0.488-0.595-0.869c0-0.467,0.34-0.891,0.869-0.891
			c0.129,0,0.256,0.022,0.403,0.084c0.953,0.426,2.353,0.87,4.173,0.87c2.099,0,3.71-0.592,3.71-2.436
			c0-3.139-9.006-1.4-9.006-6.613c0-2.354,1.907-4.342,5.488-4.342c1.651,0,3.072,0.273,4.216,0.699
			c0.297,0.104,0.594,0.338,0.594,0.846c0,0.424-0.318,0.89-0.848,0.89c-0.105,0-0.232-0.043-0.338-0.084
			c-0.976-0.339-2.12-0.574-3.412-0.574c-2.141,0-3.771,0.828-3.771,2.418C669.88-635.917,678.865-638.292,678.865-632.698"/>
		<path clip-path="url(#SVGID_11_)" fill="#CFCFC7" d="M698.717-656.077c-0.085,4.43-2.924,7.609-7.438,7.609
			c-4.536,0-7.353-3.179-7.439-7.609c0.087-4.428,2.903-7.607,7.439-7.607C695.793-663.684,698.632-660.505,698.717-656.077
			 M696.788-656.077c0-3.264-2.011-5.807-5.508-5.807c-3.519,0-5.512,2.543-5.512,5.807s1.993,5.807,5.512,5.807
			C694.777-650.27,696.788-652.812,696.788-656.077"/>
		<path clip-path="url(#SVGID_11_)" fill="#CFCFC7" d="M696.461-629.667c0,0.51-0.403,0.891-0.911,0.891h-8.498
			c-0.53,0-0.955-0.424-0.955-0.953v-12.864c0-0.531,0.425-0.974,0.955-0.974h8.498c0.508,0,0.911,0.402,0.911,0.91
			c0,0.508-0.403,0.89-0.911,0.89h-7.524v4.682h6.762c0.508,0,0.911,0.404,0.911,0.912c0,0.508-0.403,0.891-0.911,0.891h-6.762
			v4.705h7.524C696.058-630.577,696.461-630.176,696.461-629.667"/>
		
			<line clip-path="url(#SVGID_11_)" fill="none" stroke="#101014" stroke-width="0.5" stroke-miterlimit="10" x1="161.417" y1="-651.583" x2="341.417" y2="-651.583"/>
	</g>
	<text transform="matrix(1 0 0 1 138.6162 -663.7979)"><tspan x="0" y="0" fill="#101014" font-family="'Garamond'" font-size="14.1985" letter-spacing="3">G</tspan><tspan x="14" y="0" fill="#101014" font-family="'Garamond'" font-size="14.1985" letter-spacing="2">OO</tspan><tspan x="41.836" y="0" fill="#101014" font-family="'Garamond'" font-size="14.1985" letter-spacing="2">G</tspan><tspan x="55.381" y="0" fill="#101014" font-family="'Garamond'" font-size="14.1985" letter-spacing="3">L</tspan><tspan x="66.666" y="0" fill="#101014" font-family="'Garamond'" font-size="14.1985" letter-spacing="2">E </tspan><tspan x="85.184" y="0" fill="#101014" font-family="'Garamond'" font-size="14.1985" letter-spacing="2">+ </tspan><tspan x="103.876" y="0" fill="#101014" font-family="'Garamond'" font-size="14.1985" letter-spacing="1">F</tspan><tspan x="113.808" y="0" fill="#101014" font-family="'Garamond'" font-size="14.1985" letter-spacing="3">A</tspan><tspan x="126.562" y="0" fill="#101014" font-family="'Garamond'" font-size="14.1985" letter-spacing="2">S</tspan><tspan x="136.003" y="0" fill="#101014" font-family="'Garamond'" font-size="14.1985" letter-spacing="3">H</tspan><tspan x="149.951" y="0" fill="#101014" font-family="'Garamond'" font-size="14.1985" letter-spacing="2">I</tspan><tspan x="157.461" y="0" fill="#101014" font-family="'Garamond'" font-size="14.1985" letter-spacing="2">O</tspan><tspan x="171.138" y="0" fill="#101014" font-family="'Garamond'" font-size="14.1985" letter-spacing="2">N</tspan><tspan x="184.924" y="0" fill="#101014" font-family="'Garamond'" font-size="14.1985" letter-spacing="2"> </tspan><tspan x="191.3" y="0" fill="#101014" font-family="'Garamond'" font-size="14.1985" letter-spacing="3">2</tspan><tspan x="201.037" y="0" fill="#101014" font-family="'Garamond'" font-size="14.1985" letter-spacing="2">0</tspan><tspan x="210.276" y="0" fill="#101014" font-family="'Garamond'" font-size="14.1985" letter-spacing="1">1</tspan><tspan x="218.834" y="0" fill="#101014" font-family="'Garamond'" font-size="14.1985">4</tspan></text>
	<text transform="matrix(1 0 0 1 171.687 -628.6802)"><tspan x="0" y="0" fill="#101014" font-family="'Karla-Regular'" font-size="14" letter-spacing="2">COLL</tspan><tspan x="41.93" y="0" fill="#101014" font-family="'Karla-Regular'" font-size="14" letter-spacing="2">E</tspan><tspan x="52.583" y="0" fill="#101014" font-family="'Karla-Regular'" font-size="14" letter-spacing="2">CT</tspan><tspan x="73.779" y="0" fill="#101014" font-family="'Karla-Regular'" font-size="14" letter-spacing="2">ION</tspan><tspan x="104.691" y="0" fill="#101014" font-family="'Karla-Regular'" font-size="14" letter-spacing="2"> </tspan><tspan x="110.823" y="0" fill="#101014" font-family="'Karla-Regular'" font-size="14" letter-spacing="2">NA</tspan><tspan x="134.035" y="0" fill="#101014" font-family="'Karla-Regular'" font-size="14" letter-spacing="2">M</tspan><tspan x="148.707" y="0" fill="#101014" font-family="'Karla-Regular'" font-size="14">E</tspan></text>
	<text transform="matrix(1 0 0 1 205.749 -101.6357)"><tspan x="0" y="0" fill="#101014" font-family="'Karla-Regular'" font-size="14" letter-spacing="2">G</tspan><tspan x="11.774" y="0" fill="#101014" font-family="'Karla-Regular'" font-size="14" letter-spacing="2">A</tspan><tspan x="22.428" y="0" fill="#101014" font-family="'Karla-Regular'" font-size="14" letter-spacing="2">R</tspan><tspan x="33.417" y="0" fill="#101014" font-family="'Karla-Regular'" font-size="14" letter-spacing="2">M</tspan><tspan x="47.753" y="0" fill="#101014" font-family="'Karla-Regular'" font-size="14" letter-spacing="2">E</tspan><tspan x="57.931" y="0" fill="#101014" font-family="'Karla-Regular'" font-size="14" letter-spacing="2">NT</tspan><tspan x="80.023" y="0" fill="#101014" font-family="'Karla-Regular'" font-size="14">S</tspan></text>
	<g>
		<defs>
			<rect id="SVGID_47_" x="-276.583" y="-914.833" width="1056" height="1056"/>
		</defs>
		<clipPath id="SVGID_12_">
			<use xlink:href="#SVGID_47_"  overflow="visible"/>
		</clipPath>
		
			<circle clip-path="url(#SVGID_12_)" fill="none" stroke="#101014" stroke-width="1.44" stroke-linecap="round" stroke-linejoin="round" stroke-miterlimit="10" cx="211.461" cy="-129.146" r="3.354"/>
		
			<circle clip-path="url(#SVGID_12_)" fill="none" stroke="#101014" stroke-width="1.44" stroke-linecap="round" stroke-linejoin="round" stroke-miterlimit="10" cx="227.444" cy="-129.146" r="3.354"/>
		<path clip-path="url(#SVGID_12_)" fill="#F61816" d="M243.424-125.792c-1.852,0-3.352-1.502-3.352-3.354s1.5-3.354,3.352-3.354
			c1.854,0,3.354,1.502,3.354,3.354S245.278-125.792,243.424-125.792"/>
		<circle clip-path="url(#SVGID_12_)" fill="none" stroke="#F61816" stroke-miterlimit="10" cx="243.424" cy="-129.146" r="3.354"/>
		
			<circle clip-path="url(#SVGID_12_)" fill="none" stroke="#101014" stroke-width="1.44" stroke-linecap="round" stroke-linejoin="round" stroke-miterlimit="10" cx="259.407" cy="-129.146" r="3.354"/>
		
			<circle clip-path="url(#SVGID_12_)" fill="none" stroke="#101014" stroke-width="1.44" stroke-linecap="round" stroke-linejoin="round" stroke-miterlimit="10" cx="275.387" cy="-129.146" r="3.354"/>
		
			<circle clip-path="url(#SVGID_12_)" fill="none" stroke="#101014" stroke-width="1.44" stroke-linecap="round" stroke-linejoin="round" stroke-miterlimit="10" cx="291.37" cy="-129.146" r="3.354"/>
	</g>
	<text transform="matrix(1 0 0 1 -233.5718 -87.3994)"><tspan x="0" y="0" fill="#404D4F" font-family="'Karla-Bold'" font-size="10">Google | Privacy &amp; </tspan><tspan x="89.679" y="0" fill="#404D4F" font-family="'Karla-Bold'" font-size="10">T</tspan><tspan x="94.168" y="0" fill="#404D4F" font-family="'Karla-Bold'" font-size="10">erms</tspan></text>
	<text transform="matrix(1 0 0 1 -115.1816 -87.3994)" fill="#404D4F" font-family="'Karla-Bold'" font-size="10"> | Logout</text>
	<g>
		<defs>
			<rect id="SVGID_49_" x="-276.583" y="-914.833" width="1056" height="1056"/>
		</defs>
		<clipPath id="SVGID_13_">
			<use xlink:href="#SVGID_49_"  overflow="visible"/>
		</clipPath>
		
			<line clip-path="url(#SVGID_13_)" fill="none" stroke="#101014" stroke-width="1.44" stroke-linecap="round" stroke-linejoin="round" stroke-miterlimit="10" x1="251.417" y1="-643.779" x2="251.417" y2="-760.833"/>
	</g>
	<text transform="matrix(1 0 0 1 205.7144 -807.5835)"><tspan x="0" y="0" fill="#101014" font-family="'VarelaRound'" font-size="10.9061">DISPL</tspan><tspan x="31.583" y="0" fill="#101014" font-family="'VarelaRound'" font-size="10.9061">A</tspan><tspan x="38.498" y="0" fill="#101014" font-family="'VarelaRound'" font-size="10.9061">Y</tspan><tspan x="45.445" y="0" fill="#101014" font-family="'VarelaRound'" font-size="10.9061">S USERS</tspan></text>
	<text transform="matrix(1 0 0 1 205.1255 -794.4961)" fill="#101014" font-family="'VarelaRound'" font-size="10.9061">INPUTTED NAME</text>
	<g display="none">
		<defs>
			<rect id="SVGID_51_" x="-3533.624" y="-914.833" width="8645.261" height="2170.439"/>
		</defs>
		<clipPath id="SVGID_14_" display="inline">
			<use xlink:href="#SVGID_51_"  overflow="visible"/>
		</clipPath>
		<path display="inline" clip-path="url(#SVGID_14_)" fill-rule="evenodd" clip-rule="evenodd" fill="#FF0000" d="M679.408,141.167
			h57.009v-1056h-57.009V141.167z M596.425,141.167h56.979v-1056h-56.979V141.167z M513.415,141.167h57.008v-1056h-57.008V141.167z
			 M430.43,141.167h56.981v-1056H430.43V141.167z M347.42,141.167h57.009v-1056H347.42V141.167z M264.41,141.167h57.008v-1056
			H264.41V141.167z M181.426,141.167h56.98v-1056h-56.98V141.167z M98.416,141.167h57.008v-1056H98.416V141.167z M15.404,141.167
			h57.008v-1056H15.404V141.167z M-67.578,141.167h56.98v-1056h-56.98V141.167z M-150.589,141.167h57.008v-1056h-57.008V141.167z
			 M-233.571,141.167h56.979v-1056h-56.979V141.167z"/>
	</g>
	<polygon points="-208.45,182.451 -217.678,182.451 -216.25,175.852 -217.678,164.957 -212.947,163.354 -208.45,164.869 
		-209.951,175.77 	"/>
	<polygon fill="none" stroke="#000000" stroke-width="0.458" stroke-miterlimit="10" points="-208.45,182.451 -217.678,182.451 
		-216.25,175.852 -217.678,164.957 -212.947,163.354 -208.45,164.869 -209.951,175.77 	"/>
	
		<polygon fill="none" stroke="#000000" stroke-width="0.735" stroke-linecap="round" stroke-linejoin="round" stroke-miterlimit="10" points="
		-208.45,182.451 -217.678,182.451 -216.25,175.852 -217.678,164.957 -212.947,163.354 -208.45,164.869 -209.951,175.77 	"/>
	
		<ellipse transform="matrix(1 0.0058 -0.0058 1 0.9251 1.2451)" fill="none" stroke="#000000" stroke-width="0.735" stroke-linecap="round" stroke-linejoin="round" stroke-miterlimit="10" cx="-212.952" cy="159.177" rx="2.092" ry="3.09"/>
	
		<polygon fill="none" stroke="#000000" stroke-width="0.735" stroke-linecap="round" stroke-linejoin="round" stroke-miterlimit="10" points="
		-211.823,182.451 -208.45,182.451 -208.45,211.677 -210.815,211.677 -210.815,196.07 	"/>
	
		<rect x="-207.312" y="164.726" transform="matrix(-0.9947 0.1027 -0.1027 -0.9947 -393.842 371.9083)" fill="none" stroke="#000000" stroke-width="0.735" stroke-linecap="round" stroke-linejoin="round" stroke-miterlimit="10" width="1.636" height="22.179"/>
	
		<polygon fill="none" stroke="#000000" stroke-width="0.735" stroke-linecap="round" stroke-linejoin="round" stroke-miterlimit="10" points="
		-214.307,182.451 -217.677,182.451 -217.677,211.677 -215.314,211.677 -215.314,196.07 	"/>
	
		<rect x="-220.451" y="164.814" transform="matrix(0.9947 0.1026 -0.1026 0.9947 16.894 23.4708)" fill="none" stroke="#000000" stroke-width="0.735" stroke-linecap="round" stroke-linejoin="round" stroke-miterlimit="10" width="1.637" height="22.181"/>
	<g>
		<path fill="#101014" d="M-131.163,8.477c-7.444,0-13.5-6.056-13.5-13.499c0-7.444,6.056-13.501,13.5-13.501
			c7.444,0,13.5,6.057,13.5,13.501C-117.664,2.421-123.719,8.477-131.163,8.477z M-131.163-17.127
			c-6.674,0-12.104,5.431-12.104,12.104c0,6.673,5.429,12.103,12.104,12.103c6.674,0,12.103-5.43,12.103-12.103
			C-119.06-11.696-124.489-17.127-131.163-17.127z"/>
		<path fill="#101014" d="M-122.779-4.303h-16.768c-0.397,0-0.72-0.322-0.72-0.72s0.323-0.72,0.72-0.72h16.768
			c0.397,0,0.72,0.322,0.72,0.72S-122.382-4.303-122.779-4.303z"/>
		<path fill="#101014" d="M-135.156,0.088c-0.184,0-0.368-0.07-0.509-0.21l-4.391-4.383c-0.135-0.135-0.211-0.318-0.211-0.51
			c0-0.19,0.076-0.374,0.211-0.509l4.391-4.391c0.281-0.281,0.737-0.281,1.019,0s0.281,0.736,0,1.018l-3.882,3.882l3.881,3.873
			c0.281,0.281,0.282,0.737,0.001,1.019C-134.787,0.018-134.972,0.088-135.156,0.088z"/>
	</g>
	<path fill="#101014" d="M-39.534,2.279c-0.696,0-1.295-0.523-1.373-1.23l-0.918-8.287c-0.041-0.365,0.066-0.73,0.295-1.018
		c0.229-0.286,0.563-0.47,0.928-0.51l8.295-0.91c0.759-0.077,1.442,0.464,1.525,1.225c0.083,0.759-0.464,1.441-1.224,1.525
		l-6.919,0.759l0.766,6.911c0.084,0.759-0.463,1.442-1.222,1.527C-39.432,2.276-39.483,2.279-39.534,2.279z"/>
	<path fill="#101014" d="M-52.296,11.357c-10.722,0-19.121-4.931-19.121-11.225c0-4.486,4.263-8.401,11.126-10.22
		c0.737-0.194,1.495,0.245,1.691,0.982c0.195,0.738-0.245,1.496-0.983,1.691c-5.509,1.459-9.069,4.421-9.069,7.546
		c0,4.585,7.49,8.459,16.355,8.459s16.355-3.874,16.355-8.459c0-1.952-1.373-3.488-2.523-4.433l-2.784-1.961
		c-0.624-0.44-0.772-1.304-0.332-1.928c0.441-0.625,1.304-0.771,1.928-0.332l2.863,2.021c2.392,1.958,3.614,4.23,3.614,6.632
		C-33.175,6.427-41.574,11.357-52.296,11.357z"/>
	<polygon fill="#101014" points="4.49,-1.843 0.224,-6.108 1.853,-7.737 4.49,-5.101 10.123,-10.733 11.752,-9.104 	"/>
	<polygon id="XPath" fill="#101014" points="10.424,7.852 7.561,4.988 10.31,2.238 8.681,0.609 5.931,3.359 3.294,0.723 
		1.666,2.352 4.302,4.988 1.552,7.738 3.181,9.367 5.932,6.617 8.795,9.48 	"/>
	<g>
		<path fill="#FFFFFF" d="M-184.583,254.724c6.135,16.57-2.324,34.974-18.895,41.11c-16.568,6.135-34.975-2.326-41.107-18.894
			c-6.135-16.568,2.323-34.974,18.892-41.108C-209.124,229.697-190.717,238.154-184.583,254.724"/>
		<path fill="#CFCFC7" d="M-217.323,262.429c0,0.529-0.423,0.953-0.953,0.953c-0.593,0-0.975-0.381-0.975-0.953v-0.637
			c0-1.396-0.084-4.279-3.283-4.279h-4.388v4.916c0,0.529-0.445,0.953-0.975,0.953s-0.953-0.424-0.953-0.953v-12.968
			c0-0.529,0.424-0.975,0.953-0.975h4.938c4.025,0,5.763,1.862,5.763,4.3c0,1.633-0.911,3.201-2.775,3.836
			c2.353,0.613,2.647,3.645,2.647,4.83V262.429z M-219.124,252.935c0-1.568-0.931-2.629-4.067-2.629h-3.73v5.385h3.836
			C-220.712,255.69-219.124,254.737-219.124,252.935"/>
		<path fill="#CFCFC7" d="M-217.492,279.259c0,2.396-2.142,4.132-5.426,4.132c-2.118,0-3.815-0.488-5.043-1.016
			c-0.317-0.127-0.595-0.487-0.595-0.868c0-0.467,0.34-0.891,0.869-0.891c0.129,0,0.256,0.021,0.403,0.084
			c0.953,0.426,2.353,0.869,4.173,0.869c2.099,0,3.71-0.592,3.71-2.436c0-3.139-9.006-1.4-9.006-6.613
			c0-2.354,1.907-4.342,5.488-4.342c1.651,0,3.072,0.273,4.216,0.699c0.297,0.104,0.594,0.338,0.594,0.846
			c0,0.424-0.318,0.891-0.848,0.891c-0.105,0-0.232-0.043-0.338-0.084c-0.976-0.34-2.12-0.574-3.412-0.574
			c-2.141,0-3.771,0.828-3.771,2.418C-226.476,276.04-217.492,273.665-217.492,279.259"/>
		<path fill="#CFCFC7" d="M-197.639,255.88c-0.085,4.43-2.924,7.609-7.438,7.609c-4.536,0-7.353-3.18-7.439-7.609
			c0.087-4.428,2.903-7.606,7.439-7.606C-200.563,248.273-197.724,251.452-197.639,255.88 M-199.569,255.88
			c0-3.264-2.011-5.807-5.508-5.807c-3.519,0-5.512,2.543-5.512,5.807s1.993,5.807,5.512,5.807
			C-201.58,261.687-199.569,259.144-199.569,255.88"/>
		<path fill="#CFCFC7" d="M-199.895,282.289c0,0.51-0.403,0.891-0.911,0.891h-8.498c-0.53,0-0.955-0.424-0.955-0.953v-12.862
			c0-0.531,0.425-0.975,0.955-0.975h8.498c0.508,0,0.911,0.402,0.911,0.91s-0.403,0.891-0.911,0.891h-7.524v4.682h6.762
			c0.508,0,0.911,0.404,0.911,0.912s-0.403,0.891-0.911,0.891h-6.762v4.705h7.524C-200.298,281.38-199.895,281.78-199.895,282.289"
			/>
	</g>
	<g>
		<path fill="#101014" d="M-102.498-18.523c7.444,0,13.5,6.056,13.5,13.499c0,7.444-6.056,13.501-13.5,13.501
			c-7.444,0-13.5-6.057-13.5-13.501C-115.997-12.468-109.941-18.523-102.498-18.523z M-102.498,7.08
			c6.674,0,12.104-5.431,12.104-12.104c0-6.673-5.429-12.103-12.104-12.103c-6.674,0-12.103,5.43-12.103,12.103
			C-114.601,1.649-109.171,7.08-102.498,7.08z"/>
		<path fill="#101014" d="M-110.881-5.744h16.768c0.397,0,0.72,0.322,0.72,0.72s-0.323,0.72-0.72,0.72h-16.768
			c-0.397,0-0.72-0.322-0.72-0.72S-111.279-5.744-110.881-5.744z"/>
		<path fill="#101014" d="M-98.504-10.135c0.184,0,0.368,0.07,0.509,0.21l4.391,4.383c0.135,0.135,0.211,0.318,0.211,0.51
			c0,0.19-0.076,0.374-0.211,0.509l-4.391,4.391c-0.281,0.281-0.737,0.281-1.019,0s-0.281-0.736,0-1.018l3.882-3.882l-3.881-3.873
			c-0.281-0.281-0.282-0.737-0.001-1.019C-98.874-10.064-98.689-10.135-98.504-10.135z"/>
	</g>
</g>
<g id="Layer_2">
	<rect x="-246.583" y="-706.419" fill="none" width="996" height="631.446"/>
	<rect x="-11.664" y="-706.418" fill="none" stroke="#F6F7F4" stroke-miterlimit="10" width="527.08" height="631.444"/>
</g>
</svg>
