<?xml version="1.0" encoding="utf-8"?>
<!-- Generator: Adobe Illustrator 15.0.0, SVG Export Plug-In . SVG Version: 6.00 Build 0)  -->
<!DOCTYPE svg PUBLIC "-//W3C//DTD SVG 1.1//EN" "http://www.w3.org/Graphics/SVG/1.1/DTD/svg11.dtd">
<svg version="1.1" xmlns="http://www.w3.org/2000/svg" xmlns:xlink="http://www.w3.org/1999/xlink" x="0px" y="0px" width="65px"
	 height="65px" viewBox="0 0 65 65" enable-background="new 0 0 65 65" xml:space="preserve">
<g id="Layer_1">
	<rect x="-1.132" y="-857.798" fill="#F6F7F4" width="996" height="631.445"/>
	<g>
		<defs>
			<rect id="SVGID_1_" x="-1.132" y="-857.797" width="996" height="631.445"/>
		</defs>
		<clipPath id="SVGID_2_">
			<use xlink:href="#SVGID_1_"  overflow="visible"/>
		</clipPath>
		<path clip-path="url(#SVGID_2_)" fill="#CFCFC7" d="M24.963-463.653c0,0.855-0.694,1.549-1.549,1.549
			c-0.857,0-1.55-0.693-1.55-1.549c0-0.854,0.693-1.549,1.55-1.549C24.269-465.202,24.963-464.507,24.963-463.653"/>
		<path clip-path="url(#SVGID_2_)" fill="#CFCFC7" d="M111.045-463.653c0,0.855-0.693,1.549-1.55,1.549
			c-0.854,0-1.547-0.693-1.547-1.549c0-0.854,0.693-1.549,1.547-1.549C110.352-465.202,111.045-464.507,111.045-463.653"/>
		<path clip-path="url(#SVGID_2_)" fill="#CFCFC7" d="M197.128-463.653c0,0.855-0.693,1.549-1.549,1.549
			c-0.854,0-1.549-0.693-1.549-1.549c0-0.854,0.695-1.549,1.549-1.549C196.435-465.202,197.128-464.507,197.128-463.653"/>
		<path clip-path="url(#SVGID_2_)" fill="#CFCFC7" d="M283.211-463.653c0,0.855-0.693,1.549-1.55,1.549
			c-0.854,0-1.549-0.693-1.549-1.549c0-0.854,0.695-1.549,1.549-1.549C282.518-465.202,283.211-464.507,283.211-463.653"/>
		<path clip-path="url(#SVGID_2_)" fill="#CFCFC7" d="M369.294-463.653c0,0.855-0.694,1.549-1.55,1.549s-1.549-0.693-1.549-1.549
			c0-0.854,0.693-1.549,1.549-1.549S369.294-464.507,369.294-463.653"/>
		<path clip-path="url(#SVGID_2_)" fill="#CFCFC7" d="M455.378-463.653c0,0.855-0.693,1.549-1.551,1.549
			c-0.855,0-1.549-0.693-1.549-1.549c0-0.854,0.694-1.549,1.549-1.549C454.685-465.202,455.378-464.507,455.378-463.653"/>
		<path clip-path="url(#SVGID_2_)" fill="#CFCFC7" d="M541.461-463.653c0,0.855-0.695,1.549-1.55,1.549
			c-0.857,0-1.551-0.693-1.551-1.549c0-0.854,0.693-1.549,1.551-1.549C540.766-465.202,541.461-464.507,541.461-463.653"/>
		<path clip-path="url(#SVGID_2_)" fill="#CFCFC7" d="M627.544-463.653c0,0.855-0.695,1.549-1.554,1.549
			c-0.853,0-1.546-0.693-1.546-1.549c0-0.854,0.693-1.549,1.546-1.549C626.849-465.202,627.544-464.507,627.544-463.653"/>
		<path clip-path="url(#SVGID_2_)" fill="#CFCFC7" d="M713.623-463.653c0,0.855-0.694,1.549-1.549,1.549s-1.548-0.693-1.548-1.549
			c0-0.854,0.693-1.549,1.548-1.549S713.623-464.507,713.623-463.653"/>
		<path clip-path="url(#SVGID_2_)" fill="#CFCFC7" d="M799.707-463.653c0,0.855-0.691,1.549-1.547,1.549
			c-0.857,0-1.55-0.693-1.55-1.549c0-0.854,0.692-1.549,1.55-1.549C799.016-465.202,799.707-464.507,799.707-463.653"/>
		<path clip-path="url(#SVGID_2_)" fill="#CFCFC7" d="M885.789-463.653c0,0.855-0.691,1.549-1.55,1.549
			c-0.854,0-1.548-0.693-1.548-1.549c0-0.854,0.693-1.549,1.548-1.549C885.098-465.202,885.789-464.507,885.789-463.653"/>
		<path clip-path="url(#SVGID_2_)" fill="#CFCFC7" d="M971.87-463.653c0,0.855-0.689,1.549-1.548,1.549
			c-0.855,0-1.55-0.693-1.55-1.549c0-0.854,0.694-1.549,1.55-1.549C971.181-465.202,971.87-464.507,971.87-463.653"/>
		<path clip-path="url(#SVGID_2_)" fill="#CFCFC7" d="M24.963-554.042c0,0.857-0.694,1.551-1.549,1.551
			c-0.857,0-1.55-0.694-1.55-1.551c0-0.854,0.693-1.549,1.55-1.549C24.269-555.59,24.963-554.896,24.963-554.042"/>
		<path clip-path="url(#SVGID_2_)" fill="#CFCFC7" d="M111.045-554.042c0,0.857-0.693,1.551-1.55,1.551
			c-0.854,0-1.547-0.694-1.547-1.551c0-0.854,0.693-1.549,1.547-1.549C110.352-555.59,111.045-554.896,111.045-554.042"/>
		<path clip-path="url(#SVGID_2_)" fill="#CFCFC7" d="M197.128-554.042c0,0.857-0.693,1.551-1.549,1.551
			c-0.854,0-1.549-0.694-1.549-1.551c0-0.854,0.695-1.549,1.549-1.549C196.435-555.59,197.128-554.896,197.128-554.042"/>
		<path clip-path="url(#SVGID_2_)" fill="#CFCFC7" d="M283.211-554.042c0,0.857-0.693,1.551-1.55,1.551
			c-0.854,0-1.549-0.694-1.549-1.551c0-0.854,0.695-1.549,1.549-1.549C282.518-555.59,283.211-554.896,283.211-554.042"/>
		<path clip-path="url(#SVGID_2_)" fill="#CFCFC7" d="M369.294-554.042c0,0.857-0.694,1.551-1.55,1.551s-1.549-0.694-1.549-1.551
			c0-0.854,0.693-1.549,1.549-1.549S369.294-554.896,369.294-554.042"/>
		<path clip-path="url(#SVGID_2_)" fill="#CFCFC7" d="M455.378-554.042c0,0.857-0.693,1.551-1.551,1.551
			c-0.855,0-1.549-0.694-1.549-1.551c0-0.854,0.694-1.549,1.549-1.549C454.685-555.59,455.378-554.896,455.378-554.042"/>
		<path clip-path="url(#SVGID_2_)" fill="#CFCFC7" d="M541.461-554.042c0,0.857-0.695,1.551-1.55,1.551
			c-0.857,0-1.551-0.694-1.551-1.551c0-0.854,0.693-1.549,1.551-1.549C540.766-555.59,541.461-554.896,541.461-554.042"/>
		<path clip-path="url(#SVGID_2_)" fill="#CFCFC7" d="M627.544-554.042c0,0.857-0.695,1.551-1.554,1.551
			c-0.853,0-1.546-0.694-1.546-1.551c0-0.854,0.693-1.549,1.546-1.549C626.849-555.59,627.544-554.896,627.544-554.042"/>
		<path clip-path="url(#SVGID_2_)" fill="#CFCFC7" d="M713.623-554.042c0,0.857-0.694,1.551-1.549,1.551s-1.548-0.694-1.548-1.551
			c0-0.854,0.693-1.549,1.548-1.549S713.623-554.896,713.623-554.042"/>
		<path clip-path="url(#SVGID_2_)" fill="#CFCFC7" d="M799.707-554.042c0,0.857-0.691,1.551-1.547,1.551
			c-0.857,0-1.55-0.694-1.55-1.551c0-0.854,0.692-1.549,1.55-1.549C799.016-555.59,799.707-554.896,799.707-554.042"/>
		<path clip-path="url(#SVGID_2_)" fill="#CFCFC7" d="M885.789-554.042c0,0.857-0.691,1.551-1.55,1.551
			c-0.854,0-1.548-0.694-1.548-1.551c0-0.854,0.693-1.549,1.548-1.549C885.098-555.59,885.789-554.896,885.789-554.042"/>
		<path clip-path="url(#SVGID_2_)" fill="#CFCFC7" d="M971.87-554.042c0,0.857-0.689,1.551-1.548,1.551
			c-0.855,0-1.55-0.694-1.55-1.551c0-0.854,0.694-1.549,1.55-1.549C971.181-555.59,971.87-554.896,971.87-554.042"/>
		<path clip-path="url(#SVGID_2_)" fill="#CFCFC7" d="M24.963-644.426c0,0.855-0.694,1.549-1.549,1.549
			c-0.857,0-1.55-0.694-1.55-1.549c0-0.857,0.693-1.549,1.55-1.549C24.269-645.975,24.963-645.283,24.963-644.426"/>
		<path clip-path="url(#SVGID_2_)" fill="#CFCFC7" d="M111.045-644.426c0,0.855-0.693,1.549-1.55,1.549
			c-0.854,0-1.547-0.694-1.547-1.549c0-0.857,0.693-1.549,1.547-1.549C110.352-645.975,111.045-645.283,111.045-644.426"/>
		<path clip-path="url(#SVGID_2_)" fill="#CFCFC7" d="M197.128-644.426c0,0.855-0.693,1.549-1.549,1.549
			c-0.854,0-1.549-0.694-1.549-1.549c0-0.857,0.695-1.549,1.549-1.549C196.435-645.975,197.128-645.283,197.128-644.426"/>
		<path clip-path="url(#SVGID_2_)" fill="#CFCFC7" d="M283.211-644.426c0,0.855-0.693,1.549-1.55,1.549
			c-0.854,0-1.549-0.694-1.549-1.549c0-0.857,0.695-1.549,1.549-1.549C282.518-645.975,283.211-645.283,283.211-644.426"/>
		<path clip-path="url(#SVGID_2_)" fill="#CFCFC7" d="M369.294-644.426c0,0.855-0.694,1.549-1.55,1.549s-1.549-0.694-1.549-1.549
			c0-0.857,0.693-1.549,1.549-1.549S369.294-645.283,369.294-644.426"/>
		<path clip-path="url(#SVGID_2_)" fill="#CFCFC7" d="M455.378-644.426c0,0.855-0.693,1.549-1.551,1.549
			c-0.855,0-1.549-0.694-1.549-1.549c0-0.857,0.694-1.549,1.549-1.549C454.685-645.975,455.378-645.283,455.378-644.426"/>
		<path clip-path="url(#SVGID_2_)" fill="#CFCFC7" d="M541.461-644.426c0,0.855-0.695,1.549-1.55,1.549
			c-0.857,0-1.551-0.694-1.551-1.549c0-0.857,0.693-1.549,1.551-1.549C540.766-645.975,541.461-645.283,541.461-644.426"/>
		<path clip-path="url(#SVGID_2_)" fill="#CFCFC7" d="M627.544-644.426c0,0.855-0.695,1.549-1.554,1.549
			c-0.853,0-1.546-0.694-1.546-1.549c0-0.857,0.693-1.549,1.546-1.549C626.849-645.975,627.544-645.283,627.544-644.426"/>
		<path clip-path="url(#SVGID_2_)" fill="#CFCFC7" d="M713.623-644.426c0,0.855-0.694,1.549-1.549,1.549s-1.548-0.694-1.548-1.549
			c0-0.857,0.693-1.549,1.548-1.549S713.623-645.283,713.623-644.426"/>
		<path clip-path="url(#SVGID_2_)" fill="#CFCFC7" d="M799.707-644.426c0,0.855-0.691,1.549-1.547,1.549
			c-0.857,0-1.55-0.694-1.55-1.549c0-0.857,0.692-1.549,1.55-1.549C799.016-645.975,799.707-645.283,799.707-644.426"/>
		<path clip-path="url(#SVGID_2_)" fill="#CFCFC7" d="M885.789-644.426c0,0.855-0.691,1.549-1.55,1.549
			c-0.854,0-1.548-0.694-1.548-1.549c0-0.857,0.693-1.549,1.548-1.549C885.098-645.975,885.789-645.283,885.789-644.426"/>
		<path clip-path="url(#SVGID_2_)" fill="#CFCFC7" d="M971.87-644.426c0,0.855-0.689,1.549-1.548,1.549
			c-0.855,0-1.55-0.694-1.55-1.549c0-0.857,0.694-1.549,1.55-1.549C971.181-645.975,971.87-645.283,971.87-644.426"/>
		<path clip-path="url(#SVGID_2_)" fill="#CFCFC7" d="M24.963-734.815c0,0.857-0.694,1.551-1.549,1.551
			c-0.857,0-1.55-0.694-1.55-1.551c0-0.854,0.693-1.549,1.55-1.549C24.269-736.364,24.963-735.669,24.963-734.815"/>
		<path clip-path="url(#SVGID_2_)" fill="#CFCFC7" d="M111.045-734.815c0,0.857-0.693,1.551-1.55,1.551
			c-0.854,0-1.547-0.694-1.547-1.551c0-0.854,0.693-1.549,1.547-1.549C110.352-736.364,111.045-735.669,111.045-734.815"/>
		<path clip-path="url(#SVGID_2_)" fill="#CFCFC7" d="M197.128-734.815c0,0.857-0.693,1.551-1.549,1.551
			c-0.854,0-1.549-0.694-1.549-1.551c0-0.854,0.695-1.549,1.549-1.549C196.435-736.364,197.128-735.669,197.128-734.815"/>
		<path clip-path="url(#SVGID_2_)" fill="#CFCFC7" d="M283.211-734.815c0,0.857-0.693,1.551-1.55,1.551
			c-0.854,0-1.549-0.694-1.549-1.551c0-0.854,0.695-1.549,1.549-1.549C282.518-736.364,283.211-735.669,283.211-734.815"/>
		<path clip-path="url(#SVGID_2_)" fill="#CFCFC7" d="M369.294-734.815c0,0.857-0.694,1.551-1.55,1.551s-1.549-0.694-1.549-1.551
			c0-0.854,0.693-1.549,1.549-1.549S369.294-735.669,369.294-734.815"/>
		<path clip-path="url(#SVGID_2_)" fill="#CFCFC7" d="M455.378-734.815c0,0.857-0.693,1.551-1.551,1.551
			c-0.855,0-1.549-0.694-1.549-1.551c0-0.854,0.694-1.549,1.549-1.549C454.685-736.364,455.378-735.669,455.378-734.815"/>
		<path clip-path="url(#SVGID_2_)" fill="#CFCFC7" d="M541.461-734.815c0,0.857-0.695,1.551-1.55,1.551
			c-0.857,0-1.551-0.694-1.551-1.551c0-0.854,0.693-1.549,1.551-1.549C540.766-736.364,541.461-735.669,541.461-734.815"/>
		<path clip-path="url(#SVGID_2_)" fill="#CFCFC7" d="M627.544-734.815c0,0.857-0.695,1.551-1.554,1.551
			c-0.853,0-1.546-0.694-1.546-1.551c0-0.854,0.693-1.549,1.546-1.549C626.849-736.364,627.544-735.669,627.544-734.815"/>
		<path clip-path="url(#SVGID_2_)" fill="#CFCFC7" d="M713.623-734.815c0,0.857-0.694,1.551-1.549,1.551s-1.548-0.694-1.548-1.551
			c0-0.854,0.693-1.549,1.548-1.549S713.623-735.669,713.623-734.815"/>
		<path clip-path="url(#SVGID_2_)" fill="#CFCFC7" d="M799.707-734.815c0,0.857-0.691,1.551-1.547,1.551
			c-0.857,0-1.55-0.694-1.55-1.551c0-0.854,0.692-1.549,1.55-1.549C799.016-736.364,799.707-735.669,799.707-734.815"/>
		<path clip-path="url(#SVGID_2_)" fill="#CFCFC7" d="M885.789-734.815c0,0.857-0.691,1.551-1.55,1.551
			c-0.854,0-1.548-0.694-1.548-1.551c0-0.854,0.693-1.549,1.548-1.549C885.098-736.364,885.789-735.669,885.789-734.815"/>
		<path clip-path="url(#SVGID_2_)" fill="#CFCFC7" d="M971.87-734.815c0,0.857-0.689,1.551-1.548,1.551
			c-0.855,0-1.55-0.694-1.55-1.551c0-0.854,0.694-1.549,1.55-1.549C971.181-736.364,971.87-735.669,971.87-734.815"/>
		<path clip-path="url(#SVGID_2_)" fill="#CFCFC7" d="M24.963-825.202c0,0.855-0.694,1.551-1.549,1.551
			c-0.857,0-1.55-0.696-1.55-1.551s0.693-1.549,1.55-1.549C24.269-826.75,24.963-826.057,24.963-825.202"/>
		<path clip-path="url(#SVGID_2_)" fill="#CFCFC7" d="M111.045-825.202c0,0.855-0.693,1.551-1.55,1.551
			c-0.854,0-1.547-0.696-1.547-1.551s0.693-1.549,1.547-1.549C110.352-826.75,111.045-826.057,111.045-825.202"/>
		<path clip-path="url(#SVGID_2_)" fill="#CFCFC7" d="M197.128-825.202c0,0.855-0.693,1.551-1.549,1.551
			c-0.854,0-1.549-0.696-1.549-1.551s0.695-1.549,1.549-1.549C196.435-826.75,197.128-826.057,197.128-825.202"/>
		<path clip-path="url(#SVGID_2_)" fill="#CFCFC7" d="M283.211-825.202c0,0.855-0.693,1.551-1.55,1.551
			c-0.854,0-1.549-0.696-1.549-1.551s0.695-1.549,1.549-1.549C282.518-826.75,283.211-826.057,283.211-825.202"/>
		<path clip-path="url(#SVGID_2_)" fill="#CFCFC7" d="M369.294-825.202c0,0.855-0.694,1.551-1.55,1.551s-1.549-0.696-1.549-1.551
			s0.693-1.549,1.549-1.549S369.294-826.057,369.294-825.202"/>
		<path clip-path="url(#SVGID_2_)" fill="#CFCFC7" d="M455.378-825.202c0,0.855-0.693,1.551-1.551,1.551
			c-0.855,0-1.549-0.696-1.549-1.551s0.694-1.549,1.549-1.549C454.685-826.75,455.378-826.057,455.378-825.202"/>
		<path clip-path="url(#SVGID_2_)" fill="#CFCFC7" d="M541.461-825.202c0,0.855-0.695,1.551-1.55,1.551
			c-0.857,0-1.551-0.696-1.551-1.551s0.693-1.549,1.551-1.549C540.766-826.75,541.461-826.057,541.461-825.202"/>
		<path clip-path="url(#SVGID_2_)" fill="#CFCFC7" d="M627.544-825.202c0,0.855-0.695,1.551-1.554,1.551
			c-0.853,0-1.546-0.696-1.546-1.551s0.693-1.549,1.546-1.549C626.849-826.75,627.544-826.057,627.544-825.202"/>
		<path clip-path="url(#SVGID_2_)" fill="#CFCFC7" d="M713.623-825.202c0,0.855-0.694,1.551-1.549,1.551s-1.548-0.696-1.548-1.551
			s0.693-1.549,1.548-1.549S713.623-826.057,713.623-825.202"/>
		<path clip-path="url(#SVGID_2_)" fill="#CFCFC7" d="M799.707-825.202c0,0.855-0.691,1.551-1.547,1.551
			c-0.857,0-1.55-0.696-1.55-1.551s0.692-1.549,1.55-1.549C799.016-826.75,799.707-826.057,799.707-825.202"/>
		<path clip-path="url(#SVGID_2_)" fill="#CFCFC7" d="M885.789-825.202c0,0.855-0.691,1.551-1.55,1.551
			c-0.854,0-1.548-0.696-1.548-1.551s0.693-1.549,1.548-1.549C885.098-826.75,885.789-826.057,885.789-825.202"/>
		<path clip-path="url(#SVGID_2_)" fill="#CFCFC7" d="M971.87-825.202c0,0.855-0.689,1.551-1.548,1.551
			c-0.855,0-1.55-0.696-1.55-1.551s0.694-1.549,1.55-1.549C971.181-826.75,971.87-826.057,971.87-825.202"/>
		<path clip-path="url(#SVGID_2_)" fill="#CFCFC7" d="M24.963-102.106c0,0.855-0.694,1.551-1.549,1.551
			c-0.857,0-1.55-0.695-1.55-1.551c0-0.854,0.693-1.551,1.55-1.551C24.269-103.657,24.963-102.961,24.963-102.106"/>
		<path clip-path="url(#SVGID_2_)" fill="#CFCFC7" d="M111.045-102.106c0,0.855-0.693,1.551-1.55,1.551
			c-0.854,0-1.547-0.695-1.547-1.551c0-0.854,0.693-1.551,1.547-1.551C110.352-103.657,111.045-102.961,111.045-102.106"/>
		<path clip-path="url(#SVGID_2_)" fill="#CFCFC7" d="M197.128-102.106c0,0.855-0.693,1.551-1.549,1.551
			c-0.854,0-1.549-0.695-1.549-1.551c0-0.854,0.695-1.551,1.549-1.551C196.435-103.657,197.128-102.961,197.128-102.106"/>
		<path clip-path="url(#SVGID_2_)" fill="#CFCFC7" d="M283.211-102.106c0,0.855-0.693,1.551-1.55,1.551
			c-0.854,0-1.549-0.695-1.549-1.551c0-0.854,0.695-1.551,1.549-1.551C282.518-103.657,283.211-102.961,283.211-102.106"/>
		<path clip-path="url(#SVGID_2_)" fill="#CFCFC7" d="M369.294-102.106c0,0.855-0.694,1.551-1.55,1.551s-1.549-0.695-1.549-1.551
			c0-0.854,0.693-1.551,1.549-1.551S369.294-102.961,369.294-102.106"/>
		<path clip-path="url(#SVGID_2_)" fill="#CFCFC7" d="M455.378-102.106c0,0.855-0.693,1.551-1.551,1.551
			c-0.855,0-1.549-0.695-1.549-1.551c0-0.854,0.694-1.551,1.549-1.551C454.685-103.657,455.378-102.961,455.378-102.106"/>
		<path clip-path="url(#SVGID_2_)" fill="#CFCFC7" d="M541.461-102.106c0,0.855-0.695,1.551-1.55,1.551
			c-0.857,0-1.551-0.695-1.551-1.551c0-0.854,0.693-1.551,1.551-1.551C540.766-103.657,541.461-102.961,541.461-102.106"/>
		<path clip-path="url(#SVGID_2_)" fill="#CFCFC7" d="M627.544-102.106c0,0.855-0.695,1.551-1.554,1.551
			c-0.853,0-1.546-0.695-1.546-1.551c0-0.854,0.693-1.551,1.546-1.551C626.849-103.657,627.544-102.961,627.544-102.106"/>
		<path clip-path="url(#SVGID_2_)" fill="#CFCFC7" d="M713.623-102.106c0,0.855-0.694,1.551-1.549,1.551s-1.548-0.695-1.548-1.551
			c0-0.854,0.693-1.551,1.548-1.551S713.623-102.961,713.623-102.106"/>
		<path clip-path="url(#SVGID_2_)" fill="#CFCFC7" d="M799.707-102.106c0,0.855-0.691,1.551-1.547,1.551
			c-0.857,0-1.55-0.695-1.55-1.551c0-0.854,0.692-1.551,1.55-1.551C799.016-103.657,799.707-102.961,799.707-102.106"/>
		<path clip-path="url(#SVGID_2_)" fill="#CFCFC7" d="M885.789-102.106c0,0.855-0.691,1.551-1.55,1.551
			c-0.854,0-1.548-0.695-1.548-1.551c0-0.854,0.693-1.551,1.548-1.551C885.098-103.657,885.789-102.961,885.789-102.106"/>
		<path clip-path="url(#SVGID_2_)" fill="#CFCFC7" d="M971.87-102.106c0,0.855-0.689,1.551-1.548,1.551
			c-0.855,0-1.55-0.695-1.55-1.551c0-0.854,0.694-1.551,1.55-1.551C971.181-103.657,971.87-102.961,971.87-102.106"/>
		<path clip-path="url(#SVGID_2_)" fill="#CFCFC7" d="M24.963-192.493c0,0.857-0.694,1.549-1.549,1.549
			c-0.857,0-1.55-0.691-1.55-1.549c0-0.854,0.693-1.549,1.55-1.549C24.269-194.042,24.963-193.348,24.963-192.493"/>
		<path clip-path="url(#SVGID_2_)" fill="#CFCFC7" d="M111.045-192.493c0,0.857-0.693,1.549-1.55,1.549
			c-0.854,0-1.547-0.691-1.547-1.549c0-0.854,0.693-1.549,1.547-1.549C110.352-194.042,111.045-193.348,111.045-192.493"/>
		<path clip-path="url(#SVGID_2_)" fill="#CFCFC7" d="M197.128-192.493c0,0.857-0.693,1.549-1.549,1.549
			c-0.854,0-1.549-0.691-1.549-1.549c0-0.854,0.695-1.549,1.549-1.549C196.435-194.042,197.128-193.348,197.128-192.493"/>
		<path clip-path="url(#SVGID_2_)" fill="#CFCFC7" d="M283.211-192.493c0,0.857-0.693,1.549-1.55,1.549
			c-0.854,0-1.549-0.691-1.549-1.549c0-0.854,0.695-1.549,1.549-1.549C282.518-194.042,283.211-193.348,283.211-192.493"/>
		<path clip-path="url(#SVGID_2_)" fill="#CFCFC7" d="M369.294-192.493c0,0.857-0.694,1.549-1.55,1.549s-1.549-0.691-1.549-1.549
			c0-0.854,0.693-1.549,1.549-1.549S369.294-193.348,369.294-192.493"/>
		<path clip-path="url(#SVGID_2_)" fill="#CFCFC7" d="M455.378-192.493c0,0.857-0.693,1.549-1.551,1.549
			c-0.855,0-1.549-0.691-1.549-1.549c0-0.854,0.694-1.549,1.549-1.549C454.685-194.042,455.378-193.348,455.378-192.493"/>
		<path clip-path="url(#SVGID_2_)" fill="#CFCFC7" d="M541.461-192.493c0,0.857-0.695,1.549-1.55,1.549
			c-0.857,0-1.551-0.691-1.551-1.549c0-0.854,0.693-1.549,1.551-1.549C540.766-194.042,541.461-193.348,541.461-192.493"/>
		<path clip-path="url(#SVGID_2_)" fill="#CFCFC7" d="M627.544-192.493c0,0.857-0.695,1.549-1.554,1.549
			c-0.853,0-1.546-0.691-1.546-1.549c0-0.854,0.693-1.549,1.546-1.549C626.849-194.042,627.544-193.348,627.544-192.493"/>
		<path clip-path="url(#SVGID_2_)" fill="#CFCFC7" d="M713.623-192.493c0,0.857-0.694,1.549-1.549,1.549s-1.548-0.691-1.548-1.549
			c0-0.854,0.693-1.549,1.548-1.549S713.623-193.348,713.623-192.493"/>
		<path clip-path="url(#SVGID_2_)" fill="#CFCFC7" d="M799.707-192.493c0,0.857-0.691,1.549-1.547,1.549
			c-0.857,0-1.55-0.691-1.55-1.549c0-0.854,0.692-1.549,1.55-1.549C799.016-194.042,799.707-193.348,799.707-192.493"/>
		<path clip-path="url(#SVGID_2_)" fill="#CFCFC7" d="M885.789-192.493c0,0.857-0.691,1.549-1.55,1.549
			c-0.854,0-1.548-0.691-1.548-1.549c0-0.854,0.693-1.549,1.548-1.549C885.098-194.042,885.789-193.348,885.789-192.493"/>
		<path clip-path="url(#SVGID_2_)" fill="#CFCFC7" d="M971.87-192.493c0,0.857-0.689,1.549-1.548,1.549
			c-0.855,0-1.55-0.691-1.55-1.549c0-0.854,0.694-1.549,1.55-1.549C971.181-194.042,971.87-193.348,971.87-192.493"/>
		<path clip-path="url(#SVGID_2_)" fill="#CFCFC7" d="M24.963-282.88c0,0.855-0.694,1.551-1.549,1.551
			c-0.857,0-1.55-0.695-1.55-1.551s0.693-1.549,1.55-1.549C24.269-284.429,24.963-283.735,24.963-282.88"/>
		<path clip-path="url(#SVGID_2_)" fill="#CFCFC7" d="M111.045-282.88c0,0.855-0.693,1.551-1.55,1.551
			c-0.854,0-1.547-0.695-1.547-1.551s0.693-1.549,1.547-1.549C110.352-284.429,111.045-283.735,111.045-282.88"/>
		<path clip-path="url(#SVGID_2_)" fill="#CFCFC7" d="M197.128-282.88c0,0.855-0.693,1.551-1.549,1.551
			c-0.854,0-1.549-0.695-1.549-1.551s0.695-1.549,1.549-1.549C196.435-284.429,197.128-283.735,197.128-282.88"/>
		<path clip-path="url(#SVGID_2_)" fill="#CFCFC7" d="M283.211-282.88c0,0.855-0.693,1.551-1.55,1.551
			c-0.854,0-1.549-0.695-1.549-1.551s0.695-1.549,1.549-1.549C282.518-284.429,283.211-283.735,283.211-282.88"/>
		<path clip-path="url(#SVGID_2_)" fill="#CFCFC7" d="M369.294-282.88c0,0.855-0.694,1.551-1.55,1.551s-1.549-0.695-1.549-1.551
			s0.693-1.549,1.549-1.549S369.294-283.735,369.294-282.88"/>
		<path clip-path="url(#SVGID_2_)" fill="#CFCFC7" d="M455.378-282.88c0,0.855-0.693,1.551-1.551,1.551
			c-0.855,0-1.549-0.695-1.549-1.551s0.694-1.549,1.549-1.549C454.685-284.429,455.378-283.735,455.378-282.88"/>
		<path clip-path="url(#SVGID_2_)" fill="#CFCFC7" d="M541.461-282.88c0,0.855-0.695,1.551-1.55,1.551
			c-0.857,0-1.551-0.695-1.551-1.551s0.693-1.549,1.551-1.549C540.766-284.429,541.461-283.735,541.461-282.88"/>
		<path clip-path="url(#SVGID_2_)" fill="#CFCFC7" d="M627.544-282.88c0,0.855-0.695,1.551-1.554,1.551
			c-0.853,0-1.546-0.695-1.546-1.551s0.693-1.549,1.546-1.549C626.849-284.429,627.544-283.735,627.544-282.88"/>
		<path clip-path="url(#SVGID_2_)" fill="#CFCFC7" d="M713.623-282.88c0,0.855-0.694,1.551-1.549,1.551s-1.548-0.695-1.548-1.551
			s0.693-1.549,1.548-1.549S713.623-283.735,713.623-282.88"/>
		<path clip-path="url(#SVGID_2_)" fill="#CFCFC7" d="M799.707-282.88c0,0.855-0.691,1.551-1.547,1.551
			c-0.857,0-1.55-0.695-1.55-1.551s0.692-1.549,1.55-1.549C799.016-284.429,799.707-283.735,799.707-282.88"/>
		<path clip-path="url(#SVGID_2_)" fill="#CFCFC7" d="M885.789-282.88c0,0.855-0.691,1.551-1.55,1.551
			c-0.854,0-1.548-0.695-1.548-1.551s0.693-1.549,1.548-1.549C885.098-284.429,885.789-283.735,885.789-282.88"/>
		<path clip-path="url(#SVGID_2_)" fill="#CFCFC7" d="M971.87-282.88c0,0.855-0.689,1.551-1.548,1.551
			c-0.855,0-1.55-0.695-1.55-1.551s0.694-1.549,1.55-1.549C971.181-284.429,971.87-283.735,971.87-282.88"/>
		<path clip-path="url(#SVGID_2_)" fill="#CFCFC7" d="M24.963-373.269c0,0.857-0.694,1.551-1.549,1.551
			c-0.857,0-1.55-0.693-1.55-1.551c0-0.854,0.693-1.547,1.55-1.547C24.269-374.815,24.963-374.122,24.963-373.269"/>
		<path clip-path="url(#SVGID_2_)" fill="#CFCFC7" d="M111.045-373.269c0,0.857-0.693,1.551-1.55,1.551
			c-0.854,0-1.547-0.693-1.547-1.551c0-0.854,0.693-1.547,1.547-1.547C110.352-374.815,111.045-374.122,111.045-373.269"/>
		<path clip-path="url(#SVGID_2_)" fill="#CFCFC7" d="M197.128-373.269c0,0.857-0.693,1.551-1.549,1.551
			c-0.854,0-1.549-0.693-1.549-1.551c0-0.854,0.695-1.547,1.549-1.547C196.435-374.815,197.128-374.122,197.128-373.269"/>
		<path clip-path="url(#SVGID_2_)" fill="#CFCFC7" d="M283.211-373.269c0,0.857-0.693,1.551-1.55,1.551
			c-0.854,0-1.549-0.693-1.549-1.551c0-0.854,0.695-1.547,1.549-1.547C282.518-374.815,283.211-374.122,283.211-373.269"/>
		<path clip-path="url(#SVGID_2_)" fill="#CFCFC7" d="M369.294-373.269c0,0.857-0.694,1.551-1.55,1.551s-1.549-0.693-1.549-1.551
			c0-0.854,0.693-1.547,1.549-1.547S369.294-374.122,369.294-373.269"/>
		<path clip-path="url(#SVGID_2_)" fill="#CFCFC7" d="M455.378-373.269c0,0.857-0.693,1.551-1.551,1.551
			c-0.855,0-1.549-0.693-1.549-1.551c0-0.854,0.694-1.547,1.549-1.547C454.685-374.815,455.378-374.122,455.378-373.269"/>
		<path clip-path="url(#SVGID_2_)" fill="#CFCFC7" d="M541.461-373.269c0,0.857-0.695,1.551-1.55,1.551
			c-0.857,0-1.551-0.693-1.551-1.551c0-0.854,0.693-1.547,1.551-1.547C540.766-374.815,541.461-374.122,541.461-373.269"/>
		<path clip-path="url(#SVGID_2_)" fill="#CFCFC7" d="M627.544-373.269c0,0.857-0.695,1.551-1.554,1.551
			c-0.853,0-1.546-0.693-1.546-1.551c0-0.854,0.693-1.547,1.546-1.547C626.849-374.815,627.544-374.122,627.544-373.269"/>
		<path clip-path="url(#SVGID_2_)" fill="#CFCFC7" d="M713.623-373.269c0,0.857-0.694,1.551-1.549,1.551s-1.548-0.693-1.548-1.551
			c0-0.854,0.693-1.547,1.548-1.547S713.623-374.122,713.623-373.269"/>
		<path clip-path="url(#SVGID_2_)" fill="#CFCFC7" d="M799.707-373.269c0,0.857-0.691,1.551-1.547,1.551
			c-0.857,0-1.55-0.693-1.55-1.551c0-0.854,0.692-1.547,1.55-1.547C799.016-374.815,799.707-374.122,799.707-373.269"/>
		<path clip-path="url(#SVGID_2_)" fill="#CFCFC7" d="M885.789-373.269c0,0.857-0.691,1.551-1.55,1.551
			c-0.854,0-1.548-0.693-1.548-1.551c0-0.854,0.693-1.547,1.548-1.547C885.098-374.815,885.789-374.122,885.789-373.269"/>
		<path clip-path="url(#SVGID_2_)" fill="#CFCFC7" d="M971.87-373.269c0,0.857-0.689,1.551-1.548,1.551
			c-0.855,0-1.55-0.693-1.55-1.551c0-0.854,0.694-1.547,1.55-1.547C971.181-374.815,971.87-374.122,971.87-373.269"/>
	</g>
	<g opacity="0.5">
		<g>
			<defs>
				<rect id="SVGID_3_" x="-0.212" y="-857.797" width="234" height="631.444"/>
			</defs>
			<clipPath id="SVGID_4_">
				<use xlink:href="#SVGID_3_"  overflow="visible"/>
			</clipPath>
			<rect x="-0.212" y="-857.797" clip-path="url(#SVGID_4_)" fill="#9F9B9A" width="234" height="631.445"/>
		</g>
	</g>
	<g opacity="0.5">
		<g>
			<defs>
				<rect id="SVGID_5_" x="760.868" y="-857.797" width="234" height="631.444"/>
			</defs>
			<clipPath id="SVGID_6_">
				<use xlink:href="#SVGID_5_"  overflow="visible"/>
			</clipPath>
			<rect x="760.868" y="-857.798" clip-path="url(#SVGID_6_)" fill="#9F9B9A" width="234" height="631.445"/>
		</g>
	</g>
	<polygon points="522.266,-572.192 471.462,-572.192 479.333,-608.516 471.462,-668.481 497.516,-677.303 522.266,-668.973 
		514.003,-608.967 	"/>
	<polygon fill="none" stroke="#000000" stroke-width="2.519" stroke-miterlimit="10" points="522.266,-572.192 471.462,-572.192 
		479.333,-608.516 471.462,-668.481 497.516,-677.303 522.266,-668.973 514.003,-608.967 	"/>
	
		<polygon fill="none" stroke="#000000" stroke-width="4.045" stroke-linecap="round" stroke-linejoin="round" stroke-miterlimit="10" points="
		522.266,-572.192 471.462,-572.192 479.333,-608.516 471.462,-668.481 497.516,-677.303 522.266,-668.973 514.003,-608.967 	"/>
	<g>
		<defs>
			<rect id="SVGID_7_" x="-31.132" y="-1066.212" width="1056" height="1056"/>
		</defs>
		<clipPath id="SVGID_8_">
			<use xlink:href="#SVGID_7_"  overflow="visible"/>
		</clipPath>
		
			<path clip-path="url(#SVGID_8_)" fill="none" stroke="#000000" stroke-width="4.045" stroke-linecap="round" stroke-linejoin="round" stroke-miterlimit="10" d="
			M509.005-700.231c-0.061,9.398-5.263,16.988-11.62,16.947c-6.36-0.043-11.472-7.691-11.415-17.088
			c0.056-9.404,5.254-16.992,11.615-16.953C503.948-717.29,509.062-709.639,509.005-700.231z"/>
		
			<polygon clip-path="url(#SVGID_8_)" fill="none" stroke="#000000" stroke-width="4.045" stroke-linecap="round" stroke-linejoin="round" stroke-miterlimit="10" points="
			503.705,-572.192 522.266,-572.192 522.266,-411.323 509.248,-411.323 509.248,-497.224 		"/>
		
			<polygon clip-path="url(#SVGID_8_)" fill="none" stroke="#000000" stroke-width="4.045" stroke-linecap="round" stroke-linejoin="round" stroke-miterlimit="10" points="
			522.266,-668.973 531.221,-669.895 543.791,-548.459 534.836,-547.534 		"/>
		
			<polygon clip-path="url(#SVGID_8_)" fill="none" stroke="#000000" stroke-width="4.045" stroke-linecap="round" stroke-linejoin="round" stroke-miterlimit="10" points="
			490.026,-572.192 471.47,-572.192 471.47,-411.323 484.484,-411.323 484.484,-497.224 		"/>
		
			<polygon clip-path="url(#SVGID_8_)" fill="none" stroke="#000000" stroke-width="4.045" stroke-linecap="round" stroke-linejoin="round" stroke-miterlimit="10" points="
			471.471,-668.481 462.516,-669.403 449.946,-547.965 458.892,-547.038 		"/>
		
			<polyline clip-path="url(#SVGID_8_)" fill="none" stroke="#101014" stroke-width="2.766" stroke-linecap="round" stroke-linejoin="round" stroke-miterlimit="10" points="
			515.808,-363.97 507.513,-363.06 508.431,-354.772 		"/>
		
			<path clip-path="url(#SVGID_8_)" fill="none" stroke="#101014" stroke-width="2.766" stroke-linecap="round" stroke-linejoin="round" stroke-miterlimit="10" d="
			M507.513-363.06l2.863,2.021c1.914,1.57,3.029,3.465,3.029,5.502c0,5.436-7.941,9.842-17.739,9.842
			c-9.797,0-17.738-4.408-17.738-9.842c0-3.918,4.125-7.301,10.098-8.883"/>
	</g>
	<text transform="matrix(1 0 0 1 75.0391 -711.2124)"><tspan x="0" y="0" fill="#FFFFFF" font-family="'VarelaRound'" font-size="8.3781">T</tspan><tspan x="4.926" y="0" fill="#FFFFFF" font-family="'VarelaRound'" font-size="8.3781">OP</tspan></text>
	<text transform="matrix(1 0 0 1 142.4829 -711.2124)"><tspan x="0" y="0" fill="#FFFFFF" font-family="'VarelaRound'" font-size="8.3781">B</tspan><tspan x="5.806" y="0" fill="#FFFFFF" font-family="'VarelaRound'" font-size="8.3781">O</tspan><tspan x="12.408" y="0" fill="#FFFFFF" font-family="'VarelaRound'" font-size="8.3781">T</tspan><tspan x="17.527" y="0" fill="#FFFFFF" font-family="'VarelaRound'" font-size="8.3781">T</tspan><tspan x="22.453" y="0" fill="#FFFFFF" font-family="'VarelaRound'" font-size="8.3781">OMS</tspan></text>
	<rect x="823.903" y="-449.742" fill="#DFEBED" width="92.164" height="36.849"/>
	<text transform="matrix(1 0 0 1 851.3994 -427.1396)"><tspan x="0" y="0" fill="#231F20" font-family="'Karla-Bold'" font-size="14.5706">S</tspan><tspan x="9.296" y="0" fill="#231F20" font-family="'Karla-Bold'" font-size="14.5706">A</tspan><tspan x="17.965" y="0" fill="#231F20" font-family="'Karla-Bold'" font-size="14.5706">VE</tspan></text>
	<text transform="matrix(1 0 0 1 851.2373 -482.6709)" fill="#FFFFFF" font-family="'VarelaRound'" font-size="8.3781">SHORTS</text>
	<g>
		<defs>
			<rect id="SVGID_9_" x="-31.132" y="-1066.212" width="1056" height="1056"/>
		</defs>
		<clipPath id="SVGID_10_">
			<use xlink:href="#SVGID_9_"  overflow="visible"/>
		</clipPath>
		
			<line clip-path="url(#SVGID_10_)" fill="none" stroke="#FFFFFF" stroke-width="1.676" stroke-miterlimit="10" x1="800.138" y1="-504.231" x2="936.861" y2="-504.231"/>
		<path clip-path="url(#SVGID_10_)" fill="#8BD6A2" d="M823.903-504.231c0,2.061-1.674,3.732-3.734,3.732
			c-2.062,0-3.734-1.672-3.734-3.732c0-2.062,1.672-3.734,3.734-3.734C822.229-507.966,823.903-506.294,823.903-504.231"/>
	</g>
	<text transform="matrix(1 0 0 1 847.1191 -528.0781)"><tspan x="0" y="0" fill="#FFFFFF" font-family="'VarelaRound'" font-size="8.3781">N</tspan><tspan x="6.728" y="0" fill="#FFFFFF" font-family="'VarelaRound'" font-size="8.3781">E</tspan><tspan x="12.014" y="0" fill="#FFFFFF" font-family="'VarelaRound'" font-size="8.3781">CKLINE</tspan></text>
	<g>
		<defs>
			<rect id="SVGID_11_" x="-31.132" y="-1066.212" width="1056" height="1056"/>
		</defs>
		<clipPath id="SVGID_12_">
			<use xlink:href="#SVGID_11_"  overflow="visible"/>
		</clipPath>
		
			<line clip-path="url(#SVGID_12_)" fill="none" stroke="#FFFFFF" stroke-width="1.676" stroke-miterlimit="10" x1="800.138" y1="-549.639" x2="936.861" y2="-549.639"/>
		<path clip-path="url(#SVGID_12_)" fill="#8BD6A2" d="M877.454-549.639c0,2.063-1.674,3.734-3.734,3.734
			c-2.062,0-3.734-1.671-3.734-3.734c0-2.061,1.672-3.734,3.734-3.734C875.78-553.373,877.454-551.7,877.454-549.639"/>
	</g>
	<text transform="matrix(1 0 0 1 844.7109 -573.4849)" fill="#FFFFFF" font-family="'VarelaRound'" font-size="8.3781">TIGHTNESS</text>
	<g>
		<defs>
			<rect id="SVGID_13_" x="-31.132" y="-1066.212" width="1056" height="1056"/>
		</defs>
		<clipPath id="SVGID_14_">
			<use xlink:href="#SVGID_13_"  overflow="visible"/>
		</clipPath>
		
			<line clip-path="url(#SVGID_14_)" fill="none" stroke="#FFFFFF" stroke-width="1.676" stroke-miterlimit="10" x1="800.138" y1="-595.045" x2="936.861" y2="-595.045"/>
		<path clip-path="url(#SVGID_14_)" fill="#8BD6A2" d="M827.638-595.045c0,2.061-1.674,3.734-3.734,3.734
			c-2.062,0-3.734-1.673-3.734-3.734c0-2.063,1.672-3.734,3.734-3.734C825.964-598.779,827.638-597.108,827.638-595.045"/>
	</g>
	<text transform="matrix(1 0 0 1 846.7461 -618.8921)" fill="#FFFFFF" font-family="'VarelaRound'" font-size="8.3781">FULLNESS</text>
	<g>
		<defs>
			<rect id="SVGID_15_" x="-31.132" y="-1066.212" width="1056" height="1056"/>
		</defs>
		<clipPath id="SVGID_16_">
			<use xlink:href="#SVGID_15_"  overflow="visible"/>
		</clipPath>
		
			<line clip-path="url(#SVGID_16_)" fill="none" stroke="#FFFFFF" stroke-width="1.676" stroke-miterlimit="10" x1="800.138" y1="-640.454" x2="936.861" y2="-640.454"/>
		<path clip-path="url(#SVGID_16_)" fill="#8BD6A2" d="M940.596-640.454c0,2.063-1.674,3.734-3.734,3.734
			c-2.062,0-3.734-1.671-3.734-3.734c0-2.061,1.672-3.732,3.734-3.732C938.922-644.186,940.596-642.515,940.596-640.454"/>
	</g>
	<text transform="matrix(1 0 0 1 851.2119 -664.2993)" fill="#FFFFFF" font-family="'VarelaRound'" font-size="8.3781">LENGTH</text>
	<g>
		<defs>
			<rect id="SVGID_17_" x="-31.132" y="-1066.212" width="1056" height="1056"/>
		</defs>
		<clipPath id="SVGID_18_">
			<use xlink:href="#SVGID_17_"  overflow="visible"/>
		</clipPath>
		
			<line clip-path="url(#SVGID_18_)" fill="none" stroke="#FFFFFF" stroke-width="1.676" stroke-miterlimit="10" x1="800.138" y1="-685.86" x2="936.861" y2="-685.86"/>
		<path clip-path="url(#SVGID_18_)" fill="#8BD6A2" d="M916.067-685.86c0,2.063-1.674,3.734-3.734,3.734
			c-2.062,0-3.734-1.671-3.734-3.734s1.672-3.734,3.734-3.734C914.394-689.594,916.067-687.923,916.067-685.86"/>
		<circle clip-path="url(#SVGID_18_)" fill="none" stroke="#8BD6A2" stroke-miterlimit="10" cx="912.333" cy="-685.86" r="3.734"/>
		<rect x="50.031" y="-702.85" clip-path="url(#SVGID_18_)" width="65.729" height="65.729"/>
		<polygon clip-path="url(#SVGID_18_)" fill="#FFFFFF" points="87.51,-671.415 78.281,-671.415 79.71,-678.015 78.281,-688.906 
			83.014,-690.51 87.51,-688.997 86.009,-678.097 		"/>
		<polygon clip-path="url(#SVGID_18_)" fill="none" stroke="#FFFFFF" stroke-width="0.458" stroke-miterlimit="10" points="
			87.51,-671.415 78.281,-671.415 79.71,-678.015 78.281,-688.906 83.014,-690.51 87.51,-688.997 86.009,-678.097 		"/>
		
			<polygon clip-path="url(#SVGID_18_)" fill="none" stroke="#FFFFFF" stroke-width="0.735" stroke-linecap="round" stroke-linejoin="round" stroke-miterlimit="10" points="
			87.51,-671.415 78.281,-671.415 79.71,-678.015 78.281,-688.906 83.014,-690.51 87.51,-688.997 86.009,-678.097 		"/>
		
			<ellipse transform="matrix(1 0.006 -0.006 1 -4.133 -0.5063)" clip-path="url(#SVGID_18_)" fill="none" stroke="#FFFFFF" stroke-width="0.735" stroke-linecap="round" stroke-linejoin="round" stroke-miterlimit="10" cx="83.008" cy="-694.689" rx="2.092" ry="3.091"/>
		
			<polygon clip-path="url(#SVGID_18_)" fill="none" stroke="#FFFFFF" stroke-width="0.735" stroke-linecap="round" stroke-linejoin="round" stroke-miterlimit="10" points="
			84.138,-671.415 87.51,-671.415 87.51,-642.189 85.145,-642.189 85.145,-657.795 		"/>
		
			<rect x="88.648" y="-689.14" transform="matrix(-0.9947 0.1027 -0.1027 -0.9947 108.825 -1361.7029)" clip-path="url(#SVGID_18_)" fill="none" stroke="#FFFFFF" stroke-width="0.735" stroke-linecap="round" stroke-linejoin="round" stroke-miterlimit="10" width="1.636" height="22.179"/>
		
			<polygon clip-path="url(#SVGID_18_)" fill="none" stroke="#FFFFFF" stroke-width="0.735" stroke-linecap="round" stroke-linejoin="round" stroke-miterlimit="10" points="
			81.652,-671.415 78.281,-671.415 78.281,-642.189 80.646,-642.189 80.646,-657.795 		"/>
		
			<rect x="75.508" y="-689.05" transform="matrix(0.9947 0.1027 -0.1027 0.9947 -69.2199 -11.4229)" clip-path="url(#SVGID_18_)" fill="none" stroke="#FFFFFF" stroke-width="0.735" stroke-linecap="round" stroke-linejoin="round" stroke-miterlimit="10" width="1.636" height="22.179"/>
		<path clip-path="url(#SVGID_18_)" fill="#FFFFFF" d="M113.76-618.901H52.03v-16.504h61.73V-618.901z M115.76-637.405H50.03v20.504
			h65.73V-637.405z"/>
		<rect x="130.974" y="-702.849" clip-path="url(#SVGID_18_)" fill="#FFFFFF" width="65.73" height="65.73"/>
		<polygon clip-path="url(#SVGID_18_)" points="168.341,-671.413 159.112,-671.413 160.541,-678.013 159.112,-688.907 
			163.844,-690.511 168.341,-688.995 166.84,-678.095 		"/>
		<polygon clip-path="url(#SVGID_18_)" fill="none" stroke="#000000" stroke-width="0.458" stroke-miterlimit="10" points="
			168.341,-671.413 159.112,-671.413 160.541,-678.013 159.112,-688.907 163.844,-690.511 168.341,-688.995 166.84,-678.095 		"/>
		
			<polygon clip-path="url(#SVGID_18_)" fill="none" stroke="#000000" stroke-width="0.735" stroke-linecap="round" stroke-linejoin="round" stroke-miterlimit="10" points="
			168.341,-671.413 159.112,-671.413 160.541,-678.013 159.112,-688.907 163.844,-690.511 168.341,-688.995 166.84,-678.095 		"/>
		
			<ellipse transform="matrix(1 0.006 -0.006 1 -4.1306 -0.9871)" clip-path="url(#SVGID_18_)" fill="none" stroke="#000000" stroke-width="0.735" stroke-linecap="round" stroke-linejoin="round" stroke-miterlimit="10" cx="163.838" cy="-694.687" rx="2.093" ry="3.091"/>
		
			<polygon clip-path="url(#SVGID_18_)" fill="none" stroke="#000000" stroke-width="0.735" stroke-linecap="round" stroke-linejoin="round" stroke-miterlimit="10" points="
			164.968,-671.413 168.341,-671.413 168.341,-642.188 165.976,-642.188 165.976,-657.793 		"/>
		
			<rect x="169.478" y="-689.138" transform="matrix(-0.9947 0.1027 -0.1027 -0.9947 270.059 -1369.9999)" clip-path="url(#SVGID_18_)" fill="none" stroke="#000000" stroke-width="0.735" stroke-linecap="round" stroke-linejoin="round" stroke-miterlimit="10" width="1.636" height="22.179"/>
		
			<polygon clip-path="url(#SVGID_18_)" fill="none" stroke="#000000" stroke-width="0.735" stroke-linecap="round" stroke-linejoin="round" stroke-miterlimit="10" points="
			162.483,-671.413 159.113,-671.413 159.113,-642.188 161.477,-642.188 161.477,-657.793 		"/>
		
			<rect x="156.339" y="-689.05" transform="matrix(0.9947 0.1026 -0.1026 0.9947 -68.7521 -19.71)" clip-path="url(#SVGID_18_)" fill="none" stroke="#000000" stroke-width="0.735" stroke-linecap="round" stroke-linejoin="round" stroke-miterlimit="10" width="1.637" height="22.181"/>
		<path clip-path="url(#SVGID_18_)" fill="#FFFFFF" d="M194.704-618.901h-61.73v-16.504h61.73V-618.901z M196.704-637.405h-65.73
			v20.504h65.73V-637.405z"/>
		
			<line clip-path="url(#SVGID_18_)" fill="none" stroke="#000000" stroke-width="2.304" stroke-miterlimit="10" x1="160.274" y1="-630.717" x2="167.404" y2="-623.588"/>
	</g>
	<text transform="matrix(1 0 0 1 71.5752 -594.689)" fill="#FFFFFF" font-family="'VarelaRound'" font-size="8.3781">SKIRT</text>
	<text transform="matrix(1 0 0 1 147.9497 -594.689)"><tspan x="0" y="0" fill="#FFFFFF" font-family="'VarelaRound'" font-size="8.3781">J</tspan><tspan x="3.904" y="0" fill="#FFFFFF" font-family="'VarelaRound'" font-size="8.3781">A</tspan><tspan x="9.635" y="0" fill="#FFFFFF" font-family="'VarelaRound'" font-size="8.3781">CKET</tspan></text>
	<g>
		<defs>
			<rect id="SVGID_19_" x="-31.132" y="-1066.212" width="1056" height="1056"/>
		</defs>
		<clipPath id="SVGID_20_">
			<use xlink:href="#SVGID_19_"  overflow="visible"/>
		</clipPath>
		<rect x="50.031" y="-586.327" clip-path="url(#SVGID_20_)" fill="#FFFFFF" width="65.729" height="65.729"/>
		<polygon clip-path="url(#SVGID_20_)" points="87.51,-554.893 78.281,-554.893 79.71,-561.491 78.281,-572.383 83.014,-573.989 
			87.51,-572.475 86.009,-561.573 		"/>
		<polygon clip-path="url(#SVGID_20_)" fill="none" stroke="#000000" stroke-width="0.458" stroke-miterlimit="10" points="
			87.51,-554.893 78.281,-554.893 79.71,-561.491 78.281,-572.383 83.014,-573.989 87.51,-572.475 86.009,-561.573 		"/>
		
			<polygon clip-path="url(#SVGID_20_)" fill="none" stroke="#000000" stroke-width="0.735" stroke-linecap="round" stroke-linejoin="round" stroke-miterlimit="10" points="
			87.51,-554.893 78.281,-554.893 79.71,-561.491 78.281,-572.383 83.014,-573.989 87.51,-572.475 86.009,-561.573 		"/>
		
			<ellipse transform="matrix(1 0.006 -0.006 1 -3.4395 -0.5043)" clip-path="url(#SVGID_20_)" fill="none" stroke="#000000" stroke-width="0.735" stroke-linecap="round" stroke-linejoin="round" stroke-miterlimit="10" cx="83.008" cy="-578.165" rx="2.092" ry="3.091"/>
		
			<polygon clip-path="url(#SVGID_20_)" fill="none" stroke="#000000" stroke-width="0.735" stroke-linecap="round" stroke-linejoin="round" stroke-miterlimit="10" points="
			84.138,-554.893 87.51,-554.893 87.51,-525.667 85.145,-525.667 85.145,-541.272 		"/>
		
			<rect x="88.648" y="-572.617" transform="matrix(-0.9948 0.1015 -0.1015 -0.9948 121.4658 -1129.2363)" clip-path="url(#SVGID_20_)" fill="none" stroke="#000000" stroke-width="0.735" stroke-linecap="round" stroke-linejoin="round" stroke-miterlimit="10" width="1.635" height="22.179"/>
		
			<polygon clip-path="url(#SVGID_20_)" fill="none" stroke="#000000" stroke-width="0.735" stroke-linecap="round" stroke-linejoin="round" stroke-miterlimit="10" points="
			81.652,-554.893 78.281,-554.893 78.281,-525.667 80.646,-525.667 80.646,-541.272 		"/>
		
			<rect x="75.508" y="-572.527" transform="matrix(0.9946 0.1039 -0.1039 0.9946 -57.9073 -10.9658)" clip-path="url(#SVGID_20_)" fill="none" stroke="#000000" stroke-width="0.735" stroke-linecap="round" stroke-linejoin="round" stroke-miterlimit="10" width="1.636" height="22.181"/>
		<path clip-path="url(#SVGID_20_)" fill="#FFFFFF" d="M113.76-502.38H52.03v-16.504h61.73V-502.38z M115.76-520.884H50.03v20.504
			h65.73V-520.884z"/>
		<rect x="130.974" y="-586.326" clip-path="url(#SVGID_20_)" fill="#FFFFFF" width="65.73" height="65.728"/>
		<polygon clip-path="url(#SVGID_20_)" points="168.341,-554.891 159.112,-554.891 160.541,-561.489 159.112,-572.383 
			163.844,-573.987 168.341,-572.471 166.84,-561.573 		"/>
		<polygon clip-path="url(#SVGID_20_)" fill="none" stroke="#000000" stroke-width="0.458" stroke-miterlimit="10" points="
			168.341,-554.891 159.112,-554.891 160.541,-561.489 159.112,-572.383 163.844,-573.987 168.341,-572.471 166.84,-561.573 		"/>
		
			<polygon clip-path="url(#SVGID_20_)" fill="none" stroke="#000000" stroke-width="0.735" stroke-linecap="round" stroke-linejoin="round" stroke-miterlimit="10" points="
			168.341,-554.891 159.112,-554.891 160.541,-561.489 159.112,-572.383 163.844,-573.987 168.341,-572.471 166.84,-561.573 		"/>
		
			<ellipse transform="matrix(1 0.006 -0.006 1 -3.4373 -0.9851)" clip-path="url(#SVGID_20_)" fill="none" stroke="#000000" stroke-width="0.735" stroke-linecap="round" stroke-linejoin="round" stroke-miterlimit="10" cx="163.838" cy="-578.165" rx="2.093" ry="3.093"/>
		
			<polygon clip-path="url(#SVGID_20_)" fill="none" stroke="#000000" stroke-width="0.735" stroke-linecap="round" stroke-linejoin="round" stroke-miterlimit="10" points="
			164.968,-554.891 168.341,-554.891 168.341,-525.665 165.976,-525.665 165.976,-541.27 		"/>
		
			<rect x="169.478" y="-572.615" transform="matrix(-0.9946 0.1039 -0.1039 -0.9946 281.3412 -1137.7014)" clip-path="url(#SVGID_20_)" fill="none" stroke="#000000" stroke-width="0.735" stroke-linecap="round" stroke-linejoin="round" stroke-miterlimit="10" width="1.636" height="22.181"/>
		
			<polygon clip-path="url(#SVGID_20_)" fill="none" stroke="#000000" stroke-width="0.735" stroke-linecap="round" stroke-linejoin="round" stroke-miterlimit="10" points="
			162.483,-554.891 159.113,-554.891 159.113,-525.665 161.477,-525.665 161.477,-541.27 		"/>
		
			<rect x="156.339" y="-572.526" transform="matrix(0.9947 0.1026 -0.1026 0.9947 -56.7928 -19.0947)" clip-path="url(#SVGID_20_)" fill="none" stroke="#000000" stroke-width="0.735" stroke-linecap="round" stroke-linejoin="round" stroke-miterlimit="10" width="1.637" height="22.181"/>
		<path clip-path="url(#SVGID_20_)" fill="#FFFFFF" d="M194.704-502.378h-61.73v-16.504h61.73V-502.378z M196.704-520.882h-65.73
			v20.504h65.73V-520.882z"/>
	</g>
	<text transform="matrix(1 0 0 1 69.7402 -478.167)" fill="#FFFFFF" font-family="'VarelaRound'" font-size="8.3781">DRESS</text>
	<text transform="matrix(1 0 0 1 142.4873 -478.167)"><tspan x="0" y="0" fill="#FFFFFF" font-family="'VarelaRound'" font-size="8.3781">B</tspan><tspan x="5.806" y="0" fill="#FFFFFF" font-family="'VarelaRound'" font-size="8.3781">O</tspan><tspan x="12.408" y="0" fill="#FFFFFF" font-family="'VarelaRound'" font-size="8.3781">T</tspan><tspan x="17.527" y="0" fill="#FFFFFF" font-family="'VarelaRound'" font-size="8.3781">T</tspan><tspan x="22.445" y="0" fill="#FFFFFF" font-family="'VarelaRound'" font-size="8.3781">OMS</tspan></text>
	<g>
		<defs>
			<rect id="SVGID_21_" x="-31.132" y="-1066.212" width="1056" height="1056"/>
		</defs>
		<clipPath id="SVGID_22_">
			<use xlink:href="#SVGID_21_"  overflow="visible"/>
		</clipPath>
		<rect x="50.031" y="-469.804" clip-path="url(#SVGID_22_)" fill="#FFFFFF" width="65.729" height="65.729"/>
		<polygon clip-path="url(#SVGID_22_)" points="87.51,-438.37 78.281,-438.37 79.71,-444.968 78.281,-455.862 83.014,-457.466 
			87.51,-455.952 86.009,-445.052 		"/>
		<polygon clip-path="url(#SVGID_22_)" fill="none" stroke="#000000" stroke-width="0.458" stroke-miterlimit="10" points="
			87.51,-438.37 78.281,-438.37 79.71,-444.968 78.281,-455.862 83.014,-457.466 87.51,-455.952 86.009,-445.052 		"/>
		
			<polygon clip-path="url(#SVGID_22_)" fill="none" stroke="#000000" stroke-width="0.735" stroke-linecap="round" stroke-linejoin="round" stroke-miterlimit="10" points="
			87.51,-438.37 78.281,-438.37 79.71,-444.968 78.281,-455.862 83.014,-457.466 87.51,-455.952 86.009,-445.052 		"/>
		
			<ellipse transform="matrix(1 0.0056 -0.0056 1 -2.5846 -0.4722)" clip-path="url(#SVGID_22_)" fill="none" stroke="#000000" stroke-width="0.735" stroke-linecap="round" stroke-linejoin="round" stroke-miterlimit="10" cx="83.008" cy="-461.644" rx="2.092" ry="3.092"/>
		
			<polygon clip-path="url(#SVGID_22_)" fill="none" stroke="#000000" stroke-width="0.735" stroke-linecap="round" stroke-linejoin="round" stroke-miterlimit="10" points="
			84.138,-438.37 87.51,-438.37 87.51,-409.144 85.145,-409.144 85.145,-424.749 		"/>
		
			<rect x="88.648" y="-456.095" transform="matrix(-0.9947 0.1027 -0.1027 -0.9947 132.7577 -896.8437)" clip-path="url(#SVGID_22_)" fill="none" stroke="#000000" stroke-width="0.735" stroke-linecap="round" stroke-linejoin="round" stroke-miterlimit="10" width="1.636" height="22.181"/>
		
			<polygon clip-path="url(#SVGID_22_)" fill="none" stroke="#000000" stroke-width="0.735" stroke-linecap="round" stroke-linejoin="round" stroke-miterlimit="10" points="
			81.652,-438.37 78.281,-438.37 78.281,-409.144 80.646,-409.144 80.646,-424.749 		"/>
		
			<rect x="75.508" y="-456.005" transform="matrix(0.9947 0.1027 -0.1027 0.9947 -45.2872 -10.1907)" clip-path="url(#SVGID_22_)" fill="none" stroke="#000000" stroke-width="0.735" stroke-linecap="round" stroke-linejoin="round" stroke-miterlimit="10" width="1.636" height="22.18"/>
		<path clip-path="url(#SVGID_22_)" fill="#FFFFFF" d="M113.76-385.856H52.03v-16.505h61.73V-385.856z M115.76-404.36H50.03v20.505
			h65.73V-404.36z"/>
		<rect x="130.974" y="-469.803" clip-path="url(#SVGID_22_)" fill="#FFFFFF" width="65.73" height="65.729"/>
		<polygon clip-path="url(#SVGID_22_)" points="168.341,-438.368 159.112,-438.368 160.541,-444.966 159.112,-455.86 
			163.844,-457.464 168.341,-455.948 166.84,-445.05 		"/>
		<polygon clip-path="url(#SVGID_22_)" fill="none" stroke="#000000" stroke-width="0.458" stroke-miterlimit="10" points="
			168.341,-438.368 159.112,-438.368 160.541,-444.966 159.112,-455.86 163.844,-457.464 168.341,-455.948 166.84,-445.05 		"/>
		
			<polygon clip-path="url(#SVGID_22_)" fill="none" stroke="#000000" stroke-width="0.735" stroke-linecap="round" stroke-linejoin="round" stroke-miterlimit="10" points="
			168.341,-438.368 159.112,-438.368 160.541,-444.966 159.112,-455.86 163.844,-457.464 168.341,-455.948 166.84,-445.05 		"/>
		
			<ellipse transform="matrix(1 0.0061 -0.0061 1 -2.7977 -1.0025)" clip-path="url(#SVGID_22_)" fill="none" stroke="#000000" stroke-width="0.735" stroke-linecap="round" stroke-linejoin="round" stroke-miterlimit="10" cx="163.838" cy="-461.643" rx="2.093" ry="3.093"/>
		
			<polygon clip-path="url(#SVGID_22_)" fill="none" stroke="#000000" stroke-width="0.735" stroke-linecap="round" stroke-linejoin="round" stroke-miterlimit="10" points="
			164.968,-438.368 168.341,-438.368 168.341,-409.141 165.976,-409.141 165.976,-424.747 		"/>
		
			<rect x="169.478" y="-456.092" transform="matrix(-0.9946 0.1039 -0.1039 -0.9946 293.4452 -905.2863)" clip-path="url(#SVGID_22_)" fill="none" stroke="#000000" stroke-width="0.735" stroke-linecap="round" stroke-linejoin="round" stroke-miterlimit="10" width="1.636" height="22.18"/>
		
			<polygon clip-path="url(#SVGID_22_)" fill="none" stroke="#000000" stroke-width="0.735" stroke-linecap="round" stroke-linejoin="round" stroke-miterlimit="10" points="
			162.483,-438.368 159.113,-438.368 159.113,-409.141 161.477,-409.141 161.477,-424.747 		"/>
		
			<rect x="156.339" y="-456.003" transform="matrix(0.9947 0.1026 -0.1026 0.9947 -44.8335 -18.4793)" clip-path="url(#SVGID_22_)" fill="none" stroke="#000000" stroke-width="0.735" stroke-linecap="round" stroke-linejoin="round" stroke-miterlimit="10" width="1.637" height="22.181"/>
		<path clip-path="url(#SVGID_22_)" fill="#FFFFFF" d="M194.704-385.856h-61.73v-16.503h61.73V-385.856z M196.704-404.358h-65.73
			v20.503h65.73V-404.358z"/>
		<polyline clip-path="url(#SVGID_22_)" fill="none" stroke="#101014" stroke-width="2.304" stroke-miterlimit="10" points="
			76.447,-627.834 79.898,-624.383 86.346,-630.833 		"/>
		
			<line clip-path="url(#SVGID_22_)" fill="none" stroke="#101014" stroke-width="2.304" stroke-miterlimit="10" x1="160.161" y1="-623.702" x2="167.29" y2="-630.831"/>
		
			<line clip-path="url(#SVGID_22_)" fill="none" stroke="#101014" stroke-width="2.304" stroke-miterlimit="10" x1="160.274" y1="-514.194" x2="167.404" y2="-507.065"/>
		
			<line clip-path="url(#SVGID_22_)" fill="none" stroke="#101014" stroke-width="2.304" stroke-miterlimit="10" x1="160.161" y1="-507.179" x2="167.29" y2="-514.308"/>
		
			<line clip-path="url(#SVGID_22_)" fill="none" stroke="#101014" stroke-width="2.304" stroke-miterlimit="10" x1="79.386" y1="-514.194" x2="86.516" y2="-507.065"/>
		
			<line clip-path="url(#SVGID_22_)" fill="none" stroke="#101014" stroke-width="2.304" stroke-miterlimit="10" x1="79.272" y1="-507.179" x2="86.401" y2="-514.308"/>
		<polyline clip-path="url(#SVGID_22_)" fill="none" stroke="#101014" stroke-width="2.304" stroke-miterlimit="10" points="
			76.447,-394.79 79.898,-391.339 86.346,-397.786 		"/>
		
			<line clip-path="url(#SVGID_22_)" fill="none" stroke="#101014" stroke-width="2.304" stroke-miterlimit="10" x1="160.274" y1="-397.673" x2="167.404" y2="-390.542"/>
		
			<line clip-path="url(#SVGID_22_)" fill="none" stroke="#101014" stroke-width="2.304" stroke-miterlimit="10" x1="160.161" y1="-390.657" x2="167.29" y2="-397.786"/>
		
			<circle clip-path="url(#SVGID_22_)" fill="none" stroke="#101014" stroke-width="1.44" stroke-linecap="round" stroke-linejoin="round" stroke-miterlimit="10" cx="610.505" cy="-266.735" r="13.2"/>
		
			<line clip-path="url(#SVGID_22_)" fill="none" stroke="#101014" stroke-width="1.44" stroke-linecap="round" stroke-linejoin="round" stroke-miterlimit="10" x1="602.122" y1="-266.735" x2="618.89" y2="-266.735"/>
		
			<polyline clip-path="url(#SVGID_22_)" fill="none" stroke="#101014" stroke-width="1.44" stroke-linecap="round" stroke-linejoin="round" stroke-miterlimit="10" points="
			614.498,-262.353 618.89,-266.743 614.498,-271.123 		"/>
		
			<circle clip-path="url(#SVGID_22_)" fill="none" stroke="#101014" stroke-width="1.44" stroke-linecap="round" stroke-linejoin="round" stroke-miterlimit="10" cx="383.596" cy="-266.733" r="13.2"/>
		
			<line clip-path="url(#SVGID_22_)" fill="none" stroke="#101014" stroke-width="1.44" stroke-linecap="round" stroke-linejoin="round" stroke-miterlimit="10" x1="391.98" y1="-266.733" x2="375.212" y2="-266.733"/>
		
			<polyline clip-path="url(#SVGID_22_)" fill="none" stroke="#101014" stroke-width="1.44" stroke-linecap="round" stroke-linejoin="round" stroke-miterlimit="10" points="
			379.604,-271.116 375.212,-266.726 379.604,-262.343 		"/>
		<path clip-path="url(#SVGID_22_)" fill="#FFFFFF" d="M957.226-808.612c6.135,16.57-2.324,34.975-18.895,41.111
			c-16.568,6.135-34.975-2.326-41.107-18.894c-6.135-16.569,2.323-34.975,18.892-41.11
			C932.685-833.639,951.091-825.182,957.226-808.612"/>
		<path clip-path="url(#SVGID_22_)" fill="#CFCFC7" d="M924.485-800.907c0,0.529-0.423,0.953-0.953,0.953
			c-0.593,0-0.975-0.381-0.975-0.953v-0.637c0-1.396-0.084-4.279-3.283-4.279h-4.388v4.916c0,0.529-0.445,0.953-0.975,0.953
			s-0.953-0.424-0.953-0.953v-12.969c0-0.529,0.424-0.974,0.953-0.974h4.938c4.025,0,5.763,1.863,5.763,4.301
			c0,1.632-0.911,3.201-2.775,3.836c2.353,0.613,2.647,3.644,2.647,4.83V-800.907z M922.685-810.401
			c0-1.568-0.931-2.629-4.067-2.629h-3.73v5.385h3.836C921.096-807.645,922.685-808.598,922.685-810.401"/>
		<path clip-path="url(#SVGID_22_)" fill="#CFCFC7" d="M924.316-784.077c0,2.396-2.142,4.133-5.426,4.133
			c-2.118,0-3.815-0.488-5.043-1.016c-0.317-0.127-0.595-0.488-0.595-0.869c0-0.467,0.34-0.891,0.869-0.891
			c0.129,0,0.256,0.022,0.403,0.084c0.953,0.426,2.353,0.87,4.173,0.87c2.099,0,3.71-0.592,3.71-2.436
			c0-3.139-9.006-1.4-9.006-6.613c0-2.354,1.907-4.342,5.488-4.342c1.651,0,3.072,0.273,4.216,0.699
			c0.297,0.104,0.594,0.338,0.594,0.846c0,0.424-0.318,0.89-0.848,0.89c-0.105,0-0.232-0.043-0.338-0.084
			c-0.976-0.339-2.12-0.574-3.412-0.574c-2.141,0-3.771,0.828-3.771,2.418C915.332-787.295,924.316-789.67,924.316-784.077"/>
		<path clip-path="url(#SVGID_22_)" fill="#CFCFC7" d="M944.169-807.456c-0.085,4.43-2.924,7.609-7.438,7.609
			c-4.536,0-7.353-3.179-7.439-7.609c0.087-4.428,2.903-7.607,7.439-7.607C941.245-815.062,944.084-811.884,944.169-807.456
			 M942.239-807.456c0-3.264-2.011-5.807-5.508-5.807c-3.519,0-5.512,2.543-5.512,5.807s1.993,5.807,5.512,5.807
			C940.229-801.648,942.239-804.191,942.239-807.456"/>
		<path clip-path="url(#SVGID_22_)" fill="#CFCFC7" d="M941.913-781.045c0,0.51-0.403,0.891-0.911,0.891h-8.498
			c-0.53,0-0.955-0.424-0.955-0.953v-12.864c0-0.531,0.425-0.974,0.955-0.974h8.498c0.508,0,0.911,0.402,0.911,0.91
			c0,0.508-0.403,0.89-0.911,0.89h-7.524v4.682h6.762c0.508,0,0.911,0.404,0.911,0.912c0,0.508-0.403,0.891-0.911,0.891h-6.762
			v4.705h7.524C941.51-781.956,941.913-781.555,941.913-781.045"/>
		
			<line clip-path="url(#SVGID_22_)" fill="none" stroke="#101014" stroke-width="0.5" stroke-miterlimit="10" x1="406.868" y1="-802.961" x2="586.868" y2="-802.961"/>
	</g>
	<text transform="matrix(1 0 0 1 384.0679 -815.1768)"><tspan x="0" y="0" fill="#101014" font-family="'Garamond'" font-size="14.1985" letter-spacing="3">G</tspan><tspan x="14" y="0" fill="#101014" font-family="'Garamond'" font-size="14.1985" letter-spacing="2">OO</tspan><tspan x="41.836" y="0" fill="#101014" font-family="'Garamond'" font-size="14.1985" letter-spacing="2">G</tspan><tspan x="55.381" y="0" fill="#101014" font-family="'Garamond'" font-size="14.1985" letter-spacing="3">L</tspan><tspan x="66.666" y="0" fill="#101014" font-family="'Garamond'" font-size="14.1985" letter-spacing="2">E </tspan><tspan x="85.184" y="0" fill="#101014" font-family="'Garamond'" font-size="14.1985" letter-spacing="2">+ </tspan><tspan x="103.876" y="0" fill="#101014" font-family="'Garamond'" font-size="14.1985" letter-spacing="1">F</tspan><tspan x="113.808" y="0" fill="#101014" font-family="'Garamond'" font-size="14.1985" letter-spacing="3">A</tspan><tspan x="126.562" y="0" fill="#101014" font-family="'Garamond'" font-size="14.1985" letter-spacing="2">S</tspan><tspan x="136.003" y="0" fill="#101014" font-family="'Garamond'" font-size="14.1985" letter-spacing="3">H</tspan><tspan x="149.951" y="0" fill="#101014" font-family="'Garamond'" font-size="14.1985" letter-spacing="2">I</tspan><tspan x="157.461" y="0" fill="#101014" font-family="'Garamond'" font-size="14.1985" letter-spacing="2">O</tspan><tspan x="171.138" y="0" fill="#101014" font-family="'Garamond'" font-size="14.1985" letter-spacing="2">N</tspan><tspan x="184.924" y="0" fill="#101014" font-family="'Garamond'" font-size="14.1985" letter-spacing="2"> </tspan><tspan x="191.3" y="0" fill="#101014" font-family="'Garamond'" font-size="14.1985" letter-spacing="3">2</tspan><tspan x="201.037" y="0" fill="#101014" font-family="'Garamond'" font-size="14.1985" letter-spacing="2">0</tspan><tspan x="210.276" y="0" fill="#101014" font-family="'Garamond'" font-size="14.1985" letter-spacing="1">1</tspan><tspan x="218.834" y="0" fill="#101014" font-family="'Garamond'" font-size="14.1985">4</tspan></text>
	<text transform="matrix(1 0 0 1 417.1387 -780.0591)"><tspan x="0" y="0" fill="#101014" font-family="'Karla-Regular'" font-size="14" letter-spacing="2">COLL</tspan><tspan x="41.93" y="0" fill="#101014" font-family="'Karla-Regular'" font-size="14" letter-spacing="2">E</tspan><tspan x="52.583" y="0" fill="#101014" font-family="'Karla-Regular'" font-size="14" letter-spacing="2">CT</tspan><tspan x="73.779" y="0" fill="#101014" font-family="'Karla-Regular'" font-size="14" letter-spacing="2">ION</tspan><tspan x="104.691" y="0" fill="#101014" font-family="'Karla-Regular'" font-size="14" letter-spacing="2"> </tspan><tspan x="110.823" y="0" fill="#101014" font-family="'Karla-Regular'" font-size="14" letter-spacing="2">NA</tspan><tspan x="134.035" y="0" fill="#101014" font-family="'Karla-Regular'" font-size="14" letter-spacing="2">M</tspan><tspan x="148.707" y="0" fill="#101014" font-family="'Karla-Regular'" font-size="14">E</tspan></text>
	<text transform="matrix(1 0 0 1 451.2007 -253.0146)"><tspan x="0" y="0" fill="#101014" font-family="'Karla-Regular'" font-size="14" letter-spacing="2">G</tspan><tspan x="11.774" y="0" fill="#101014" font-family="'Karla-Regular'" font-size="14" letter-spacing="2">A</tspan><tspan x="22.428" y="0" fill="#101014" font-family="'Karla-Regular'" font-size="14" letter-spacing="2">R</tspan><tspan x="33.417" y="0" fill="#101014" font-family="'Karla-Regular'" font-size="14" letter-spacing="2">M</tspan><tspan x="47.753" y="0" fill="#101014" font-family="'Karla-Regular'" font-size="14" letter-spacing="2">E</tspan><tspan x="57.931" y="0" fill="#101014" font-family="'Karla-Regular'" font-size="14" letter-spacing="2">NT</tspan><tspan x="80.023" y="0" fill="#101014" font-family="'Karla-Regular'" font-size="14">S</tspan></text>
	<g>
		<defs>
			<rect id="SVGID_23_" x="-31.132" y="-1066.212" width="1056" height="1056"/>
		</defs>
		<clipPath id="SVGID_24_">
			<use xlink:href="#SVGID_23_"  overflow="visible"/>
		</clipPath>
		
			<circle clip-path="url(#SVGID_24_)" fill="none" stroke="#101014" stroke-width="1.44" stroke-linecap="round" stroke-linejoin="round" stroke-miterlimit="10" cx="456.913" cy="-280.524" r="3.354"/>
		
			<circle clip-path="url(#SVGID_24_)" fill="none" stroke="#101014" stroke-width="1.44" stroke-linecap="round" stroke-linejoin="round" stroke-miterlimit="10" cx="472.896" cy="-280.524" r="3.354"/>
		<path clip-path="url(#SVGID_24_)" fill="#F61816" d="M488.876-277.171c-1.852,0-3.352-1.502-3.352-3.354s1.5-3.354,3.352-3.354
			c1.854,0,3.354,1.502,3.354,3.354S490.73-277.171,488.876-277.171"/>
		<circle clip-path="url(#SVGID_24_)" fill="none" stroke="#F61816" stroke-miterlimit="10" cx="488.876" cy="-280.524" r="3.354"/>
		
			<circle clip-path="url(#SVGID_24_)" fill="none" stroke="#101014" stroke-width="1.44" stroke-linecap="round" stroke-linejoin="round" stroke-miterlimit="10" cx="504.858" cy="-280.524" r="3.354"/>
		
			<circle clip-path="url(#SVGID_24_)" fill="none" stroke="#101014" stroke-width="1.44" stroke-linecap="round" stroke-linejoin="round" stroke-miterlimit="10" cx="520.839" cy="-280.524" r="3.354"/>
		
			<circle clip-path="url(#SVGID_24_)" fill="none" stroke="#101014" stroke-width="1.44" stroke-linecap="round" stroke-linejoin="round" stroke-miterlimit="10" cx="536.821" cy="-280.524" r="3.354"/>
	</g>
	<text transform="matrix(1 0 0 1 11.8799 -238.7783)"><tspan x="0" y="0" fill="#404D4F" font-family="'Karla-Bold'" font-size="10">Google | Privacy &amp; </tspan><tspan x="89.679" y="0" fill="#404D4F" font-family="'Karla-Bold'" font-size="10">T</tspan><tspan x="94.168" y="0" fill="#404D4F" font-family="'Karla-Bold'" font-size="10">erms</tspan></text>
	<text transform="matrix(1 0 0 1 130.27 -238.7783)" fill="#404D4F" font-family="'Karla-Bold'" font-size="10"> | Logout</text>
	<g>
		<defs>
			<rect id="SVGID_25_" x="-31.132" y="-1066.212" width="1056" height="1056"/>
		</defs>
		<clipPath id="SVGID_26_">
			<use xlink:href="#SVGID_25_"  overflow="visible"/>
		</clipPath>
		
			<line clip-path="url(#SVGID_26_)" fill="none" stroke="#101014" stroke-width="1.44" stroke-linecap="round" stroke-linejoin="round" stroke-miterlimit="10" x1="496.868" y1="-795.158" x2="496.868" y2="-912.212"/>
	</g>
	<text transform="matrix(1 0 0 1 451.166 -958.9624)"><tspan x="0" y="0" fill="#101014" font-family="'VarelaRound'" font-size="10.9061">DISPL</tspan><tspan x="31.583" y="0" fill="#101014" font-family="'VarelaRound'" font-size="10.9061">A</tspan><tspan x="38.498" y="0" fill="#101014" font-family="'VarelaRound'" font-size="10.9061">Y</tspan><tspan x="45.445" y="0" fill="#101014" font-family="'VarelaRound'" font-size="10.9061">S USERS</tspan></text>
	<text transform="matrix(1 0 0 1 450.5771 -945.875)" fill="#101014" font-family="'VarelaRound'" font-size="10.9061">INPUTTED NAME</text>
	<g display="none">
		<defs>
			<rect id="SVGID_27_" x="-3288.172" y="-1066.212" width="8645.261" height="2170.439"/>
		</defs>
		<clipPath id="SVGID_28_" display="inline">
			<use xlink:href="#SVGID_27_"  overflow="visible"/>
		</clipPath>
		<path display="inline" clip-path="url(#SVGID_28_)" fill-rule="evenodd" clip-rule="evenodd" fill="#FF0000" d="M924.859-10.212
			h57.009v-1056h-57.009V-10.212z M841.877-10.212h56.979v-1056h-56.979V-10.212z M758.866-10.212h57.008v-1056h-57.008V-10.212z
			 M675.882-10.212h56.981v-1056h-56.981V-10.212z M592.872-10.212h57.009v-1056h-57.009V-10.212z M509.861-10.212h57.008v-1056
			h-57.008V-10.212z M426.878-10.212h56.98v-1056h-56.98V-10.212z M343.867-10.212h57.008v-1056h-57.008V-10.212z M260.856-10.212
			h57.008v-1056h-57.008V-10.212z M177.874-10.212h56.98v-1056h-56.98V-10.212z M94.862-10.212h57.008v-1056H94.862V-10.212z
			 M11.88-10.212h56.979v-1056H11.88V-10.212z"/>
	</g>
	<polygon points="37.002,31.072 27.773,31.072 29.202,24.473 27.773,13.578 32.505,11.975 37.002,13.49 35.501,24.391 	"/>
	<polygon fill="none" stroke="#000000" stroke-width="0.458" stroke-miterlimit="10" points="37.002,31.072 27.773,31.072 
		29.202,24.473 27.773,13.578 32.505,11.975 37.002,13.49 35.501,24.391 	"/>
	
		<polygon fill="none" stroke="#000000" stroke-width="0.735" stroke-linecap="round" stroke-linejoin="round" stroke-miterlimit="10" points="
		37.002,31.072 27.773,31.072 29.202,24.473 27.773,13.578 32.505,11.975 37.002,13.49 35.501,24.391 	"/>
	
		<ellipse transform="matrix(1 0.0058 -0.0058 1 0.0461 -0.1895)" fill="none" stroke="#000000" stroke-width="0.735" stroke-linecap="round" stroke-linejoin="round" stroke-miterlimit="10" cx="32.5" cy="7.798" rx="2.092" ry="3.09"/>
	
		<polygon fill="none" stroke="#000000" stroke-width="0.735" stroke-linecap="round" stroke-linejoin="round" stroke-miterlimit="10" points="
		33.629,31.072 37.002,31.072 37.002,60.298 34.637,60.298 34.637,44.691 	"/>
	
		<rect x="38.139" y="13.347" transform="matrix(-0.9947 0.1027 -0.1027 -0.9947 80.2177 44.7441)" fill="none" stroke="#000000" stroke-width="0.735" stroke-linecap="round" stroke-linejoin="round" stroke-miterlimit="10" width="1.636" height="22.179"/>
	
		<polygon fill="none" stroke="#000000" stroke-width="0.735" stroke-linecap="round" stroke-linejoin="round" stroke-miterlimit="10" points="
		31.145,31.072 27.774,31.072 27.774,60.298 30.138,60.298 30.138,44.691 	"/>
	
		<rect x="25.001" y="13.435" transform="matrix(0.9947 0.1026 -0.1026 0.9947 2.6535 -2.5204)" fill="none" stroke="#000000" stroke-width="0.735" stroke-linecap="round" stroke-linejoin="round" stroke-miterlimit="10" width="1.637" height="22.181"/>
	<path fill="#101014" d="M114.289-142.902c-7.444,0-13.5-6.056-13.5-13.499c0-7.444,6.056-13.501,13.5-13.501
		c7.444,0,13.5,6.057,13.5,13.501C127.788-148.958,121.732-142.902,114.289-142.902z M114.289-168.506
		c-6.674,0-12.104,5.431-12.104,12.104c0,6.673,5.429,12.103,12.104,12.103c6.674,0,12.103-5.43,12.103-12.103
		C126.392-163.075,120.962-168.506,114.289-168.506z"/>
	<path fill="#101014" d="M122.672-155.682h-16.768c-0.397,0-0.72-0.322-0.72-0.72s0.323-0.72,0.72-0.72h16.768
		c0.397,0,0.72,0.322,0.72,0.72S123.07-155.682,122.672-155.682z"/>
	<path fill="#101014" d="M110.295-151.291c-0.184,0-0.368-0.07-0.509-0.21l-4.391-4.383c-0.135-0.135-0.211-0.318-0.211-0.51
		c0-0.19,0.076-0.374,0.211-0.509l4.391-4.391c0.281-0.281,0.737-0.281,1.019,0s0.281,0.736,0,1.018l-3.882,3.882l3.881,3.873
		c0.281,0.281,0.282,0.737,0.001,1.019C110.665-151.361,110.48-151.291,110.295-151.291z"/>
	<path fill="#101014" d="M205.917-149.1c-0.696,0-1.295-0.523-1.373-1.23l-0.918-8.287c-0.041-0.365,0.066-0.73,0.295-1.018
		c0.229-0.286,0.563-0.47,0.928-0.51l8.295-0.91c0.759-0.077,1.442,0.464,1.525,1.225c0.083,0.759-0.464,1.441-1.224,1.525
		l-6.919,0.759l0.766,6.911c0.084,0.759-0.463,1.442-1.222,1.527C206.02-149.103,205.968-149.1,205.917-149.1z"/>
	<path fill="#101014" d="M193.155-140.021c-10.722,0-19.121-4.931-19.121-11.225c0-4.486,4.263-8.401,11.126-10.22
		c0.737-0.194,1.495,0.245,1.691,0.982c0.195,0.738-0.245,1.496-0.983,1.691c-5.509,1.459-9.069,4.421-9.069,7.546
		c0,4.585,7.49,8.459,16.355,8.459s16.355-3.874,16.355-8.459c0-1.952-1.373-3.488-2.523-4.433l-2.784-1.961
		c-0.624-0.44-0.772-1.304-0.332-1.928c0.441-0.625,1.304-0.771,1.928-0.332l2.863,2.021c2.392,1.958,3.614,4.23,3.614,6.632
		C212.276-144.952,203.877-140.021,193.155-140.021z"/>
	<polygon fill="#101014" points="250.947,-149.668 246.681,-153.934 248.31,-155.562 250.947,-152.926 256.58,-158.559 
		258.209,-156.93 	"/>
	
		<rect x="276.608" y="-156.176" transform="matrix(0.7072 0.7071 -0.7071 0.7072 -27.1319 -244.5403)" fill="#101014" width="10.082" height="2.304"/>
	
		<rect x="280.383" y="-160.179" transform="matrix(0.7071 0.7071 -0.7071 0.7071 -27.2392 -244.5142)" fill="#101014" width="2.304" height="10.082"/>
	<g>
		<path fill="#FFFFFF" d="M60.869,103.345c6.135,16.57-2.324,34.974-18.895,41.11C25.406,150.59,7,142.129,0.867,125.562
			c-6.135-16.568,2.323-34.974,18.892-41.108C36.328,78.318,54.734,86.775,60.869,103.345"/>
		<path fill="#CFCFC7" d="M28.129,111.05c0,0.529-0.423,0.953-0.953,0.953c-0.593,0-0.975-0.381-0.975-0.953v-0.637
			c0-1.396-0.084-4.279-3.283-4.279H18.53v4.916c0,0.529-0.445,0.953-0.975,0.953s-0.953-0.424-0.953-0.953V98.082
			c0-0.529,0.424-0.975,0.953-0.975h4.938c4.025,0,5.763,1.862,5.763,4.3c0,1.633-0.911,3.201-2.775,3.836
			c2.353,0.613,2.647,3.645,2.647,4.83V111.05z M26.328,101.556c0-1.568-0.931-2.629-4.067-2.629h-3.73v5.385h3.836
			C24.739,104.312,26.328,103.358,26.328,101.556"/>
		<path fill="#CFCFC7" d="M27.96,127.88c0,2.396-2.142,4.132-5.426,4.132c-2.118,0-3.815-0.488-5.043-1.016
			c-0.317-0.127-0.595-0.487-0.595-0.868c0-0.467,0.34-0.891,0.869-0.891c0.129,0,0.256,0.021,0.403,0.084
			c0.953,0.426,2.353,0.869,4.173,0.869c2.099,0,3.71-0.592,3.71-2.436c0-3.139-9.006-1.4-9.006-6.613
			c0-2.354,1.907-4.342,5.488-4.342c1.651,0,3.072,0.273,4.216,0.699c0.297,0.104,0.594,0.338,0.594,0.846
			c0,0.424-0.318,0.891-0.848,0.891c-0.105,0-0.232-0.043-0.338-0.084c-0.976-0.34-2.12-0.574-3.412-0.574
			c-2.141,0-3.771,0.828-3.771,2.418C18.976,124.661,27.96,122.286,27.96,127.88"/>
		<path fill="#CFCFC7" d="M47.812,104.501c-0.085,4.43-2.924,7.609-7.438,7.609c-4.536,0-7.353-3.18-7.439-7.609
			c0.087-4.428,2.903-7.606,7.439-7.606C44.889,96.895,47.728,100.073,47.812,104.501 M45.883,104.501
			c0-3.264-2.011-5.807-5.508-5.807c-3.519,0-5.512,2.543-5.512,5.807s1.993,5.807,5.512,5.807
			C43.872,110.308,45.883,107.765,45.883,104.501"/>
		<path fill="#CFCFC7" d="M45.557,130.91c0,0.51-0.403,0.891-0.911,0.891h-8.498c-0.53,0-0.955-0.424-0.955-0.953v-12.862
			c0-0.531,0.425-0.975,0.955-0.975h8.498c0.508,0,0.911,0.402,0.911,0.91s-0.403,0.891-0.911,0.891h-7.524v4.682h6.762
			c0.508,0,0.911,0.404,0.911,0.912s-0.403,0.891-0.911,0.891h-6.762v4.705h7.524C45.153,130.001,45.557,130.401,45.557,130.91"/>
	</g>
</g>
<g id="Layer_2">
	<rect x="-1.132" y="-857.798" fill="none" width="996" height="631.446"/>
	<rect x="233.788" y="-857.797" fill="none" stroke="#F6F7F4" stroke-miterlimit="10" width="527.08" height="631.444"/>
</g>
</svg>
