<?xml version="1.0" encoding="utf-8"?>
<!-- Generator: Adobe Illustrator 15.0.0, SVG Export Plug-In  -->
<!DOCTYPE svg PUBLIC "-//W3C//DTD SVG 1.1//EN" "http://www.w3.org/Graphics/SVG/1.1/DTD/svg11.dtd" [
	<!ENTITY ns_flows "http://ns.adobe.com/Flows/1.0/">
]>
<svg version="1.1"
	 xmlns="http://www.w3.org/2000/svg" xmlns:xlink="http://www.w3.org/1999/xlink" xmlns:a="http://ns.adobe.com/AdobeSVGViewerExtensions/3.0/"
	 x="0px" y="0px" width="12px" height="10px" viewBox="3533.624 914.833 12 10"
	 style="overflow:visible;enable-background:new 3533.624 914.833 12 10;" xml:space="preserve">
<style type="text/css">
<![CDATA[
	.st0{clip-path:url(#SVGID_40_);fill:#8BD6A2;}
	.st1{clip-path:url(#SVGID_38_);fill:none;stroke:#FFFFFF;stroke-width:1.676;stroke-miterlimit:10;}
	.st2{font-size:10.9061;}
	.st3{fill:#101014;}
	.st4{clip-path:url(#SVGID_19_);fill:none;stroke:#FFFFFF;stroke-width:1.676;stroke-miterlimit:10;}
	.st5{clip-path:url(#SVGID_21_);fill:#CFCFC7;}
	.st6{clip-path:url(#SVGID_44_);fill:none;stroke:#000000;stroke-width:0.458;stroke-miterlimit:10;}
	.st7{clip-path:url(#SVGID_19_);fill:none;stroke:#8BD6A2;stroke-miterlimit:10;}
	.st8{clip-path:url(#SVGID_28_);fill:#9F9B9A;}
	.st9{clip-path:url(#SVGID_15_);fill:#8BD6A2;}
	
		.st10{clip-path:url(#SVGID_46_);fill:none;stroke:#101014;stroke-width:1.44;stroke-linecap:round;stroke-linejoin:round;stroke-miterlimit:10;}
	.st11{clip-path:url(#SVGID_42_);fill:none;stroke:#FFFFFF;stroke-width:1.676;stroke-miterlimit:10;}
	.st12{clip-path:url(#SVGID_42_);fill:#8BD6A2;}
	
		.st13{clip-path:url(#SVGID_50_);fill:none;stroke:#101014;stroke-width:1.44;stroke-linecap:round;stroke-linejoin:round;stroke-miterlimit:10;}
	
		.st14{clip-path:url(#SVGID_21_);fill:none;stroke:#101014;stroke-width:1.44;stroke-linecap:round;stroke-linejoin:round;stroke-miterlimit:10;}
	.st15{clip-path:url(#SVGID_34_);fill:none;stroke:#FFFFFF;stroke-width:1.676;stroke-miterlimit:10;}
	.st16{clip-path:url(#SVGID_52_);fill-rule:evenodd;clip-rule:evenodd;fill:#FF0000;}
	.st17{clip-path:url(#SVGID_15_);fill:none;stroke:#FFFFFF;stroke-width:1.676;stroke-miterlimit:10;}
	.st18{clip-path:url(#SVGID_24_);fill-rule:evenodd;clip-rule:evenodd;fill:#FF0000;}
	.st19{font-size:14.1985;}
	.st20{font-size:14.5706;}
	
		.st21{clip-path:url(#SVGID_21_);fill:none;stroke:#000000;stroke-width:0.735;stroke-linecap:round;stroke-linejoin:round;stroke-miterlimit:10;}
	.st22{clip-path:url(#SVGID_17_);fill:#8BD6A2;}
	.st23{clip-path:url(#SVGID_21_);fill:none;stroke:#000000;stroke-width:0.458;stroke-miterlimit:10;}
	
		.st24{clip-path:url(#SVGID_14_);fill:none;stroke:#000000;stroke-width:4.045;stroke-linecap:round;stroke-linejoin:round;stroke-miterlimit:10;}
	.st25{clip-path:url(#SVGID_13_);fill:#CFCFC7;}
	.st26{fill:none;stroke:#000000;stroke-width:0.735;stroke-linecap:round;stroke-linejoin:round;stroke-miterlimit:10;}
	.st27{fill:none;stroke:#000000;stroke-width:0.458;stroke-miterlimit:10;}
	.st28{font-family:'Karla-Bold';}
	
		.st29{clip-path:url(#SVGID_19_);fill:none;stroke:#000000;stroke-width:0.735;stroke-linecap:round;stroke-linejoin:round;stroke-miterlimit:10;}
	.st30{clip-path:url(#SVGID_18_);fill:none;stroke:#FFFFFF;stroke-width:1.676;stroke-miterlimit:10;}
	
		.st31{clip-path:url(#SVGID_20_);fill:none;stroke:#000000;stroke-width:0.735;stroke-linecap:round;stroke-linejoin:round;stroke-miterlimit:10;}
	.st32{fill:#231F20;}
	
		.st33{clip-path:url(#SVGID_48_);fill:none;stroke:#101014;stroke-width:1.44;stroke-linecap:round;stroke-linejoin:round;stroke-miterlimit:10;}
	.st34{clip-path:url(#SVGID_34_);fill:#8BD6A2;}
	
		.st35{clip-path:url(#SVGID_32_);fill:none;stroke:#000000;stroke-width:4.045;stroke-linecap:round;stroke-linejoin:round;stroke-miterlimit:10;}
	.st36{clip-path:url(#SVGID_19_);fill:#8BD6A2;}
	.st37{clip-path:url(#SVGID_22_);fill:#F61816;}
	.st38{clip-path:url(#SVGID_20_);fill:#FFFFFF;}
	.st39{clip-path:url(#SVGID_42_);fill:#FFFFFF;}
	.st40{fill:#F6F7F4;}
	
		.st41{clip-path:url(#SVGID_42_);fill:none;stroke:#FFFFFF;stroke-width:0.735;stroke-linecap:round;stroke-linejoin:round;stroke-miterlimit:10;}
	.st42{clip-path:url(#SVGID_30_);fill:#9F9B9A;}
	.st43{font-family:'Karla-Regular';}
	
		.st44{clip-path:url(#SVGID_23_);fill:none;stroke:#101014;stroke-width:1.44;stroke-linecap:round;stroke-linejoin:round;stroke-miterlimit:10;}
	
		.st45{clip-path:url(#SVGID_46_);fill:none;stroke:#000000;stroke-width:0.735;stroke-linecap:round;stroke-linejoin:round;stroke-miterlimit:10;}
	.st46{clip-path:url(#SVGID_46_);fill:none;stroke:#000000;stroke-width:0.458;stroke-miterlimit:10;}
	.st47{clip-path:url(#SVGID_48_);fill:none;stroke:#F61816;stroke-miterlimit:10;}
	.st48{clip-path:url(#SVGID_36_);fill:#8BD6A2;}
	.st49{opacity:0.5;}
	.st50{fill:#FFFFFF;}
	.st51{clip-path:url(#SVGID_44_);fill:#FFFFFF;}
	.st52{clip-path:url(#SVGID_20_);fill:none;stroke:#000000;stroke-width:0.458;stroke-miterlimit:10;}
	.st53{clip-path:url(#SVGID_19_);fill:none;stroke:#FFFFFF;stroke-width:0.458;stroke-miterlimit:10;}
	.st54{font-family:'VarelaRound';}
	.st55{fill:none;}
	.st56{clip-path:url(#SVGID_19_);fill:none;stroke:#000000;stroke-width:0.458;stroke-miterlimit:10;}
	
		.st57{clip-path:url(#SVGID_14_);fill:none;stroke:#101014;stroke-width:2.766;stroke-linecap:round;stroke-linejoin:round;stroke-miterlimit:10;}
	.st58{clip-path:url(#SVGID_36_);fill:none;stroke:#FFFFFF;stroke-width:1.676;stroke-miterlimit:10;}
	.st59{clip-path:url(#SVGID_21_);fill:none;stroke:#101014;stroke-width:0.5;stroke-miterlimit:10;}
	.st60{font-size:8.3781;}
	.st61{clip-path:url(#SVGID_17_);fill:none;stroke:#FFFFFF;stroke-width:1.676;stroke-miterlimit:10;}
	.st62{display:inline;}
	.st63{clip-path:url(#SVGID_19_);fill:#FFFFFF;}
	.st64{clip-path:url(#SVGID_46_);fill:none;stroke:#101014;stroke-width:0.5;stroke-miterlimit:10;}
	.st65{fill:none;stroke:#000000;stroke-width:4.045;stroke-linecap:round;stroke-linejoin:round;stroke-miterlimit:10;}
	.st66{clip-path:url(#SVGID_42_);fill:none;stroke:#FFFFFF;stroke-width:0.458;stroke-miterlimit:10;}
	.st67{clip-path:url(#SVGID_21_);fill:none;stroke:#101014;stroke-width:2.304;stroke-miterlimit:10;}
	.st68{font-family:'Garamond';}
	.st69{fill:#CFCFC7;}
	.st70{clip-path:url(#SVGID_42_);fill:none;stroke:#000000;stroke-width:0.458;stroke-miterlimit:10;}
	.st71{clip-path:url(#SVGID_16_);fill:#8BD6A2;}
	.st72{clip-path:url(#SVGID_38_);fill:#8BD6A2;}
	.st73{fill:none;stroke:#000000;stroke-width:2.519;stroke-miterlimit:10;}
	
		.st74{clip-path:url(#SVGID_32_);fill:none;stroke:#101014;stroke-width:2.766;stroke-linecap:round;stroke-linejoin:round;stroke-miterlimit:10;}
	.st75{clip-path:url(#SVGID_48_);fill:#F61816;}
	.st76{letter-spacing:1;}
	.st77{letter-spacing:2;}
	.st78{letter-spacing:3;}
	.st79{clip-path:url(#SVGID_40_);fill:none;stroke:#FFFFFF;stroke-width:1.676;stroke-miterlimit:10;}
	.st80{clip-path:url(#SVGID_46_);fill:#FFFFFF;}
	
		.st81{clip-path:url(#SVGID_44_);fill:none;stroke:#000000;stroke-width:0.735;stroke-linecap:round;stroke-linejoin:round;stroke-miterlimit:10;}
	.st82{clip-path:url(#SVGID_22_);fill:none;stroke:#F61816;stroke-miterlimit:10;}
	
		.st83{clip-path:url(#SVGID_19_);fill:none;stroke:#FFFFFF;stroke-width:0.735;stroke-linecap:round;stroke-linejoin:round;stroke-miterlimit:10;}
	.st84{font-size:10;}
	.st85{font-size:14;}
	.st86{clip-path:url(#SVGID_46_);fill:#CFCFC7;}
	.st87{clip-path:url(#SVGID_18_);fill:#8BD6A2;}
	
		.st88{clip-path:url(#SVGID_22_);fill:none;stroke:#101014;stroke-width:1.44;stroke-linecap:round;stroke-linejoin:round;stroke-miterlimit:10;}
	.st89{clip-path:url(#SVGID_42_);fill:none;stroke:#8BD6A2;stroke-miterlimit:10;}
	.st90{display:none;}
	.st91{clip-path:url(#SVGID_19_);}
	.st92{clip-path:url(#SVGID_20_);}
	.st93{clip-path:url(#SVGID_21_);}
	.st94{clip-path:url(#SVGID_42_);}
	.st95{clip-path:url(#SVGID_44_);}
	.st96{clip-path:url(#SVGID_46_);}
	.st97{clip-path:url(#SVGID_46_);fill:none;stroke:#101014;stroke-width:2.304;stroke-miterlimit:10;}
	.st98{clip-path:url(#SVGID_19_);fill:none;stroke:#000000;stroke-width:2.304;stroke-miterlimit:10;}
	.st99{fill:none;stroke:#F6F7F4;stroke-miterlimit:10;}
	.st100{clip-path:url(#SVGID_16_);fill:none;stroke:#FFFFFF;stroke-width:1.676;stroke-miterlimit:10;}
	.st101{fill:#404D4F;}
	.st102{clip-path:url(#SVGID_26_);fill:#CFCFC7;}
	.st103{fill:#DFEBED;}
	.st104{clip-path:url(#SVGID_42_);fill:none;stroke:#000000;stroke-width:2.304;stroke-miterlimit:10;}
	
		.st105{clip-path:url(#SVGID_42_);fill:none;stroke:#000000;stroke-width:0.735;stroke-linecap:round;stroke-linejoin:round;stroke-miterlimit:10;}
	.st106{clip-path:url(#SVGID_21_);fill:#FFFFFF;}
]]>
</style>
<defs>
</defs>
<g>
	<defs>
		<rect id="SVGID_12_" x="3287.04" y="208.415" width="996" height="631.445"/>
	</defs>
	<clipPath id="SVGID_13_">
		<use xlink:href="#SVGID_12_"  style="overflow:visible;"/>
	</clipPath>
	<path class="st25" d="M3313.135,602.559c0,0.855-0.694,1.549-1.549,1.549c-0.857,0-1.55-0.693-1.55-1.549
		c0-0.854,0.693-1.549,1.55-1.549C3312.441,601.01,3313.135,601.705,3313.135,602.559"/>
	<path class="st25" d="M3399.217,602.559c0,0.855-0.693,1.549-1.55,1.549c-0.854,0-1.547-0.693-1.547-1.549
		c0-0.854,0.693-1.549,1.547-1.549C3398.524,601.01,3399.217,601.705,3399.217,602.559"/>
	<path class="st25" d="M3485.3,602.559c0,0.855-0.693,1.549-1.549,1.549c-0.854,0-1.549-0.693-1.549-1.549
		c0-0.854,0.695-1.549,1.549-1.549C3484.607,601.01,3485.3,601.705,3485.3,602.559"/>
	<path class="st25" d="M3571.383,602.559c0,0.855-0.693,1.549-1.55,1.549c-0.854,0-1.549-0.693-1.549-1.549
		c0-0.854,0.695-1.549,1.549-1.549C3570.69,601.01,3571.383,601.705,3571.383,602.559"/>
	<path class="st25" d="M3657.466,602.559c0,0.855-0.694,1.549-1.55,1.549s-1.549-0.693-1.549-1.549c0-0.854,0.693-1.549,1.549-1.549
		S3657.466,601.705,3657.466,602.559"/>
	<path class="st25" d="M3743.55,602.559c0,0.855-0.693,1.549-1.551,1.549c-0.855,0-1.549-0.693-1.549-1.549
		c0-0.854,0.694-1.549,1.549-1.549C3742.857,601.01,3743.55,601.705,3743.55,602.559"/>
	<path class="st25" d="M3829.633,602.559c0,0.855-0.695,1.549-1.55,1.549c-0.857,0-1.551-0.693-1.551-1.549
		c0-0.854,0.693-1.549,1.551-1.549C3828.938,601.01,3829.633,601.705,3829.633,602.559"/>
	<path class="st25" d="M3915.716,602.559c0,0.855-0.695,1.549-1.554,1.549c-0.853,0-1.546-0.693-1.546-1.549
		c0-0.854,0.693-1.549,1.546-1.549C3915.021,601.01,3915.716,601.705,3915.716,602.559"/>
	<path class="st25" d="M4001.795,602.559c0,0.855-0.694,1.549-1.549,1.549s-1.548-0.693-1.548-1.549
		c0-0.854,0.693-1.549,1.548-1.549S4001.795,601.705,4001.795,602.559"/>
	<path class="st25" d="M4087.879,602.559c0,0.855-0.691,1.549-1.547,1.549c-0.857,0-1.55-0.693-1.55-1.549
		c0-0.854,0.692-1.549,1.55-1.549C4087.188,601.01,4087.879,601.705,4087.879,602.559"/>
	<path class="st25" d="M4173.961,602.559c0,0.855-0.691,1.549-1.55,1.549c-0.854,0-1.548-0.693-1.548-1.549
		c0-0.854,0.693-1.549,1.548-1.549C4173.27,601.01,4173.961,601.705,4173.961,602.559"/>
	<path class="st25" d="M4260.042,602.559c0,0.855-0.689,1.549-1.548,1.549c-0.855,0-1.55-0.693-1.55-1.549
		c0-0.854,0.694-1.549,1.55-1.549C4259.353,601.01,4260.042,601.705,4260.042,602.559"/>
	<path class="st25" d="M3313.135,512.17c0,0.857-0.694,1.551-1.549,1.551c-0.857,0-1.55-0.694-1.55-1.551
		c0-0.854,0.693-1.549,1.55-1.549C3312.441,510.622,3313.135,511.316,3313.135,512.17"/>
	<path class="st25" d="M3399.217,512.17c0,0.857-0.693,1.551-1.55,1.551c-0.854,0-1.547-0.694-1.547-1.551
		c0-0.854,0.693-1.549,1.547-1.549C3398.524,510.622,3399.217,511.316,3399.217,512.17"/>
	<path class="st25" d="M3485.3,512.17c0,0.857-0.693,1.551-1.549,1.551c-0.854,0-1.549-0.694-1.549-1.551
		c0-0.854,0.695-1.549,1.549-1.549C3484.607,510.622,3485.3,511.316,3485.3,512.17"/>
	<path class="st25" d="M3571.383,512.17c0,0.857-0.693,1.551-1.55,1.551c-0.854,0-1.549-0.694-1.549-1.551
		c0-0.854,0.695-1.549,1.549-1.549C3570.69,510.622,3571.383,511.316,3571.383,512.17"/>
	<path class="st25" d="M3657.466,512.17c0,0.857-0.694,1.551-1.55,1.551s-1.549-0.694-1.549-1.551c0-0.854,0.693-1.549,1.549-1.549
		S3657.466,511.316,3657.466,512.17"/>
	<path class="st25" d="M3743.55,512.17c0,0.857-0.693,1.551-1.551,1.551c-0.855,0-1.549-0.694-1.549-1.551
		c0-0.854,0.694-1.549,1.549-1.549C3742.857,510.622,3743.55,511.316,3743.55,512.17"/>
	<path class="st25" d="M3829.633,512.17c0,0.857-0.695,1.551-1.55,1.551c-0.857,0-1.551-0.694-1.551-1.551
		c0-0.854,0.693-1.549,1.551-1.549C3828.938,510.622,3829.633,511.316,3829.633,512.17"/>
	<path class="st25" d="M3915.716,512.17c0,0.857-0.695,1.551-1.554,1.551c-0.853,0-1.546-0.694-1.546-1.551
		c0-0.854,0.693-1.549,1.546-1.549C3915.021,510.622,3915.716,511.316,3915.716,512.17"/>
	<path class="st25" d="M4001.795,512.17c0,0.857-0.694,1.551-1.549,1.551s-1.548-0.694-1.548-1.551c0-0.854,0.693-1.549,1.548-1.549
		S4001.795,511.316,4001.795,512.17"/>
	<path class="st25" d="M4087.879,512.17c0,0.857-0.691,1.551-1.547,1.551c-0.857,0-1.55-0.694-1.55-1.551
		c0-0.854,0.692-1.549,1.55-1.549C4087.188,510.622,4087.879,511.316,4087.879,512.17"/>
	<path class="st25" d="M4173.961,512.17c0,0.857-0.691,1.551-1.55,1.551c-0.854,0-1.548-0.694-1.548-1.551
		c0-0.854,0.693-1.549,1.548-1.549C4173.27,510.622,4173.961,511.316,4173.961,512.17"/>
	<path class="st25" d="M4260.042,512.17c0,0.857-0.689,1.551-1.548,1.551c-0.855,0-1.55-0.694-1.55-1.551
		c0-0.854,0.694-1.549,1.55-1.549C4259.353,510.622,4260.042,511.316,4260.042,512.17"/>
	<path class="st25" d="M3313.135,421.786c0,0.855-0.694,1.549-1.549,1.549c-0.857,0-1.55-0.694-1.55-1.549
		c0-0.857,0.693-1.549,1.55-1.549C3312.441,420.237,3313.135,420.929,3313.135,421.786"/>
	<path class="st25" d="M3399.217,421.786c0,0.855-0.693,1.549-1.55,1.549c-0.854,0-1.547-0.694-1.547-1.549
		c0-0.857,0.693-1.549,1.547-1.549C3398.524,420.237,3399.217,420.929,3399.217,421.786"/>
	<path class="st25" d="M3485.3,421.786c0,0.855-0.693,1.549-1.549,1.549c-0.854,0-1.549-0.694-1.549-1.549
		c0-0.857,0.695-1.549,1.549-1.549C3484.607,420.237,3485.3,420.929,3485.3,421.786"/>
	<path class="st25" d="M3571.383,421.786c0,0.855-0.693,1.549-1.55,1.549c-0.854,0-1.549-0.694-1.549-1.549
		c0-0.857,0.695-1.549,1.549-1.549C3570.69,420.237,3571.383,420.929,3571.383,421.786"/>
	<path class="st25" d="M3657.466,421.786c0,0.855-0.694,1.549-1.55,1.549s-1.549-0.694-1.549-1.549c0-0.857,0.693-1.549,1.549-1.549
		S3657.466,420.929,3657.466,421.786"/>
	<path class="st25" d="M3743.55,421.786c0,0.855-0.693,1.549-1.551,1.549c-0.855,0-1.549-0.694-1.549-1.549
		c0-0.857,0.694-1.549,1.549-1.549C3742.857,420.237,3743.55,420.929,3743.55,421.786"/>
	<path class="st25" d="M3829.633,421.786c0,0.855-0.695,1.549-1.55,1.549c-0.857,0-1.551-0.694-1.551-1.549
		c0-0.857,0.693-1.549,1.551-1.549C3828.938,420.237,3829.633,420.929,3829.633,421.786"/>
	<path class="st25" d="M3915.716,421.786c0,0.855-0.695,1.549-1.554,1.549c-0.853,0-1.546-0.694-1.546-1.549
		c0-0.857,0.693-1.549,1.546-1.549C3915.021,420.237,3915.716,420.929,3915.716,421.786"/>
	<path class="st25" d="M4001.795,421.786c0,0.855-0.694,1.549-1.549,1.549s-1.548-0.694-1.548-1.549
		c0-0.857,0.693-1.549,1.548-1.549S4001.795,420.929,4001.795,421.786"/>
	<path class="st25" d="M4087.879,421.786c0,0.855-0.691,1.549-1.547,1.549c-0.857,0-1.55-0.694-1.55-1.549
		c0-0.857,0.692-1.549,1.55-1.549C4087.188,420.237,4087.879,420.929,4087.879,421.786"/>
	<path class="st25" d="M4173.961,421.786c0,0.855-0.691,1.549-1.55,1.549c-0.854,0-1.548-0.694-1.548-1.549
		c0-0.857,0.693-1.549,1.548-1.549C4173.27,420.237,4173.961,420.929,4173.961,421.786"/>
	<path class="st25" d="M4260.042,421.786c0,0.855-0.689,1.549-1.548,1.549c-0.855,0-1.55-0.694-1.55-1.549
		c0-0.857,0.694-1.549,1.55-1.549C4259.353,420.237,4260.042,420.929,4260.042,421.786"/>
	<path class="st25" d="M3313.135,331.397c0,0.857-0.694,1.551-1.549,1.551c-0.857,0-1.55-0.694-1.55-1.551
		c0-0.854,0.693-1.549,1.55-1.549C3312.441,329.848,3313.135,330.543,3313.135,331.397"/>
	<path class="st25" d="M3399.217,331.397c0,0.857-0.693,1.551-1.55,1.551c-0.854,0-1.547-0.694-1.547-1.551
		c0-0.854,0.693-1.549,1.547-1.549C3398.524,329.848,3399.217,330.543,3399.217,331.397"/>
	<path class="st25" d="M3485.3,331.397c0,0.857-0.693,1.551-1.549,1.551c-0.854,0-1.549-0.694-1.549-1.551
		c0-0.854,0.695-1.549,1.549-1.549C3484.607,329.848,3485.3,330.543,3485.3,331.397"/>
	<path class="st25" d="M3571.383,331.397c0,0.857-0.693,1.551-1.55,1.551c-0.854,0-1.549-0.694-1.549-1.551
		c0-0.854,0.695-1.549,1.549-1.549C3570.69,329.848,3571.383,330.543,3571.383,331.397"/>
	<path class="st25" d="M3657.466,331.397c0,0.857-0.694,1.551-1.55,1.551s-1.549-0.694-1.549-1.551c0-0.854,0.693-1.549,1.549-1.549
		S3657.466,330.543,3657.466,331.397"/>
	<path class="st25" d="M3743.55,331.397c0,0.857-0.693,1.551-1.551,1.551c-0.855,0-1.549-0.694-1.549-1.551
		c0-0.854,0.694-1.549,1.549-1.549C3742.857,329.848,3743.55,330.543,3743.55,331.397"/>
	<path class="st25" d="M3829.633,331.397c0,0.857-0.695,1.551-1.55,1.551c-0.857,0-1.551-0.694-1.551-1.551
		c0-0.854,0.693-1.549,1.551-1.549C3828.938,329.848,3829.633,330.543,3829.633,331.397"/>
	<path class="st25" d="M3915.716,331.397c0,0.857-0.695,1.551-1.554,1.551c-0.853,0-1.546-0.694-1.546-1.551
		c0-0.854,0.693-1.549,1.546-1.549C3915.021,329.848,3915.716,330.543,3915.716,331.397"/>
	<path class="st25" d="M4001.795,331.397c0,0.857-0.694,1.551-1.549,1.551s-1.548-0.694-1.548-1.551
		c0-0.854,0.693-1.549,1.548-1.549S4001.795,330.543,4001.795,331.397"/>
	<path class="st25" d="M4087.879,331.397c0,0.857-0.691,1.551-1.547,1.551c-0.857,0-1.55-0.694-1.55-1.551
		c0-0.854,0.692-1.549,1.55-1.549C4087.188,329.848,4087.879,330.543,4087.879,331.397"/>
	<path class="st25" d="M4173.961,331.397c0,0.857-0.691,1.551-1.55,1.551c-0.854,0-1.548-0.694-1.548-1.551
		c0-0.854,0.693-1.549,1.548-1.549C4173.27,329.848,4173.961,330.543,4173.961,331.397"/>
	<path class="st25" d="M4260.042,331.397c0,0.857-0.689,1.551-1.548,1.551c-0.855,0-1.55-0.694-1.55-1.551
		c0-0.854,0.694-1.549,1.55-1.549C4259.353,329.848,4260.042,330.543,4260.042,331.397"/>
	<path class="st25" d="M3313.135,241.01c0,0.855-0.694,1.551-1.549,1.551c-0.857,0-1.55-0.696-1.55-1.551s0.693-1.549,1.55-1.549
		C3312.441,239.461,3313.135,240.155,3313.135,241.01"/>
	<path class="st25" d="M3399.217,241.01c0,0.855-0.693,1.551-1.55,1.551c-0.854,0-1.547-0.696-1.547-1.551s0.693-1.549,1.547-1.549
		C3398.524,239.461,3399.217,240.155,3399.217,241.01"/>
	<path class="st25" d="M3485.3,241.01c0,0.855-0.693,1.551-1.549,1.551c-0.854,0-1.549-0.696-1.549-1.551s0.695-1.549,1.549-1.549
		C3484.607,239.461,3485.3,240.155,3485.3,241.01"/>
	<path class="st25" d="M3571.383,241.01c0,0.855-0.693,1.551-1.55,1.551c-0.854,0-1.549-0.696-1.549-1.551s0.695-1.549,1.549-1.549
		C3570.69,239.461,3571.383,240.155,3571.383,241.01"/>
	<path class="st25" d="M3657.466,241.01c0,0.855-0.694,1.551-1.55,1.551s-1.549-0.696-1.549-1.551s0.693-1.549,1.549-1.549
		S3657.466,240.155,3657.466,241.01"/>
	<path class="st25" d="M3743.55,241.01c0,0.855-0.693,1.551-1.551,1.551c-0.855,0-1.549-0.696-1.549-1.551s0.694-1.549,1.549-1.549
		C3742.857,239.461,3743.55,240.155,3743.55,241.01"/>
	<path class="st25" d="M3829.633,241.01c0,0.855-0.695,1.551-1.55,1.551c-0.857,0-1.551-0.696-1.551-1.551s0.693-1.549,1.551-1.549
		C3828.938,239.461,3829.633,240.155,3829.633,241.01"/>
	<path class="st25" d="M3915.716,241.01c0,0.855-0.695,1.551-1.554,1.551c-0.853,0-1.546-0.696-1.546-1.551s0.693-1.549,1.546-1.549
		C3915.021,239.461,3915.716,240.155,3915.716,241.01"/>
	<path class="st25" d="M4001.795,241.01c0,0.855-0.694,1.551-1.549,1.551s-1.548-0.696-1.548-1.551s0.693-1.549,1.548-1.549
		S4001.795,240.155,4001.795,241.01"/>
	<path class="st25" d="M4087.879,241.01c0,0.855-0.691,1.551-1.547,1.551c-0.857,0-1.55-0.696-1.55-1.551s0.692-1.549,1.55-1.549
		C4087.188,239.461,4087.879,240.155,4087.879,241.01"/>
	<path class="st25" d="M4173.961,241.01c0,0.855-0.691,1.551-1.55,1.551c-0.854,0-1.548-0.696-1.548-1.551s0.693-1.549,1.548-1.549
		C4173.27,239.461,4173.961,240.155,4173.961,241.01"/>
	<path class="st25" d="M4260.042,241.01c0,0.855-0.689,1.551-1.548,1.551c-0.855,0-1.55-0.696-1.55-1.551s0.694-1.549,1.55-1.549
		C4259.353,239.461,4260.042,240.155,4260.042,241.01"/>
	<path class="st25" d="M3313.135,964.105c0,0.855-0.694,1.551-1.549,1.551c-0.857,0-1.55-0.695-1.55-1.551
		c0-0.854,0.693-1.551,1.55-1.551C3312.441,962.555,3313.135,963.251,3313.135,964.105"/>
	<path class="st25" d="M3399.217,964.105c0,0.855-0.693,1.551-1.55,1.551c-0.854,0-1.547-0.695-1.547-1.551
		c0-0.854,0.693-1.551,1.547-1.551C3398.524,962.555,3399.217,963.251,3399.217,964.105"/>
	<path class="st25" d="M3485.3,964.105c0,0.855-0.693,1.551-1.549,1.551c-0.854,0-1.549-0.695-1.549-1.551
		c0-0.854,0.695-1.551,1.549-1.551C3484.607,962.555,3485.3,963.251,3485.3,964.105"/>
	<path class="st25" d="M3571.383,964.105c0,0.855-0.693,1.551-1.55,1.551c-0.854,0-1.549-0.695-1.549-1.551
		c0-0.854,0.695-1.551,1.549-1.551C3570.69,962.555,3571.383,963.251,3571.383,964.105"/>
	<path class="st25" d="M3657.466,964.105c0,0.855-0.694,1.551-1.55,1.551s-1.549-0.695-1.549-1.551c0-0.854,0.693-1.551,1.549-1.551
		S3657.466,963.251,3657.466,964.105"/>
	<path class="st25" d="M3743.55,964.105c0,0.855-0.693,1.551-1.551,1.551c-0.855,0-1.549-0.695-1.549-1.551
		c0-0.854,0.694-1.551,1.549-1.551C3742.857,962.555,3743.55,963.251,3743.55,964.105"/>
	<path class="st25" d="M3829.633,964.105c0,0.855-0.695,1.551-1.55,1.551c-0.857,0-1.551-0.695-1.551-1.551
		c0-0.854,0.693-1.551,1.551-1.551C3828.938,962.555,3829.633,963.251,3829.633,964.105"/>
	<path class="st25" d="M3915.716,964.105c0,0.855-0.695,1.551-1.554,1.551c-0.853,0-1.546-0.695-1.546-1.551
		c0-0.854,0.693-1.551,1.546-1.551C3915.021,962.555,3915.716,963.251,3915.716,964.105"/>
	<path class="st25" d="M4001.795,964.105c0,0.855-0.694,1.551-1.549,1.551s-1.548-0.695-1.548-1.551
		c0-0.854,0.693-1.551,1.548-1.551S4001.795,963.251,4001.795,964.105"/>
	<path class="st25" d="M4087.879,964.105c0,0.855-0.691,1.551-1.547,1.551c-0.857,0-1.55-0.695-1.55-1.551
		c0-0.854,0.692-1.551,1.55-1.551C4087.188,962.555,4087.879,963.251,4087.879,964.105"/>
	<path class="st25" d="M4173.961,964.105c0,0.855-0.691,1.551-1.55,1.551c-0.854,0-1.548-0.695-1.548-1.551
		c0-0.854,0.693-1.551,1.548-1.551C4173.27,962.555,4173.961,963.251,4173.961,964.105"/>
	<path class="st25" d="M4260.042,964.105c0,0.855-0.689,1.551-1.548,1.551c-0.855,0-1.55-0.695-1.55-1.551
		c0-0.854,0.694-1.551,1.55-1.551C4259.353,962.555,4260.042,963.251,4260.042,964.105"/>
	<path class="st25" d="M3313.135,873.719c0,0.857-0.694,1.549-1.549,1.549c-0.857,0-1.55-0.691-1.55-1.549
		c0-0.854,0.693-1.549,1.55-1.549C3312.441,872.17,3313.135,872.864,3313.135,873.719"/>
	<path class="st25" d="M3399.217,873.719c0,0.857-0.693,1.549-1.55,1.549c-0.854,0-1.547-0.691-1.547-1.549
		c0-0.854,0.693-1.549,1.547-1.549C3398.524,872.17,3399.217,872.864,3399.217,873.719"/>
	<path class="st25" d="M3485.3,873.719c0,0.857-0.693,1.549-1.549,1.549c-0.854,0-1.549-0.691-1.549-1.549
		c0-0.854,0.695-1.549,1.549-1.549C3484.607,872.17,3485.3,872.864,3485.3,873.719"/>
	<path class="st25" d="M3571.383,873.719c0,0.857-0.693,1.549-1.55,1.549c-0.854,0-1.549-0.691-1.549-1.549
		c0-0.854,0.695-1.549,1.549-1.549C3570.69,872.17,3571.383,872.864,3571.383,873.719"/>
	<path class="st25" d="M3657.466,873.719c0,0.857-0.694,1.549-1.55,1.549s-1.549-0.691-1.549-1.549c0-0.854,0.693-1.549,1.549-1.549
		S3657.466,872.864,3657.466,873.719"/>
	<path class="st25" d="M3743.55,873.719c0,0.857-0.693,1.549-1.551,1.549c-0.855,0-1.549-0.691-1.549-1.549
		c0-0.854,0.694-1.549,1.549-1.549C3742.857,872.17,3743.55,872.864,3743.55,873.719"/>
	<path class="st25" d="M3829.633,873.719c0,0.857-0.695,1.549-1.55,1.549c-0.857,0-1.551-0.691-1.551-1.549
		c0-0.854,0.693-1.549,1.551-1.549C3828.938,872.17,3829.633,872.864,3829.633,873.719"/>
	<path class="st25" d="M3915.716,873.719c0,0.857-0.695,1.549-1.554,1.549c-0.853,0-1.546-0.691-1.546-1.549
		c0-0.854,0.693-1.549,1.546-1.549C3915.021,872.17,3915.716,872.864,3915.716,873.719"/>
	<path class="st25" d="M4001.795,873.719c0,0.857-0.694,1.549-1.549,1.549s-1.548-0.691-1.548-1.549
		c0-0.854,0.693-1.549,1.548-1.549S4001.795,872.864,4001.795,873.719"/>
	<path class="st25" d="M4087.879,873.719c0,0.857-0.691,1.549-1.547,1.549c-0.857,0-1.55-0.691-1.55-1.549
		c0-0.854,0.692-1.549,1.55-1.549C4087.188,872.17,4087.879,872.864,4087.879,873.719"/>
	<path class="st25" d="M4173.961,873.719c0,0.857-0.691,1.549-1.55,1.549c-0.854,0-1.548-0.691-1.548-1.549
		c0-0.854,0.693-1.549,1.548-1.549C4173.27,872.17,4173.961,872.864,4173.961,873.719"/>
	<path class="st25" d="M4260.042,873.719c0,0.857-0.689,1.549-1.548,1.549c-0.855,0-1.55-0.691-1.55-1.549
		c0-0.854,0.694-1.549,1.55-1.549C4259.353,872.17,4260.042,872.864,4260.042,873.719"/>
	<path class="st25" d="M3313.135,783.332c0,0.855-0.694,1.551-1.549,1.551c-0.857,0-1.55-0.695-1.55-1.551s0.693-1.549,1.55-1.549
		C3312.441,781.783,3313.135,782.477,3313.135,783.332"/>
	<path class="st25" d="M3399.217,783.332c0,0.855-0.693,1.551-1.55,1.551c-0.854,0-1.547-0.695-1.547-1.551s0.693-1.549,1.547-1.549
		C3398.524,781.783,3399.217,782.477,3399.217,783.332"/>
	<path class="st25" d="M3485.3,783.332c0,0.855-0.693,1.551-1.549,1.551c-0.854,0-1.549-0.695-1.549-1.551s0.695-1.549,1.549-1.549
		C3484.607,781.783,3485.3,782.477,3485.3,783.332"/>
	<path class="st25" d="M3571.383,783.332c0,0.855-0.693,1.551-1.55,1.551c-0.854,0-1.549-0.695-1.549-1.551s0.695-1.549,1.549-1.549
		C3570.69,781.783,3571.383,782.477,3571.383,783.332"/>
	<path class="st25" d="M3657.466,783.332c0,0.855-0.694,1.551-1.55,1.551s-1.549-0.695-1.549-1.551s0.693-1.549,1.549-1.549
		S3657.466,782.477,3657.466,783.332"/>
	<path class="st25" d="M3743.55,783.332c0,0.855-0.693,1.551-1.551,1.551c-0.855,0-1.549-0.695-1.549-1.551s0.694-1.549,1.549-1.549
		C3742.857,781.783,3743.55,782.477,3743.55,783.332"/>
	<path class="st25" d="M3829.633,783.332c0,0.855-0.695,1.551-1.55,1.551c-0.857,0-1.551-0.695-1.551-1.551s0.693-1.549,1.551-1.549
		C3828.938,781.783,3829.633,782.477,3829.633,783.332"/>
	<path class="st25" d="M3915.716,783.332c0,0.855-0.695,1.551-1.554,1.551c-0.853,0-1.546-0.695-1.546-1.551
		s0.693-1.549,1.546-1.549C3915.021,781.783,3915.716,782.477,3915.716,783.332"/>
	<path class="st25" d="M4001.795,783.332c0,0.855-0.694,1.551-1.549,1.551s-1.548-0.695-1.548-1.551s0.693-1.549,1.548-1.549
		S4001.795,782.477,4001.795,783.332"/>
	<path class="st25" d="M4087.879,783.332c0,0.855-0.691,1.551-1.547,1.551c-0.857,0-1.55-0.695-1.55-1.551s0.692-1.549,1.55-1.549
		C4087.188,781.783,4087.879,782.477,4087.879,783.332"/>
	<path class="st25" d="M4173.961,783.332c0,0.855-0.691,1.551-1.55,1.551c-0.854,0-1.548-0.695-1.548-1.551s0.693-1.549,1.548-1.549
		C4173.27,781.783,4173.961,782.477,4173.961,783.332"/>
	<path class="st25" d="M4260.042,783.332c0,0.855-0.689,1.551-1.548,1.551c-0.855,0-1.55-0.695-1.55-1.551s0.694-1.549,1.55-1.549
		C4259.353,781.783,4260.042,782.477,4260.042,783.332"/>
	<path class="st25" d="M3313.135,692.943c0,0.857-0.694,1.551-1.549,1.551c-0.857,0-1.55-0.693-1.55-1.551
		c0-0.854,0.693-1.547,1.55-1.547C3312.441,691.396,3313.135,692.09,3313.135,692.943"/>
	<path class="st25" d="M3399.217,692.943c0,0.857-0.693,1.551-1.55,1.551c-0.854,0-1.547-0.693-1.547-1.551
		c0-0.854,0.693-1.547,1.547-1.547C3398.524,691.396,3399.217,692.09,3399.217,692.943"/>
	<path class="st25" d="M3485.3,692.943c0,0.857-0.693,1.551-1.549,1.551c-0.854,0-1.549-0.693-1.549-1.551
		c0-0.854,0.695-1.547,1.549-1.547C3484.607,691.396,3485.3,692.09,3485.3,692.943"/>
	<path class="st25" d="M3571.383,692.943c0,0.857-0.693,1.551-1.55,1.551c-0.854,0-1.549-0.693-1.549-1.551
		c0-0.854,0.695-1.547,1.549-1.547C3570.69,691.396,3571.383,692.09,3571.383,692.943"/>
	<path class="st25" d="M3657.466,692.943c0,0.857-0.694,1.551-1.55,1.551s-1.549-0.693-1.549-1.551c0-0.854,0.693-1.547,1.549-1.547
		S3657.466,692.09,3657.466,692.943"/>
	<path class="st25" d="M3743.55,692.943c0,0.857-0.693,1.551-1.551,1.551c-0.855,0-1.549-0.693-1.549-1.551
		c0-0.854,0.694-1.547,1.549-1.547C3742.857,691.396,3743.55,692.09,3743.55,692.943"/>
	<path class="st25" d="M3829.633,692.943c0,0.857-0.695,1.551-1.55,1.551c-0.857,0-1.551-0.693-1.551-1.551
		c0-0.854,0.693-1.547,1.551-1.547C3828.938,691.396,3829.633,692.09,3829.633,692.943"/>
	<path class="st25" d="M3915.716,692.943c0,0.857-0.695,1.551-1.554,1.551c-0.853,0-1.546-0.693-1.546-1.551
		c0-0.854,0.693-1.547,1.546-1.547C3915.021,691.396,3915.716,692.09,3915.716,692.943"/>
	<path class="st25" d="M4001.795,692.943c0,0.857-0.694,1.551-1.549,1.551s-1.548-0.693-1.548-1.551
		c0-0.854,0.693-1.547,1.548-1.547S4001.795,692.09,4001.795,692.943"/>
	<path class="st25" d="M4087.879,692.943c0,0.857-0.691,1.551-1.547,1.551c-0.857,0-1.55-0.693-1.55-1.551
		c0-0.854,0.692-1.547,1.55-1.547C4087.188,691.396,4087.879,692.09,4087.879,692.943"/>
	<path class="st25" d="M4173.961,692.943c0,0.857-0.691,1.551-1.55,1.551c-0.854,0-1.548-0.693-1.548-1.551
		c0-0.854,0.693-1.547,1.548-1.547C4173.27,691.396,4173.961,692.09,4173.961,692.943"/>
	<path class="st25" d="M4260.042,692.943c0,0.857-0.689,1.551-1.548,1.551c-0.855,0-1.55-0.693-1.55-1.551
		c0-0.854,0.694-1.547,1.55-1.547C4259.353,691.396,4260.042,692.09,4260.042,692.943"/>
</g>
<g>
	<defs>
		<rect id="SVGID_11_" x="3257.04" width="1056" height="1056"/>
	</defs>
	<clipPath id="SVGID_14_">
		<use xlink:href="#SVGID_11_"  style="overflow:visible;"/>
	</clipPath>
	<path class="st24" d="M3797.177,365.981c-0.061,9.398-5.263,16.988-11.62,16.947c-6.36-0.043-11.472-7.691-11.415-17.088
		c0.056-9.404,5.254-16.992,11.615-16.953C3792.12,348.922,3797.233,356.573,3797.177,365.981z"/>
	<polygon class="st24" points="3791.877,494.02 3810.438,494.02 3810.438,654.889 3797.42,654.889 3797.42,568.988 	"/>
	<polygon class="st24" points="3810.438,397.239 3819.393,396.317 3831.963,517.753 3823.008,518.678 	"/>
	<polygon class="st24" points="3778.198,494.02 3759.642,494.02 3759.642,654.889 3772.656,654.889 3772.656,568.988 	"/>
	<polygon class="st24" points="3759.643,397.731 3750.688,396.809 3738.118,518.247 3747.063,519.174 	"/>
	<polyline class="st57" points="3803.979,702.242 3795.685,703.152 3796.603,711.439 	"/>
	<path class="st57" d="M3795.685,703.152l2.863,2.021c1.914,1.57,3.029,3.465,3.029,5.502c0,5.436-7.941,9.842-17.739,9.842
		c-9.797,0-17.738-4.408-17.738-9.842c0-3.918,4.125-7.301,10.098-8.883"/>
</g>
<g>
	<defs>
		<rect id="SVGID_10_" x="3257.04" width="1056" height="1056"/>
	</defs>
	<clipPath id="SVGID_15_">
		<use xlink:href="#SVGID_10_"  style="overflow:visible;"/>
	</clipPath>
	<line class="st17" x1="4088.31" y1="561.98" x2="4225.033" y2="561.98"/>
	<path class="st9" d="M4112.075,561.98c0,2.061-1.674,3.732-3.734,3.732c-2.062,0-3.734-1.672-3.734-3.732
		c0-2.062,1.672-3.734,3.734-3.734C4110.401,558.246,4112.075,559.918,4112.075,561.98"/>
</g>
<g>
	<defs>
		<rect id="SVGID_9_" x="3257.04" width="1056" height="1056"/>
	</defs>
	<clipPath id="SVGID_16_">
		<use xlink:href="#SVGID_9_"  style="overflow:visible;"/>
	</clipPath>
	<line class="st100" x1="4088.31" y1="516.573" x2="4225.033" y2="516.573"/>
	<path class="st71" d="M4165.626,516.573c0,2.063-1.674,3.734-3.734,3.734c-2.062,0-3.734-1.671-3.734-3.734
		c0-2.061,1.672-3.734,3.734-3.734C4163.952,512.839,4165.626,514.512,4165.626,516.573"/>
</g>
<g>
	<defs>
		<rect id="SVGID_8_" x="3257.04" width="1056" height="1056"/>
	</defs>
	<clipPath id="SVGID_17_">
		<use xlink:href="#SVGID_8_"  style="overflow:visible;"/>
	</clipPath>
	<line class="st61" x1="4088.31" y1="471.167" x2="4225.033" y2="471.167"/>
	<path class="st22" d="M4115.81,471.167c0,2.061-1.674,3.734-3.734,3.734c-2.062,0-3.734-1.673-3.734-3.734
		c0-2.063,1.672-3.734,3.734-3.734C4114.136,467.433,4115.81,469.104,4115.81,471.167"/>
</g>
<g>
	<defs>
		<rect id="SVGID_7_" x="3257.04" width="1056" height="1056"/>
	</defs>
	<clipPath id="SVGID_18_">
		<use xlink:href="#SVGID_7_"  style="overflow:visible;"/>
	</clipPath>
	<line class="st30" x1="4088.31" y1="425.758" x2="4225.033" y2="425.758"/>
	<path class="st87" d="M4228.768,425.758c0,2.063-1.674,3.734-3.734,3.734c-2.062,0-3.734-1.671-3.734-3.734
		c0-2.061,1.672-3.732,3.734-3.732C4227.094,422.026,4228.768,423.697,4228.768,425.758"/>
</g>
<g>
	<defs>
		<rect id="SVGID_6_" x="3257.04" width="1056" height="1056"/>
	</defs>
	<clipPath id="SVGID_19_">
		<use xlink:href="#SVGID_6_"  style="overflow:visible;"/>
	</clipPath>
	<line class="st4" x1="4088.31" y1="380.352" x2="4225.033" y2="380.352"/>
	<path class="st36" d="M4204.239,380.352c0,2.063-1.674,3.734-3.734,3.734c-2.062,0-3.734-1.671-3.734-3.734
		s1.672-3.734,3.734-3.734C4202.565,376.618,4204.239,378.289,4204.239,380.352"/>
	<circle class="st7" cx="4200.505" cy="380.352" r="3.734"/>
	<rect x="3338.203" y="363.362" class="st91" width="65.729" height="65.729"/>
	<polygon class="st63" points="3375.682,394.797 3366.453,394.797 3367.882,388.197 3366.453,377.306 3371.186,375.702 
		3375.682,377.215 3374.181,388.115 	"/>
	<polygon class="st53" points="3375.682,394.797 3366.453,394.797 3367.882,388.197 3366.453,377.306 3371.186,375.702 
		3375.682,377.215 3374.181,388.115 	"/>
	<polygon class="st83" points="3375.682,394.797 3366.453,394.797 3367.882,388.197 3366.453,377.306 3371.186,375.702 
		3375.682,377.215 3374.181,388.115 	"/>
	<ellipse transform="matrix(1 0.006 -0.006 1 2.2708 -20.0573)" class="st83" cx="3371.179" cy="371.523" rx="2.092" ry="3.091"/>
	<polygon class="st83" points="3372.31,394.797 3375.682,394.797 3375.682,424.022 3373.316,424.022 3373.316,408.417 	"/>
	
		<rect x="3376.819" y="377.072" transform="matrix(-0.9947 0.1027 -0.1027 -0.9947 6777.2793 427.4035)" class="st83" width="1.636" height="22.179"/>
	<polygon class="st83" points="3369.824,394.797 3366.453,394.797 3366.453,424.022 3368.818,424.022 3368.818,408.417 	"/>
	
		<rect x="3363.68" y="377.162" transform="matrix(0.9947 0.1027 -0.1027 0.9947 57.6602 -343.4659)" class="st83" width="1.636" height="22.179"/>
	<path class="st63" d="M3401.932,447.311h-61.73v-16.504h61.73V447.311z M3403.932,428.807h-65.73v20.504h65.73V428.807z"/>
	<rect x="3419.146" y="363.363" class="st63" width="65.73" height="65.73"/>
	<polygon class="st91" points="3456.513,394.799 3447.284,394.799 3448.713,388.199 3447.284,377.305 3452.016,375.701 
		3456.513,377.217 3455.012,388.117 	"/>
	<polygon class="st56" points="3456.513,394.799 3447.284,394.799 3448.713,388.199 3447.284,377.305 3452.016,375.701 
		3456.513,377.217 3455.012,388.117 	"/>
	<polygon class="st29" points="3456.513,394.799 3447.284,394.799 3448.713,388.199 3447.284,377.305 3452.016,375.701 
		3456.513,377.217 3455.012,388.117 	"/>
	<ellipse transform="matrix(1 0.006 -0.006 1 2.2717 -20.5335)" class="st29" cx="3452.01" cy="371.525" rx="2.093" ry="3.091"/>
	<polygon class="st29" points="3453.14,394.799 3456.513,394.799 3456.513,424.024 3454.147,424.024 3454.147,408.418 	"/>
	
		<rect x="3457.65" y="377.074" transform="matrix(-0.9947 0.1027 -0.1027 -0.9947 6938.5127 419.1065)" class="st29" width="1.636" height="22.179"/>
	<polygon class="st29" points="3450.655,394.799 3447.285,394.799 3447.285,424.024 3449.648,424.024 3449.648,408.418 	"/>
	
		<rect x="3444.511" y="377.162" transform="matrix(0.9947 0.1026 -0.1026 0.9947 58.0425 -351.5593)" class="st29" width="1.637" height="22.181"/>
	<path class="st63" d="M3482.876,447.311h-61.73v-16.504h61.73V447.311z M3484.876,428.807h-65.73v20.504h65.73V428.807z"/>
	<line class="st98" x1="3448.446" y1="435.495" x2="3455.576" y2="442.624"/>
</g>
<g>
	<defs>
		<rect id="SVGID_5_" x="3257.04" width="1056" height="1056"/>
	</defs>
	<clipPath id="SVGID_20_">
		<use xlink:href="#SVGID_5_"  style="overflow:visible;"/>
	</clipPath>
	<rect x="3338.203" y="479.885" class="st38" width="65.729" height="65.729"/>
	<polygon class="st92" points="3375.682,511.319 3366.453,511.319 3367.882,504.721 3366.453,493.829 3371.186,492.223 
		3375.682,493.737 3374.181,504.639 	"/>
	<polygon class="st52" points="3375.682,511.319 3366.453,511.319 3367.882,504.721 3366.453,493.829 3371.186,492.223 
		3375.682,493.737 3374.181,504.639 	"/>
	<polygon class="st31" points="3375.682,511.319 3366.453,511.319 3367.882,504.721 3366.453,493.829 3371.186,492.223 
		3375.682,493.737 3374.181,504.639 	"/>
	<ellipse transform="matrix(1 0.006 -0.006 1 2.9641 -20.0552)" class="st31" cx="3371.179" cy="488.047" rx="2.092" ry="3.091"/>
	<polygon class="st31" points="3372.31,511.319 3375.682,511.319 3375.682,540.545 3373.316,540.545 3373.316,524.94 	"/>
	
		<rect x="3376.82" y="493.595" transform="matrix(-0.9948 0.1015 -0.1015 -0.9948 6789.0586 663.8854)" class="st31" width="1.635" height="22.179"/>
	<polygon class="st31" points="3369.824,511.319 3366.453,511.319 3366.453,540.545 3368.818,540.545 3368.818,524.94 	"/>
	
		<rect x="3363.68" y="493.685" transform="matrix(0.9946 0.1039 -0.1039 0.9946 70.6355 -346.7625)" class="st31" width="1.636" height="22.181"/>
	<path class="st38" d="M3401.932,563.832h-61.73v-16.504h61.73V563.832z M3403.932,545.328h-65.73v20.504h65.73V545.328z"/>
	<rect x="3419.146" y="479.886" class="st38" width="65.73" height="65.728"/>
	<polygon class="st92" points="3456.513,511.321 3447.284,511.321 3448.713,504.723 3447.284,493.829 3452.016,492.225 
		3456.513,493.741 3455.012,504.639 	"/>
	<polygon class="st52" points="3456.513,511.321 3447.284,511.321 3448.713,504.723 3447.284,493.829 3452.016,492.225 
		3456.513,493.741 3455.012,504.639 	"/>
	<polygon class="st31" points="3456.513,511.321 3447.284,511.321 3448.713,504.723 3447.284,493.829 3452.016,492.225 
		3456.513,493.741 3455.012,504.639 	"/>
	<ellipse transform="matrix(1 0.006 -0.006 1 2.9651 -20.5315)" class="st31" cx="3452.01" cy="488.047" rx="2.093" ry="3.093"/>
	<polygon class="st31" points="3453.14,511.321 3456.513,511.321 3456.513,540.547 3454.147,540.547 3454.147,524.942 	"/>
	
		<rect x="3457.65" y="493.597" transform="matrix(-0.9946 0.1039 -0.1039 -0.9946 6950.6514 647.3902)" class="st31" width="1.636" height="22.181"/>
	<polygon class="st31" points="3450.655,511.321 3447.285,511.321 3447.285,540.547 3449.648,540.547 3449.648,524.942 	"/>
	
		<rect x="3444.511" y="493.686" transform="matrix(0.9947 0.1026 -0.1026 0.9947 70.0017 -350.944)" class="st31" width="1.637" height="22.181"/>
	<path class="st38" d="M3482.876,563.834h-61.73V547.33h61.73V563.834z M3484.876,545.33h-65.73v20.504h65.73V545.33z"/>
</g>
<g>
	<defs>
		<rect id="SVGID_4_" x="3257.04" width="1056" height="1056"/>
	</defs>
	<clipPath id="SVGID_21_">
		<use xlink:href="#SVGID_4_"  style="overflow:visible;"/>
	</clipPath>
	<rect x="3338.203" y="596.408" class="st106" width="65.729" height="65.729"/>
	<polygon class="st93" points="3375.682,627.842 3366.453,627.842 3367.882,621.244 3366.453,610.35 3371.186,608.746 
		3375.682,610.26 3374.181,621.16 	"/>
	<polygon class="st23" points="3375.682,627.842 3366.453,627.842 3367.882,621.244 3366.453,610.35 3371.186,608.746 
		3375.682,610.26 3374.181,621.16 	"/>
	<polygon class="st21" points="3375.682,627.842 3366.453,627.842 3367.882,621.244 3366.453,610.35 3371.186,608.746 
		3375.682,610.26 3374.181,621.16 	"/>
	<ellipse transform="matrix(1 0.0056 -0.0056 1 3.4392 -18.8742)" class="st21" cx="3371.179" cy="604.568" rx="2.092" ry="3.092"/>
	<polygon class="st21" points="3372.31,627.842 3375.682,627.842 3375.682,657.068 3373.316,657.068 3373.316,641.463 	"/>
	
		<rect x="3376.819" y="610.117" transform="matrix(-0.9947 0.1027 -0.1027 -0.9947 6801.2119 892.2627)" class="st21" width="1.636" height="22.181"/>
	<polygon class="st21" points="3369.824,627.842 3366.453,627.842 3366.453,657.068 3368.818,657.068 3368.818,641.463 	"/>
	
		<rect x="3363.68" y="610.207" transform="matrix(0.9947 0.1027 -0.1027 0.9947 81.593 -342.2338)" class="st21" width="1.636" height="22.18"/>
	<path class="st106" d="M3401.932,680.355h-61.73v-16.505h61.73V680.355z M3403.932,661.852h-65.73v20.505h65.73V661.852z"/>
	<rect x="3419.146" y="596.409" class="st106" width="65.73" height="65.729"/>
	<polygon class="st93" points="3456.513,627.844 3447.284,627.844 3448.713,621.246 3447.284,610.352 3452.016,608.748 
		3456.513,610.264 3455.012,621.162 	"/>
	<polygon class="st23" points="3456.513,627.844 3447.284,627.844 3448.713,621.246 3447.284,610.352 3452.016,608.748 
		3456.513,610.264 3455.012,621.162 	"/>
	<polygon class="st21" points="3456.513,627.844 3447.284,627.844 3448.713,621.246 3447.284,610.352 3452.016,608.748 
		3456.513,610.264 3455.012,621.162 	"/>
	<ellipse transform="matrix(1 0.0061 -0.0061 1 3.7312 -20.9318)" class="st21" cx="3452.01" cy="604.569" rx="2.093" ry="3.093"/>
	<polygon class="st21" points="3453.14,627.844 3456.513,627.844 3456.513,657.071 3454.147,657.071 3454.147,641.465 	"/>
	
		<rect x="3457.65" y="610.12" transform="matrix(-0.9946 0.1039 -0.1039 -0.9946 6962.7554 879.8053)" class="st21" width="1.636" height="22.18"/>
	<polygon class="st21" points="3450.655,627.844 3447.285,627.844 3447.285,657.071 3449.648,657.071 3449.648,641.465 	"/>
	
		<rect x="3444.511" y="610.209" transform="matrix(0.9947 0.1026 -0.1026 0.9947 81.9612 -350.3286)" class="st21" width="1.637" height="22.181"/>
	<path class="st106" d="M3482.876,680.355h-61.73v-16.503h61.73V680.355z M3484.876,661.854h-65.73v20.503h65.73V661.854z"/>
	<polyline class="st67" points="3364.619,438.377 3368.07,441.829 3374.518,435.379 	"/>
	<line class="st67" x1="3448.333" y1="442.51" x2="3455.462" y2="435.381"/>
	<line class="st67" x1="3448.446" y1="552.018" x2="3455.576" y2="559.146"/>
	<line class="st67" x1="3448.333" y1="559.033" x2="3455.462" y2="551.904"/>
	<line class="st67" x1="3367.558" y1="552.018" x2="3374.688" y2="559.146"/>
	<line class="st67" x1="3367.444" y1="559.033" x2="3374.573" y2="551.904"/>
	<polyline class="st67" points="3364.619,671.422 3368.07,674.873 3374.518,668.426 	"/>
	<line class="st67" x1="3448.446" y1="668.539" x2="3455.576" y2="675.67"/>
	<line class="st67" x1="3448.333" y1="675.555" x2="3455.462" y2="668.426"/>
	<circle class="st14" cx="3898.677" cy="799.477" r="13.2"/>
	<line class="st14" x1="3890.294" y1="799.477" x2="3907.062" y2="799.477"/>
	<polyline class="st14" points="3902.67,803.859 3907.062,799.469 3902.67,795.089 	"/>
	<circle class="st14" cx="3671.768" cy="799.479" r="13.2"/>
	<line class="st14" x1="3680.152" y1="799.479" x2="3663.384" y2="799.479"/>
	<polyline class="st14" points="3667.775,795.096 3663.384,799.486 3667.775,803.869 	"/>
	<path class="st106" d="M4245.397,257.6c6.135,16.57-2.324,34.975-18.895,41.111c-16.568,6.135-34.975-2.326-41.107-18.894
		c-6.135-16.569,2.323-34.975,18.892-41.11C4220.856,232.573,4239.263,241.03,4245.397,257.6"/>
	<path class="st5" d="M4212.657,265.305c0,0.529-0.423,0.953-0.953,0.953c-0.593,0-0.975-0.381-0.975-0.953v-0.637
		c0-1.396-0.084-4.279-3.283-4.279h-4.388v4.916c0,0.529-0.445,0.953-0.975,0.953s-0.953-0.424-0.953-0.953v-12.969
		c0-0.529,0.424-0.974,0.953-0.974h4.938c4.025,0,5.763,1.863,5.763,4.301c0,1.632-0.911,3.201-2.775,3.836
		c2.353,0.613,2.647,3.644,2.647,4.83V265.305z M4210.856,255.811c0-1.568-0.931-2.629-4.067-2.629h-3.73v5.385h3.836
		C4209.268,258.567,4210.856,257.614,4210.856,255.811"/>
	<path class="st5" d="M4212.488,282.135c0,2.396-2.142,4.133-5.426,4.133c-2.118,0-3.815-0.488-5.043-1.016
		c-0.317-0.127-0.595-0.488-0.595-0.869c0-0.467,0.34-0.891,0.869-0.891c0.129,0,0.256,0.022,0.403,0.084
		c0.953,0.426,2.353,0.87,4.173,0.87c2.099,0,3.71-0.592,3.71-2.436c0-3.139-9.006-1.4-9.006-6.613c0-2.354,1.907-4.342,5.488-4.342
		c1.651,0,3.072,0.273,4.216,0.699c0.297,0.104,0.594,0.338,0.594,0.846c0,0.424-0.318,0.89-0.848,0.89
		c-0.105,0-0.232-0.043-0.338-0.084c-0.976-0.339-2.12-0.574-3.412-0.574c-2.141,0-3.771,0.828-3.771,2.418
		C4203.504,278.917,4212.488,276.542,4212.488,282.135"/>
	<path class="st5" d="M4232.341,258.756c-0.085,4.43-2.924,7.609-7.438,7.609c-4.536,0-7.353-3.179-7.439-7.609
		c0.087-4.428,2.903-7.607,7.439-7.607C4229.417,251.149,4232.256,254.328,4232.341,258.756 M4230.411,258.756
		c0-3.264-2.011-5.807-5.508-5.807c-3.519,0-5.512,2.543-5.512,5.807s1.993,5.807,5.512,5.807
		C4228.4,264.563,4230.411,262.021,4230.411,258.756"/>
	<path class="st5" d="M4230.085,285.167c0,0.51-0.403,0.891-0.911,0.891h-8.498c-0.53,0-0.955-0.424-0.955-0.953v-12.864
		c0-0.531,0.425-0.974,0.955-0.974h8.498c0.508,0,0.911,0.402,0.911,0.91c0,0.508-0.403,0.89-0.911,0.89h-7.524v4.682h6.762
		c0.508,0,0.911,0.404,0.911,0.912c0,0.508-0.403,0.891-0.911,0.891h-6.762v4.705h7.524
		C4229.682,284.256,4230.085,284.657,4230.085,285.167"/>
	<line class="st59" x1="3695.04" y1="263.25" x2="3875.04" y2="263.25"/>
</g>
<g>
	<defs>
		<rect id="SVGID_3_" x="3257.04" width="1056" height="1056"/>
	</defs>
	<clipPath id="SVGID_22_">
		<use xlink:href="#SVGID_3_"  style="overflow:visible;"/>
	</clipPath>
	<circle class="st88" cx="3745.085" cy="785.688" r="3.354"/>
	<circle class="st88" cx="3761.067" cy="785.688" r="3.354"/>
	<path class="st37" d="M3777.048,789.041c-1.852,0-3.352-1.502-3.352-3.354s1.5-3.354,3.352-3.354c1.854,0,3.354,1.502,3.354,3.354
		S3778.902,789.041,3777.048,789.041"/>
	<circle class="st82" cx="3777.048" cy="785.688" r="3.354"/>
	<circle class="st88" cx="3793.03" cy="785.688" r="3.354"/>
	<circle class="st88" cx="3809.011" cy="785.688" r="3.354"/>
	<circle class="st88" cx="3824.993" cy="785.688" r="3.354"/>
</g>
<g>
	<defs>
		<rect id="SVGID_2_" x="3257.04" width="1056" height="1056"/>
	</defs>
	<clipPath id="SVGID_23_">
		<use xlink:href="#SVGID_2_"  style="overflow:visible;"/>
	</clipPath>
	<line class="st44" x1="3785.04" y1="271.054" x2="3785.04" y2="154"/>
</g>
<g class="st90">
	<defs>
		<rect id="SVGID_1_" width="8645.261" height="2170.439"/>
	</defs>
	<clipPath id="SVGID_24_" class="st62">
		<use xlink:href="#SVGID_1_"  style="display:none;overflow:visible;"/>
	</clipPath>
	<path class="st18" d="M4213.031,1056h57.009V0h-57.009V1056z M4130.049,1056h56.979V0h-56.979V1056z M4047.038,1056h57.008V0
		h-57.008V1056z M3964.054,1056h56.981V0h-56.981V1056z M3881.044,1056h57.009V0h-57.009V1056z M3798.033,1056h57.008V0h-57.008
		V1056z M3715.05,1056h56.98V0h-56.98V1056z M3632.039,1056h57.008V0h-57.008V1056z M3549.028,1056h57.008V0h-57.008V1056z
		 M3466.046,1056h56.98V0h-56.98V1056z M3383.034,1056h57.008V0h-57.008V1056z M3300.052,1056h56.979V0h-56.979V1056z"/>
</g>
<polygon id="XPath_1_" class="st3" points="3544.048,922.685 3541.184,919.821 3543.934,917.071 3542.305,915.442 3539.555,918.192 
	3536.918,915.556 3535.289,917.185 3537.926,919.821 3535.176,922.571 3536.805,924.2 3539.555,921.45 3542.419,924.313 "/>
</svg>
